G04 Layer_Physical_Order=2*
G04 Layer_Color=16711680*
%FSLAX44Y44*%
%MOMM*%
G71*
G01*
G75*
%ADD10C,0.5000*%
%ADD13C,1.2000*%
%ADD14O,2.5000X1.2000*%
%ADD15R,2.5000X1.2000*%
%ADD16O,1.2000X2.5000*%
%ADD17R,1.2000X2.5000*%
%ADD18C,1.5240*%
%ADD19R,1.5240X1.5240*%
%ADD20R,1.5240X1.5240*%
%ADD21R,2.5000X2.0000*%
%ADD22O,2.5000X2.0000*%
%ADD23C,1.8000*%
%ADD24C,2.0000*%
G36*
X1369240Y711493D02*
X1370609Y709709D01*
X1372393Y708340D01*
X1374471Y707480D01*
X1376700Y707186D01*
X1389700D01*
X1391929Y707480D01*
X1394007Y708340D01*
X1395791Y709709D01*
X1396521Y710661D01*
X1480321D01*
X1550611Y640371D01*
Y558879D01*
X1548580Y556847D01*
X1547310Y557373D01*
Y576160D01*
X1542289D01*
Y641600D01*
X1541898Y643567D01*
X1540784Y645234D01*
X1491984Y694034D01*
X1490316Y695148D01*
X1488350Y695539D01*
X1396521D01*
X1395791Y696491D01*
X1394007Y697860D01*
X1391929Y698720D01*
X1389700Y699014D01*
X1376700D01*
X1374471Y698720D01*
X1372393Y697860D01*
X1370609Y696491D01*
X1369240Y694707D01*
X1368909Y693906D01*
X1367639Y694159D01*
Y712041D01*
X1368909Y712294D01*
X1369240Y711493D01*
D02*
G37*
G36*
X883154Y910579D02*
X882560Y909376D01*
X882200Y909424D01*
X879971Y909130D01*
X877893Y908270D01*
X876109Y906901D01*
X874740Y905117D01*
X873880Y903039D01*
X873586Y900810D01*
Y887810D01*
X873772Y886402D01*
X872569Y885808D01*
X865414Y892964D01*
Y900810D01*
X865120Y903039D01*
X864260Y905117D01*
X862891Y906901D01*
X861107Y908270D01*
X859029Y909130D01*
X856800Y909424D01*
X854571Y909130D01*
X852493Y908270D01*
X850709Y906901D01*
X849340Y905117D01*
X848480Y903039D01*
X848186Y900810D01*
Y887810D01*
X848480Y885581D01*
X849340Y883503D01*
X850709Y881719D01*
X852493Y880350D01*
X854571Y879490D01*
X856800Y879196D01*
X859029Y879490D01*
X861107Y880350D01*
X862457Y881386D01*
X870219Y873624D01*
X869971Y872378D01*
X867473Y871344D01*
X862590Y870372D01*
X860100Y870250D01*
X827000D01*
Y857500D01*
X876602D01*
X881509Y858476D01*
X884237Y859606D01*
X991861Y751982D01*
Y741419D01*
X990591Y740988D01*
X989891Y741901D01*
X988107Y743270D01*
X986029Y744130D01*
X983800Y744424D01*
X981571Y744130D01*
X979493Y743270D01*
X977709Y741901D01*
X976340Y740117D01*
X975480Y738039D01*
X975186Y735810D01*
Y722810D01*
X975480Y720581D01*
X976340Y718503D01*
X977709Y716719D01*
X979493Y715350D01*
X981571Y714490D01*
X983800Y714196D01*
X986029Y714490D01*
X988107Y715350D01*
X989891Y716719D01*
X990591Y717632D01*
X991861Y717201D01*
Y712500D01*
X992252Y710534D01*
X993366Y708866D01*
X1004061Y698171D01*
Y687863D01*
X1001954Y686246D01*
X1000325Y684124D01*
X999302Y681652D01*
X998952Y679000D01*
X999302Y676348D01*
X1000325Y673876D01*
X1001954Y671754D01*
X1004061Y670137D01*
Y665329D01*
X990209Y651476D01*
X988939Y652002D01*
Y670137D01*
X991046Y671754D01*
X992675Y673876D01*
X993699Y676348D01*
X994048Y679000D01*
X993699Y681652D01*
X992675Y684124D01*
X991046Y686246D01*
X988924Y687875D01*
X986452Y688898D01*
X983800Y689248D01*
X981148Y688898D01*
X978676Y687875D01*
X976554Y686246D01*
X974925Y684124D01*
X973902Y681652D01*
X973552Y679000D01*
X973902Y676348D01*
X974925Y673876D01*
X976554Y671754D01*
X978661Y670137D01*
Y644428D01*
X842668Y508436D01*
X842507Y508560D01*
X840429Y509420D01*
X838200Y509714D01*
X825200D01*
X822971Y509420D01*
X820893Y508560D01*
X819109Y507191D01*
X817740Y505407D01*
X816880Y503329D01*
X816659Y501650D01*
X815389Y501733D01*
Y525867D01*
X816659Y525950D01*
X816676Y525817D01*
X816880Y524271D01*
X817740Y522193D01*
X819109Y520409D01*
X820893Y519040D01*
X822971Y518180D01*
X825200Y517886D01*
X838200D01*
X840429Y518180D01*
X842507Y519040D01*
X844291Y520409D01*
X845660Y522193D01*
X845768Y522455D01*
X846384Y522866D01*
X962034Y638516D01*
X963148Y640183D01*
X963539Y642150D01*
Y670137D01*
X965646Y671754D01*
X967275Y673876D01*
X968298Y676348D01*
X968648Y679000D01*
X968298Y681652D01*
X967275Y684124D01*
X965646Y686246D01*
X963524Y687875D01*
X961052Y688898D01*
X958400Y689248D01*
X955748Y688898D01*
X953276Y687875D01*
X951154Y686246D01*
X949525Y684124D01*
X948502Y681652D01*
X948152Y679000D01*
X948502Y676348D01*
X949525Y673876D01*
X951154Y671754D01*
X953261Y670137D01*
Y644278D01*
X842753Y533770D01*
X842507Y533960D01*
X840429Y534820D01*
X838200Y535114D01*
X825200D01*
X822971Y534820D01*
X820893Y533960D01*
X819109Y532591D01*
X817740Y530807D01*
X816880Y528729D01*
X816676Y527183D01*
X816659Y527050D01*
X815389Y527133D01*
Y551267D01*
X816659Y551350D01*
X816880Y549671D01*
X817740Y547593D01*
X819109Y545809D01*
X820893Y544440D01*
X822971Y543580D01*
X825200Y543286D01*
X838200D01*
X840429Y543580D01*
X842507Y544440D01*
X844291Y545809D01*
X845021Y546761D01*
X846400D01*
X848366Y547152D01*
X850034Y548266D01*
X855384Y553616D01*
X856498Y555284D01*
X856889Y557250D01*
Y608500D01*
X856498Y610466D01*
X855384Y612134D01*
X846134Y621384D01*
X844466Y622498D01*
X842500Y622889D01*
X813878D01*
X799889Y636879D01*
Y676122D01*
X805536Y681769D01*
X806739Y681175D01*
X806452Y679000D01*
X806802Y676348D01*
X807825Y673876D01*
X809454Y671754D01*
X811576Y670125D01*
X814048Y669101D01*
X815457Y668916D01*
X815912Y667575D01*
X815866Y667530D01*
X814752Y665863D01*
X814361Y663896D01*
Y663760D01*
X806540D01*
Y643440D01*
X826860D01*
Y663760D01*
X826860Y663760D01*
X826860D01*
X827571Y664700D01*
X832994Y670122D01*
X833697Y671175D01*
X833961Y671307D01*
X835196Y671454D01*
X835278Y671429D01*
X836976Y670125D01*
X839448Y669101D01*
X842100Y668752D01*
X844752Y669101D01*
X847224Y670125D01*
X849346Y671754D01*
X850975Y673876D01*
X851999Y676348D01*
X852348Y679000D01*
X851999Y681652D01*
X850975Y684124D01*
X849346Y686246D01*
X847224Y687875D01*
X844752Y688898D01*
X842100Y689248D01*
X839448Y688898D01*
X838618Y688555D01*
X837899Y689632D01*
X860434Y712166D01*
X861431Y713659D01*
X862135Y713637D01*
X862701Y713448D01*
Y688009D01*
X862376Y687875D01*
X860254Y686246D01*
X858625Y684124D01*
X857601Y681652D01*
X857252Y679000D01*
X857601Y676348D01*
X858625Y673876D01*
X860254Y671754D01*
X862376Y670125D01*
X864848Y669101D01*
X867500Y668752D01*
X870152Y669101D01*
X872624Y670125D01*
X873831Y671052D01*
X875101Y670425D01*
Y668468D01*
X870134Y663501D01*
X867500Y663848D01*
X864848Y663499D01*
X862376Y662475D01*
X860254Y660846D01*
X858625Y658724D01*
X857601Y656252D01*
X857252Y653600D01*
X857601Y650948D01*
X858625Y648476D01*
X860254Y646354D01*
X861811Y645159D01*
X861380Y643889D01*
X859079D01*
X852001Y650966D01*
X852348Y653600D01*
X851999Y656252D01*
X850975Y658724D01*
X849346Y660846D01*
X847224Y662475D01*
X844752Y663499D01*
X842100Y663848D01*
X839448Y663499D01*
X836976Y662475D01*
X834854Y660846D01*
X833225Y658724D01*
X832202Y656252D01*
X831852Y653600D01*
X832202Y650948D01*
X833225Y648476D01*
X834854Y646354D01*
X836976Y644725D01*
X839448Y643701D01*
X842100Y643352D01*
X844734Y643699D01*
X853316Y635116D01*
X854984Y634002D01*
X856950Y633611D01*
X895954D01*
X897921Y634002D01*
X899588Y635116D01*
X909194Y644722D01*
X909897Y645775D01*
X910161Y645907D01*
X911396Y646054D01*
X911478Y646029D01*
X913176Y644725D01*
X915648Y643701D01*
X918300Y643352D01*
X920952Y643701D01*
X923424Y644725D01*
X925546Y646354D01*
X927175Y648476D01*
X928198Y650948D01*
X928548Y653600D01*
X928201Y656234D01*
X936384Y664416D01*
X937498Y666084D01*
X937889Y668050D01*
Y715797D01*
X939091Y716719D01*
X940460Y718503D01*
X941320Y720581D01*
X941614Y722810D01*
Y735810D01*
X941320Y738039D01*
X940460Y740117D01*
X939091Y741901D01*
X937307Y743270D01*
X935229Y744130D01*
X933000Y744424D01*
X930771Y744130D01*
X928693Y743270D01*
X926909Y741901D01*
X925540Y740117D01*
X924680Y738039D01*
X924386Y735810D01*
Y722810D01*
X924680Y720581D01*
X925540Y718503D01*
X926909Y716719D01*
X927611Y716180D01*
Y685641D01*
X926341Y685210D01*
X925546Y686246D01*
X923424Y687875D01*
X920952Y688898D01*
X918300Y689248D01*
X915648Y688898D01*
X913176Y687875D01*
X911969Y686948D01*
X910699Y687575D01*
Y714850D01*
X911907Y715350D01*
X913691Y716719D01*
X915060Y718503D01*
X915920Y720581D01*
X916214Y722810D01*
Y735810D01*
X915920Y738039D01*
X915060Y740117D01*
X913691Y741901D01*
X911907Y743270D01*
X909829Y744130D01*
X907600Y744424D01*
X905371Y744130D01*
X903293Y743270D01*
X901509Y741901D01*
X900140Y740117D01*
X899280Y738039D01*
X898986Y735810D01*
Y722810D01*
X899280Y720581D01*
X900140Y718503D01*
X900421Y718137D01*
Y687636D01*
X899151Y687010D01*
X898024Y687875D01*
X895552Y688898D01*
X892900Y689248D01*
X890248Y688898D01*
X887776Y687875D01*
X886659Y687017D01*
X885389Y687644D01*
Y714887D01*
X886507Y715350D01*
X888291Y716719D01*
X889660Y718503D01*
X890520Y720581D01*
X890814Y722810D01*
Y735810D01*
X890520Y738039D01*
X889660Y740117D01*
X888291Y741901D01*
X886507Y743270D01*
X884429Y744130D01*
X882200Y744424D01*
X879971Y744130D01*
X877893Y743270D01*
X876109Y741901D01*
X874740Y740117D01*
X874249Y738930D01*
X872979Y739183D01*
Y803160D01*
X872588Y805126D01*
X871474Y806794D01*
X824639Y853628D01*
Y880633D01*
X825909Y881259D01*
X827093Y880350D01*
X829171Y879490D01*
X831400Y879196D01*
X833629Y879490D01*
X835707Y880350D01*
X837491Y881719D01*
X838860Y883503D01*
X839720Y885581D01*
X840014Y887810D01*
Y900810D01*
X839720Y903039D01*
X839087Y904569D01*
X846378Y911861D01*
X881871D01*
X883154Y910579D01*
D02*
G37*
G36*
X885500Y966823D02*
Y922841D01*
X884518Y922036D01*
X884000Y922139D01*
X844250D01*
X842283Y921748D01*
X840616Y920634D01*
X829072Y909089D01*
X827093Y908270D01*
X827049Y908236D01*
X826210Y909193D01*
X884327Y967309D01*
X885500Y966823D01*
D02*
G37*
G36*
X846611Y572147D02*
Y559379D01*
X845166Y557933D01*
X844291Y557991D01*
X842507Y559360D01*
X840429Y560220D01*
X838200Y560514D01*
X825200D01*
X822971Y560220D01*
X820893Y559360D01*
X819109Y557991D01*
X817740Y556207D01*
X816880Y554129D01*
X816659Y552450D01*
X815389Y552533D01*
Y557371D01*
X826704Y568686D01*
X838200D01*
X840429Y568980D01*
X842507Y569840D01*
X844291Y571209D01*
X845341Y572578D01*
X846611Y572147D01*
D02*
G37*
G36*
X1131893Y620000D02*
X1133971Y619140D01*
X1136200Y618846D01*
X1137608Y619032D01*
X1138202Y617829D01*
X1093866Y573494D01*
X1092752Y571827D01*
X1092589Y571006D01*
X1092203Y570775D01*
X1091207Y570568D01*
X1089707Y571720D01*
X1087629Y572580D01*
X1085400Y572874D01*
X1083839Y572668D01*
X1082874Y573764D01*
X1082956Y574002D01*
X1084624Y575116D01*
X1130543Y621036D01*
X1131893Y620000D01*
D02*
G37*
G36*
X1182693D02*
X1184771Y619140D01*
X1187000Y618846D01*
X1188408Y619032D01*
X1189002Y617829D01*
X1145366Y574194D01*
X1144252Y572527D01*
X1143861Y570560D01*
Y570390D01*
X1142591Y569959D01*
X1142291Y570351D01*
X1140507Y571720D01*
X1138429Y572580D01*
X1136200Y572874D01*
X1134792Y572688D01*
X1134198Y573891D01*
X1181343Y621036D01*
X1182693Y620000D01*
D02*
G37*
G36*
X1106493D02*
X1108571Y619140D01*
X1110800Y618846D01*
X1112208Y619032D01*
X1112802Y617829D01*
X1078579Y583606D01*
X1078034Y583498D01*
X1076366Y582384D01*
X1069616Y575634D01*
X1068502Y573966D01*
X1068111Y572000D01*
Y569804D01*
X1066841Y569373D01*
X1066091Y570351D01*
X1064307Y571720D01*
X1062229Y572580D01*
X1060000Y572874D01*
X1058592Y572688D01*
X1057998Y573891D01*
X1105143Y621036D01*
X1106493Y620000D01*
D02*
G37*
G36*
X1593250Y285000D02*
X384000Y285000D01*
Y416750D01*
X557766D01*
X558252Y415577D01*
X554402Y411726D01*
X553216Y412217D01*
X549943Y412648D01*
X546669Y412217D01*
X543618Y410954D01*
X540999Y408944D01*
X538989Y406324D01*
X537725Y403274D01*
X537294Y400000D01*
X537725Y396726D01*
X538989Y393676D01*
X540999Y391056D01*
X543618Y389046D01*
X546669Y387783D01*
X549943Y387352D01*
X553216Y387783D01*
X556267Y389046D01*
X558886Y391056D01*
X560896Y393676D01*
X562160Y396726D01*
X562591Y400000D01*
X562160Y403274D01*
X561669Y404459D01*
X573960Y416750D01*
X687233D01*
X713861Y390121D01*
Y343250D01*
X714252Y341283D01*
X715366Y339616D01*
X745196Y309787D01*
X744670Y308517D01*
X723502D01*
X723437Y308724D01*
X721663Y311508D01*
X719229Y313739D01*
X716300Y315264D01*
X713076Y315978D01*
X709778Y315834D01*
X706629Y314841D01*
X703844Y313067D01*
X701613Y310633D01*
X700089Y307704D01*
X699374Y304480D01*
X699518Y301182D01*
X700511Y298033D01*
X702285Y295248D01*
X704719Y293017D01*
X707648Y291493D01*
X710872Y290778D01*
X714170Y290922D01*
X717319Y291915D01*
X720104Y293689D01*
X722335Y296123D01*
X723436Y298239D01*
X1477128D01*
X1479095Y298631D01*
X1480762Y299744D01*
X1529383Y348366D01*
X1530497Y350033D01*
X1530889Y352000D01*
Y475500D01*
X1530497Y477467D01*
X1529383Y479134D01*
X1514144Y494374D01*
X1512477Y495488D01*
X1510510Y495879D01*
X1500561D01*
X1499831Y496831D01*
X1498047Y498200D01*
X1495969Y499060D01*
X1493740Y499354D01*
X1491511Y499060D01*
X1489433Y498200D01*
X1487649Y496831D01*
X1486919Y495879D01*
X1442700D01*
Y503280D01*
X1414957D01*
X1414471Y504453D01*
X1458219Y548201D01*
X1466194D01*
X1468161Y548592D01*
X1469828Y549706D01*
X1476802Y556681D01*
X1477134Y556902D01*
X1477244Y557012D01*
X1477986Y558124D01*
X1478207Y558248D01*
X1479413Y558430D01*
X1479576Y558391D01*
X1481226Y557125D01*
X1483698Y556101D01*
X1486350Y555752D01*
X1489002Y556101D01*
X1491474Y557125D01*
X1493596Y558754D01*
X1495225Y560876D01*
X1496248Y563348D01*
X1496598Y566000D01*
X1496248Y568652D01*
X1495225Y571124D01*
X1493596Y573246D01*
X1491489Y574863D01*
Y587472D01*
X1500310Y596293D01*
X1501500Y596136D01*
X1503729Y596430D01*
X1505807Y597290D01*
X1507591Y598659D01*
X1508960Y600443D01*
X1509820Y602521D01*
X1510114Y604750D01*
X1509820Y606979D01*
X1508960Y609057D01*
X1507591Y610841D01*
X1505807Y612210D01*
X1503729Y613070D01*
X1501500Y613364D01*
X1499271Y613070D01*
X1497193Y612210D01*
X1495409Y610841D01*
X1494040Y609057D01*
X1493180Y606979D01*
X1492886Y604750D01*
X1493043Y603560D01*
X1482716Y593234D01*
X1481602Y591567D01*
X1481211Y589600D01*
Y574863D01*
X1480019Y573948D01*
X1478749Y574575D01*
Y611890D01*
X1478358Y613857D01*
X1477244Y615524D01*
X1424134Y668634D01*
X1422466Y669748D01*
X1420500Y670139D01*
X1396521D01*
X1395791Y671091D01*
X1394007Y672460D01*
X1391929Y673320D01*
X1389700Y673614D01*
X1376700D01*
X1374471Y673320D01*
X1372393Y672460D01*
X1370609Y671091D01*
X1369240Y669307D01*
X1368909Y668506D01*
X1367639Y668759D01*
Y686641D01*
X1368909Y686894D01*
X1369240Y686093D01*
X1370609Y684309D01*
X1372393Y682940D01*
X1374471Y682080D01*
X1376700Y681786D01*
X1389700D01*
X1391929Y682080D01*
X1394007Y682940D01*
X1395791Y684309D01*
X1396521Y685261D01*
X1486221D01*
X1532011Y639472D01*
Y576160D01*
X1526990D01*
Y556159D01*
X1526990Y555840D01*
X1526221Y554889D01*
X1524879D01*
X1519872Y559895D01*
X1520625Y560876D01*
X1521649Y563348D01*
X1521998Y566000D01*
X1521649Y568652D01*
X1520625Y571124D01*
X1518996Y573246D01*
X1516874Y574875D01*
X1514402Y575899D01*
X1511750Y576248D01*
X1509098Y575899D01*
X1506626Y574875D01*
X1504504Y573246D01*
X1502875Y571124D01*
X1501852Y568652D01*
X1501502Y566000D01*
X1501852Y563348D01*
X1502875Y560876D01*
X1504504Y558754D01*
X1506626Y557125D01*
X1509098Y556101D01*
X1509136Y556096D01*
X1519116Y546116D01*
X1520784Y545002D01*
X1522750Y544611D01*
X1548750D01*
X1550717Y545002D01*
X1552384Y546116D01*
X1559384Y553116D01*
X1560498Y554784D01*
X1560889Y556750D01*
Y642500D01*
X1560498Y644466D01*
X1559384Y646134D01*
X1486084Y719434D01*
X1484417Y720548D01*
X1482450Y720939D01*
X1396521D01*
X1395791Y721891D01*
X1394007Y723260D01*
X1391929Y724120D01*
X1389700Y724414D01*
X1376700D01*
X1374471Y724120D01*
X1372393Y723260D01*
X1370609Y721891D01*
X1369240Y720107D01*
X1368909Y719306D01*
X1367639Y719559D01*
Y737441D01*
X1368909Y737694D01*
X1369240Y736893D01*
X1370609Y735109D01*
X1372393Y733740D01*
X1374471Y732880D01*
X1376700Y732586D01*
X1389700D01*
X1391929Y732880D01*
X1394007Y733740D01*
X1395791Y735109D01*
X1396521Y736061D01*
X1461450D01*
X1463416Y736452D01*
X1465084Y737566D01*
X1494688Y767171D01*
X1495861Y766685D01*
Y763188D01*
X1495409Y762841D01*
X1494040Y761057D01*
X1493180Y758979D01*
X1492886Y756750D01*
X1493180Y754521D01*
X1494040Y752443D01*
X1495409Y750659D01*
X1497193Y749290D01*
X1499271Y748430D01*
X1501500Y748136D01*
X1503729Y748430D01*
X1505807Y749290D01*
X1507591Y750659D01*
X1508960Y752443D01*
X1509820Y754521D01*
X1510114Y756750D01*
X1509820Y758979D01*
X1508960Y761057D01*
X1507591Y762841D01*
X1506139Y763955D01*
Y773929D01*
X1507091Y774659D01*
X1508460Y776443D01*
X1509320Y778521D01*
X1509614Y780750D01*
X1509320Y782979D01*
X1508460Y785057D01*
X1507091Y786841D01*
X1505307Y788210D01*
X1503229Y789070D01*
X1501000Y789364D01*
X1498771Y789070D01*
X1496693Y788210D01*
X1494909Y786841D01*
X1493540Y785057D01*
X1492680Y782979D01*
X1492386Y780750D01*
X1492543Y779560D01*
X1459321Y746339D01*
X1447023D01*
X1446939Y747609D01*
X1447479Y747680D01*
X1449557Y748540D01*
X1451341Y749909D01*
X1452710Y751693D01*
X1453570Y753771D01*
X1453864Y756000D01*
X1453570Y758229D01*
X1452710Y760307D01*
X1451341Y762091D01*
X1450889Y762438D01*
Y774679D01*
X1451841Y775409D01*
X1453210Y777193D01*
X1454070Y779271D01*
X1454364Y781500D01*
X1454070Y783729D01*
X1453210Y785807D01*
X1451841Y787591D01*
X1450057Y788960D01*
X1447979Y789820D01*
X1445750Y790114D01*
X1443521Y789820D01*
X1441443Y788960D01*
X1439659Y787591D01*
X1438290Y785807D01*
X1437430Y783729D01*
X1437136Y781500D01*
X1437293Y780310D01*
X1428721Y771739D01*
X1396521D01*
X1395791Y772691D01*
X1394943Y773341D01*
X1395374Y774611D01*
X1400250D01*
X1402216Y775002D01*
X1403884Y776116D01*
X1430384Y802616D01*
X1431498Y804284D01*
X1431889Y806250D01*
Y865000D01*
X1431498Y866966D01*
X1430384Y868634D01*
X1393434Y905583D01*
X1394154Y906660D01*
X1395071Y906280D01*
X1397300Y905986D01*
X1410300D01*
X1412529Y906280D01*
X1414607Y907140D01*
X1416391Y908509D01*
X1417760Y910293D01*
X1418620Y912371D01*
X1418914Y914600D01*
X1418620Y916829D01*
X1417760Y918907D01*
X1416391Y920691D01*
X1414607Y922060D01*
X1412529Y922920D01*
X1410300Y923214D01*
X1397300D01*
X1395071Y922920D01*
X1392993Y922060D01*
X1391209Y920691D01*
X1390479Y919739D01*
X1344529D01*
X1334639Y929629D01*
Y951621D01*
X1340706Y957689D01*
X1341943Y956740D01*
X1344021Y955880D01*
X1346250Y955586D01*
X1359250D01*
X1361479Y955880D01*
X1363557Y956740D01*
X1365341Y958109D01*
X1366710Y959893D01*
X1367570Y961971D01*
X1367864Y964200D01*
X1367570Y966429D01*
X1366710Y968507D01*
X1365341Y970291D01*
X1363557Y971660D01*
X1361479Y972520D01*
X1359250Y972814D01*
X1346250D01*
X1344021Y972520D01*
X1341943Y971660D01*
X1340159Y970291D01*
X1339335Y969216D01*
X1337984Y968948D01*
X1336316Y967834D01*
X1325866Y957384D01*
X1324752Y955716D01*
X1324361Y953750D01*
Y927500D01*
X1324752Y925534D01*
X1325866Y923866D01*
X1337824Y911909D01*
X1337298Y910639D01*
X1274878D01*
X1254634Y930884D01*
X1252967Y931998D01*
X1251000Y932389D01*
X1237500D01*
X1235534Y931998D01*
X1233866Y930884D01*
X1220866Y917884D01*
X1219752Y916217D01*
X1219361Y914250D01*
Y907740D01*
X1218091Y907207D01*
X1216707Y908270D01*
X1214629Y909130D01*
X1212400Y909424D01*
X1212212Y909399D01*
X1211619Y910602D01*
X1260079Y959061D01*
X1263229D01*
X1263959Y958109D01*
X1265743Y956740D01*
X1267821Y955880D01*
X1270050Y955586D01*
X1283050D01*
X1285279Y955880D01*
X1287357Y956740D01*
X1289141Y958109D01*
X1290510Y959893D01*
X1291370Y961971D01*
X1291664Y964200D01*
X1291370Y966429D01*
X1290510Y968507D01*
X1289141Y970291D01*
X1287357Y971660D01*
X1285279Y972520D01*
X1283050Y972814D01*
X1270050D01*
X1267821Y972520D01*
X1265743Y971660D01*
X1263959Y970291D01*
X1263229Y969339D01*
X1257950D01*
X1255984Y968948D01*
X1254316Y967834D01*
X1196366Y909884D01*
X1195252Y908216D01*
X1194929Y906591D01*
X1194033Y906249D01*
X1193591Y906249D01*
X1193091Y906901D01*
X1191307Y908270D01*
X1189229Y909130D01*
X1187000Y909424D01*
X1184771Y909130D01*
X1182693Y908270D01*
X1180909Y906901D01*
X1179540Y905117D01*
X1178680Y903039D01*
X1178386Y900810D01*
Y887810D01*
X1178680Y885581D01*
X1179540Y883503D01*
X1180909Y881719D01*
X1182693Y880350D01*
X1184771Y879490D01*
X1187000Y879196D01*
X1188305Y879368D01*
X1188898Y878165D01*
X1187522Y876789D01*
X1040979D01*
X1039739Y878028D01*
Y880989D01*
X1040691Y881719D01*
X1042060Y883503D01*
X1042920Y885581D01*
X1043214Y887810D01*
Y900810D01*
X1042920Y903039D01*
X1042060Y905117D01*
X1040691Y906901D01*
X1039739Y907631D01*
Y915400D01*
X1039348Y917366D01*
X1038234Y919034D01*
X1026639Y930629D01*
Y972609D01*
X1027909Y973040D01*
X1028009Y972909D01*
X1029793Y971540D01*
X1031871Y970680D01*
X1034100Y970386D01*
X1036329Y970680D01*
X1038407Y971540D01*
X1040191Y972909D01*
X1041560Y974693D01*
X1042420Y976771D01*
X1042714Y979000D01*
Y992000D01*
X1042420Y994229D01*
X1041560Y996307D01*
X1040191Y998091D01*
X1039239Y998821D01*
Y1011650D01*
X1038848Y1013616D01*
X1037734Y1015284D01*
X1025889Y1027129D01*
Y1049787D01*
X1027159Y1050218D01*
X1028009Y1049109D01*
X1029793Y1047740D01*
X1031871Y1046880D01*
X1034100Y1046586D01*
X1036329Y1046880D01*
X1038407Y1047740D01*
X1040191Y1049109D01*
X1041560Y1050893D01*
X1042051Y1052080D01*
X1043321Y1051827D01*
Y1050627D01*
X1043712Y1048661D01*
X1044826Y1046993D01*
X1054361Y1037459D01*
Y998821D01*
X1053409Y998091D01*
X1052040Y996307D01*
X1051180Y994229D01*
X1050886Y992000D01*
Y979000D01*
X1051180Y976771D01*
X1052040Y974693D01*
X1053409Y972909D01*
X1055193Y971540D01*
X1057271Y970680D01*
X1059500Y970386D01*
X1061729Y970680D01*
X1063807Y971540D01*
X1065591Y972909D01*
X1066960Y974693D01*
X1067820Y976771D01*
X1068114Y979000D01*
Y992000D01*
X1067820Y994229D01*
X1066960Y996307D01*
X1065591Y998091D01*
X1064639Y998821D01*
Y1039587D01*
X1064248Y1041554D01*
X1063134Y1043221D01*
X1060752Y1045602D01*
X1061160Y1046805D01*
X1061729Y1046880D01*
X1063807Y1047740D01*
X1065591Y1049109D01*
X1066960Y1050893D01*
X1067820Y1052971D01*
X1068114Y1055200D01*
Y1068200D01*
X1067820Y1070429D01*
X1066960Y1072507D01*
X1065591Y1074291D01*
X1063807Y1075660D01*
X1061729Y1076520D01*
X1059500Y1076814D01*
X1057271Y1076520D01*
X1055193Y1075660D01*
X1054738Y1075310D01*
X1053599Y1075872D01*
Y1077290D01*
X1053208Y1079257D01*
X1052094Y1080924D01*
X1045039Y1087979D01*
Y1183637D01*
X1047146Y1185254D01*
X1048775Y1187376D01*
X1049799Y1189848D01*
X1050148Y1192500D01*
X1049799Y1195152D01*
X1048775Y1197624D01*
X1047146Y1199746D01*
X1045024Y1201375D01*
X1042552Y1202399D01*
X1039900Y1202748D01*
X1037248Y1202399D01*
X1034776Y1201375D01*
X1032654Y1199746D01*
X1031025Y1197624D01*
X1030002Y1195152D01*
X1029652Y1192500D01*
X1030002Y1189848D01*
X1031025Y1187376D01*
X1032654Y1185254D01*
X1034761Y1183637D01*
Y1085850D01*
X1035152Y1083884D01*
X1036266Y1082216D01*
X1043321Y1075162D01*
Y1071573D01*
X1042051Y1071320D01*
X1041560Y1072507D01*
X1040191Y1074291D01*
X1038407Y1075660D01*
X1036329Y1076520D01*
X1034100Y1076814D01*
X1031871Y1076520D01*
X1029793Y1075660D01*
X1028009Y1074291D01*
X1027159Y1073183D01*
X1025889Y1073614D01*
Y1186250D01*
X1025498Y1188216D01*
X1024660Y1189470D01*
Y1202660D01*
X1004340D01*
Y1182340D01*
X1015611D01*
Y1075216D01*
X1014341Y1074636D01*
X1013007Y1075660D01*
X1010929Y1076520D01*
X1008700Y1076814D01*
X1006471Y1076520D01*
X1004393Y1075660D01*
X1002609Y1074291D01*
X1001240Y1072507D01*
X1000380Y1070429D01*
X1000086Y1068200D01*
Y1055200D01*
X1000380Y1052971D01*
X1001240Y1050893D01*
X1002609Y1049109D01*
X1004393Y1047740D01*
X1006471Y1046880D01*
X1008700Y1046586D01*
X1010929Y1046880D01*
X1013007Y1047740D01*
X1014341Y1048764D01*
X1015611Y1048184D01*
Y1025000D01*
X1016002Y1023034D01*
X1017116Y1021366D01*
X1028961Y1009521D01*
Y998821D01*
X1028009Y998091D01*
X1027909Y997960D01*
X1026639Y998391D01*
Y1003500D01*
X1026248Y1005467D01*
X1025134Y1007134D01*
X1007134Y1025134D01*
X1005467Y1026248D01*
X1003500Y1026639D01*
X940378D01*
X928457Y1038560D01*
X928614Y1039750D01*
X928320Y1041979D01*
X927460Y1044057D01*
X926091Y1045841D01*
X924307Y1047210D01*
X922229Y1048070D01*
X920000Y1048364D01*
X918810Y1048207D01*
X917689Y1049329D01*
Y1075887D01*
X919796Y1077504D01*
X921425Y1079626D01*
X922449Y1082098D01*
X922798Y1084750D01*
X922449Y1087402D01*
X921425Y1089874D01*
X919796Y1091996D01*
X917689Y1093613D01*
Y1146885D01*
X918862Y1147371D01*
X935366Y1130866D01*
X937033Y1129752D01*
X939000Y1129361D01*
X942679D01*
X943409Y1128409D01*
X945193Y1127040D01*
X947271Y1126180D01*
X949500Y1125886D01*
X951729Y1126180D01*
X953807Y1127040D01*
X955591Y1128409D01*
X956960Y1130193D01*
X957820Y1132271D01*
X958114Y1134500D01*
X957820Y1136729D01*
X956960Y1138807D01*
X955591Y1140591D01*
X953807Y1141960D01*
X951729Y1142820D01*
X949500Y1143114D01*
X947271Y1142820D01*
X945193Y1141960D01*
X943409Y1140591D01*
X942679Y1139639D01*
X941128D01*
X922710Y1158057D01*
Y1171110D01*
X902390D01*
Y1150790D01*
X907411D01*
Y1093613D01*
X905304Y1091996D01*
X903675Y1089874D01*
X902652Y1087402D01*
X902302Y1084750D01*
X902652Y1082098D01*
X903675Y1079626D01*
X905304Y1077504D01*
X907411Y1075887D01*
Y1047200D01*
X907802Y1045234D01*
X908916Y1043566D01*
X911543Y1040940D01*
X911386Y1039750D01*
X911680Y1037521D01*
X912540Y1035443D01*
X913909Y1033659D01*
X914861Y1032929D01*
Y1012378D01*
X900673Y998191D01*
X899500Y998677D01*
Y1003602D01*
X898524Y1008509D01*
X896609Y1013131D01*
X893829Y1017291D01*
X890292Y1020829D01*
X886131Y1023609D01*
X881509Y1025524D01*
X876602Y1026500D01*
X711898D01*
X706991Y1025524D01*
X702369Y1023609D01*
X698208Y1020829D01*
X694670Y1017291D01*
X692270Y1013699D01*
X691000Y1014084D01*
Y1231000D01*
X1593250D01*
X1593250Y285000D01*
D02*
G37*
G36*
X1520611Y473372D02*
Y354128D01*
X1475000Y308517D01*
X1375330D01*
X1374804Y309787D01*
X1495224Y430206D01*
X1496337Y431873D01*
X1496729Y433840D01*
Y457484D01*
X1498047Y458030D01*
X1499831Y459399D01*
X1501200Y461183D01*
X1502060Y463261D01*
X1502354Y465490D01*
X1502060Y467719D01*
X1501200Y469797D01*
X1499831Y471581D01*
X1498047Y472950D01*
X1495969Y473810D01*
X1493740Y474104D01*
X1491511Y473810D01*
X1489433Y472950D01*
X1487649Y471581D01*
X1486803Y470479D01*
X1441605D01*
X1441114Y471664D01*
X1439104Y474284D01*
X1436484Y476294D01*
X1434948Y476930D01*
X1435201Y478200D01*
X1442700D01*
Y485601D01*
X1486919D01*
X1487649Y484649D01*
X1489433Y483280D01*
X1491511Y482420D01*
X1493740Y482126D01*
X1495969Y482420D01*
X1498047Y483280D01*
X1499831Y484649D01*
X1500561Y485601D01*
X1508382D01*
X1520611Y473372D01*
D02*
G37*
G36*
X1055693Y620000D02*
X1057771Y619140D01*
X1057935Y619118D01*
X1058034Y619053D01*
X1060000Y618661D01*
X1061296Y618919D01*
X1061921Y617749D01*
X1029141Y584969D01*
X1000790D01*
X998823Y584578D01*
X997156Y583464D01*
X986516Y572824D01*
X985402Y571157D01*
X985011Y569190D01*
Y538710D01*
X985402Y536744D01*
X986516Y535076D01*
X1004061Y517532D01*
Y485991D01*
X1003109Y485261D01*
X1001740Y483477D01*
X1000880Y481399D01*
X1000586Y479170D01*
Y466170D01*
X1000880Y463941D01*
X1001740Y461863D01*
X1002189Y461278D01*
X1001628Y460139D01*
X991372D01*
X990810Y461278D01*
X991260Y461863D01*
X992120Y463941D01*
X992414Y466170D01*
Y479170D01*
X992120Y481399D01*
X991260Y483477D01*
X989891Y485261D01*
X988939Y485991D01*
Y519660D01*
X988548Y521627D01*
X987434Y523294D01*
X980049Y530678D01*
Y571531D01*
X998209Y589691D01*
X1020870D01*
X1022837Y590083D01*
X1024504Y591196D01*
X1054343Y621036D01*
X1055693Y620000D01*
D02*
G37*
G36*
X1052540Y546953D02*
X1053909Y545169D01*
X1054861Y544439D01*
Y485991D01*
X1053909Y485261D01*
X1052540Y483477D01*
X1052049Y482290D01*
X1050779Y482543D01*
Y547887D01*
X1052049Y548140D01*
X1052540Y546953D01*
D02*
G37*
G36*
X1068111Y545716D02*
Y484714D01*
X1066841Y484283D01*
X1066091Y485261D01*
X1065139Y485991D01*
Y544439D01*
X1066091Y545169D01*
X1066841Y546147D01*
X1068111Y545716D01*
D02*
G37*
G36*
X1104709Y545169D02*
X1105661Y544439D01*
Y485991D01*
X1104709Y485261D01*
X1103909Y484218D01*
X1102639Y484649D01*
Y545781D01*
X1103909Y546213D01*
X1104709Y545169D01*
D02*
G37*
G36*
X1130109D02*
X1131061Y544439D01*
Y485991D01*
X1130109Y485261D01*
X1129159Y484022D01*
X1127889Y484453D01*
Y545977D01*
X1129159Y546408D01*
X1130109Y545169D01*
D02*
G37*
G36*
X1260366Y891616D02*
X1262033Y890502D01*
X1264000Y890111D01*
X1378622D01*
X1390780Y877952D01*
X1390187Y876750D01*
X1389700Y876814D01*
X1376700D01*
X1374471Y876520D01*
X1372393Y875660D01*
X1370609Y874291D01*
X1369240Y872507D01*
X1368380Y870429D01*
X1368086Y868200D01*
X1368380Y865971D01*
X1369240Y863893D01*
X1370609Y862109D01*
X1372393Y860740D01*
X1374471Y859880D01*
X1376700Y859586D01*
X1389700D01*
X1391929Y859880D01*
X1394007Y860740D01*
X1395791Y862109D01*
X1397160Y863893D01*
X1398020Y865971D01*
X1398314Y868200D01*
X1398250Y868687D01*
X1399452Y869280D01*
X1406861Y861871D01*
Y821128D01*
X1398209Y812476D01*
X1397160Y813093D01*
X1398020Y815171D01*
X1398314Y817400D01*
X1398020Y819629D01*
X1397160Y821707D01*
X1395791Y823491D01*
X1394007Y824860D01*
X1391929Y825720D01*
X1389700Y826014D01*
X1376700D01*
X1374471Y825720D01*
X1372393Y824860D01*
X1370609Y823491D01*
X1369879Y822539D01*
X1356150D01*
X1354184Y822148D01*
X1352516Y821034D01*
X1329616Y798134D01*
X1328502Y796467D01*
X1328111Y794500D01*
Y681315D01*
X1327398Y681020D01*
X1326841Y680912D01*
X1325217Y681998D01*
X1323250Y682389D01*
X1319174D01*
X1318743Y683659D01*
X1319591Y684309D01*
X1320960Y686093D01*
X1321820Y688171D01*
X1322114Y690400D01*
X1321820Y692629D01*
X1320960Y694707D01*
X1319591Y696491D01*
X1317807Y697860D01*
X1315729Y698720D01*
X1313500Y699014D01*
X1300500D01*
X1298271Y698720D01*
X1296193Y697860D01*
X1294409Y696491D01*
X1293040Y694707D01*
X1292180Y692629D01*
X1291886Y690400D01*
X1292180Y688171D01*
X1293040Y686093D01*
X1294409Y684309D01*
X1295257Y683659D01*
X1294826Y682389D01*
X1275629D01*
X1243179Y714838D01*
X1243243Y716222D01*
X1243891Y716719D01*
X1245260Y718503D01*
X1246120Y720581D01*
X1246414Y722810D01*
Y735810D01*
X1246120Y738039D01*
X1245260Y740117D01*
X1244910Y740572D01*
X1245472Y741711D01*
X1257522D01*
X1287066Y712166D01*
X1288734Y711052D01*
X1290700Y710661D01*
X1293679D01*
X1294409Y709709D01*
X1296193Y708340D01*
X1298271Y707480D01*
X1300500Y707186D01*
X1313500D01*
X1315729Y707480D01*
X1317807Y708340D01*
X1319591Y709709D01*
X1320960Y711493D01*
X1321820Y713571D01*
X1322114Y715800D01*
X1321820Y718029D01*
X1320960Y720107D01*
X1319591Y721891D01*
X1317807Y723260D01*
X1315729Y724120D01*
X1313500Y724414D01*
X1300500D01*
X1298271Y724120D01*
X1296193Y723260D01*
X1294409Y721891D01*
X1293951Y721294D01*
X1292541Y721226D01*
X1264579Y749188D01*
X1265065Y750361D01*
X1270621D01*
X1283416Y737566D01*
X1285083Y736452D01*
X1287050Y736061D01*
X1293679D01*
X1294409Y735109D01*
X1296193Y733740D01*
X1298271Y732880D01*
X1300500Y732586D01*
X1313500D01*
X1315729Y732880D01*
X1317807Y733740D01*
X1319591Y735109D01*
X1320960Y736893D01*
X1321820Y738971D01*
X1322114Y741200D01*
X1321820Y743429D01*
X1320960Y745507D01*
X1319591Y747291D01*
X1317807Y748660D01*
X1315729Y749520D01*
X1313500Y749814D01*
X1300500D01*
X1298271Y749520D01*
X1296193Y748660D01*
X1294409Y747291D01*
X1293679Y746339D01*
X1289178D01*
X1276384Y759134D01*
X1274801Y760191D01*
X1274788Y760284D01*
X1275531Y761461D01*
X1293679D01*
X1294409Y760509D01*
X1296193Y759140D01*
X1298271Y758280D01*
X1300500Y757986D01*
X1313500D01*
X1315729Y758280D01*
X1317807Y759140D01*
X1319591Y760509D01*
X1320960Y762293D01*
X1321820Y764371D01*
X1322114Y766600D01*
X1321820Y768829D01*
X1320960Y770907D01*
X1319591Y772691D01*
X1317807Y774060D01*
X1315729Y774920D01*
X1313500Y775214D01*
X1300500D01*
X1298271Y774920D01*
X1296193Y774060D01*
X1294409Y772691D01*
X1293679Y771739D01*
X1178850D01*
X1176883Y771348D01*
X1175216Y770234D01*
X1157966Y752984D01*
X1156852Y751317D01*
X1156461Y749350D01*
Y742631D01*
X1155509Y741901D01*
X1154140Y740117D01*
X1153280Y738039D01*
X1152986Y735810D01*
Y722810D01*
X1153280Y720581D01*
X1154140Y718503D01*
X1155509Y716719D01*
X1156461Y715989D01*
Y687863D01*
X1154354Y686246D01*
X1152725Y684124D01*
X1151702Y681652D01*
X1151352Y679000D01*
X1151702Y676348D01*
X1152725Y673876D01*
X1154354Y671754D01*
X1156461Y670137D01*
Y647281D01*
X1155509Y646551D01*
X1154140Y644767D01*
X1153280Y642689D01*
X1152986Y640460D01*
Y632614D01*
X1145831Y625458D01*
X1144628Y626052D01*
X1144814Y627460D01*
Y640460D01*
X1144520Y642689D01*
X1143660Y644767D01*
X1142291Y646551D01*
X1141339Y647281D01*
Y670137D01*
X1143446Y671754D01*
X1145075Y673876D01*
X1146098Y676348D01*
X1146448Y679000D01*
X1146098Y681652D01*
X1145075Y684124D01*
X1143446Y686246D01*
X1141339Y687863D01*
Y715989D01*
X1142291Y716719D01*
X1143660Y718503D01*
X1144520Y720581D01*
X1144814Y722810D01*
Y735810D01*
X1144520Y738039D01*
X1143660Y740117D01*
X1142291Y741901D01*
X1141339Y742631D01*
Y747571D01*
X1172378Y778611D01*
X1274750D01*
X1276717Y779003D01*
X1278384Y780116D01*
X1285128Y786861D01*
X1293679D01*
X1294409Y785909D01*
X1296193Y784540D01*
X1298271Y783680D01*
X1300500Y783386D01*
X1313500D01*
X1315729Y783680D01*
X1317807Y784540D01*
X1319591Y785909D01*
X1320960Y787693D01*
X1321820Y789771D01*
X1322114Y792000D01*
X1321820Y794229D01*
X1320960Y796307D01*
X1319591Y798091D01*
X1317807Y799460D01*
X1315729Y800320D01*
X1313500Y800614D01*
X1300500D01*
X1298271Y800320D01*
X1296193Y799460D01*
X1294409Y798091D01*
X1293679Y797139D01*
X1283000D01*
X1281033Y796748D01*
X1279366Y795634D01*
X1272622Y788889D01*
X1170250D01*
X1168283Y788498D01*
X1166616Y787384D01*
X1132566Y753334D01*
X1131452Y751666D01*
X1131061Y749700D01*
Y742631D01*
X1130109Y741901D01*
X1128740Y740117D01*
X1127880Y738039D01*
X1127586Y735810D01*
Y722810D01*
X1127880Y720581D01*
X1128740Y718503D01*
X1130109Y716719D01*
X1131061Y715989D01*
Y687863D01*
X1128954Y686246D01*
X1127325Y684124D01*
X1126301Y681652D01*
X1125952Y679000D01*
X1126301Y676348D01*
X1127325Y673876D01*
X1128954Y671754D01*
X1131061Y670137D01*
Y647281D01*
X1130109Y646551D01*
X1128740Y644767D01*
X1127880Y642689D01*
X1127586Y640460D01*
Y632614D01*
X1120431Y625458D01*
X1119228Y626052D01*
X1119414Y627460D01*
Y640460D01*
X1119120Y642689D01*
X1118260Y644767D01*
X1116891Y646551D01*
X1115939Y647281D01*
Y670137D01*
X1118046Y671754D01*
X1119675Y673876D01*
X1120698Y676348D01*
X1121048Y679000D01*
X1120698Y681652D01*
X1119675Y684124D01*
X1118046Y686246D01*
X1115939Y687863D01*
Y715989D01*
X1116891Y716719D01*
X1118260Y718503D01*
X1119120Y720581D01*
X1119414Y722810D01*
Y735810D01*
X1119120Y738039D01*
X1118260Y740117D01*
X1116891Y741901D01*
X1115939Y742631D01*
Y746672D01*
X1167129Y797861D01*
X1269000D01*
X1270966Y798252D01*
X1272634Y799366D01*
X1285529Y812261D01*
X1293679D01*
X1294409Y811309D01*
X1296193Y809940D01*
X1298271Y809080D01*
X1300500Y808786D01*
X1313500D01*
X1315729Y809080D01*
X1317807Y809940D01*
X1319591Y811309D01*
X1320960Y813093D01*
X1321820Y815171D01*
X1322114Y817400D01*
X1321820Y819629D01*
X1320960Y821707D01*
X1319591Y823491D01*
X1317807Y824860D01*
X1315729Y825720D01*
X1313500Y826014D01*
X1300500D01*
X1298271Y825720D01*
X1296193Y824860D01*
X1294409Y823491D01*
X1293679Y822539D01*
X1283400D01*
X1281434Y822148D01*
X1279766Y821034D01*
X1266871Y808139D01*
X1165000D01*
X1163034Y807748D01*
X1161366Y806634D01*
X1107166Y752434D01*
X1106052Y750767D01*
X1105661Y748800D01*
Y742631D01*
X1104709Y741901D01*
X1103340Y740117D01*
X1102480Y738039D01*
X1102186Y735810D01*
Y722810D01*
X1102480Y720581D01*
X1103340Y718503D01*
X1104709Y716719D01*
X1105661Y715989D01*
Y687863D01*
X1103554Y686246D01*
X1101925Y684124D01*
X1100901Y681652D01*
X1100552Y679000D01*
X1100901Y676348D01*
X1101925Y673876D01*
X1103554Y671754D01*
X1105661Y670137D01*
Y647281D01*
X1104709Y646551D01*
X1103340Y644767D01*
X1102480Y642689D01*
X1102186Y640460D01*
Y632614D01*
X1095031Y625458D01*
X1093828Y626052D01*
X1094014Y627460D01*
Y640460D01*
X1093720Y642689D01*
X1092860Y644767D01*
X1091491Y646551D01*
X1090539Y647281D01*
Y670137D01*
X1092646Y671754D01*
X1094275Y673876D01*
X1095298Y676348D01*
X1095648Y679000D01*
X1095298Y681652D01*
X1094275Y684124D01*
X1092646Y686246D01*
X1090539Y687863D01*
Y715989D01*
X1091491Y716719D01*
X1092860Y718503D01*
X1093720Y720581D01*
X1094014Y722810D01*
Y735810D01*
X1093720Y738039D01*
X1092860Y740117D01*
X1091491Y741901D01*
X1090539Y742631D01*
Y746522D01*
X1157878Y813861D01*
X1257750D01*
X1259716Y814252D01*
X1261384Y815366D01*
X1283678Y837661D01*
X1293679D01*
X1294409Y836709D01*
X1296193Y835340D01*
X1298271Y834480D01*
X1300500Y834186D01*
X1313500D01*
X1315729Y834480D01*
X1317807Y835340D01*
X1319591Y836709D01*
X1320960Y838493D01*
X1321820Y840571D01*
X1322114Y842800D01*
X1321820Y845029D01*
X1320960Y847107D01*
X1319591Y848891D01*
X1317807Y850260D01*
X1315729Y851120D01*
X1313500Y851414D01*
X1300500D01*
X1298271Y851120D01*
X1296193Y850260D01*
X1294409Y848891D01*
X1293679Y847939D01*
X1281550D01*
X1279584Y847548D01*
X1277916Y846434D01*
X1255621Y824139D01*
X1155750D01*
X1153783Y823748D01*
X1152116Y822634D01*
X1081766Y752284D01*
X1080652Y750617D01*
X1080261Y748650D01*
Y742631D01*
X1079309Y741901D01*
X1077940Y740117D01*
X1077080Y738039D01*
X1076786Y735810D01*
Y722810D01*
X1077080Y720581D01*
X1077940Y718503D01*
X1079309Y716719D01*
X1080261Y715989D01*
Y687863D01*
X1078154Y686246D01*
X1076525Y684124D01*
X1075501Y681652D01*
X1075152Y679000D01*
X1075501Y676348D01*
X1076525Y673876D01*
X1078154Y671754D01*
X1080261Y670137D01*
Y647281D01*
X1079309Y646551D01*
X1077940Y644767D01*
X1077080Y642689D01*
X1076786Y640460D01*
Y632614D01*
X1069631Y625458D01*
X1068428Y626052D01*
X1068614Y627460D01*
Y640460D01*
X1068320Y642689D01*
X1067460Y644767D01*
X1066091Y646551D01*
X1065139Y647281D01*
Y670137D01*
X1067246Y671754D01*
X1068875Y673876D01*
X1069899Y676348D01*
X1070248Y679000D01*
X1069899Y681652D01*
X1068875Y684124D01*
X1067246Y686246D01*
X1065139Y687863D01*
Y715989D01*
X1066091Y716719D01*
X1067460Y718503D01*
X1068320Y720581D01*
X1068614Y722810D01*
Y735810D01*
X1068320Y738039D01*
X1067460Y740117D01*
X1066091Y741901D01*
X1065139Y742631D01*
Y748372D01*
X1145128Y828361D01*
X1241750D01*
X1243717Y828752D01*
X1245384Y829866D01*
X1278579Y863061D01*
X1293679D01*
X1294409Y862109D01*
X1296193Y860740D01*
X1298271Y859880D01*
X1300500Y859586D01*
X1313500D01*
X1315729Y859880D01*
X1317807Y860740D01*
X1319591Y862109D01*
X1320960Y863893D01*
X1321820Y865971D01*
X1322114Y868200D01*
X1321820Y870429D01*
X1320960Y872507D01*
X1319591Y874291D01*
X1317807Y875660D01*
X1315729Y876520D01*
X1313500Y876814D01*
X1300500D01*
X1298271Y876520D01*
X1296193Y875660D01*
X1294409Y874291D01*
X1293679Y873339D01*
X1276450D01*
X1274483Y872948D01*
X1272816Y871834D01*
X1239622Y838639D01*
X1143000D01*
X1141033Y838248D01*
X1139366Y837134D01*
X1056366Y754134D01*
X1055252Y752467D01*
X1054861Y750500D01*
Y742631D01*
X1053909Y741901D01*
X1052540Y740117D01*
X1051680Y738039D01*
X1051386Y735810D01*
Y722810D01*
X1051680Y720581D01*
X1052540Y718503D01*
X1053909Y716719D01*
X1054861Y715989D01*
Y687863D01*
X1052754Y686246D01*
X1051125Y684124D01*
X1050101Y681652D01*
X1049752Y679000D01*
X1050101Y676348D01*
X1051125Y673876D01*
X1052754Y671754D01*
X1054861Y670137D01*
Y647281D01*
X1053909Y646551D01*
X1052540Y644767D01*
X1051680Y642689D01*
X1051386Y640460D01*
Y632614D01*
X1044231Y625458D01*
X1043028Y626052D01*
X1043214Y627460D01*
Y640460D01*
X1042920Y642689D01*
X1042060Y644767D01*
X1040691Y646551D01*
X1039739Y647281D01*
Y670137D01*
X1041846Y671754D01*
X1043475Y673876D01*
X1044499Y676348D01*
X1044848Y679000D01*
X1044499Y681652D01*
X1043475Y684124D01*
X1041846Y686246D01*
X1039739Y687863D01*
Y715989D01*
X1040691Y716719D01*
X1042060Y718503D01*
X1042920Y720581D01*
X1043214Y722810D01*
Y735810D01*
X1042920Y738039D01*
X1042060Y740117D01*
X1040691Y741901D01*
X1039739Y742631D01*
Y748721D01*
X1133379Y842361D01*
X1234750D01*
X1236717Y842752D01*
X1238384Y843866D01*
X1272878Y878361D01*
X1322121D01*
X1361316Y839166D01*
X1362984Y838053D01*
X1364950Y837661D01*
X1369879D01*
X1370609Y836709D01*
X1372393Y835340D01*
X1374471Y834480D01*
X1376700Y834186D01*
X1389700D01*
X1391929Y834480D01*
X1394007Y835340D01*
X1395791Y836709D01*
X1397160Y838493D01*
X1398020Y840571D01*
X1398314Y842800D01*
X1398020Y845029D01*
X1397160Y847107D01*
X1395791Y848891D01*
X1394007Y850260D01*
X1391929Y851120D01*
X1389700Y851414D01*
X1376700D01*
X1374471Y851120D01*
X1372393Y850260D01*
X1370609Y848891D01*
X1369879Y847939D01*
X1367079D01*
X1327884Y887134D01*
X1326216Y888248D01*
X1324250Y888639D01*
X1270750D01*
X1268783Y888248D01*
X1267116Y887134D01*
X1232622Y852639D01*
X1131250D01*
X1129284Y852248D01*
X1127616Y851134D01*
X1030966Y754484D01*
X1029852Y752816D01*
X1029461Y750850D01*
Y742631D01*
X1028509Y741901D01*
X1027140Y740117D01*
X1026280Y738039D01*
X1025986Y735810D01*
Y722810D01*
X1026280Y720581D01*
X1027140Y718503D01*
X1028509Y716719D01*
X1029461Y715989D01*
Y687863D01*
X1027354Y686246D01*
X1025725Y684124D01*
X1024702Y681652D01*
X1024352Y679000D01*
X1024702Y676348D01*
X1025725Y673876D01*
X1027354Y671754D01*
X1029461Y670137D01*
Y647281D01*
X1028509Y646551D01*
X1027140Y644767D01*
X1026280Y642689D01*
X1025986Y640460D01*
Y632614D01*
X1018831Y625458D01*
X1017628Y626052D01*
X1017814Y627460D01*
Y640460D01*
X1017520Y642689D01*
X1016660Y644767D01*
X1015291Y646551D01*
X1013507Y647920D01*
X1011429Y648780D01*
X1009200Y649074D01*
X1006971Y648780D01*
X1004893Y647920D01*
X1003109Y646551D01*
X1001740Y644767D01*
X1000880Y642689D01*
X1000586Y640460D01*
Y627460D01*
X1000880Y625231D01*
X1001740Y623153D01*
X1003109Y621369D01*
X1004893Y620000D01*
X1006971Y619140D01*
X1009200Y618846D01*
X1010608Y619032D01*
X1011202Y617829D01*
X1008342Y614969D01*
X992330D01*
X990363Y614578D01*
X988696Y613464D01*
X954766Y579534D01*
X953652Y577867D01*
X953261Y575900D01*
Y485991D01*
X952309Y485261D01*
X950940Y483477D01*
X950080Y481399D01*
X949786Y479170D01*
Y466170D01*
X950080Y463941D01*
X950940Y461863D01*
X952309Y460079D01*
X954093Y458710D01*
X956171Y457850D01*
X958400Y457556D01*
X960629Y457850D01*
X962707Y458710D01*
X964491Y460079D01*
X965860Y461863D01*
X966720Y463941D01*
X967014Y466170D01*
Y479170D01*
X966720Y481399D01*
X965860Y483477D01*
X964491Y485261D01*
X963539Y485991D01*
Y573772D01*
X994458Y604691D01*
X1010470D01*
X1012437Y605083D01*
X1014104Y606196D01*
X1028943Y621036D01*
X1030293Y620000D01*
X1032371Y619140D01*
X1032535Y619118D01*
X1032634Y619053D01*
X1034600Y618661D01*
X1035896Y618919D01*
X1036521Y617749D01*
X1018742Y599969D01*
X996080D01*
X994113Y599578D01*
X992446Y598464D01*
X971276Y577294D01*
X970162Y575626D01*
X969771Y573660D01*
Y528550D01*
X970162Y526584D01*
X971276Y524916D01*
X978661Y517532D01*
Y485991D01*
X977709Y485261D01*
X976340Y483477D01*
X975480Y481399D01*
X975186Y479170D01*
Y466170D01*
X975480Y463941D01*
X976340Y461863D01*
X976745Y461336D01*
X976154Y460020D01*
X974783Y459748D01*
X973116Y458634D01*
X929366Y414884D01*
X928252Y413217D01*
X927861Y411250D01*
Y409791D01*
X926909Y409061D01*
X925540Y407277D01*
X924680Y405199D01*
X924386Y402970D01*
Y389970D01*
X924680Y387741D01*
X924932Y387131D01*
X923856Y386412D01*
X911639Y398629D01*
Y543372D01*
X996634Y628366D01*
X997748Y630033D01*
X998139Y632000D01*
Y644872D01*
X1012834Y659566D01*
X1013948Y661234D01*
X1014339Y663200D01*
Y670137D01*
X1016446Y671754D01*
X1018075Y673876D01*
X1019099Y676348D01*
X1019448Y679000D01*
X1019099Y681652D01*
X1018075Y684124D01*
X1016446Y686246D01*
X1014339Y687863D01*
Y700300D01*
X1013948Y702266D01*
X1012834Y703934D01*
X1002139Y714629D01*
Y716053D01*
X1003409Y716489D01*
X1004893Y715350D01*
X1006971Y714490D01*
X1009200Y714196D01*
X1011429Y714490D01*
X1013507Y715350D01*
X1015291Y716719D01*
X1016660Y718503D01*
X1017520Y720581D01*
X1017814Y722810D01*
Y735810D01*
X1017520Y738039D01*
X1016660Y740117D01*
X1015291Y741901D01*
X1013507Y743270D01*
X1011429Y744130D01*
X1009200Y744424D01*
X1006971Y744130D01*
X1004893Y743270D01*
X1003409Y742131D01*
X1002139Y742567D01*
Y754110D01*
X1001748Y756077D01*
X1000634Y757744D01*
X892749Y865628D01*
X893829Y866709D01*
X895554Y869290D01*
X896818Y869415D01*
X923116Y843116D01*
X924783Y842002D01*
X926750Y841611D01*
X1101750D01*
X1103717Y842002D01*
X1105384Y843116D01*
X1117129Y854861D01*
X1207500D01*
X1209466Y855252D01*
X1211134Y856366D01*
X1228134Y873366D01*
X1229248Y875033D01*
X1229639Y877000D01*
Y879270D01*
X1246340D01*
Y903983D01*
X1247513Y904469D01*
X1260366Y891616D01*
D02*
G37*
G36*
X887776Y670125D02*
X890248Y669101D01*
X892900Y668752D01*
X895552Y669101D01*
X898024Y670125D01*
X899151Y670990D01*
X900421Y670364D01*
Y662236D01*
X899151Y661610D01*
X898024Y662475D01*
X895552Y663499D01*
X892900Y663848D01*
X890248Y663499D01*
X887776Y662475D01*
X885654Y660846D01*
X884025Y658724D01*
X883001Y656252D01*
X882652Y653600D01*
X883001Y650948D01*
X884025Y648476D01*
X885654Y646354D01*
X887211Y645159D01*
X886780Y643889D01*
X873620D01*
X873189Y645159D01*
X874746Y646354D01*
X876375Y648476D01*
X877399Y650948D01*
X877748Y653600D01*
X877401Y656234D01*
X883874Y662706D01*
X884988Y664373D01*
X885379Y666340D01*
Y670364D01*
X886649Y670990D01*
X887776Y670125D01*
D02*
G37*
G36*
X803771Y714490D02*
X806000Y714196D01*
X807408Y714382D01*
X808002Y713179D01*
X773866Y679044D01*
X772752Y677376D01*
X772361Y675410D01*
Y608129D01*
X772072Y607839D01*
X770540D01*
Y611240D01*
X740460D01*
Y594160D01*
X770540D01*
Y597561D01*
X774200D01*
X776167Y597952D01*
X777834Y599066D01*
X781134Y602366D01*
X782248Y604034D01*
X782639Y606000D01*
Y673281D01*
X788493Y679135D01*
X789663Y678510D01*
X789611Y678250D01*
Y634750D01*
X790002Y632784D01*
X791116Y631116D01*
X808116Y614116D01*
X809783Y613002D01*
X811750Y612611D01*
X839613D01*
X839658Y612582D01*
X839761Y612389D01*
X838946Y611216D01*
X838200Y611314D01*
X825200D01*
X822971Y611020D01*
X820893Y610160D01*
X819109Y608791D01*
X817740Y607007D01*
X816880Y604929D01*
X816586Y602700D01*
X816880Y600471D01*
X817740Y598393D01*
X819109Y596609D01*
X820893Y595240D01*
X822971Y594380D01*
X825200Y594086D01*
X838200D01*
X840429Y594380D01*
X842507Y595240D01*
X844291Y596609D01*
X845341Y597978D01*
X846611Y597547D01*
Y582453D01*
X845341Y582022D01*
X844291Y583391D01*
X842507Y584760D01*
X840429Y585620D01*
X838200Y585914D01*
X825200D01*
X822971Y585620D01*
X820893Y584760D01*
X819109Y583391D01*
X817740Y581607D01*
X816880Y579529D01*
X816586Y577300D01*
X816880Y575071D01*
X817370Y573887D01*
X806616Y563134D01*
X805502Y561466D01*
X805111Y559500D01*
Y551952D01*
X803841Y551426D01*
X774334Y580934D01*
X772666Y582048D01*
X770700Y582439D01*
X768821D01*
X768091Y583391D01*
X766307Y584760D01*
X764229Y585620D01*
X762000Y585914D01*
X749000D01*
X746771Y585620D01*
X745092Y584925D01*
X737389Y592629D01*
Y650122D01*
X802347Y715080D01*
X803771Y714490D01*
D02*
G37*
G36*
X1370609Y811309D02*
X1370805Y811159D01*
X1370374Y809889D01*
X1369500D01*
X1367534Y809498D01*
X1365866Y808384D01*
X1350366Y792884D01*
X1349252Y791217D01*
X1348861Y789250D01*
Y600250D01*
X1349252Y598284D01*
X1350366Y596616D01*
X1352257Y594726D01*
X1351430Y592729D01*
X1351136Y590500D01*
X1351430Y588271D01*
X1352290Y586193D01*
X1353659Y584409D01*
X1355443Y583040D01*
X1357521Y582180D01*
X1359750Y581886D01*
X1361979Y582180D01*
X1363976Y583007D01*
X1384616Y562366D01*
X1386284Y561252D01*
X1388250Y560861D01*
X1426687D01*
X1427696Y559546D01*
X1427169Y558146D01*
X1426873Y558088D01*
X1425206Y556974D01*
X1272758Y404525D01*
X1271555Y404933D01*
X1271520Y405199D01*
X1270660Y407277D01*
X1269291Y409061D01*
X1267507Y410430D01*
X1265429Y411290D01*
X1263200Y411584D01*
X1260971Y411290D01*
X1258893Y410430D01*
X1257109Y409061D01*
X1255740Y407277D01*
X1254880Y405199D01*
X1254586Y402970D01*
Y389970D01*
X1254880Y387741D01*
X1255740Y385663D01*
X1257109Y383879D01*
X1258893Y382510D01*
X1260971Y381650D01*
X1260820Y380389D01*
X1240180D01*
X1240029Y381650D01*
X1242107Y382510D01*
X1243891Y383879D01*
X1245260Y385663D01*
X1246120Y387741D01*
X1246414Y389970D01*
Y402970D01*
X1246120Y405199D01*
X1245260Y407277D01*
X1243891Y409061D01*
X1242939Y409791D01*
Y413172D01*
X1270384Y440616D01*
X1284634Y454866D01*
X1285748Y456534D01*
X1286139Y458500D01*
Y638621D01*
X1291837Y644319D01*
X1292913Y643600D01*
X1292180Y641829D01*
X1291886Y639600D01*
X1292180Y637371D01*
X1293040Y635293D01*
X1294409Y633509D01*
X1296193Y632140D01*
X1298271Y631280D01*
X1300500Y630986D01*
X1301861D01*
Y616754D01*
X1299943Y615960D01*
X1298159Y614591D01*
X1296790Y612807D01*
X1295930Y610729D01*
X1295636Y608500D01*
X1295930Y606271D01*
X1296790Y604193D01*
X1298159Y602409D01*
X1299943Y601040D01*
X1302021Y600180D01*
X1304250Y599886D01*
X1306479Y600180D01*
X1308557Y601040D01*
X1310341Y602409D01*
X1311710Y604193D01*
X1312570Y606271D01*
X1312864Y608500D01*
X1312570Y610729D01*
X1312139Y611771D01*
Y630986D01*
X1313500D01*
X1315729Y631280D01*
X1317807Y632140D01*
X1319591Y633509D01*
X1320451Y634631D01*
X1321566Y634852D01*
X1323234Y635966D01*
X1336884Y649616D01*
X1337998Y651283D01*
X1338389Y653250D01*
Y667250D01*
Y792372D01*
X1358279Y812261D01*
X1369879D01*
X1370609Y811309D01*
D02*
G37*
G36*
X1328111Y665122D02*
Y655378D01*
X1318930Y646198D01*
X1317807Y647060D01*
X1315729Y647920D01*
X1313500Y648214D01*
X1300500D01*
X1298271Y647920D01*
X1296500Y647187D01*
X1295781Y648263D01*
X1303904Y656386D01*
X1313500D01*
X1315729Y656680D01*
X1317807Y657540D01*
X1319591Y658909D01*
X1320960Y660693D01*
X1321820Y662771D01*
X1322114Y665000D01*
X1321820Y667229D01*
X1320960Y669307D01*
X1320087Y670444D01*
X1320565Y671744D01*
X1321373Y671860D01*
X1328111Y665122D01*
D02*
G37*
G36*
X1230690Y740572D02*
X1230340Y740117D01*
X1229480Y738039D01*
X1229186Y735810D01*
Y722810D01*
X1229480Y720581D01*
X1230340Y718503D01*
X1231709Y716719D01*
X1232661Y715989D01*
Y712950D01*
X1233052Y710984D01*
X1234166Y709316D01*
X1269866Y673616D01*
X1271534Y672502D01*
X1273500Y672111D01*
X1293830D01*
X1294218Y670841D01*
X1293040Y669307D01*
X1292180Y667229D01*
X1291886Y665000D01*
X1292180Y662771D01*
X1293040Y660693D01*
X1293316Y660333D01*
X1277366Y644384D01*
X1276252Y642717D01*
X1275861Y640750D01*
Y460629D01*
X1273010Y457777D01*
X1271740Y458303D01*
X1271740Y458616D01*
X1271740Y458616D01*
X1271740Y458621D01*
Y487710D01*
X1254660D01*
Y457630D01*
X1270749Y457630D01*
X1270754D01*
X1270754D01*
X1271067Y457630D01*
X1271278Y457120D01*
X1271593Y456360D01*
X1264621Y449389D01*
X1143538D01*
X1143153Y450659D01*
X1144407Y451496D01*
X1152634Y459724D01*
X1153354Y460802D01*
X1154853Y460934D01*
X1154854Y460934D01*
X1155509Y460079D01*
X1157293Y458710D01*
X1159371Y457850D01*
X1161600Y457556D01*
X1163829Y457850D01*
X1165907Y458710D01*
X1167691Y460079D01*
X1169060Y461863D01*
X1169920Y463941D01*
X1170214Y466170D01*
Y479170D01*
X1169920Y481399D01*
X1169060Y483477D01*
X1167691Y485261D01*
X1166739Y485991D01*
Y544439D01*
X1167691Y545169D01*
X1169060Y546953D01*
X1169920Y549031D01*
X1170214Y551260D01*
Y564260D01*
X1169920Y566489D01*
X1169060Y568567D01*
X1167691Y570351D01*
X1165907Y571720D01*
X1163829Y572580D01*
X1161600Y572874D01*
X1160192Y572688D01*
X1159598Y573891D01*
X1206743Y621036D01*
X1208093Y620000D01*
X1210171Y619140D01*
X1212400Y618846D01*
X1214629Y619140D01*
X1216707Y620000D01*
X1218491Y621369D01*
X1219860Y623153D01*
X1220720Y625231D01*
X1221014Y627460D01*
Y640460D01*
X1220720Y642689D01*
X1219860Y644767D01*
X1218491Y646551D01*
X1217539Y647281D01*
Y670137D01*
X1219646Y671754D01*
X1221275Y673876D01*
X1222299Y676348D01*
X1222648Y679000D01*
X1222299Y681652D01*
X1221275Y684124D01*
X1219646Y686246D01*
X1217539Y687863D01*
Y715989D01*
X1218491Y716719D01*
X1219860Y718503D01*
X1220720Y720581D01*
X1221014Y722810D01*
Y735810D01*
X1220720Y738039D01*
X1219860Y740117D01*
X1219510Y740572D01*
X1220072Y741711D01*
X1230128D01*
X1230690Y740572D01*
D02*
G37*
G36*
X1192212Y760284D02*
X1192199Y760191D01*
X1190616Y759134D01*
X1183366Y751884D01*
X1182252Y750217D01*
X1181861Y748250D01*
Y742631D01*
X1180909Y741901D01*
X1179540Y740117D01*
X1178680Y738039D01*
X1178386Y735810D01*
Y722810D01*
X1178680Y720581D01*
X1179540Y718503D01*
X1180909Y716719D01*
X1181861Y715989D01*
Y687863D01*
X1179754Y686246D01*
X1178125Y684124D01*
X1177102Y681652D01*
X1176752Y679000D01*
X1177102Y676348D01*
X1178125Y673876D01*
X1179754Y671754D01*
X1181861Y670137D01*
Y647281D01*
X1180909Y646551D01*
X1179540Y644767D01*
X1178680Y642689D01*
X1178386Y640460D01*
Y632614D01*
X1171231Y625458D01*
X1170028Y626052D01*
X1170214Y627460D01*
Y640460D01*
X1169920Y642689D01*
X1169060Y644767D01*
X1167691Y646551D01*
X1166739Y647281D01*
Y670137D01*
X1168846Y671754D01*
X1170475Y673876D01*
X1171498Y676348D01*
X1171848Y679000D01*
X1171498Y681652D01*
X1170475Y684124D01*
X1168846Y686246D01*
X1166739Y687863D01*
Y715989D01*
X1167691Y716719D01*
X1169060Y718503D01*
X1169920Y720581D01*
X1170214Y722810D01*
Y735810D01*
X1169920Y738039D01*
X1169060Y740117D01*
X1167691Y741901D01*
X1166739Y742631D01*
Y747222D01*
X1180979Y761461D01*
X1191469D01*
X1192212Y760284D01*
D02*
G37*
G36*
X1209671Y749188D02*
X1208766Y748284D01*
X1207652Y746617D01*
X1207261Y744650D01*
Y742631D01*
X1206309Y741901D01*
X1204940Y740117D01*
X1204080Y738039D01*
X1203786Y735810D01*
Y722810D01*
X1204080Y720581D01*
X1204940Y718503D01*
X1206309Y716719D01*
X1207261Y715989D01*
Y687863D01*
X1205154Y686246D01*
X1203525Y684124D01*
X1202502Y681652D01*
X1202152Y679000D01*
X1202502Y676348D01*
X1203525Y673876D01*
X1205154Y671754D01*
X1207261Y670137D01*
Y647281D01*
X1206309Y646551D01*
X1204940Y644767D01*
X1204080Y642689D01*
X1203786Y640460D01*
Y632614D01*
X1196631Y625458D01*
X1195428Y626052D01*
X1195614Y627460D01*
Y640460D01*
X1195320Y642689D01*
X1194460Y644767D01*
X1193091Y646551D01*
X1192139Y647281D01*
Y670137D01*
X1194246Y671754D01*
X1195875Y673876D01*
X1196898Y676348D01*
X1197248Y679000D01*
X1196898Y681652D01*
X1195875Y684124D01*
X1194246Y686246D01*
X1192139Y687863D01*
Y715989D01*
X1193091Y716719D01*
X1194460Y718503D01*
X1195320Y720581D01*
X1195614Y722810D01*
Y735810D01*
X1195320Y738039D01*
X1194460Y740117D01*
X1193091Y741901D01*
X1192139Y742631D01*
Y746122D01*
X1196378Y750361D01*
X1209185D01*
X1209671Y749188D01*
D02*
G37*
G36*
X1081093Y620000D02*
X1083171Y619140D01*
X1083335Y619118D01*
X1083434Y619053D01*
X1085400Y618661D01*
X1086696Y618919D01*
X1087321Y617749D01*
X1042006Y572434D01*
X1041348Y571448D01*
X1039801Y571079D01*
X1039708Y571105D01*
X1038907Y571720D01*
X1036829Y572580D01*
X1034600Y572874D01*
X1032371Y572580D01*
X1030293Y571720D01*
X1028509Y570351D01*
X1027140Y568567D01*
X1026280Y566489D01*
X1025986Y564260D01*
Y551260D01*
X1026280Y549031D01*
X1027140Y546953D01*
X1028509Y545169D01*
X1029461Y544439D01*
Y485991D01*
X1028509Y485261D01*
X1027140Y483477D01*
X1026280Y481399D01*
X1025986Y479170D01*
Y466170D01*
X1026280Y463941D01*
X1027140Y461863D01*
X1027589Y461278D01*
X1027028Y460139D01*
X1016772D01*
X1016210Y461278D01*
X1016660Y461863D01*
X1017520Y463941D01*
X1017814Y466170D01*
Y479170D01*
X1017520Y481399D01*
X1016660Y483477D01*
X1015291Y485261D01*
X1014339Y485991D01*
Y519660D01*
X1013948Y521627D01*
X1012834Y523294D01*
X995289Y540839D01*
Y567062D01*
X1002918Y574691D01*
X1031270D01*
X1033236Y575083D01*
X1034904Y576196D01*
X1079743Y621036D01*
X1081093Y620000D01*
D02*
G37*
G36*
X1421611Y862871D02*
Y808379D01*
X1398121Y784889D01*
X1396370D01*
X1395982Y786159D01*
X1397160Y787693D01*
X1398020Y789771D01*
X1398314Y792000D01*
X1398020Y794229D01*
X1397160Y796307D01*
X1395791Y798091D01*
X1395464Y798341D01*
X1395896Y799611D01*
X1397750D01*
X1399716Y800002D01*
X1401384Y801116D01*
X1415634Y815366D01*
X1416748Y817033D01*
X1417139Y819000D01*
Y864000D01*
X1416748Y865966D01*
X1417789Y866693D01*
X1421611Y862871D01*
D02*
G37*
G36*
X1157293Y620000D02*
X1159371Y619140D01*
X1161600Y618846D01*
X1163008Y619032D01*
X1163602Y617829D01*
X1119116Y573344D01*
X1118002Y571676D01*
X1117893Y571127D01*
X1117666Y570951D01*
X1116503Y570648D01*
X1115107Y571720D01*
X1113029Y572580D01*
X1110800Y572874D01*
X1109392Y572688D01*
X1108798Y573891D01*
X1155943Y621036D01*
X1157293Y620000D01*
D02*
G37*
G36*
X1368160Y638323D02*
Y631060D01*
X1398240D01*
Y633197D01*
X1399510Y633723D01*
X1420111Y613121D01*
Y601250D01*
X1420502Y599283D01*
X1421616Y597616D01*
X1443111Y576121D01*
Y574605D01*
X1441841Y573979D01*
X1440674Y574875D01*
X1438202Y575899D01*
X1435550Y576248D01*
X1432898Y575899D01*
X1430426Y574875D01*
X1428304Y573246D01*
X1426687Y571139D01*
X1390379D01*
X1367563Y593955D01*
X1367210Y594807D01*
X1365841Y596591D01*
X1364057Y597960D01*
X1363205Y598313D01*
X1359139Y602379D01*
Y645685D01*
X1360312Y646171D01*
X1368160Y638323D01*
D02*
G37*
G36*
X832299Y745586D02*
X831600Y744397D01*
X831400Y744424D01*
X829171Y744130D01*
X827093Y743270D01*
X825309Y741901D01*
X823940Y740117D01*
X823080Y738039D01*
X822786Y735810D01*
Y727964D01*
X815631Y720808D01*
X814428Y721402D01*
X814614Y722810D01*
Y735810D01*
X814320Y738039D01*
X813460Y740117D01*
X812091Y741901D01*
X810307Y743270D01*
X808229Y744130D01*
X806000Y744424D01*
X803771Y744130D01*
X801693Y743270D01*
X799909Y741901D01*
X798540Y740117D01*
X797680Y738039D01*
X797386Y735810D01*
Y724654D01*
X728616Y655884D01*
X727502Y654217D01*
X727111Y652250D01*
Y590500D01*
X727502Y588534D01*
X728616Y586866D01*
X740869Y574614D01*
X741540Y572993D01*
X742909Y571209D01*
X744693Y569840D01*
X746771Y568980D01*
X749000Y568686D01*
X762000D01*
X764229Y568980D01*
X766307Y569840D01*
X768091Y571209D01*
X768127Y571256D01*
X769394Y571339D01*
X795861Y544871D01*
Y540864D01*
X794591Y540739D01*
X794248Y542467D01*
X793134Y544134D01*
X781734Y555534D01*
X780067Y556648D01*
X778100Y557039D01*
X768821D01*
X768091Y557991D01*
X766307Y559360D01*
X764229Y560220D01*
X762000Y560514D01*
X749000D01*
X746771Y560220D01*
X744693Y559360D01*
X742909Y557991D01*
X742386Y557309D01*
X741020Y557247D01*
X723139Y575129D01*
Y660621D01*
X777406Y714889D01*
X778371Y714490D01*
X780600Y714196D01*
X782829Y714490D01*
X784907Y715350D01*
X786691Y716719D01*
X788060Y718503D01*
X788920Y720581D01*
X789214Y722810D01*
Y735810D01*
X788920Y738039D01*
X788060Y740117D01*
X786691Y741901D01*
X784907Y743270D01*
X782829Y744130D01*
X780600Y744424D01*
X778371Y744130D01*
X776293Y743270D01*
X774509Y741901D01*
X773140Y740117D01*
X772280Y738039D01*
X771986Y735810D01*
Y724004D01*
X714366Y666384D01*
X713252Y664716D01*
X712861Y662750D01*
Y573000D01*
X713252Y571034D01*
X714366Y569366D01*
X735466Y548266D01*
X737133Y547152D01*
X739100Y546761D01*
X742179D01*
X742909Y545809D01*
X743105Y545659D01*
X742674Y544389D01*
X731128D01*
X704389Y571129D01*
Y666372D01*
X752643Y714626D01*
X752971Y714490D01*
X755200Y714196D01*
X757429Y714490D01*
X759507Y715350D01*
X761291Y716719D01*
X762660Y718503D01*
X763520Y720581D01*
X763814Y722810D01*
Y735810D01*
X763520Y738039D01*
X762660Y740117D01*
X761291Y741901D01*
X759507Y743270D01*
X757429Y744130D01*
X755200Y744424D01*
X752971Y744130D01*
X750893Y743270D01*
X749109Y741901D01*
X747740Y740117D01*
X746880Y738039D01*
X746586Y735810D01*
Y723104D01*
X695616Y672134D01*
X694502Y670467D01*
X694111Y668500D01*
Y569000D01*
X694502Y567034D01*
X695616Y565366D01*
X725366Y535616D01*
X727033Y534502D01*
X729000Y534111D01*
X742804D01*
X743236Y532841D01*
X742909Y532591D01*
X741540Y530807D01*
X740680Y528729D01*
X740386Y526500D01*
X740680Y524271D01*
X741540Y522193D01*
X742909Y520409D01*
X744693Y519040D01*
X746771Y518180D01*
X749000Y517886D01*
X762000D01*
X764229Y518180D01*
X766307Y519040D01*
X768091Y520409D01*
X769460Y522193D01*
X770320Y524271D01*
X770614Y526500D01*
X770320Y528729D01*
X769460Y530807D01*
X768237Y532400D01*
X768382Y533166D01*
X768674Y533744D01*
X769389Y533844D01*
X773861Y529371D01*
Y455487D01*
X774252Y453521D01*
X775366Y451853D01*
X818604Y408616D01*
X819866Y407773D01*
X820058Y406541D01*
X819998Y406273D01*
X819109Y405591D01*
X817740Y403807D01*
X816880Y401729D01*
X816586Y399500D01*
X816880Y397271D01*
X817740Y395193D01*
X819109Y393409D01*
X820893Y392040D01*
X822971Y391180D01*
X825200Y390886D01*
X838200D01*
X840429Y391180D01*
X842507Y392040D01*
X843841Y393064D01*
X845111Y392484D01*
Y382500D01*
X845458Y380756D01*
X845434Y380733D01*
X844291Y380191D01*
X842507Y381560D01*
X840429Y382420D01*
X838200Y382714D01*
X825200D01*
X822971Y382420D01*
X820893Y381560D01*
X819109Y380191D01*
X817740Y378407D01*
X816880Y376329D01*
X816586Y374100D01*
X816880Y371871D01*
X817740Y369793D01*
X819109Y368009D01*
X820893Y366640D01*
X822971Y365780D01*
X825200Y365486D01*
X838200D01*
X840429Y365780D01*
X842507Y366640D01*
X844291Y368009D01*
X845660Y369793D01*
X846520Y371871D01*
X846814Y374100D01*
X846520Y376329D01*
X845928Y377758D01*
X847005Y378478D01*
X892366Y333116D01*
X894034Y332002D01*
X896000Y331611D01*
X1152500D01*
X1154466Y332002D01*
X1156134Y333116D01*
X1190634Y367616D01*
X1191748Y369283D01*
X1192139Y371250D01*
Y383149D01*
X1193091Y383879D01*
X1194460Y385663D01*
X1195320Y387741D01*
X1195614Y389970D01*
Y402970D01*
X1195320Y405199D01*
X1194460Y407277D01*
X1193091Y409061D01*
X1191307Y410430D01*
X1189229Y411290D01*
X1187000Y411584D01*
X1184771Y411290D01*
X1182693Y410430D01*
X1180909Y409061D01*
X1179540Y407277D01*
X1178680Y405199D01*
X1178386Y402970D01*
Y389970D01*
X1178680Y387741D01*
X1179540Y385663D01*
X1180909Y383879D01*
X1181861Y383149D01*
Y373378D01*
X1150371Y341889D01*
X1138952D01*
X1138426Y343159D01*
X1165234Y369966D01*
X1166348Y371633D01*
X1166739Y373600D01*
Y383149D01*
X1167691Y383879D01*
X1169060Y385663D01*
X1169920Y387741D01*
X1170214Y389970D01*
Y402970D01*
X1169920Y405199D01*
X1169060Y407277D01*
X1167691Y409061D01*
X1165907Y410430D01*
X1163829Y411290D01*
X1161600Y411584D01*
X1159371Y411290D01*
X1157293Y410430D01*
X1155509Y409061D01*
X1154140Y407277D01*
X1153280Y405199D01*
X1152986Y402970D01*
Y389970D01*
X1153280Y387741D01*
X1154140Y385663D01*
X1155509Y383879D01*
X1156461Y383149D01*
Y375728D01*
X1131621Y350889D01*
X1121708D01*
X1121323Y352159D01*
X1121634Y352366D01*
X1139834Y370566D01*
X1140948Y372234D01*
X1141339Y374200D01*
Y383149D01*
X1142291Y383879D01*
X1143660Y385663D01*
X1144520Y387741D01*
X1144814Y389970D01*
Y402970D01*
X1144520Y405199D01*
X1143660Y407277D01*
X1142291Y409061D01*
X1140507Y410430D01*
X1138429Y411290D01*
X1137899Y412641D01*
X1138244Y413111D01*
X1203121D01*
X1206362Y409870D01*
X1206309Y409061D01*
X1204940Y407277D01*
X1204080Y405199D01*
X1203786Y402970D01*
Y389970D01*
X1204080Y387741D01*
X1204940Y385663D01*
X1206309Y383879D01*
X1208093Y382510D01*
X1210171Y381650D01*
X1212400Y381356D01*
X1214629Y381650D01*
X1216707Y382510D01*
X1218491Y383879D01*
X1219860Y385663D01*
X1220351Y386850D01*
X1221621Y386597D01*
Y380990D01*
X1222012Y379023D01*
X1223126Y377356D01*
X1228866Y371616D01*
X1230534Y370502D01*
X1232500Y370111D01*
X1263798D01*
X1264488Y369005D01*
X1224371Y328889D01*
X782378D01*
X746768Y364499D01*
X747361Y365702D01*
X749000Y365486D01*
X762000D01*
X764229Y365780D01*
X766307Y366640D01*
X768091Y368009D01*
X769460Y369793D01*
X770320Y371871D01*
X770614Y374100D01*
X770320Y376329D01*
X769460Y378407D01*
X768091Y380191D01*
X766307Y381560D01*
X764229Y382420D01*
X762000Y382714D01*
X749000D01*
X746771Y382420D01*
X744693Y381560D01*
X742909Y380191D01*
X741540Y378407D01*
X740680Y376329D01*
X740386Y374100D01*
X740602Y372461D01*
X739399Y371868D01*
X738139Y373129D01*
Y395000D01*
X737748Y396967D01*
X736634Y398634D01*
X691000Y444267D01*
Y685983D01*
X751128Y746111D01*
X831909D01*
X832299Y745586D01*
D02*
G37*
G36*
X1440611Y767435D02*
Y763205D01*
X1439159Y762091D01*
X1437790Y760307D01*
X1436930Y758229D01*
X1436636Y756000D01*
X1436930Y753771D01*
X1437790Y751693D01*
X1439159Y749909D01*
X1440943Y748540D01*
X1443021Y747680D01*
X1443561Y747609D01*
X1443477Y746339D01*
X1396521D01*
X1395791Y747291D01*
X1394007Y748660D01*
X1391929Y749520D01*
X1389700Y749814D01*
X1376700D01*
X1374471Y749520D01*
X1372393Y748660D01*
X1370609Y747291D01*
X1369240Y745507D01*
X1368909Y744706D01*
X1367639Y744959D01*
Y762841D01*
X1368909Y763094D01*
X1369240Y762293D01*
X1370609Y760509D01*
X1372393Y759140D01*
X1374471Y758280D01*
X1376700Y757986D01*
X1389700D01*
X1391929Y758280D01*
X1394007Y759140D01*
X1395791Y760509D01*
X1396521Y761461D01*
X1430850D01*
X1432816Y761852D01*
X1434484Y762966D01*
X1439438Y767921D01*
X1440611Y767435D01*
D02*
G37*
G36*
X1369240Y660693D02*
X1370609Y658909D01*
X1372393Y657540D01*
X1374471Y656680D01*
X1376700Y656386D01*
X1389700D01*
X1391929Y656680D01*
X1394007Y657540D01*
X1395791Y658909D01*
X1396521Y659861D01*
X1418371D01*
X1468471Y609762D01*
Y574636D01*
X1467201Y574010D01*
X1466089Y574863D01*
Y588300D01*
X1465698Y590266D01*
X1464584Y591934D01*
X1453707Y602810D01*
X1453864Y604000D01*
X1453570Y606229D01*
X1452710Y608307D01*
X1451341Y610091D01*
X1449557Y611460D01*
X1447479Y612320D01*
X1445250Y612614D01*
X1443021Y612320D01*
X1440943Y611460D01*
X1439159Y610091D01*
X1437790Y608307D01*
X1436930Y606229D01*
X1436636Y604000D01*
X1436930Y601771D01*
X1437790Y599693D01*
X1439159Y597909D01*
X1440943Y596540D01*
X1443021Y595680D01*
X1445250Y595386D01*
X1446440Y595543D01*
X1455811Y586171D01*
Y574863D01*
X1454659Y573979D01*
X1453389Y574605D01*
Y578250D01*
X1452998Y580216D01*
X1451884Y581884D01*
X1430389Y603378D01*
Y615250D01*
X1429998Y617216D01*
X1428884Y618884D01*
X1404534Y643234D01*
X1402867Y644348D01*
X1400900Y644739D01*
X1398240D01*
Y648140D01*
X1372877D01*
X1367639Y653379D01*
Y661241D01*
X1368909Y661494D01*
X1369240Y660693D01*
D02*
G37*
G36*
X1222361Y413121D02*
Y410771D01*
X1222012Y410249D01*
X1221621Y408283D01*
Y406343D01*
X1220351Y406090D01*
X1219860Y407277D01*
X1218491Y409061D01*
X1217539Y409791D01*
Y411100D01*
X1217148Y413066D01*
X1216034Y414734D01*
X1208884Y421884D01*
X1207216Y422998D01*
X1205250Y423389D01*
X1135250D01*
X1134254Y423191D01*
X1133628Y424361D01*
X1135629Y426361D01*
X1209121D01*
X1222361Y413121D01*
D02*
G37*
G36*
X1253171Y437938D02*
X1234166Y418934D01*
X1233346Y417706D01*
X1231968Y417680D01*
X1231928Y417695D01*
X1231134Y418884D01*
X1214884Y435134D01*
X1213216Y436248D01*
X1211250Y436639D01*
X1134952D01*
X1134426Y437909D01*
X1135629Y439111D01*
X1252685D01*
X1253171Y437938D01*
D02*
G37*
G36*
X1442785Y547303D02*
X1280485Y385003D01*
X1279379Y385692D01*
Y396612D01*
X1430968Y548201D01*
X1440794D01*
X1442160Y548473D01*
X1442785Y547303D01*
D02*
G37*
G36*
X987861Y637298D02*
Y634128D01*
X902866Y549134D01*
X901752Y547467D01*
X901361Y545500D01*
Y396500D01*
X901752Y394534D01*
X902704Y393109D01*
X901718Y392300D01*
X887889Y406129D01*
Y452500D01*
X887498Y454467D01*
X886384Y456134D01*
X851634Y490884D01*
X849967Y491998D01*
X848000Y492389D01*
X842804D01*
X842521Y493581D01*
X842531Y493659D01*
X844291Y495009D01*
X845660Y496793D01*
X845826Y497194D01*
X846234Y497466D01*
X986591Y637824D01*
X987861Y637298D01*
D02*
G37*
G36*
X785866Y466754D02*
X816993Y435626D01*
X818661Y434512D01*
X820627Y434121D01*
X821827D01*
X822080Y432851D01*
X820893Y432360D01*
X819109Y430991D01*
X817740Y429207D01*
X816880Y427129D01*
X816805Y426560D01*
X815602Y426152D01*
X784139Y457616D01*
Y467053D01*
X785409Y467438D01*
X785866Y466754D01*
D02*
G37*
G36*
X1412620Y500943D02*
Y478200D01*
X1420119D01*
X1420372Y476930D01*
X1418836Y476294D01*
X1416216Y474284D01*
X1414206Y471664D01*
X1412943Y468614D01*
X1412512Y465340D01*
X1412943Y462066D01*
X1414206Y459016D01*
X1416216Y456396D01*
X1418836Y454386D01*
X1421393Y453327D01*
Y451953D01*
X1418836Y450894D01*
X1416216Y448884D01*
X1414206Y446264D01*
X1412943Y443214D01*
X1412512Y439940D01*
X1412943Y436666D01*
X1414206Y433616D01*
X1416216Y430996D01*
X1418836Y428986D01*
X1421886Y427723D01*
X1425160Y427292D01*
X1430160D01*
X1433434Y427723D01*
X1436484Y428986D01*
X1439104Y430996D01*
X1441114Y433616D01*
X1442377Y436666D01*
X1442808Y439940D01*
X1442377Y443214D01*
X1441114Y446264D01*
X1439104Y448884D01*
X1436484Y450894D01*
X1433927Y451953D01*
Y453327D01*
X1436484Y454386D01*
X1439104Y456396D01*
X1441114Y459016D01*
X1441605Y460201D01*
X1486451D01*
Y435968D01*
X1368622Y318139D01*
X1229460D01*
X1229075Y319409D01*
X1230134Y320116D01*
X1350058Y440041D01*
X1351261Y439448D01*
X1351136Y438500D01*
X1351430Y436271D01*
X1352290Y434193D01*
X1353659Y432409D01*
X1355443Y431040D01*
X1357521Y430180D01*
X1359750Y429886D01*
X1361979Y430180D01*
X1364057Y431040D01*
X1365841Y432409D01*
X1367210Y434193D01*
X1368070Y436271D01*
X1368364Y438500D01*
X1368070Y440729D01*
X1367210Y442807D01*
X1365841Y444591D01*
X1364057Y445960D01*
X1361979Y446820D01*
X1359750Y447114D01*
X1358802Y446989D01*
X1358209Y448192D01*
X1411447Y501429D01*
X1412620Y500943D01*
D02*
G37*
G36*
X865111Y433121D02*
Y422552D01*
X863841Y422139D01*
X843771Y442209D01*
X843830Y443856D01*
X844291Y444209D01*
X845660Y445993D01*
X846520Y448071D01*
X846735Y449702D01*
X848063Y450169D01*
X865111Y433121D01*
D02*
G37*
G36*
X678750Y972000D02*
X678750Y687961D01*
X678252Y687216D01*
X677861Y685250D01*
Y445000D01*
X678252Y443033D01*
X678750Y442289D01*
Y434889D01*
X579692D01*
X577726Y434498D01*
X576059Y433384D01*
X569306Y426631D01*
X384899Y426009D01*
X384000Y426906D01*
X384000Y1230382D01*
X385000Y1231000D01*
X678750D01*
X678750Y972000D01*
D02*
G37*
G36*
X989315Y448773D02*
X989324Y448591D01*
X954766Y414034D01*
X953652Y412366D01*
X953261Y410400D01*
Y409791D01*
X952309Y409061D01*
X950940Y407277D01*
X950080Y405199D01*
X949786Y402970D01*
Y389970D01*
X950080Y387741D01*
X950940Y385663D01*
X952095Y384159D01*
X951678Y382889D01*
X939722D01*
X939305Y384159D01*
X940460Y385663D01*
X941320Y387741D01*
X941614Y389970D01*
Y402970D01*
X941320Y405199D01*
X940460Y407277D01*
X939091Y409061D01*
X939028Y410011D01*
X978879Y449861D01*
X988918D01*
X989315Y448773D01*
D02*
G37*
G36*
X1004324Y438591D02*
X980166Y414434D01*
X979052Y412766D01*
X978661Y410800D01*
Y409791D01*
X977709Y409061D01*
X976340Y407277D01*
X975480Y405199D01*
X975186Y402970D01*
Y389970D01*
X975480Y387741D01*
X976340Y385663D01*
X977495Y384159D01*
X977078Y382889D01*
X965122D01*
X964705Y384159D01*
X965860Y385663D01*
X966720Y387741D01*
X967014Y389970D01*
Y402970D01*
X966720Y405199D01*
X965860Y407277D01*
X964491Y409061D01*
X964481Y409214D01*
X995128Y439861D01*
X1003798D01*
X1004324Y438591D01*
D02*
G37*
G36*
X727861Y392872D02*
Y371000D01*
X728252Y369034D01*
X729366Y367366D01*
X776616Y320116D01*
X777675Y319409D01*
X777290Y318139D01*
X751378D01*
X724139Y345378D01*
Y392250D01*
X723748Y394216D01*
X722634Y395884D01*
X691579Y426939D01*
X691646Y427291D01*
X693018Y427714D01*
X727861Y392872D01*
D02*
G37*
G36*
X877611Y450372D02*
Y404000D01*
X878002Y402034D01*
X879116Y400366D01*
X915866Y363616D01*
X917533Y362502D01*
X918005Y362409D01*
X917879Y361139D01*
X914629D01*
X875389Y400378D01*
Y435250D01*
X874998Y437216D01*
X873884Y438884D01*
X846384Y466384D01*
X844716Y467498D01*
X843850Y467670D01*
X843533Y469028D01*
X844291Y469609D01*
X845660Y471393D01*
X846520Y473471D01*
X846814Y475700D01*
X846520Y477929D01*
X845716Y479870D01*
X845750Y480182D01*
X846304Y481254D01*
X846669Y481314D01*
X877611Y450372D01*
D02*
G37*
G36*
X1054601Y409591D02*
X1053909Y409061D01*
X1052540Y407277D01*
X1051680Y405199D01*
X1051386Y402970D01*
Y389970D01*
X1051680Y387741D01*
X1052540Y385663D01*
X1053695Y384159D01*
X1053278Y382889D01*
X1041322D01*
X1040905Y384159D01*
X1042060Y385663D01*
X1042920Y387741D01*
X1043214Y389970D01*
Y402970D01*
X1042920Y405199D01*
X1042060Y407277D01*
X1041185Y408417D01*
X1043628Y410861D01*
X1054169D01*
X1054601Y409591D01*
D02*
G37*
G36*
X1080001D02*
X1079309Y409061D01*
X1077940Y407277D01*
X1077080Y405199D01*
X1076786Y402970D01*
Y389970D01*
X1077080Y387741D01*
X1077940Y385663D01*
X1079095Y384159D01*
X1078678Y382889D01*
X1066722D01*
X1066305Y384159D01*
X1067460Y385663D01*
X1068320Y387741D01*
X1068614Y389970D01*
Y402970D01*
X1068320Y405199D01*
X1067460Y407277D01*
X1066091Y409061D01*
X1065399Y409591D01*
X1065831Y410861D01*
X1079569D01*
X1080001Y409591D01*
D02*
G37*
G36*
X1020301Y429341D02*
X1019616Y428884D01*
X1005566Y414834D01*
X1004452Y413167D01*
X1004061Y411200D01*
Y409791D01*
X1003109Y409061D01*
X1001740Y407277D01*
X1000880Y405199D01*
X1000586Y402970D01*
Y389970D01*
X1000880Y387741D01*
X1001740Y385663D01*
X1002895Y384159D01*
X1002478Y382889D01*
X990522D01*
X990105Y384159D01*
X991260Y385663D01*
X992120Y387741D01*
X992414Y389970D01*
Y402970D01*
X992120Y405199D01*
X991260Y407277D01*
X989891Y409061D01*
X989856Y409589D01*
X1010879Y430611D01*
X1019916D01*
X1020301Y429341D01*
D02*
G37*
G36*
X1037074Y418841D02*
X1030966Y412734D01*
X1029852Y411067D01*
X1029624Y409916D01*
X1028509Y409061D01*
X1027140Y407277D01*
X1026280Y405199D01*
X1025986Y402970D01*
Y389970D01*
X1026280Y387741D01*
X1027140Y385663D01*
X1028295Y384159D01*
X1027878Y382889D01*
X1015922D01*
X1015505Y384159D01*
X1016660Y385663D01*
X1017520Y387741D01*
X1017814Y389970D01*
Y402970D01*
X1017520Y405199D01*
X1016660Y407277D01*
X1015291Y409061D01*
X1015232Y409964D01*
X1025378Y420111D01*
X1036548D01*
X1037074Y418841D01*
D02*
G37*
G36*
X796252Y478783D02*
X797366Y477116D01*
X815366Y459116D01*
X817033Y458002D01*
X818693Y457672D01*
X819045Y456809D01*
X819071Y456341D01*
X817740Y454607D01*
X816880Y452529D01*
X816805Y451960D01*
X815602Y451552D01*
X794639Y472516D01*
Y480386D01*
X795909Y480511D01*
X796252Y478783D01*
D02*
G37*
G36*
X1052540Y461863D02*
X1053909Y460079D01*
X1055693Y458710D01*
X1057771Y457850D01*
X1060000Y457556D01*
X1062229Y457850D01*
X1064307Y458710D01*
X1066091Y460079D01*
X1066841Y461057D01*
X1068111Y460626D01*
Y457878D01*
X1060371Y450139D01*
X1043061D01*
X1042675Y451409D01*
X1042806Y451496D01*
X1049274Y457963D01*
X1050388Y459631D01*
X1050779Y461597D01*
Y462797D01*
X1052049Y463050D01*
X1052540Y461863D01*
D02*
G37*
G36*
X862590Y1013378D02*
X867473Y1012406D01*
X872074Y1010501D01*
X876214Y1007735D01*
X879734Y1004214D01*
X882501Y1000073D01*
X884406Y995473D01*
X885378Y990590D01*
X885500Y988100D01*
Y983017D01*
X815866Y913384D01*
X814752Y911717D01*
X814361Y909750D01*
Y906028D01*
X813091Y905597D01*
X812091Y906901D01*
X811139Y907631D01*
Y931617D01*
X811557Y931790D01*
X813341Y933159D01*
X814710Y934943D01*
X815570Y937021D01*
X815864Y939250D01*
X815570Y941479D01*
X814710Y943557D01*
X813341Y945341D01*
X811557Y946710D01*
X811139Y946883D01*
Y972429D01*
X811092Y972663D01*
X811460Y976395D01*
X812617Y980209D01*
X814495Y983724D01*
X816875Y986623D01*
X817073Y986756D01*
X817110Y986793D01*
X818300Y986636D01*
X820529Y986930D01*
X822607Y987790D01*
X824391Y989159D01*
X825760Y990943D01*
X826620Y993021D01*
X826914Y995250D01*
X826620Y997479D01*
X825760Y999557D01*
X824391Y1001341D01*
X822607Y1002710D01*
X820529Y1003570D01*
X818300Y1003864D01*
X816071Y1003570D01*
X813993Y1002710D01*
X812209Y1001341D01*
X810840Y999557D01*
X809980Y997479D01*
X809686Y995250D01*
X809843Y994060D01*
X809806Y994023D01*
X809784Y993991D01*
X806697Y990377D01*
X804194Y986291D01*
X802360Y981865D01*
X801242Y977206D01*
X800869Y972467D01*
X800861Y972429D01*
Y944952D01*
X799790Y943557D01*
X798930Y941479D01*
X798636Y939250D01*
X798930Y937021D01*
X799790Y934943D01*
X800861Y933548D01*
Y907631D01*
X799909Y906901D01*
X798540Y905117D01*
X797680Y903039D01*
X797386Y900810D01*
Y887810D01*
X797680Y885581D01*
X798540Y883503D01*
X799909Y881719D01*
X801693Y880350D01*
X803771Y879490D01*
X806000Y879196D01*
X808229Y879490D01*
X810307Y880350D01*
X812091Y881719D01*
X813091Y883023D01*
X814361Y882592D01*
Y851500D01*
X814752Y849533D01*
X815866Y847866D01*
X862701Y801031D01*
Y743482D01*
X861562Y742920D01*
X861107Y743270D01*
X859029Y744130D01*
X856800Y744424D01*
X854571Y744130D01*
X852493Y743270D01*
X850709Y741901D01*
X849409Y740206D01*
X849271Y740202D01*
X848139Y740943D01*
Y742750D01*
X847748Y744716D01*
X846634Y746384D01*
X838134Y754884D01*
X836467Y755998D01*
X834500Y756389D01*
X749000D01*
X747033Y755998D01*
X745366Y754884D01*
X692173Y701691D01*
X691000Y702177D01*
Y869916D01*
X692270Y870301D01*
X694670Y866709D01*
X698208Y863170D01*
X702369Y860391D01*
X706991Y858476D01*
X711898Y857500D01*
X768250D01*
Y870250D01*
X719551D01*
X717747Y870978D01*
X714333Y872837D01*
X711243Y875194D01*
X708549Y877996D01*
X706314Y881176D01*
X704590Y884659D01*
X703418Y888365D01*
X702824Y892206D01*
X702750Y894150D01*
Y988100D01*
X702872Y990590D01*
X703844Y995473D01*
X705749Y1000073D01*
X708515Y1004214D01*
X712036Y1007735D01*
X716177Y1010501D01*
X720777Y1012406D01*
X725660Y1013378D01*
X728150Y1013500D01*
X860100D01*
X862590Y1013378D01*
D02*
G37*
G36*
X934616Y1017866D02*
X936283Y1016752D01*
X938250Y1016361D01*
X1001372D01*
X1016361Y1001372D01*
Y998130D01*
X1015091Y997699D01*
X1014791Y998091D01*
X1013007Y999460D01*
X1010929Y1000320D01*
X1008700Y1000614D01*
X1006471Y1000320D01*
X1004393Y999460D01*
X1002609Y998091D01*
X1001240Y996307D01*
X1000380Y994229D01*
X1000086Y992000D01*
Y979000D01*
X1000380Y976771D01*
X1001240Y974693D01*
X1002609Y972909D01*
X1003561Y972179D01*
Y907248D01*
X1003109Y906901D01*
X1001740Y905117D01*
X1000880Y903039D01*
X1000586Y900810D01*
Y887810D01*
X1000880Y885581D01*
X1001740Y883503D01*
X1003109Y881719D01*
X1004893Y880350D01*
X1006971Y879490D01*
X1009200Y879196D01*
X1011429Y879490D01*
X1013507Y880350D01*
X1015291Y881719D01*
X1016660Y883503D01*
X1017520Y885581D01*
X1017814Y887810D01*
Y900810D01*
X1017520Y903039D01*
X1016660Y905117D01*
X1015291Y906901D01*
X1013839Y908015D01*
Y972179D01*
X1014791Y972909D01*
X1015091Y973301D01*
X1016361Y972870D01*
Y928500D01*
X1016752Y926534D01*
X1017866Y924866D01*
X1029461Y913271D01*
Y907631D01*
X1028509Y906901D01*
X1027140Y905117D01*
X1026280Y903039D01*
X1025986Y900810D01*
Y887810D01*
X1026280Y885581D01*
X1027140Y883503D01*
X1028509Y881719D01*
X1029461Y880989D01*
Y875900D01*
X1029852Y873933D01*
X1030966Y872266D01*
X1035216Y868016D01*
X1036883Y866902D01*
X1038850Y866511D01*
X1189650D01*
X1191617Y866902D01*
X1193284Y868016D01*
X1203634Y878366D01*
X1204748Y880033D01*
X1205006Y881332D01*
X1206309Y881719D01*
X1208093Y880350D01*
X1210171Y879490D01*
X1212400Y879196D01*
X1214629Y879490D01*
X1216707Y880350D01*
X1218091Y881413D01*
X1219361Y880880D01*
Y879128D01*
X1205371Y865139D01*
X1115000D01*
X1113034Y864748D01*
X1111366Y863634D01*
X1099622Y851889D01*
X928878D01*
X900688Y880079D01*
X900798Y880749D01*
X902162Y881219D01*
X903293Y880350D01*
X905371Y879490D01*
X907600Y879196D01*
X909829Y879490D01*
X911907Y880350D01*
X913691Y881719D01*
X915060Y883503D01*
X915920Y885581D01*
X916214Y887810D01*
Y900810D01*
X915920Y903039D01*
X915060Y905117D01*
X913691Y906901D01*
X911907Y908270D01*
X909829Y909130D01*
X907600Y909424D01*
X905371Y909130D01*
X903293Y908270D01*
X901509Y906901D01*
X901466Y906844D01*
X900108Y907161D01*
X899998Y907717D01*
X899500Y908461D01*
Y982483D01*
X923634Y1006616D01*
X924748Y1008283D01*
X925139Y1010250D01*
Y1025685D01*
X926312Y1026171D01*
X934616Y1017866D01*
D02*
G37*
%LPC*%
G36*
X958400Y744424D02*
X956171Y744130D01*
X954093Y743270D01*
X952309Y741901D01*
X950940Y740117D01*
X950080Y738039D01*
X949786Y735810D01*
Y722810D01*
X950080Y720581D01*
X950940Y718503D01*
X952309Y716719D01*
X954093Y715350D01*
X956171Y714490D01*
X958400Y714196D01*
X960629Y714490D01*
X962707Y715350D01*
X964491Y716719D01*
X965860Y718503D01*
X966720Y720581D01*
X967014Y722810D01*
Y735810D01*
X966720Y738039D01*
X965860Y740117D01*
X964491Y741901D01*
X962707Y743270D01*
X960629Y744130D01*
X958400Y744424D01*
D02*
G37*
G36*
X870750Y947864D02*
X868521Y947570D01*
X866443Y946710D01*
X864659Y945341D01*
X863290Y943557D01*
X862430Y941479D01*
X862136Y939250D01*
X862430Y937021D01*
X863290Y934943D01*
X864659Y933159D01*
X866443Y931790D01*
X868521Y930930D01*
X870750Y930636D01*
X872979Y930930D01*
X875057Y931790D01*
X876841Y933159D01*
X878210Y934943D01*
X879070Y937021D01*
X879364Y939250D01*
X879070Y941479D01*
X878210Y943557D01*
X876841Y945341D01*
X875057Y946710D01*
X872979Y947570D01*
X870750Y947864D01*
D02*
G37*
G36*
X636391Y397591D02*
X630848Y396984D01*
X625431Y395658D01*
X620234Y393637D01*
X615345Y390955D01*
X610848Y387658D01*
X606819Y383801D01*
X603329Y379452D01*
X600436Y374685D01*
X598190Y369581D01*
X596630Y364227D01*
X595781Y358716D01*
X595660Y353140D01*
X596267Y347597D01*
X597592Y342180D01*
X599613Y336983D01*
X602295Y332094D01*
X605593Y327597D01*
X609449Y323569D01*
X613798Y320079D01*
X618565Y317186D01*
X623670Y314940D01*
X629023Y313379D01*
X634535Y312531D01*
X640110Y312409D01*
X645653Y313016D01*
X651070Y314342D01*
X656267Y316363D01*
X661156Y319045D01*
X665653Y322342D01*
X669681Y326199D01*
X673172Y330548D01*
X676065Y335315D01*
X678311Y340419D01*
X679871Y345773D01*
X680719Y351284D01*
X680841Y356860D01*
X680234Y362403D01*
X678908Y367820D01*
X676887Y373017D01*
X674205Y377906D01*
X670908Y382403D01*
X667052Y386431D01*
X662703Y389921D01*
X657935Y392814D01*
X652831Y395060D01*
X647477Y396621D01*
X641966Y397469D01*
X636391Y397591D01*
D02*
G37*
G36*
X472000Y397631D02*
X466436Y397267D01*
X460966Y396179D01*
X455686Y394386D01*
X450685Y391920D01*
X446048Y388822D01*
X441855Y385145D01*
X438178Y380952D01*
X435080Y376316D01*
X432614Y371314D01*
X430821Y366034D01*
X429734Y360564D01*
X429369Y355000D01*
X429734Y349436D01*
X430821Y343966D01*
X432614Y338686D01*
X435080Y333684D01*
X438178Y329048D01*
X441855Y324855D01*
X446048Y321178D01*
X450685Y318080D01*
X455686Y315614D01*
X460966Y313821D01*
X466436Y312733D01*
X472000Y312369D01*
X477565Y312733D01*
X483034Y313821D01*
X488314Y315614D01*
X493316Y318080D01*
X497952Y321178D01*
X502145Y324855D01*
X505822Y329048D01*
X508920Y333684D01*
X511386Y338686D01*
X513179Y343966D01*
X514267Y349436D01*
X514632Y355000D01*
X514267Y360564D01*
X513179Y366034D01*
X511386Y371314D01*
X508920Y376316D01*
X505822Y380952D01*
X502145Y385145D01*
X497952Y388822D01*
X493316Y391920D01*
X488315Y394386D01*
X483034Y396179D01*
X477565Y397267D01*
X472000Y397631D01*
D02*
G37*
G36*
X1135700Y1076814D02*
X1133471Y1076520D01*
X1131393Y1075660D01*
X1129609Y1074291D01*
X1128240Y1072507D01*
X1127380Y1070429D01*
X1127086Y1068200D01*
Y1055200D01*
X1127380Y1052971D01*
X1128240Y1050893D01*
X1129609Y1049109D01*
X1131393Y1047740D01*
X1133471Y1046880D01*
X1135700Y1046586D01*
X1137929Y1046880D01*
X1140007Y1047740D01*
X1141791Y1049109D01*
X1143160Y1050893D01*
X1144020Y1052971D01*
X1144314Y1055200D01*
Y1068200D01*
X1144020Y1070429D01*
X1143160Y1072507D01*
X1141791Y1074291D01*
X1140007Y1075660D01*
X1137929Y1076520D01*
X1135700Y1076814D01*
D02*
G37*
G36*
X983300D02*
X981071Y1076520D01*
X978993Y1075660D01*
X977209Y1074291D01*
X975840Y1072507D01*
X974980Y1070429D01*
X974686Y1068200D01*
Y1055200D01*
X974980Y1052971D01*
X975840Y1050893D01*
X977209Y1049109D01*
X978993Y1047740D01*
X981071Y1046880D01*
X983300Y1046586D01*
X985529Y1046880D01*
X987607Y1047740D01*
X989391Y1049109D01*
X990760Y1050893D01*
X991620Y1052971D01*
X991914Y1055200D01*
Y1068200D01*
X991620Y1070429D01*
X990760Y1072507D01*
X989391Y1074291D01*
X987607Y1075660D01*
X985529Y1076520D01*
X983300Y1076814D01*
D02*
G37*
G36*
X957900D02*
X955671Y1076520D01*
X953593Y1075660D01*
X951809Y1074291D01*
X950440Y1072507D01*
X949580Y1070429D01*
X949286Y1068200D01*
Y1055200D01*
X949580Y1052971D01*
X950440Y1050893D01*
X951809Y1049109D01*
X953593Y1047740D01*
X955671Y1046880D01*
X957900Y1046586D01*
X960129Y1046880D01*
X962207Y1047740D01*
X963991Y1049109D01*
X965360Y1050893D01*
X966220Y1052971D01*
X966514Y1055200D01*
Y1068200D01*
X966220Y1070429D01*
X965360Y1072507D01*
X963991Y1074291D01*
X962207Y1075660D01*
X960129Y1076520D01*
X957900Y1076814D01*
D02*
G37*
G36*
X1186500D02*
X1184271Y1076520D01*
X1182193Y1075660D01*
X1180409Y1074291D01*
X1179040Y1072507D01*
X1178180Y1070429D01*
X1177886Y1068200D01*
Y1055200D01*
X1178180Y1052971D01*
X1179040Y1050893D01*
X1180409Y1049109D01*
X1182193Y1047740D01*
X1184271Y1046880D01*
X1186500Y1046586D01*
X1188729Y1046880D01*
X1190807Y1047740D01*
X1192591Y1049109D01*
X1193960Y1050893D01*
X1194820Y1052971D01*
X1195114Y1055200D01*
Y1068200D01*
X1194820Y1070429D01*
X1193960Y1072507D01*
X1192591Y1074291D01*
X1190807Y1075660D01*
X1188729Y1076520D01*
X1186500Y1076814D01*
D02*
G37*
G36*
X1161100D02*
X1158871Y1076520D01*
X1156793Y1075660D01*
X1155009Y1074291D01*
X1153640Y1072507D01*
X1152780Y1070429D01*
X1152486Y1068200D01*
Y1055200D01*
X1152780Y1052971D01*
X1153640Y1050893D01*
X1155009Y1049109D01*
X1156793Y1047740D01*
X1158871Y1046880D01*
X1161100Y1046586D01*
X1163329Y1046880D01*
X1165407Y1047740D01*
X1167191Y1049109D01*
X1168560Y1050893D01*
X1169420Y1052971D01*
X1169714Y1055200D01*
Y1068200D01*
X1169420Y1070429D01*
X1168560Y1072507D01*
X1167191Y1074291D01*
X1165407Y1075660D01*
X1163329Y1076520D01*
X1161100Y1076814D01*
D02*
G37*
G36*
X856500Y1048364D02*
X854271Y1048070D01*
X852193Y1047210D01*
X850409Y1045841D01*
X849040Y1044057D01*
X848349Y1042389D01*
X825821D01*
X825091Y1043341D01*
X823307Y1044710D01*
X821229Y1045570D01*
X819000Y1045864D01*
X816771Y1045570D01*
X814693Y1044710D01*
X812909Y1043341D01*
X811540Y1041557D01*
X810680Y1039479D01*
X810386Y1037250D01*
X810680Y1035021D01*
X811540Y1032943D01*
X812909Y1031159D01*
X814693Y1029790D01*
X816771Y1028930D01*
X819000Y1028636D01*
X821229Y1028930D01*
X823307Y1029790D01*
X825091Y1031159D01*
X825821Y1032111D01*
X852626D01*
X854271Y1031430D01*
X856500Y1031136D01*
X858729Y1031430D01*
X860807Y1032290D01*
X862591Y1033659D01*
X863960Y1035443D01*
X864820Y1037521D01*
X865114Y1039750D01*
X864820Y1041979D01*
X863960Y1044057D01*
X862591Y1045841D01*
X860807Y1047210D01*
X858729Y1048070D01*
X856500Y1048364D01*
D02*
G37*
G36*
X1359250Y998214D02*
X1346250D01*
X1344021Y997920D01*
X1341943Y997060D01*
X1340159Y995691D01*
X1338790Y993907D01*
X1337930Y991829D01*
X1337636Y989600D01*
X1337930Y987371D01*
X1338790Y985293D01*
X1340159Y983509D01*
X1341943Y982140D01*
X1344021Y981280D01*
X1346250Y980986D01*
X1359250D01*
X1361479Y981280D01*
X1363557Y982140D01*
X1365341Y983509D01*
X1366710Y985293D01*
X1367570Y987371D01*
X1367864Y989600D01*
X1367570Y991829D01*
X1366710Y993907D01*
X1365341Y995691D01*
X1363557Y997060D01*
X1361479Y997920D01*
X1359250Y998214D01*
D02*
G37*
G36*
X1186500Y1000614D02*
X1184271Y1000320D01*
X1182193Y999460D01*
X1180409Y998091D01*
X1179040Y996307D01*
X1178180Y994229D01*
X1177886Y992000D01*
Y979000D01*
X1178180Y976771D01*
X1179040Y974693D01*
X1180409Y972909D01*
X1182193Y971540D01*
X1184271Y970680D01*
X1186500Y970386D01*
X1188729Y970680D01*
X1190807Y971540D01*
X1192591Y972909D01*
X1193960Y974693D01*
X1194820Y976771D01*
X1195114Y979000D01*
Y992000D01*
X1194820Y994229D01*
X1193960Y996307D01*
X1192591Y998091D01*
X1190807Y999460D01*
X1188729Y1000320D01*
X1186500Y1000614D01*
D02*
G37*
G36*
X1395000Y1034614D02*
X1392771Y1034320D01*
X1390693Y1033460D01*
X1388909Y1032091D01*
X1387540Y1030307D01*
X1386680Y1028229D01*
X1386386Y1026000D01*
X1386680Y1023771D01*
X1387540Y1021693D01*
X1388909Y1019909D01*
X1390693Y1018540D01*
X1392771Y1017680D01*
X1395000Y1017386D01*
X1397229Y1017680D01*
X1399307Y1018540D01*
X1401091Y1019909D01*
X1402460Y1021693D01*
X1403320Y1023771D01*
X1403614Y1026000D01*
X1403320Y1028229D01*
X1402460Y1030307D01*
X1401091Y1032091D01*
X1399307Y1033460D01*
X1397229Y1034320D01*
X1395000Y1034614D01*
D02*
G37*
G36*
X1450750Y1137864D02*
X1448521Y1137570D01*
X1446443Y1136710D01*
X1444659Y1135341D01*
X1443290Y1133557D01*
X1442430Y1131479D01*
X1442136Y1129250D01*
X1442293Y1128060D01*
X1440906Y1126673D01*
X1440773Y1126475D01*
X1437874Y1124096D01*
X1434359Y1122217D01*
X1430545Y1121060D01*
X1426813Y1120692D01*
X1426579Y1120739D01*
X1402820D01*
X1401591Y1122341D01*
X1399807Y1123710D01*
X1397729Y1124570D01*
X1395500Y1124864D01*
X1393271Y1124570D01*
X1391193Y1123710D01*
X1389409Y1122341D01*
X1388180Y1120739D01*
X1366779D01*
X1366710Y1120907D01*
X1365341Y1122691D01*
X1363557Y1124060D01*
X1361479Y1124920D01*
X1359250Y1125214D01*
X1346250D01*
X1344021Y1124920D01*
X1341943Y1124060D01*
X1340159Y1122691D01*
X1338790Y1120907D01*
X1337930Y1118829D01*
X1337636Y1116600D01*
X1337930Y1114371D01*
X1338790Y1112293D01*
X1340159Y1110509D01*
X1341943Y1109140D01*
X1344021Y1108280D01*
X1346250Y1107986D01*
X1359250D01*
X1361479Y1108280D01*
X1363557Y1109140D01*
X1365278Y1110461D01*
X1389177D01*
X1389409Y1110159D01*
X1391193Y1108790D01*
X1393271Y1107930D01*
X1395500Y1107636D01*
X1397729Y1107930D01*
X1399807Y1108790D01*
X1401591Y1110159D01*
X1401823Y1110461D01*
X1426579D01*
X1426617Y1110469D01*
X1431356Y1110842D01*
X1436015Y1111960D01*
X1440441Y1113794D01*
X1444527Y1116297D01*
X1448141Y1119384D01*
X1448173Y1119406D01*
X1449560Y1120793D01*
X1450750Y1120636D01*
X1452979Y1120930D01*
X1455057Y1121790D01*
X1456841Y1123159D01*
X1458210Y1124943D01*
X1459070Y1127021D01*
X1459364Y1129250D01*
X1459070Y1131479D01*
X1458210Y1133557D01*
X1456841Y1135341D01*
X1455057Y1136710D01*
X1452979Y1137570D01*
X1450750Y1137864D01*
D02*
G37*
G36*
X1472602Y1210000D02*
X1349398D01*
X1344491Y1209024D01*
X1339869Y1207109D01*
X1335708Y1204330D01*
X1332171Y1200792D01*
X1329391Y1196631D01*
X1327476Y1192009D01*
X1326500Y1187102D01*
Y1184600D01*
Y1130750D01*
X1339250D01*
Y1135137D01*
X1340520Y1135632D01*
X1341943Y1134540D01*
X1344021Y1133680D01*
X1346250Y1133386D01*
X1359250D01*
X1361479Y1133680D01*
X1363557Y1134540D01*
X1365341Y1135909D01*
X1366710Y1137693D01*
X1367570Y1139771D01*
X1367864Y1142000D01*
X1367570Y1144229D01*
X1366710Y1146307D01*
X1365341Y1148091D01*
X1363557Y1149460D01*
X1361479Y1150320D01*
X1359250Y1150614D01*
X1346250D01*
X1344021Y1150320D01*
X1341943Y1149460D01*
X1340520Y1148368D01*
X1339250Y1148863D01*
Y1179449D01*
X1339978Y1181253D01*
X1341837Y1184667D01*
X1344194Y1187757D01*
X1346996Y1190451D01*
X1350176Y1192686D01*
X1353659Y1194410D01*
X1357365Y1195583D01*
X1361207Y1196176D01*
X1363150Y1196250D01*
Y1196250D01*
X1457100D01*
X1459590Y1196128D01*
X1464473Y1195156D01*
X1469073Y1193251D01*
X1473214Y1190484D01*
X1476734Y1186964D01*
X1479501Y1182823D01*
X1481406Y1178223D01*
X1482378Y1173340D01*
X1482500Y1170850D01*
Y1038900D01*
X1482378Y1036410D01*
X1481406Y1031527D01*
X1479501Y1026926D01*
X1476734Y1022786D01*
X1473214Y1019266D01*
X1469073Y1016499D01*
X1464473Y1014594D01*
X1459590Y1013622D01*
X1457100Y1013500D01*
X1368629D01*
X1367792Y1014455D01*
X1367864Y1015000D01*
X1367570Y1017229D01*
X1366710Y1019307D01*
X1365341Y1021091D01*
X1363557Y1022460D01*
X1361479Y1023320D01*
X1359250Y1023614D01*
X1346250D01*
X1344607Y1023397D01*
X1342249Y1026926D01*
X1340344Y1031527D01*
X1340100Y1032754D01*
X1341252Y1033471D01*
X1341943Y1032940D01*
X1344021Y1032080D01*
X1346250Y1031786D01*
X1359250D01*
X1361479Y1032080D01*
X1363557Y1032940D01*
X1365341Y1034309D01*
X1366710Y1036093D01*
X1367570Y1038171D01*
X1367864Y1040400D01*
X1367570Y1042629D01*
X1366710Y1044707D01*
X1365341Y1046491D01*
X1363557Y1047860D01*
X1361479Y1048720D01*
X1359250Y1049014D01*
X1346250D01*
X1344021Y1048720D01*
X1341943Y1047860D01*
X1340520Y1046768D01*
X1339250Y1047263D01*
Y1058937D01*
X1340520Y1059432D01*
X1341943Y1058340D01*
X1344021Y1057480D01*
X1346250Y1057186D01*
X1359250D01*
X1361479Y1057480D01*
X1363557Y1058340D01*
X1365341Y1059709D01*
X1366710Y1061493D01*
X1367570Y1063571D01*
X1367864Y1065800D01*
X1367570Y1068029D01*
X1366710Y1070107D01*
X1365341Y1071891D01*
X1363557Y1073260D01*
X1361479Y1074120D01*
X1359250Y1074414D01*
X1346250D01*
X1344021Y1074120D01*
X1341943Y1073260D01*
X1340467Y1072127D01*
X1339250Y1072000D01*
X1339250Y1072000D01*
X1339250Y1072000D01*
X1326500D01*
Y1024900D01*
Y1022398D01*
X1327476Y1017491D01*
X1329391Y1012869D01*
X1332171Y1008708D01*
X1335708Y1005171D01*
X1339869Y1002391D01*
X1344491Y1000476D01*
X1349398Y999500D01*
X1387556D01*
X1388760Y999340D01*
Y995939D01*
X1387050D01*
X1385083Y995548D01*
X1383416Y994434D01*
X1375366Y986384D01*
X1374252Y984716D01*
X1373861Y982750D01*
Y950128D01*
X1368963Y945231D01*
X1367790Y945717D01*
Y947340D01*
X1337710D01*
Y930260D01*
X1367790D01*
Y933661D01*
X1369800D01*
X1371767Y934053D01*
X1373434Y935166D01*
X1382634Y944366D01*
X1383748Y946033D01*
X1384139Y948000D01*
Y980621D01*
X1387587Y984069D01*
X1388760Y983583D01*
Y982260D01*
X1411961D01*
X1412447Y981087D01*
X1405374Y974014D01*
X1397300D01*
X1395071Y973720D01*
X1392993Y972860D01*
X1391209Y971491D01*
X1389840Y969707D01*
X1388980Y967629D01*
X1388686Y965400D01*
X1388980Y963171D01*
X1389840Y961093D01*
X1391209Y959309D01*
X1392993Y957940D01*
X1395071Y957080D01*
X1397300Y956786D01*
X1410300D01*
X1412529Y957080D01*
X1414607Y957940D01*
X1416391Y959309D01*
X1417760Y961093D01*
X1418620Y963171D01*
X1418914Y965400D01*
X1418620Y967629D01*
X1417760Y969707D01*
X1416823Y970928D01*
X1442596Y996701D01*
X1465828D01*
X1466390Y995562D01*
X1466040Y995107D01*
X1465180Y993029D01*
X1464886Y990800D01*
X1465180Y988571D01*
X1466040Y986493D01*
X1467409Y984709D01*
X1469193Y983340D01*
X1471271Y982480D01*
X1473500Y982186D01*
X1486500D01*
X1488729Y982480D01*
X1490807Y983340D01*
X1492591Y984709D01*
X1493960Y986493D01*
X1494820Y988571D01*
X1494893Y989126D01*
X1507634Y1001866D01*
X1508748Y1003533D01*
X1509139Y1005500D01*
Y1022122D01*
X1525560Y1038543D01*
X1526750Y1038386D01*
X1528979Y1038680D01*
X1531057Y1039540D01*
X1532841Y1040909D01*
X1534210Y1042693D01*
X1535070Y1044771D01*
X1535364Y1047000D01*
X1535070Y1049229D01*
X1534210Y1051307D01*
X1532841Y1053091D01*
X1531057Y1054460D01*
X1528979Y1055320D01*
X1526750Y1055614D01*
X1524521Y1055320D01*
X1522443Y1054460D01*
X1520659Y1053091D01*
X1519290Y1051307D01*
X1518430Y1049229D01*
X1518136Y1047000D01*
X1518293Y1045810D01*
X1505159Y1032676D01*
X1503889Y1033202D01*
Y1168872D01*
X1525560Y1190543D01*
X1526750Y1190386D01*
X1528979Y1190680D01*
X1531057Y1191540D01*
X1532841Y1192909D01*
X1534210Y1194693D01*
X1535070Y1196771D01*
X1535364Y1199000D01*
X1535070Y1201229D01*
X1534210Y1203307D01*
X1532841Y1205091D01*
X1531057Y1206460D01*
X1528979Y1207320D01*
X1526750Y1207614D01*
X1524521Y1207320D01*
X1522443Y1206460D01*
X1520659Y1205091D01*
X1519290Y1203307D01*
X1518430Y1201229D01*
X1518136Y1199000D01*
X1518293Y1197810D01*
X1496673Y1176191D01*
X1495500Y1176677D01*
Y1187102D01*
X1494524Y1192009D01*
X1492609Y1196631D01*
X1489830Y1200792D01*
X1486292Y1204330D01*
X1482131Y1207109D01*
X1477509Y1209024D01*
X1472602Y1210000D01*
D02*
G37*
G36*
X1395500Y1188364D02*
X1393271Y1188070D01*
X1391193Y1187210D01*
X1389409Y1185841D01*
X1388040Y1184057D01*
X1387180Y1181979D01*
X1386886Y1179750D01*
X1387180Y1177521D01*
X1388040Y1175443D01*
X1389409Y1173659D01*
X1391193Y1172290D01*
X1393271Y1171430D01*
X1395500Y1171136D01*
X1397729Y1171430D01*
X1399807Y1172290D01*
X1401591Y1173659D01*
X1402960Y1175443D01*
X1403820Y1177521D01*
X1404114Y1179750D01*
X1403820Y1181979D01*
X1402960Y1184057D01*
X1401591Y1185841D01*
X1399807Y1187210D01*
X1397729Y1188070D01*
X1395500Y1188364D01*
D02*
G37*
G36*
X1283050Y1150614D02*
X1270050D01*
X1267821Y1150320D01*
X1265743Y1149460D01*
X1263959Y1148091D01*
X1262590Y1146307D01*
X1261730Y1144229D01*
X1261436Y1142000D01*
X1261730Y1139771D01*
X1262590Y1137693D01*
X1263959Y1135909D01*
X1265743Y1134540D01*
X1267821Y1133680D01*
X1270050Y1133386D01*
X1283050D01*
X1285279Y1133680D01*
X1287357Y1134540D01*
X1289141Y1135909D01*
X1290510Y1137693D01*
X1291370Y1139771D01*
X1291664Y1142000D01*
X1291370Y1144229D01*
X1290510Y1146307D01*
X1289141Y1148091D01*
X1287357Y1149460D01*
X1285279Y1150320D01*
X1283050Y1150614D01*
D02*
G37*
G36*
Y1125214D02*
X1270050D01*
X1267821Y1124920D01*
X1265743Y1124060D01*
X1263959Y1122691D01*
X1262590Y1120907D01*
X1261730Y1118829D01*
X1261436Y1116600D01*
X1261730Y1114371D01*
X1262590Y1112293D01*
X1263959Y1110509D01*
X1265743Y1109140D01*
X1267821Y1108280D01*
X1270050Y1107986D01*
X1283050D01*
X1285279Y1108280D01*
X1287357Y1109140D01*
X1289141Y1110509D01*
X1290510Y1112293D01*
X1291370Y1114371D01*
X1291664Y1116600D01*
X1291370Y1118829D01*
X1290510Y1120907D01*
X1289141Y1122691D01*
X1287357Y1124060D01*
X1285279Y1124920D01*
X1283050Y1125214D01*
D02*
G37*
G36*
X819000Y1197864D02*
X816771Y1197570D01*
X814693Y1196710D01*
X812909Y1195341D01*
X811540Y1193557D01*
X810680Y1191479D01*
X810386Y1189250D01*
X810680Y1187021D01*
X811540Y1184943D01*
X812909Y1183159D01*
X814693Y1181790D01*
X816771Y1180930D01*
X819000Y1180636D01*
X821229Y1180930D01*
X823307Y1181790D01*
X825091Y1183159D01*
X825821Y1184111D01*
X830621D01*
X851768Y1162965D01*
X851502Y1160950D01*
X851852Y1158298D01*
X852875Y1155826D01*
X854504Y1153704D01*
X856626Y1152075D01*
X857381Y1151762D01*
Y1093938D01*
X856626Y1093625D01*
X854504Y1091996D01*
X852875Y1089874D01*
X851852Y1087402D01*
X851502Y1084750D01*
X851852Y1082098D01*
X852875Y1079626D01*
X854504Y1077504D01*
X856626Y1075875D01*
X859098Y1074852D01*
X861750Y1074502D01*
X864402Y1074852D01*
X866874Y1075875D01*
X868996Y1077504D01*
X870625Y1079626D01*
X871648Y1082098D01*
X871998Y1084750D01*
X871648Y1087402D01*
X870625Y1089874D01*
X868996Y1091996D01*
X867659Y1093023D01*
Y1152678D01*
X868996Y1153704D01*
X870625Y1155826D01*
X871648Y1158298D01*
X871998Y1160950D01*
X871648Y1163602D01*
X870625Y1166074D01*
X868996Y1168196D01*
X866874Y1169825D01*
X864402Y1170848D01*
X861750Y1171198D01*
X859098Y1170848D01*
X858618Y1170650D01*
X836384Y1192884D01*
X834716Y1193998D01*
X832750Y1194389D01*
X825821D01*
X825091Y1195341D01*
X823307Y1196710D01*
X821229Y1197570D01*
X819000Y1197864D01*
D02*
G37*
G36*
X1359250Y1099814D02*
X1346250D01*
X1344021Y1099520D01*
X1341943Y1098660D01*
X1340159Y1097291D01*
X1338790Y1095507D01*
X1337930Y1093429D01*
X1337636Y1091200D01*
X1337930Y1088971D01*
X1338790Y1086893D01*
X1340159Y1085109D01*
X1341943Y1083740D01*
X1344021Y1082880D01*
X1346250Y1082586D01*
X1359250D01*
X1361479Y1082880D01*
X1363557Y1083740D01*
X1365278Y1085061D01*
X1387641D01*
X1388909Y1083409D01*
X1390693Y1082040D01*
X1392771Y1081180D01*
X1395000Y1080886D01*
X1397229Y1081180D01*
X1399307Y1082040D01*
X1401091Y1083409D01*
X1402359Y1085061D01*
X1428479D01*
X1428713Y1085108D01*
X1432445Y1084740D01*
X1436259Y1083583D01*
X1439774Y1081705D01*
X1442293Y1079638D01*
X1442136Y1078450D01*
X1442430Y1076221D01*
X1443290Y1074143D01*
X1444659Y1072359D01*
X1446443Y1070990D01*
X1448521Y1070130D01*
X1450750Y1069836D01*
X1452979Y1070130D01*
X1455057Y1070990D01*
X1456841Y1072359D01*
X1458210Y1074143D01*
X1459070Y1076221D01*
X1459364Y1078450D01*
X1459070Y1080679D01*
X1458210Y1082757D01*
X1456841Y1084541D01*
X1455057Y1085910D01*
X1452979Y1086770D01*
X1450750Y1087064D01*
X1449478Y1086896D01*
X1446427Y1089503D01*
X1442341Y1092006D01*
X1437915Y1093840D01*
X1433256Y1094958D01*
X1428517Y1095331D01*
X1428479Y1095339D01*
X1401284D01*
X1401091Y1095591D01*
X1399307Y1096960D01*
X1397229Y1097820D01*
X1395000Y1098114D01*
X1392771Y1097820D01*
X1390693Y1096960D01*
X1388909Y1095591D01*
X1388716Y1095339D01*
X1366779D01*
X1366710Y1095507D01*
X1365341Y1097291D01*
X1363557Y1098660D01*
X1361479Y1099520D01*
X1359250Y1099814D01*
D02*
G37*
G36*
X1283050Y1074414D02*
X1270050D01*
X1267821Y1074120D01*
X1265743Y1073260D01*
X1263959Y1071891D01*
X1263081Y1070746D01*
X1262084Y1070548D01*
X1260416Y1069434D01*
X1252116Y1061134D01*
X1251002Y1059466D01*
X1250611Y1057500D01*
Y1025879D01*
X1175621Y950889D01*
X1096250D01*
X1094284Y950498D01*
X1092616Y949384D01*
X1056366Y913134D01*
X1055252Y911467D01*
X1054861Y909500D01*
Y907631D01*
X1053909Y906901D01*
X1052540Y905117D01*
X1051680Y903039D01*
X1051386Y900810D01*
Y887810D01*
X1051680Y885581D01*
X1052540Y883503D01*
X1053909Y881719D01*
X1055693Y880350D01*
X1057771Y879490D01*
X1060000Y879196D01*
X1062229Y879490D01*
X1064307Y880350D01*
X1066091Y881719D01*
X1067460Y883503D01*
X1068320Y885581D01*
X1068614Y887810D01*
Y900810D01*
X1068320Y903039D01*
X1067460Y905117D01*
X1066091Y906901D01*
X1066050Y906932D01*
X1065967Y908200D01*
X1098379Y940611D01*
X1176020D01*
X1176719Y939341D01*
X1176591Y939139D01*
X1110250D01*
X1108283Y938748D01*
X1106616Y937634D01*
X1081766Y912784D01*
X1080652Y911116D01*
X1080261Y909150D01*
Y907631D01*
X1079309Y906901D01*
X1077940Y905117D01*
X1077080Y903039D01*
X1076786Y900810D01*
Y887810D01*
X1077080Y885581D01*
X1077940Y883503D01*
X1079309Y881719D01*
X1081093Y880350D01*
X1083171Y879490D01*
X1085400Y879196D01*
X1087629Y879490D01*
X1089707Y880350D01*
X1091491Y881719D01*
X1092860Y883503D01*
X1093720Y885581D01*
X1094014Y887810D01*
Y900810D01*
X1093720Y903039D01*
X1092860Y905117D01*
X1091491Y906901D01*
X1091425Y907908D01*
X1112378Y928861D01*
X1121298D01*
X1121824Y927591D01*
X1107166Y912934D01*
X1106052Y911266D01*
X1105661Y909300D01*
Y907631D01*
X1104709Y906901D01*
X1103340Y905117D01*
X1102480Y903039D01*
X1102186Y900810D01*
Y887810D01*
X1102480Y885581D01*
X1103340Y883503D01*
X1104709Y881719D01*
X1106493Y880350D01*
X1108571Y879490D01*
X1110800Y879196D01*
X1113029Y879490D01*
X1115107Y880350D01*
X1116891Y881719D01*
X1118260Y883503D01*
X1119120Y885581D01*
X1119414Y887810D01*
Y900810D01*
X1119120Y903039D01*
X1118260Y905117D01*
X1116891Y906901D01*
X1116816Y908048D01*
X1128629Y919861D01*
X1136685D01*
X1137171Y918688D01*
X1132566Y914084D01*
X1131452Y912417D01*
X1131061Y910450D01*
Y907631D01*
X1130109Y906901D01*
X1128740Y905117D01*
X1127880Y903039D01*
X1127586Y900810D01*
Y887810D01*
X1127880Y885581D01*
X1128740Y883503D01*
X1130109Y881719D01*
X1131893Y880350D01*
X1133971Y879490D01*
X1136200Y879196D01*
X1138429Y879490D01*
X1140507Y880350D01*
X1142291Y881719D01*
X1143660Y883503D01*
X1144520Y885581D01*
X1144814Y887810D01*
Y900810D01*
X1144520Y903039D01*
X1143660Y905117D01*
X1142291Y906901D01*
X1141830Y907255D01*
X1141752Y908735D01*
X1144878Y911861D01*
X1190000D01*
X1191966Y912252D01*
X1193634Y913366D01*
X1263788Y983521D01*
X1263959Y983509D01*
X1265743Y982140D01*
X1267821Y981280D01*
X1270050Y980986D01*
X1283050D01*
X1285279Y981280D01*
X1287357Y982140D01*
X1289141Y983509D01*
X1290510Y985293D01*
X1291370Y987371D01*
X1291664Y989600D01*
X1291370Y991829D01*
X1290510Y993907D01*
X1289217Y995591D01*
X1289359Y996335D01*
X1289538Y996861D01*
X1291000D01*
X1292966Y997252D01*
X1294634Y998366D01*
X1304384Y1008116D01*
X1305498Y1009783D01*
X1305889Y1011750D01*
Y1033000D01*
X1305498Y1034967D01*
X1304384Y1036634D01*
X1296984Y1044034D01*
X1295316Y1045148D01*
X1293350Y1045539D01*
X1289871D01*
X1289141Y1046491D01*
X1287357Y1047860D01*
X1285279Y1048720D01*
X1283050Y1049014D01*
X1270050D01*
X1267821Y1048720D01*
X1265743Y1047860D01*
X1263959Y1046491D01*
X1262590Y1044707D01*
X1262159Y1043665D01*
X1260889Y1043917D01*
Y1055371D01*
X1264676Y1059159D01*
X1265743Y1058340D01*
X1267821Y1057480D01*
X1270050Y1057186D01*
X1283050D01*
X1285279Y1057480D01*
X1287357Y1058340D01*
X1289141Y1059709D01*
X1290510Y1061493D01*
X1291370Y1063571D01*
X1291664Y1065800D01*
X1291370Y1068029D01*
X1290510Y1070107D01*
X1289141Y1071891D01*
X1287357Y1073260D01*
X1285279Y1074120D01*
X1283050Y1074414D01*
D02*
G37*
G36*
Y1099814D02*
X1270050D01*
X1267821Y1099520D01*
X1265743Y1098660D01*
X1263959Y1097291D01*
X1262590Y1095507D01*
X1261730Y1093429D01*
X1261436Y1091200D01*
X1261730Y1088971D01*
X1262590Y1086893D01*
X1263959Y1085109D01*
X1265743Y1083740D01*
X1267821Y1082880D01*
X1270050Y1082586D01*
X1283050D01*
X1285279Y1082880D01*
X1287357Y1083740D01*
X1289141Y1085109D01*
X1290510Y1086893D01*
X1291370Y1088971D01*
X1291664Y1091200D01*
X1291370Y1093429D01*
X1290510Y1095507D01*
X1289141Y1097291D01*
X1287357Y1098660D01*
X1285279Y1099520D01*
X1283050Y1099814D01*
D02*
G37*
G36*
X1101500Y1143114D02*
X1099271Y1142820D01*
X1097193Y1141960D01*
X1095409Y1140591D01*
X1094040Y1138807D01*
X1093180Y1136729D01*
X1092886Y1134500D01*
X1093061Y1133176D01*
X1092252Y1131966D01*
X1091861Y1130000D01*
Y1075130D01*
X1090591Y1074597D01*
X1089207Y1075660D01*
X1087129Y1076520D01*
X1084900Y1076814D01*
X1082671Y1076520D01*
X1080593Y1075660D01*
X1078809Y1074291D01*
X1077440Y1072507D01*
X1076580Y1070429D01*
X1076286Y1068200D01*
Y1055200D01*
X1076580Y1052971D01*
X1077440Y1050893D01*
X1078809Y1049109D01*
X1080593Y1047740D01*
X1082671Y1046880D01*
X1084900Y1046586D01*
X1087129Y1046880D01*
X1089207Y1047740D01*
X1090591Y1048803D01*
X1091861Y1048270D01*
Y1016250D01*
X1092252Y1014284D01*
X1093366Y1012616D01*
X1105161Y1000822D01*
Y998821D01*
X1104209Y998091D01*
X1102840Y996307D01*
X1101980Y994229D01*
X1101686Y992000D01*
Y979000D01*
X1101980Y976771D01*
X1102840Y974693D01*
X1104209Y972909D01*
X1105993Y971540D01*
X1108071Y970680D01*
X1110300Y970386D01*
X1112529Y970680D01*
X1114607Y971540D01*
X1116391Y972909D01*
X1117760Y974693D01*
X1118620Y976771D01*
X1118914Y979000D01*
Y992000D01*
X1118620Y994229D01*
X1117760Y996307D01*
X1116391Y998091D01*
X1115439Y998821D01*
Y1002950D01*
X1115048Y1004917D01*
X1113934Y1006584D01*
X1102139Y1018379D01*
Y1049721D01*
X1103409Y1050152D01*
X1104209Y1049109D01*
X1105993Y1047740D01*
X1108071Y1046880D01*
X1110300Y1046586D01*
X1112529Y1046880D01*
X1114607Y1047740D01*
X1116391Y1049109D01*
X1117760Y1050893D01*
X1118620Y1052971D01*
X1118914Y1055200D01*
Y1068200D01*
X1118620Y1070429D01*
X1117760Y1072507D01*
X1116391Y1074291D01*
X1114607Y1075660D01*
X1112529Y1076520D01*
X1110300Y1076814D01*
X1108071Y1076520D01*
X1105993Y1075660D01*
X1104209Y1074291D01*
X1103409Y1073248D01*
X1102139Y1073679D01*
Y1125970D01*
X1103729Y1126180D01*
X1105807Y1127040D01*
X1107591Y1128409D01*
X1108960Y1130193D01*
X1109820Y1132271D01*
X1110114Y1134500D01*
X1109820Y1136729D01*
X1108960Y1138807D01*
X1107591Y1140591D01*
X1105807Y1141960D01*
X1103729Y1142820D01*
X1101500Y1143114D01*
D02*
G37*
G36*
X1135700Y1000614D02*
X1133471Y1000320D01*
X1131393Y999460D01*
X1129609Y998091D01*
X1128240Y996307D01*
X1127380Y994229D01*
X1127086Y992000D01*
Y979000D01*
X1127380Y976771D01*
X1128240Y974693D01*
X1129609Y972909D01*
X1131393Y971540D01*
X1133471Y970680D01*
X1135700Y970386D01*
X1137929Y970680D01*
X1140007Y971540D01*
X1141791Y972909D01*
X1143160Y974693D01*
X1144020Y976771D01*
X1144314Y979000D01*
Y992000D01*
X1144020Y994229D01*
X1143160Y996307D01*
X1141791Y998091D01*
X1140007Y999460D01*
X1137929Y1000320D01*
X1135700Y1000614D01*
D02*
G37*
G36*
X1521500Y981390D02*
X1518488Y980993D01*
X1515680Y979830D01*
X1513270Y977980D01*
X1511420Y975570D01*
X1511138Y974889D01*
X1484350D01*
X1482384Y974498D01*
X1481659Y974014D01*
X1473500D01*
X1471271Y973720D01*
X1469193Y972860D01*
X1467409Y971491D01*
X1466040Y969707D01*
X1465180Y967629D01*
X1464886Y965400D01*
X1465180Y963171D01*
X1466040Y961093D01*
X1467409Y959309D01*
X1469193Y957940D01*
X1471271Y957080D01*
X1473500Y956786D01*
X1486500D01*
X1488729Y957080D01*
X1490807Y957940D01*
X1492591Y959309D01*
X1493960Y961093D01*
X1494820Y963171D01*
X1495010Y964611D01*
X1511138D01*
X1511420Y963930D01*
X1513270Y961520D01*
X1515680Y959670D01*
X1518488Y958507D01*
X1521500Y958111D01*
X1524512Y958507D01*
X1525194Y958789D01*
X1557611Y926372D01*
Y831321D01*
X1556659Y830591D01*
X1555290Y828807D01*
X1554430Y826729D01*
X1554136Y824500D01*
X1554430Y822271D01*
X1555290Y820193D01*
X1556659Y818409D01*
X1558443Y817040D01*
X1560521Y816180D01*
X1562750Y815886D01*
X1564979Y816180D01*
X1567057Y817040D01*
X1568841Y818409D01*
X1570210Y820193D01*
X1571070Y822271D01*
X1571364Y824500D01*
X1571070Y826729D01*
X1570210Y828807D01*
X1568841Y830591D01*
X1567889Y831321D01*
Y928500D01*
X1567498Y930467D01*
X1566384Y932134D01*
X1532461Y966056D01*
X1532743Y966738D01*
X1533140Y969750D01*
X1532743Y972763D01*
X1531580Y975570D01*
X1529730Y977980D01*
X1527320Y979830D01*
X1524512Y980993D01*
X1521500Y981390D01*
D02*
G37*
G36*
X1501000Y852864D02*
X1498771Y852570D01*
X1496693Y851710D01*
X1494909Y850341D01*
X1493540Y848557D01*
X1492680Y846479D01*
X1492386Y844250D01*
X1492680Y842021D01*
X1493540Y839943D01*
X1494909Y838159D01*
X1496693Y836790D01*
X1498771Y835930D01*
X1501000Y835636D01*
X1503229Y835930D01*
X1505307Y836790D01*
X1507091Y838159D01*
X1508460Y839943D01*
X1509320Y842021D01*
X1509614Y844250D01*
X1509320Y846479D01*
X1508460Y848557D01*
X1507091Y850341D01*
X1505307Y851710D01*
X1503229Y852570D01*
X1501000Y852864D01*
D02*
G37*
G36*
X1445750Y853614D02*
X1443521Y853320D01*
X1441443Y852460D01*
X1439659Y851091D01*
X1438290Y849307D01*
X1437430Y847229D01*
X1437136Y845000D01*
X1437430Y842771D01*
X1438290Y840693D01*
X1439659Y838909D01*
X1441443Y837540D01*
X1443521Y836680D01*
X1445750Y836386D01*
X1447979Y836680D01*
X1450057Y837540D01*
X1451841Y838909D01*
X1453210Y840693D01*
X1454070Y842771D01*
X1454364Y845000D01*
X1454070Y847229D01*
X1453210Y849307D01*
X1451841Y851091D01*
X1450057Y852460D01*
X1447979Y853320D01*
X1445750Y853614D01*
D02*
G37*
G36*
X1486500Y948614D02*
X1473500D01*
X1471271Y948320D01*
X1469193Y947460D01*
X1467409Y946091D01*
X1466040Y944307D01*
X1465180Y942229D01*
X1464886Y940000D01*
X1465180Y937771D01*
X1466040Y935693D01*
X1467409Y933909D01*
X1469193Y932540D01*
X1471271Y931680D01*
X1473500Y931386D01*
X1486500D01*
X1488729Y931680D01*
X1490807Y932540D01*
X1492591Y933909D01*
X1493321Y934861D01*
X1509044D01*
X1509881Y933906D01*
X1509861Y933750D01*
X1510257Y930738D01*
X1511420Y927930D01*
X1513270Y925520D01*
X1515680Y923670D01*
X1516361Y923388D01*
Y786000D01*
X1516752Y784034D01*
X1517866Y782366D01*
X1557611Y742621D01*
Y679321D01*
X1556659Y678591D01*
X1555290Y676807D01*
X1554430Y674729D01*
X1554136Y672500D01*
X1554430Y670271D01*
X1555290Y668193D01*
X1556659Y666409D01*
X1558443Y665040D01*
X1560521Y664180D01*
X1562750Y663886D01*
X1564979Y664180D01*
X1567057Y665040D01*
X1568841Y666409D01*
X1570210Y668193D01*
X1571070Y670271D01*
X1571364Y672500D01*
X1571070Y674729D01*
X1570210Y676807D01*
X1568841Y678591D01*
X1567889Y679321D01*
Y744750D01*
X1567498Y746717D01*
X1566384Y748384D01*
X1526639Y788129D01*
Y923388D01*
X1527320Y923670D01*
X1529730Y925520D01*
X1531580Y927930D01*
X1532743Y930738D01*
X1533140Y933750D01*
X1532743Y936762D01*
X1531580Y939570D01*
X1529730Y941980D01*
X1527320Y943830D01*
X1524512Y944993D01*
X1521500Y945389D01*
X1518488Y944993D01*
X1517476Y944574D01*
X1517216Y944748D01*
X1515250Y945139D01*
X1493321D01*
X1492591Y946091D01*
X1490807Y947460D01*
X1488729Y948320D01*
X1486500Y948614D01*
D02*
G37*
G36*
X1410300D02*
X1397300D01*
X1395071Y948320D01*
X1392993Y947460D01*
X1391209Y946091D01*
X1389840Y944307D01*
X1388980Y942229D01*
X1388686Y940000D01*
X1388980Y937771D01*
X1389840Y935693D01*
X1391209Y933909D01*
X1392993Y932540D01*
X1395071Y931680D01*
X1397300Y931386D01*
X1410300D01*
X1412529Y931680D01*
X1414607Y932540D01*
X1416391Y933909D01*
X1417760Y935693D01*
X1418620Y937771D01*
X1418914Y940000D01*
X1418620Y942229D01*
X1417760Y944307D01*
X1416391Y946091D01*
X1414607Y947460D01*
X1412529Y948320D01*
X1410300Y948614D01*
D02*
G37*
G36*
X1161100Y1000614D02*
X1158871Y1000320D01*
X1156793Y999460D01*
X1155009Y998091D01*
X1153640Y996307D01*
X1152780Y994229D01*
X1152486Y992000D01*
Y979000D01*
X1152780Y976771D01*
X1153640Y974693D01*
X1155009Y972909D01*
X1155033Y972550D01*
X1148372Y965889D01*
X1103379D01*
X1093008Y976259D01*
X1093220Y976771D01*
X1093514Y979000D01*
Y992000D01*
X1093220Y994229D01*
X1092360Y996307D01*
X1090991Y998091D01*
X1089207Y999460D01*
X1087129Y1000320D01*
X1084900Y1000614D01*
X1082671Y1000320D01*
X1080593Y999460D01*
X1078809Y998091D01*
X1077440Y996307D01*
X1076580Y994229D01*
X1076286Y992000D01*
Y979000D01*
X1076580Y976771D01*
X1077440Y974693D01*
X1078809Y972909D01*
X1080593Y971540D01*
X1082671Y970680D01*
X1084262Y970470D01*
X1097616Y957116D01*
X1099284Y956002D01*
X1101250Y955611D01*
X1150500D01*
X1152467Y956002D01*
X1154134Y957116D01*
X1164734Y967716D01*
X1165848Y969383D01*
X1166239Y971350D01*
Y972179D01*
X1167191Y972909D01*
X1168560Y974693D01*
X1169420Y976771D01*
X1169714Y979000D01*
Y992000D01*
X1169420Y994229D01*
X1168560Y996307D01*
X1167191Y998091D01*
X1165407Y999460D01*
X1163329Y1000320D01*
X1161100Y1000614D01*
D02*
G37*
G36*
X1161600Y909424D02*
X1159371Y909130D01*
X1157293Y908270D01*
X1155509Y906901D01*
X1154140Y905117D01*
X1153280Y903039D01*
X1152986Y900810D01*
Y887810D01*
X1153280Y885581D01*
X1154140Y883503D01*
X1155509Y881719D01*
X1157293Y880350D01*
X1159371Y879490D01*
X1161600Y879196D01*
X1163829Y879490D01*
X1165907Y880350D01*
X1167691Y881719D01*
X1169060Y883503D01*
X1169920Y885581D01*
X1170214Y887810D01*
Y900810D01*
X1169920Y903039D01*
X1169060Y905117D01*
X1167691Y906901D01*
X1165907Y908270D01*
X1163829Y909130D01*
X1161600Y909424D01*
D02*
G37*
G36*
X1283050Y947414D02*
X1270050D01*
X1267821Y947120D01*
X1265743Y946260D01*
X1263959Y944891D01*
X1262590Y943107D01*
X1261730Y941029D01*
X1261436Y938800D01*
X1261730Y936571D01*
X1262590Y934493D01*
X1263959Y932709D01*
X1265743Y931340D01*
X1267821Y930480D01*
X1270050Y930186D01*
X1283050D01*
X1285279Y930480D01*
X1287357Y931340D01*
X1289141Y932709D01*
X1290510Y934493D01*
X1291370Y936571D01*
X1291664Y938800D01*
X1291370Y941029D01*
X1290510Y943107D01*
X1289141Y944891D01*
X1287357Y946260D01*
X1285279Y947120D01*
X1283050Y947414D01*
D02*
G37*
G36*
X1486500Y923214D02*
X1473500D01*
X1471271Y922920D01*
X1469193Y922060D01*
X1467409Y920691D01*
X1466040Y918907D01*
X1465180Y916829D01*
X1464886Y914600D01*
X1465180Y912371D01*
X1466040Y910293D01*
X1467409Y908509D01*
X1469193Y907140D01*
X1471271Y906280D01*
X1473500Y905986D01*
X1486500D01*
X1488729Y906280D01*
X1490807Y907140D01*
X1492591Y908509D01*
X1493960Y910293D01*
X1494820Y912371D01*
X1495114Y914600D01*
X1494820Y916829D01*
X1493960Y918907D01*
X1492591Y920691D01*
X1490807Y922060D01*
X1488729Y922920D01*
X1486500Y923214D01*
D02*
G37*
%LPD*%
G36*
X1498861Y1022548D02*
Y1007628D01*
X1489877Y998645D01*
X1488729Y999120D01*
X1486500Y999414D01*
X1478263D01*
X1478010Y1000684D01*
X1482131Y1002391D01*
X1486292Y1005171D01*
X1489830Y1008708D01*
X1492609Y1012869D01*
X1494524Y1017491D01*
X1495148Y1020631D01*
X1497591Y1023074D01*
X1498861Y1022548D01*
D02*
G37*
G36*
X1262590Y1036093D02*
X1263959Y1034309D01*
X1265743Y1032940D01*
X1267821Y1032080D01*
X1270050Y1031786D01*
X1283050D01*
X1285279Y1032080D01*
X1287357Y1032940D01*
X1289141Y1034309D01*
X1289871Y1035261D01*
X1291221D01*
X1295611Y1030872D01*
Y1013878D01*
X1291070Y1009337D01*
X1290113Y1010177D01*
X1290510Y1010693D01*
X1291370Y1012771D01*
X1291664Y1015000D01*
X1291370Y1017229D01*
X1290510Y1019307D01*
X1289141Y1021091D01*
X1287357Y1022460D01*
X1285279Y1023320D01*
X1283050Y1023614D01*
X1270050D01*
X1267821Y1023320D01*
X1265743Y1022460D01*
X1263959Y1021091D01*
X1263229Y1020139D01*
X1260926D01*
X1260548Y1020564D01*
X1260189Y1021322D01*
X1260498Y1021784D01*
X1260889Y1023750D01*
Y1036883D01*
X1262159Y1037135D01*
X1262590Y1036093D01*
D02*
G37*
%LPC*%
G36*
X933000Y487784D02*
X930771Y487490D01*
X928693Y486630D01*
X926909Y485261D01*
X925540Y483477D01*
X924680Y481399D01*
X924386Y479170D01*
Y466170D01*
X924680Y463941D01*
X925540Y461863D01*
X926909Y460079D01*
X928693Y458710D01*
X930771Y457850D01*
X933000Y457556D01*
X935229Y457850D01*
X937307Y458710D01*
X939091Y460079D01*
X940460Y461863D01*
X941320Y463941D01*
X941614Y466170D01*
Y479170D01*
X941320Y481399D01*
X940460Y483477D01*
X939091Y485261D01*
X937307Y486630D01*
X935229Y487490D01*
X933000Y487784D01*
D02*
G37*
G36*
X1304250Y553614D02*
X1302021Y553320D01*
X1299943Y552460D01*
X1298159Y551091D01*
X1296790Y549307D01*
X1295930Y547229D01*
X1295636Y545000D01*
X1295930Y542771D01*
X1296790Y540693D01*
X1298159Y538909D01*
X1299943Y537540D01*
X1302021Y536680D01*
X1304250Y536386D01*
X1306479Y536680D01*
X1308557Y537540D01*
X1310341Y538909D01*
X1311710Y540693D01*
X1312570Y542771D01*
X1312864Y545000D01*
X1312570Y547229D01*
X1311710Y549307D01*
X1310341Y551091D01*
X1308557Y552460D01*
X1306479Y553320D01*
X1304250Y553614D01*
D02*
G37*
G36*
X1237800Y572874D02*
X1235571Y572580D01*
X1233493Y571720D01*
X1231709Y570351D01*
X1230340Y568567D01*
X1229480Y566489D01*
X1229186Y564260D01*
Y551260D01*
X1229480Y549031D01*
X1230340Y546953D01*
X1231709Y545169D01*
X1233493Y543800D01*
X1235571Y542940D01*
X1237800Y542646D01*
X1240029Y542940D01*
X1242107Y543800D01*
X1243891Y545169D01*
X1245260Y546953D01*
X1246120Y549031D01*
X1246414Y551260D01*
Y564260D01*
X1246120Y566489D01*
X1245260Y568567D01*
X1243891Y570351D01*
X1242107Y571720D01*
X1240029Y572580D01*
X1237800Y572874D01*
D02*
G37*
G36*
X1212400D02*
X1210171Y572580D01*
X1208093Y571720D01*
X1206309Y570351D01*
X1204940Y568567D01*
X1204080Y566489D01*
X1203786Y564260D01*
Y551260D01*
X1204080Y549031D01*
X1204940Y546953D01*
X1206309Y545169D01*
X1207261Y544439D01*
Y485991D01*
X1206309Y485261D01*
X1204940Y483477D01*
X1204080Y481399D01*
X1203786Y479170D01*
Y466170D01*
X1204080Y463941D01*
X1204940Y461863D01*
X1206309Y460079D01*
X1208093Y458710D01*
X1210171Y457850D01*
X1212400Y457556D01*
X1214629Y457850D01*
X1216707Y458710D01*
X1218491Y460079D01*
X1219860Y461863D01*
X1220720Y463941D01*
X1221014Y466170D01*
Y479170D01*
X1220720Y481399D01*
X1219860Y483477D01*
X1218491Y485261D01*
X1217539Y485991D01*
Y544439D01*
X1218491Y545169D01*
X1219860Y546953D01*
X1220720Y549031D01*
X1221014Y551260D01*
Y564260D01*
X1220720Y566489D01*
X1219860Y568567D01*
X1218491Y570351D01*
X1216707Y571720D01*
X1214629Y572580D01*
X1212400Y572874D01*
D02*
G37*
G36*
X1237800Y487784D02*
X1235571Y487490D01*
X1233493Y486630D01*
X1231709Y485261D01*
X1230340Y483477D01*
X1229480Y481399D01*
X1229186Y479170D01*
Y466170D01*
X1229480Y463941D01*
X1230340Y461863D01*
X1231709Y460079D01*
X1233493Y458710D01*
X1235571Y457850D01*
X1237800Y457556D01*
X1240029Y457850D01*
X1242107Y458710D01*
X1243891Y460079D01*
X1245260Y461863D01*
X1246120Y463941D01*
X1246414Y466170D01*
Y479170D01*
X1246120Y481399D01*
X1245260Y483477D01*
X1243891Y485261D01*
X1242107Y486630D01*
X1240029Y487490D01*
X1237800Y487784D01*
D02*
G37*
G36*
X1187000Y572874D02*
X1184771Y572580D01*
X1182693Y571720D01*
X1180909Y570351D01*
X1179540Y568567D01*
X1178680Y566489D01*
X1178386Y564260D01*
Y551260D01*
X1178680Y549031D01*
X1179540Y546953D01*
X1180909Y545169D01*
X1181861Y544439D01*
Y485991D01*
X1180909Y485261D01*
X1179540Y483477D01*
X1178680Y481399D01*
X1178386Y479170D01*
Y466170D01*
X1178680Y463941D01*
X1179540Y461863D01*
X1180909Y460079D01*
X1182693Y458710D01*
X1184771Y457850D01*
X1187000Y457556D01*
X1189229Y457850D01*
X1191307Y458710D01*
X1193091Y460079D01*
X1194460Y461863D01*
X1195320Y463941D01*
X1195614Y466170D01*
Y479170D01*
X1195320Y481399D01*
X1194460Y483477D01*
X1193091Y485261D01*
X1192139Y485991D01*
Y544439D01*
X1193091Y545169D01*
X1194460Y546953D01*
X1195320Y549031D01*
X1195614Y551260D01*
Y564260D01*
X1195320Y566489D01*
X1194460Y568567D01*
X1193091Y570351D01*
X1191307Y571720D01*
X1189229Y572580D01*
X1187000Y572874D01*
D02*
G37*
G36*
X1247960Y689160D02*
X1227640D01*
Y668840D01*
X1232661D01*
Y649000D01*
X1229260D01*
Y618920D01*
X1246340D01*
Y649000D01*
X1242939D01*
Y668840D01*
X1247960D01*
Y689160D01*
D02*
G37*
G36*
X1009200Y572874D02*
X1006971Y572580D01*
X1004893Y571720D01*
X1003109Y570351D01*
X1001740Y568567D01*
X1000880Y566489D01*
X1000586Y564260D01*
Y551260D01*
X1000880Y549031D01*
X1001740Y546953D01*
X1003109Y545169D01*
X1004893Y543800D01*
X1006971Y542940D01*
X1009200Y542646D01*
X1011429Y542940D01*
X1013507Y543800D01*
X1015291Y545169D01*
X1016660Y546953D01*
X1017520Y549031D01*
X1017814Y551260D01*
Y564260D01*
X1017520Y566489D01*
X1016660Y568567D01*
X1015291Y570351D01*
X1013507Y571720D01*
X1011429Y572580D01*
X1009200Y572874D01*
D02*
G37*
G36*
X762000Y484314D02*
X749000D01*
X746771Y484020D01*
X744693Y483160D01*
X742909Y481791D01*
X741540Y480007D01*
X740680Y477929D01*
X740386Y475700D01*
X740680Y473471D01*
X741540Y471393D01*
X742909Y469609D01*
X744693Y468240D01*
X746771Y467380D01*
X749000Y467086D01*
X762000D01*
X764229Y467380D01*
X766307Y468240D01*
X768091Y469609D01*
X769460Y471393D01*
X770320Y473471D01*
X770614Y475700D01*
X770320Y477929D01*
X769460Y480007D01*
X768091Y481791D01*
X766307Y483160D01*
X764229Y484020D01*
X762000Y484314D01*
D02*
G37*
G36*
Y433514D02*
X749000D01*
X746771Y433220D01*
X744693Y432360D01*
X742909Y430991D01*
X741540Y429207D01*
X740680Y427129D01*
X740386Y424900D01*
X740680Y422671D01*
X741540Y420593D01*
X742909Y418809D01*
X744693Y417440D01*
X746771Y416580D01*
X749000Y416286D01*
X762000D01*
X764229Y416580D01*
X766307Y417440D01*
X768091Y418809D01*
X769460Y420593D01*
X770320Y422671D01*
X770614Y424900D01*
X770320Y427129D01*
X769460Y429207D01*
X768091Y430991D01*
X766307Y432360D01*
X764229Y433220D01*
X762000Y433514D01*
D02*
G37*
G36*
Y458914D02*
X749000D01*
X746771Y458620D01*
X744693Y457760D01*
X742909Y456391D01*
X741540Y454607D01*
X740680Y452529D01*
X740386Y450300D01*
X740680Y448071D01*
X741540Y445993D01*
X742909Y444209D01*
X744693Y442840D01*
X746771Y441980D01*
X749000Y441686D01*
X762000D01*
X764229Y441980D01*
X766307Y442840D01*
X768091Y444209D01*
X769460Y445993D01*
X770320Y448071D01*
X770614Y450300D01*
X770320Y452529D01*
X769460Y454607D01*
X768091Y456391D01*
X766307Y457760D01*
X764229Y458620D01*
X762000Y458914D01*
D02*
G37*
G36*
Y509714D02*
X749000D01*
X746771Y509420D01*
X744693Y508560D01*
X742909Y507191D01*
X741540Y505407D01*
X740680Y503329D01*
X740386Y501100D01*
X740680Y498871D01*
X741540Y496793D01*
X742909Y495009D01*
X744693Y493640D01*
X746771Y492780D01*
X749000Y492486D01*
X762000D01*
X764229Y492780D01*
X766307Y493640D01*
X768091Y495009D01*
X769460Y496793D01*
X770320Y498871D01*
X770614Y501100D01*
X770320Y503329D01*
X769460Y505407D01*
X768091Y507191D01*
X766307Y508560D01*
X764229Y509420D01*
X762000Y509714D01*
D02*
G37*
G36*
Y408114D02*
X749000D01*
X746771Y407820D01*
X744693Y406960D01*
X742909Y405591D01*
X741540Y403807D01*
X740680Y401729D01*
X740386Y399500D01*
X740680Y397271D01*
X741540Y395193D01*
X742909Y393409D01*
X744693Y392040D01*
X746771Y391180D01*
X749000Y390886D01*
X762000D01*
X764229Y391180D01*
X766307Y392040D01*
X768091Y393409D01*
X769460Y395193D01*
X770320Y397271D01*
X770614Y399500D01*
X770320Y401729D01*
X769460Y403807D01*
X768091Y405591D01*
X766307Y406960D01*
X764229Y407820D01*
X762000Y408114D01*
D02*
G37*
G36*
X486500Y606864D02*
X484271Y606570D01*
X482193Y605710D01*
X480409Y604341D01*
X479040Y602557D01*
X478453Y601139D01*
X443613D01*
X441996Y603246D01*
X439874Y604875D01*
X437402Y605899D01*
X434750Y606248D01*
X432098Y605899D01*
X429626Y604875D01*
X427504Y603246D01*
X425875Y601124D01*
X424851Y598652D01*
X424502Y596000D01*
X424851Y593348D01*
X425875Y590876D01*
X427504Y588754D01*
X429626Y587125D01*
X432098Y586101D01*
X434750Y585752D01*
X437402Y586101D01*
X439874Y587125D01*
X441996Y588754D01*
X443613Y590861D01*
X482101D01*
X482193Y590790D01*
X484271Y589930D01*
X486500Y589636D01*
X488729Y589930D01*
X490807Y590790D01*
X492591Y592159D01*
X493960Y593943D01*
X494820Y596021D01*
X495114Y598250D01*
X494820Y600479D01*
X493960Y602557D01*
X492591Y604341D01*
X490807Y605710D01*
X488729Y606570D01*
X486500Y606864D01*
D02*
G37*
G36*
X613950Y604114D02*
X600950D01*
X598721Y603820D01*
X596643Y602960D01*
X594859Y601591D01*
X593490Y599807D01*
X592630Y597729D01*
X592336Y595500D01*
X592630Y593271D01*
X593490Y591193D01*
X594859Y589409D01*
X596643Y588040D01*
X598721Y587180D01*
X600950Y586886D01*
X613950D01*
X616179Y587180D01*
X618257Y588040D01*
X620041Y589409D01*
X621410Y591193D01*
X622270Y593271D01*
X622564Y595500D01*
X622270Y597729D01*
X621410Y599807D01*
X620041Y601591D01*
X618257Y602960D01*
X616179Y603820D01*
X613950Y604114D01*
D02*
G37*
G36*
Y629514D02*
X600950D01*
X598721Y629220D01*
X596643Y628360D01*
X594859Y626991D01*
X593490Y625207D01*
X592630Y623129D01*
X592336Y620900D01*
X592630Y618671D01*
X593490Y616593D01*
X594859Y614809D01*
X596643Y613440D01*
X598721Y612580D01*
X600950Y612286D01*
X613950D01*
X616179Y612580D01*
X618257Y613440D01*
X620041Y614809D01*
X621410Y616593D01*
X622270Y618671D01*
X622564Y620900D01*
X622270Y623129D01*
X621410Y625207D01*
X620041Y626991D01*
X618257Y628360D01*
X616179Y629220D01*
X613950Y629514D01*
D02*
G37*
G36*
X444910Y555360D02*
X424590D01*
Y535040D01*
X444910D01*
Y555360D01*
D02*
G37*
G36*
X622490Y578640D02*
X592410D01*
Y561560D01*
X622490D01*
Y578640D01*
D02*
G37*
G36*
X434750Y580848D02*
X432098Y580499D01*
X429626Y579475D01*
X427504Y577846D01*
X425875Y575724D01*
X424851Y573252D01*
X424502Y570600D01*
X424851Y567948D01*
X425875Y565476D01*
X427504Y563354D01*
X429626Y561725D01*
X432098Y560701D01*
X434750Y560352D01*
X437402Y560701D01*
X439874Y561725D01*
X441996Y563354D01*
X443625Y565476D01*
X444649Y567948D01*
X444998Y570600D01*
X444649Y573252D01*
X443625Y575724D01*
X441996Y577846D01*
X439874Y579475D01*
X437402Y580499D01*
X434750Y580848D01*
D02*
G37*
G36*
X630250Y506614D02*
X628021Y506320D01*
X625943Y505460D01*
X624159Y504091D01*
X622790Y502307D01*
X621930Y500229D01*
X621636Y498000D01*
X621930Y495771D01*
X622790Y493693D01*
X624159Y491909D01*
X625943Y490540D01*
X628021Y489680D01*
X630250Y489386D01*
X632479Y489680D01*
X634557Y490540D01*
X636341Y491909D01*
X637710Y493693D01*
X638570Y495771D01*
X638864Y498000D01*
X638570Y500229D01*
X637710Y502307D01*
X636341Y504091D01*
X634557Y505460D01*
X632479Y506320D01*
X630250Y506614D01*
D02*
G37*
G36*
X540700Y1067364D02*
X527700D01*
X525471Y1067070D01*
X523393Y1066210D01*
X521609Y1064841D01*
X520240Y1063057D01*
X519380Y1060979D01*
X519086Y1058750D01*
X519380Y1056521D01*
X520240Y1054443D01*
X521609Y1052659D01*
X523393Y1051290D01*
X525471Y1050430D01*
X527700Y1050136D01*
X540700D01*
X542929Y1050430D01*
X545007Y1051290D01*
X546791Y1052659D01*
X548160Y1054443D01*
X549020Y1056521D01*
X549314Y1058750D01*
X549020Y1060979D01*
X548160Y1063057D01*
X546791Y1064841D01*
X545007Y1066210D01*
X542929Y1067070D01*
X540700Y1067364D01*
D02*
G37*
G36*
Y1016564D02*
X527700D01*
X525471Y1016270D01*
X523393Y1015410D01*
X521609Y1014041D01*
X520240Y1012257D01*
X519380Y1010179D01*
X519086Y1007950D01*
X519380Y1005721D01*
X520240Y1003643D01*
X521609Y1001859D01*
X523393Y1000490D01*
X525471Y999630D01*
X527700Y999336D01*
X540700D01*
X542929Y999630D01*
X545007Y1000490D01*
X546791Y1001859D01*
X548160Y1003643D01*
X549020Y1005721D01*
X549314Y1007950D01*
X549020Y1010179D01*
X548160Y1012257D01*
X546791Y1014041D01*
X545007Y1015410D01*
X542929Y1016270D01*
X540700Y1016564D01*
D02*
G37*
G36*
X464500D02*
X451500D01*
X449271Y1016270D01*
X447193Y1015410D01*
X445409Y1014041D01*
X444040Y1012257D01*
X443180Y1010179D01*
X442886Y1007950D01*
X443180Y1005721D01*
X444040Y1003643D01*
X445409Y1001859D01*
X447193Y1000490D01*
X449271Y999630D01*
X451500Y999336D01*
X464500D01*
X466729Y999630D01*
X468807Y1000490D01*
X470591Y1001859D01*
X471960Y1003643D01*
X472820Y1005721D01*
X473114Y1007950D01*
X472820Y1010179D01*
X471960Y1012257D01*
X470591Y1014041D01*
X468807Y1015410D01*
X466729Y1016270D01*
X464500Y1016564D01*
D02*
G37*
G36*
X401860Y1103509D02*
X398587Y1103078D01*
X395536Y1101814D01*
X392917Y1099804D01*
X390907Y1097185D01*
X389643Y1094134D01*
X389212Y1090860D01*
X389643Y1087587D01*
X390907Y1084536D01*
X392917Y1081917D01*
X395536Y1079907D01*
X398587Y1078643D01*
X401860Y1078212D01*
X405134Y1078643D01*
X406319Y1079134D01*
X430337Y1055116D01*
X432004Y1054002D01*
X433971Y1053611D01*
X442960D01*
Y1050210D01*
X473040D01*
Y1067290D01*
X442960D01*
Y1063889D01*
X436099D01*
X413587Y1086401D01*
X414078Y1087587D01*
X414509Y1090860D01*
X414078Y1094134D01*
X412814Y1097185D01*
X410804Y1099804D01*
X408185Y1101814D01*
X405134Y1103078D01*
X401860Y1103509D01*
D02*
G37*
G36*
X613750Y1197131D02*
X608186Y1196767D01*
X602716Y1195679D01*
X597436Y1193886D01*
X592434Y1191420D01*
X587798Y1188322D01*
X583605Y1184645D01*
X579928Y1180452D01*
X576830Y1175816D01*
X574364Y1170814D01*
X572571Y1165534D01*
X571483Y1160064D01*
X571119Y1154500D01*
X571483Y1148935D01*
X572571Y1143466D01*
X574364Y1138186D01*
X576830Y1133184D01*
X579928Y1128548D01*
X583605Y1124355D01*
X587798Y1120678D01*
X592434Y1117580D01*
X597436Y1115114D01*
X602716Y1113321D01*
X608186Y1112233D01*
X613750Y1111869D01*
X619314Y1112233D01*
X624784Y1113321D01*
X630064Y1115114D01*
X635066Y1117580D01*
X639702Y1120678D01*
X643895Y1124355D01*
X647572Y1128548D01*
X650670Y1133184D01*
X653136Y1138186D01*
X654929Y1143466D01*
X656017Y1148935D01*
X656381Y1154500D01*
X656017Y1160064D01*
X654929Y1165534D01*
X653136Y1170814D01*
X650670Y1175816D01*
X647572Y1180452D01*
X643895Y1184645D01*
X639702Y1188322D01*
X635066Y1191420D01*
X630064Y1193886D01*
X624784Y1195679D01*
X619314Y1196767D01*
X613750Y1197131D01*
D02*
G37*
G36*
X465500D02*
X459935Y1196767D01*
X454466Y1195679D01*
X449186Y1193886D01*
X444184Y1191420D01*
X439548Y1188322D01*
X435355Y1184645D01*
X431678Y1180452D01*
X428580Y1175816D01*
X426114Y1170814D01*
X424321Y1165534D01*
X423233Y1160064D01*
X422869Y1154500D01*
X423233Y1148935D01*
X424321Y1143466D01*
X426114Y1138186D01*
X428580Y1133184D01*
X431678Y1128548D01*
X435355Y1124355D01*
X439548Y1120678D01*
X444184Y1117580D01*
X449186Y1115114D01*
X454466Y1113321D01*
X459935Y1112233D01*
X465500Y1111869D01*
X471064Y1112233D01*
X476534Y1113321D01*
X481814Y1115114D01*
X486816Y1117580D01*
X491452Y1120678D01*
X495645Y1124355D01*
X499322Y1128548D01*
X502420Y1133184D01*
X504886Y1138186D01*
X506679Y1143466D01*
X507767Y1148935D01*
X508131Y1154500D01*
X507767Y1160064D01*
X506679Y1165534D01*
X504886Y1170814D01*
X502420Y1175816D01*
X499322Y1180452D01*
X495645Y1184645D01*
X491452Y1188322D01*
X486816Y1191420D01*
X481814Y1193886D01*
X476534Y1195679D01*
X471064Y1196767D01*
X465500Y1197131D01*
D02*
G37*
G36*
X550110Y1103509D02*
X546837Y1103078D01*
X543786Y1101814D01*
X541167Y1099804D01*
X539157Y1097185D01*
X537893Y1094134D01*
X537462Y1090860D01*
X537893Y1087587D01*
X539157Y1084536D01*
X541167Y1081917D01*
X543786Y1079907D01*
X546837Y1078643D01*
X550110Y1078212D01*
X553384Y1078643D01*
X556435Y1079907D01*
X559054Y1081917D01*
X561064Y1084536D01*
X562328Y1087587D01*
X562759Y1090860D01*
X562328Y1094134D01*
X561064Y1097185D01*
X559054Y1099804D01*
X556435Y1101814D01*
X553384Y1103078D01*
X550110Y1103509D01*
D02*
G37*
G36*
X471350Y809114D02*
X469121Y808820D01*
X467043Y807960D01*
X465259Y806591D01*
X463890Y804807D01*
X463030Y802729D01*
X462736Y800500D01*
Y787500D01*
X463030Y785271D01*
X463890Y783193D01*
X465259Y781409D01*
X467043Y780040D01*
X469121Y779180D01*
X471350Y778886D01*
X473579Y779180D01*
X475657Y780040D01*
X477441Y781409D01*
X478810Y783193D01*
X479670Y785271D01*
X479964Y787500D01*
Y800500D01*
X479670Y802729D01*
X478810Y804807D01*
X477441Y806591D01*
X475657Y807960D01*
X473579Y808820D01*
X471350Y809114D01*
D02*
G37*
G36*
X447410Y791510D02*
X427090D01*
Y771190D01*
X447410D01*
Y791510D01*
D02*
G37*
G36*
X540700Y889564D02*
X527700D01*
X525471Y889270D01*
X523393Y888410D01*
X521609Y887041D01*
X520240Y885257D01*
X519380Y883179D01*
X519086Y880950D01*
X519380Y878721D01*
X520240Y876643D01*
X521609Y874859D01*
X523393Y873490D01*
X525471Y872630D01*
X527700Y872336D01*
X529061D01*
Y864164D01*
X527700D01*
X525471Y863870D01*
X523393Y863010D01*
X521609Y861641D01*
X520240Y859857D01*
X519380Y857779D01*
X519086Y855550D01*
X519380Y853321D01*
X520240Y851243D01*
X521609Y849459D01*
X523393Y848090D01*
X525471Y847230D01*
X527700Y846936D01*
X540700D01*
X542929Y847230D01*
X545007Y848090D01*
X546791Y849459D01*
X548160Y851243D01*
X549020Y853321D01*
X549314Y855550D01*
X549020Y857779D01*
X548160Y859857D01*
X546791Y861641D01*
X545007Y863010D01*
X542929Y863870D01*
X540700Y864164D01*
X539339D01*
Y872336D01*
X540700D01*
X542929Y872630D01*
X545007Y873490D01*
X546791Y874859D01*
X548160Y876643D01*
X549020Y878721D01*
X549314Y880950D01*
X549020Y883179D01*
X548160Y885257D01*
X546791Y887041D01*
X545007Y888410D01*
X542929Y889270D01*
X540700Y889564D01*
D02*
G37*
G36*
X613950Y654914D02*
X600950D01*
X598721Y654620D01*
X596643Y653760D01*
X594859Y652391D01*
X593490Y650607D01*
X592630Y648529D01*
X592336Y646300D01*
X592630Y644071D01*
X593490Y641993D01*
X594859Y640209D01*
X596643Y638840D01*
X598721Y637980D01*
X600950Y637686D01*
X613950D01*
X616179Y637980D01*
X618257Y638840D01*
X620041Y640209D01*
X621410Y641993D01*
X622270Y644071D01*
X622564Y646300D01*
X622270Y648529D01*
X621410Y650607D01*
X620041Y652391D01*
X618257Y653760D01*
X616179Y654620D01*
X613950Y654914D01*
D02*
G37*
G36*
X537750D02*
X524750D01*
X522521Y654620D01*
X520443Y653760D01*
X518659Y652391D01*
X517290Y650607D01*
X516430Y648529D01*
X516136Y646300D01*
X516430Y644071D01*
X517290Y641993D01*
X518659Y640209D01*
X520443Y638840D01*
X522521Y637980D01*
X524750Y637686D01*
X537750D01*
X539979Y637980D01*
X542057Y638840D01*
X543841Y640209D01*
X544234Y640721D01*
X545688Y640795D01*
X547611Y638871D01*
Y621919D01*
X547523Y621822D01*
X546924Y621872D01*
X546187Y622240D01*
X546070Y623129D01*
X545210Y625207D01*
X543841Y626991D01*
X542057Y628360D01*
X539979Y629220D01*
X537750Y629514D01*
X524750D01*
X522521Y629220D01*
X520443Y628360D01*
X518659Y626991D01*
X517929Y626039D01*
X443826D01*
X443625Y626524D01*
X441996Y628646D01*
X439874Y630275D01*
X437402Y631298D01*
X434750Y631648D01*
X432098Y631298D01*
X429626Y630275D01*
X427504Y628646D01*
X425875Y626524D01*
X424851Y624052D01*
X424502Y621400D01*
X424851Y618748D01*
X425875Y616276D01*
X427504Y614154D01*
X429626Y612525D01*
X432098Y611502D01*
X434750Y611152D01*
X437402Y611502D01*
X439874Y612525D01*
X441996Y614154D01*
X443230Y615761D01*
X517929D01*
X518659Y614809D01*
X520443Y613440D01*
X522521Y612580D01*
X524750Y612286D01*
X526111D01*
Y604114D01*
X524750D01*
X522521Y603820D01*
X520443Y602960D01*
X518659Y601591D01*
X517290Y599807D01*
X516430Y597729D01*
X516136Y595500D01*
X516430Y593271D01*
X517290Y591193D01*
X518659Y589409D01*
X520443Y588040D01*
X522521Y587180D01*
X524750Y586886D01*
X537750D01*
X539979Y587180D01*
X542057Y588040D01*
X543841Y589409D01*
X545210Y591193D01*
X546070Y593271D01*
X546187Y594160D01*
X547523Y594578D01*
X547611Y594481D01*
Y570354D01*
X546341Y570270D01*
X546228Y571130D01*
X546070Y572329D01*
X545210Y574407D01*
X543841Y576191D01*
X542057Y577560D01*
X539979Y578420D01*
X537750Y578714D01*
X524750D01*
X522521Y578420D01*
X520443Y577560D01*
X518659Y576191D01*
X517290Y574407D01*
X516430Y572329D01*
X516136Y570100D01*
X516430Y567871D01*
X517290Y565793D01*
X518659Y564009D01*
X520443Y562640D01*
X522521Y561780D01*
X524750Y561486D01*
X537750D01*
X539979Y561780D01*
X542057Y562640D01*
X543841Y564009D01*
X545210Y565793D01*
X546070Y567871D01*
X546341Y569930D01*
X547611Y569846D01*
Y565378D01*
X486093Y503860D01*
X484441Y503960D01*
X484341Y504091D01*
X482557Y505460D01*
X480479Y506320D01*
X478250Y506614D01*
X476021Y506320D01*
X473943Y505460D01*
X472159Y504091D01*
X470790Y502307D01*
X470508Y501625D01*
X445583Y476701D01*
X444410Y477187D01*
Y493660D01*
X424090D01*
Y473340D01*
X440563D01*
X441049Y472167D01*
X436884Y468001D01*
X434250Y468348D01*
X431598Y467999D01*
X429126Y466975D01*
X427004Y465346D01*
X425375Y463224D01*
X424352Y460752D01*
X424002Y458100D01*
X424352Y455448D01*
X425375Y452976D01*
X427004Y450854D01*
X429126Y449225D01*
X431598Y448201D01*
X434250Y447852D01*
X436902Y448201D01*
X439374Y449225D01*
X441496Y450854D01*
X443125Y452976D01*
X444148Y455448D01*
X444498Y458100D01*
X444151Y460734D01*
X473953Y490536D01*
X476021Y489680D01*
X478250Y489386D01*
X480479Y489680D01*
X482557Y490540D01*
X484341Y491909D01*
X485071Y492861D01*
X487500D01*
X489467Y493252D01*
X491134Y494366D01*
X556384Y559616D01*
X557498Y561283D01*
X557889Y563250D01*
Y641000D01*
X557498Y642967D01*
X556384Y644634D01*
X551084Y649934D01*
X549417Y651048D01*
X547450Y651439D01*
X544571D01*
X543841Y652391D01*
X542057Y653760D01*
X539979Y654620D01*
X537750Y654914D01*
D02*
G37*
G36*
X572250Y685114D02*
X570021Y684820D01*
X567943Y683960D01*
X566159Y682591D01*
X564790Y680807D01*
X563930Y678729D01*
X563636Y676500D01*
X563930Y674271D01*
X564790Y672193D01*
X566159Y670409D01*
X567943Y669040D01*
X570021Y668180D01*
X572250Y667886D01*
X574479Y668180D01*
X576557Y669040D01*
X578341Y670409D01*
X579710Y672193D01*
X580570Y674271D01*
X580864Y676500D01*
X580570Y678729D01*
X579710Y680807D01*
X578341Y682591D01*
X576557Y683960D01*
X574479Y684820D01*
X572250Y685114D01*
D02*
G37*
G36*
X496750Y809114D02*
X494521Y808820D01*
X492443Y807960D01*
X490659Y806591D01*
X489290Y804807D01*
X488430Y802729D01*
X488136Y800500D01*
Y787500D01*
X488430Y785271D01*
X489290Y783193D01*
X490659Y781409D01*
X492361Y780103D01*
Y763379D01*
X487690Y758707D01*
X486500Y758864D01*
X484271Y758570D01*
X482193Y757710D01*
X480409Y756341D01*
X479040Y754557D01*
X478180Y752479D01*
X477886Y750250D01*
X478180Y748021D01*
X479040Y745943D01*
X480409Y744159D01*
X482193Y742790D01*
X484271Y741930D01*
X486500Y741636D01*
X488729Y741930D01*
X490807Y742790D01*
X492591Y744159D01*
X493960Y745943D01*
X494820Y748021D01*
X495114Y750250D01*
X494957Y751440D01*
X501134Y757616D01*
X502248Y759284D01*
X502639Y761250D01*
Y781254D01*
X502841Y781409D01*
X504210Y783193D01*
X505070Y785271D01*
X505364Y787500D01*
Y800500D01*
X505070Y802729D01*
X504210Y804807D01*
X502841Y806591D01*
X501057Y807960D01*
X498979Y808820D01*
X496750Y809114D01*
D02*
G37*
G36*
X446660Y698760D02*
X426340D01*
Y678440D01*
X446660D01*
Y698760D01*
D02*
G37*
G36*
X540700Y965764D02*
X527700D01*
X525471Y965470D01*
X523393Y964610D01*
X521609Y963241D01*
X520240Y961457D01*
X519380Y959379D01*
X519086Y957150D01*
X519380Y954921D01*
X520240Y952843D01*
X521609Y951059D01*
X523393Y949690D01*
X525471Y948830D01*
X527700Y948536D01*
X540700D01*
X542929Y948830D01*
X545007Y949690D01*
X546791Y951059D01*
X548160Y952843D01*
X549020Y954921D01*
X549314Y957150D01*
X549020Y959379D01*
X548160Y961457D01*
X546791Y963241D01*
X545007Y964610D01*
X542929Y965470D01*
X540700Y965764D01*
D02*
G37*
G36*
X464500D02*
X451500D01*
X449271Y965470D01*
X447193Y964610D01*
X445409Y963241D01*
X444040Y961457D01*
X443180Y959379D01*
X442886Y957150D01*
X443043Y955960D01*
X433616Y946534D01*
X432502Y944866D01*
X432111Y942900D01*
Y815613D01*
X430004Y813996D01*
X428375Y811874D01*
X427351Y809402D01*
X427002Y806750D01*
X427351Y804098D01*
X428375Y801626D01*
X430004Y799504D01*
X432126Y797875D01*
X434598Y796852D01*
X437250Y796502D01*
X439902Y796852D01*
X442374Y797875D01*
X444496Y799504D01*
X446125Y801626D01*
X447149Y804098D01*
X447498Y806750D01*
X447149Y809402D01*
X446125Y811874D01*
X444496Y813996D01*
X442389Y815613D01*
Y851912D01*
X443659Y852164D01*
X444040Y851243D01*
X445409Y849459D01*
X447193Y848090D01*
X449271Y847230D01*
X451500Y846936D01*
X464500D01*
X466729Y847230D01*
X468807Y848090D01*
X470591Y849459D01*
X471960Y851243D01*
X472820Y853321D01*
X473114Y855550D01*
X472820Y857779D01*
X471960Y859857D01*
X470591Y861641D01*
X468807Y863010D01*
X466729Y863870D01*
X464500Y864164D01*
X463139D01*
Y872336D01*
X464500D01*
X466729Y872630D01*
X467877Y873105D01*
X517011Y823971D01*
Y809040D01*
X513610D01*
Y778960D01*
X528533D01*
X529019Y777787D01*
X470372Y719139D01*
X445363D01*
X443746Y721246D01*
X441624Y722875D01*
X439152Y723898D01*
X436500Y724248D01*
X433848Y723898D01*
X431376Y722875D01*
X429254Y721246D01*
X427625Y719124D01*
X426601Y716652D01*
X426252Y714000D01*
X426601Y711348D01*
X427625Y708876D01*
X429254Y706754D01*
X431376Y705125D01*
X433848Y704101D01*
X436500Y703752D01*
X439152Y704101D01*
X441624Y705125D01*
X443746Y706754D01*
X445363Y708861D01*
X472500D01*
X474467Y709252D01*
X476134Y710366D01*
X575884Y810116D01*
X576998Y811784D01*
X577389Y813750D01*
Y821679D01*
X578341Y822409D01*
X579710Y824193D01*
X580570Y826271D01*
X580864Y828500D01*
X580570Y830729D01*
X579710Y832807D01*
X578341Y834591D01*
X576557Y835960D01*
X574479Y836820D01*
X572250Y837114D01*
X570021Y836820D01*
X567943Y835960D01*
X566159Y834591D01*
X564790Y832807D01*
X563930Y830729D01*
X563636Y828500D01*
X563930Y826271D01*
X564790Y824193D01*
X566159Y822409D01*
X567111Y821679D01*
Y815879D01*
X531863Y780630D01*
X530690Y781117D01*
Y809040D01*
X527289D01*
Y826100D01*
X526898Y828066D01*
X525784Y829734D01*
X472893Y882624D01*
X472820Y883179D01*
X471960Y885257D01*
X470591Y887041D01*
X468807Y888410D01*
X466729Y889270D01*
X464500Y889564D01*
X451500D01*
X449271Y889270D01*
X447193Y888410D01*
X445409Y887041D01*
X444040Y885257D01*
X443659Y884336D01*
X442389Y884588D01*
Y940771D01*
X450310Y948693D01*
X451500Y948536D01*
X464500D01*
X466729Y948830D01*
X468807Y949690D01*
X470591Y951059D01*
X471960Y952843D01*
X472820Y954921D01*
X473114Y957150D01*
X472820Y959379D01*
X471960Y961457D01*
X470591Y963241D01*
X468807Y964610D01*
X466729Y965470D01*
X464500Y965764D01*
D02*
G37*
G36*
X755200Y909424D02*
X752971Y909130D01*
X750893Y908270D01*
X749109Y906901D01*
X747740Y905117D01*
X746880Y903039D01*
X746586Y900810D01*
Y887810D01*
X746880Y885581D01*
X747740Y883503D01*
X749109Y881719D01*
X750893Y880350D01*
X752971Y879490D01*
X755200Y879196D01*
X757429Y879490D01*
X759507Y880350D01*
X761291Y881719D01*
X762660Y883503D01*
X763520Y885581D01*
X763814Y887810D01*
Y900810D01*
X763520Y903039D01*
X762660Y905117D01*
X761291Y906901D01*
X759507Y908270D01*
X757429Y909130D01*
X755200Y909424D01*
D02*
G37*
G36*
X767500Y1003864D02*
X765271Y1003570D01*
X763193Y1002710D01*
X761409Y1001341D01*
X760040Y999557D01*
X759180Y997479D01*
X758886Y995250D01*
X759180Y993021D01*
X760040Y990943D01*
X761409Y989159D01*
X763193Y987790D01*
X765271Y986930D01*
X767500Y986636D01*
X768690Y986793D01*
X769527Y985956D01*
X769725Y985823D01*
X772104Y982924D01*
X773983Y979409D01*
X775140Y975595D01*
X775508Y971863D01*
X775461Y971629D01*
Y946071D01*
X774509Y945341D01*
X773140Y943557D01*
X772280Y941479D01*
X771986Y939250D01*
X772280Y937021D01*
X773140Y934943D01*
X774509Y933159D01*
X775461Y932429D01*
Y907631D01*
X774509Y906901D01*
X773140Y905117D01*
X772280Y903039D01*
X771986Y900810D01*
Y887810D01*
X772280Y885581D01*
X773140Y883503D01*
X774509Y881719D01*
X776293Y880350D01*
X778371Y879490D01*
X780600Y879196D01*
X782829Y879490D01*
X784907Y880350D01*
X786691Y881719D01*
X788060Y883503D01*
X788920Y885581D01*
X789214Y887810D01*
Y900810D01*
X788920Y903039D01*
X788060Y905117D01*
X786691Y906901D01*
X785739Y907631D01*
Y932429D01*
X786691Y933159D01*
X788060Y934943D01*
X788920Y937021D01*
X789214Y939250D01*
X788920Y941479D01*
X788060Y943557D01*
X786691Y945341D01*
X785739Y946071D01*
Y971629D01*
X785731Y971667D01*
X785358Y976405D01*
X784240Y981065D01*
X782406Y985491D01*
X779903Y989576D01*
X776816Y993191D01*
X776794Y993223D01*
X775957Y994060D01*
X776114Y995250D01*
X775820Y997479D01*
X774960Y999557D01*
X773591Y1001341D01*
X771807Y1002710D01*
X769729Y1003570D01*
X767500Y1003864D01*
D02*
G37*
G36*
X717100Y947864D02*
X714871Y947570D01*
X712793Y946710D01*
X711009Y945341D01*
X709640Y943557D01*
X708780Y941479D01*
X708486Y939250D01*
X708780Y937021D01*
X709640Y934943D01*
X711009Y933159D01*
X712793Y931790D01*
X714871Y930930D01*
X717100Y930636D01*
X719329Y930930D01*
X721407Y931790D01*
X723191Y933159D01*
X724560Y934943D01*
X725420Y937021D01*
X725714Y939250D01*
X725420Y941479D01*
X724560Y943557D01*
X723191Y945341D01*
X721407Y946710D01*
X719329Y947570D01*
X717100Y947864D01*
D02*
G37*
G36*
X966440Y1000540D02*
X949360D01*
Y970460D01*
X966440D01*
Y1000540D01*
D02*
G37*
G36*
X983300Y1000614D02*
X981071Y1000320D01*
X978993Y999460D01*
X977209Y998091D01*
X975840Y996307D01*
X974980Y994229D01*
X974686Y992000D01*
Y979000D01*
X974980Y976771D01*
X975840Y974693D01*
X977209Y972909D01*
X978161Y972179D01*
Y907248D01*
X977709Y906901D01*
X976340Y905117D01*
X975480Y903039D01*
X975186Y900810D01*
Y887810D01*
X975480Y885581D01*
X976340Y883503D01*
X977709Y881719D01*
X979493Y880350D01*
X981571Y879490D01*
X983800Y879196D01*
X986029Y879490D01*
X988107Y880350D01*
X989891Y881719D01*
X991260Y883503D01*
X992120Y885581D01*
X992414Y887810D01*
Y900810D01*
X992120Y903039D01*
X991260Y905117D01*
X989891Y906901D01*
X988439Y908015D01*
Y972179D01*
X989391Y972909D01*
X990760Y974693D01*
X991620Y976771D01*
X991914Y979000D01*
Y992000D01*
X991620Y994229D01*
X990760Y996307D01*
X989391Y998091D01*
X987607Y999460D01*
X985529Y1000320D01*
X983300Y1000614D01*
D02*
G37*
G36*
X958400Y909424D02*
X956171Y909130D01*
X954093Y908270D01*
X952309Y906901D01*
X950940Y905117D01*
X950080Y903039D01*
X949786Y900810D01*
Y887810D01*
X950080Y885581D01*
X950940Y883503D01*
X952309Y881719D01*
X954093Y880350D01*
X956171Y879490D01*
X958400Y879196D01*
X960629Y879490D01*
X962707Y880350D01*
X964491Y881719D01*
X965860Y883503D01*
X966720Y885581D01*
X967014Y887810D01*
Y900810D01*
X966720Y903039D01*
X965860Y905117D01*
X964491Y906901D01*
X962707Y908270D01*
X960629Y909130D01*
X958400Y909424D01*
D02*
G37*
G36*
X933000D02*
X930771Y909130D01*
X928693Y908270D01*
X926909Y906901D01*
X925540Y905117D01*
X924680Y903039D01*
X924386Y900810D01*
Y887810D01*
X924680Y885581D01*
X925540Y883503D01*
X926909Y881719D01*
X928693Y880350D01*
X930771Y879490D01*
X933000Y879196D01*
X935229Y879490D01*
X937307Y880350D01*
X939091Y881719D01*
X940460Y883503D01*
X941320Y885581D01*
X941614Y887810D01*
Y900810D01*
X941320Y903039D01*
X940460Y905117D01*
X939091Y906901D01*
X937307Y908270D01*
X935229Y909130D01*
X933000Y909424D01*
D02*
G37*
%LPD*%
D10*
X780600Y971629D02*
G03*
X773160Y989589I-25400J0D01*
G01*
X813439Y990389D02*
G03*
X806000Y972429I17960J-17960D01*
G01*
X1426579Y1115600D02*
G03*
X1444539Y1123039I0J25400D01*
G01*
X1446440Y1082761D02*
G03*
X1428479Y1090200I-17960J-17960D01*
G01*
X1161100Y971350D02*
Y985500D01*
X1150500Y960750D02*
X1161100Y971350D01*
X1101250Y960750D02*
X1150500D01*
X1084900Y977100D02*
X1101250Y960750D01*
X1084900Y977100D02*
Y985500D01*
X1097000Y1130000D02*
X1099260Y1132260D01*
X1097000Y1016250D02*
Y1130000D01*
Y1016250D02*
X1110300Y1002950D01*
Y985500D02*
Y1002950D01*
X854000Y1037250D02*
X856500Y1039750D01*
X819000Y1037250D02*
X854000D01*
X1048460Y1050627D02*
Y1077290D01*
X1034100Y985500D02*
Y1011650D01*
X1020750Y1025000D02*
X1034100Y1011650D01*
X1020750Y1025000D02*
Y1186250D01*
X1048460Y1050627D02*
X1059500Y1039587D01*
Y985500D02*
Y1039587D01*
X1430850Y766600D02*
X1445750Y781500D01*
Y756500D02*
Y781500D01*
X1187000Y470130D02*
Y472670D01*
X1161600Y470130D02*
Y472670D01*
X1136200Y470130D02*
Y472670D01*
X1110800Y470130D02*
Y472670D01*
X1085400Y470130D02*
Y472670D01*
X1060000Y470130D02*
Y472670D01*
X1034600Y470130D02*
Y472670D01*
X1212400Y470130D02*
Y472670D01*
X1356150Y817400D02*
X1383200D01*
X1333250Y794500D02*
X1356150Y817400D01*
X1333250Y667250D02*
Y794500D01*
X522150Y794000D02*
Y826100D01*
X552750Y563250D02*
Y641000D01*
X487500Y498000D02*
X552750Y563250D01*
X478250Y498000D02*
X487500D01*
X547450Y646300D02*
X552750Y641000D01*
X531250Y646300D02*
X547450D01*
X474150Y498000D02*
X478250D01*
X434250Y458100D02*
X474150Y498000D01*
X1480000Y990800D02*
X1489300D01*
X486500Y750250D02*
X497500Y761250D01*
X434750Y596000D02*
X482750D01*
X531250Y595500D02*
Y620900D01*
X1034600Y729310D02*
Y750850D01*
X1364950Y842800D02*
X1383200D01*
X1276450Y868200D02*
X1307000D01*
X1281550Y842800D02*
X1307000D01*
X1283400Y817400D02*
X1307000D01*
X1283000Y792000D02*
X1307000D01*
X1274750Y783750D02*
X1283000Y792000D01*
X1170250Y783750D02*
X1274750D01*
X1136200Y749700D02*
X1170250Y783750D01*
X1178850Y766600D02*
X1307000D01*
X1161600Y749350D02*
X1178850Y766600D01*
X1161600Y729310D02*
Y749350D01*
X1136200Y729310D02*
Y749700D01*
X1110800Y729310D02*
Y748800D01*
X1085400Y729310D02*
Y748650D01*
X1060000Y729310D02*
Y750500D01*
X1272750Y755500D02*
X1287050Y741200D01*
X1194250Y755500D02*
X1272750D01*
X1187000Y748250D02*
X1194250Y755500D01*
X1259650Y746850D02*
X1290700Y715800D01*
X1212400Y744650D02*
X1214600Y746850D01*
X1259650D01*
X1187000Y729310D02*
Y748250D01*
X1287050Y741200D02*
X1307000D01*
X1212400Y729310D02*
Y744650D01*
X1290700Y715800D02*
X1307000D01*
X1060000Y623800D02*
Y633960D01*
X1020870Y594830D02*
X1060000Y633960D01*
X983800Y475210D02*
Y519660D01*
X974910Y528550D02*
X983800Y519660D01*
X1085400Y623800D02*
Y633960D01*
X1031270Y579830D02*
X1085400Y633960D01*
X990150Y569190D02*
X1000790Y579830D01*
X1031270D01*
X1009200Y472670D02*
Y519660D01*
X990150Y538710D02*
Y569190D01*
Y538710D02*
X1009200Y519660D01*
X933000Y411250D02*
X976750Y455000D01*
X933000Y396470D02*
Y411250D01*
X1034600Y396470D02*
Y409100D01*
X1009200Y411200D02*
X1023250Y425250D01*
X1009200Y396470D02*
Y411200D01*
X958400Y410400D02*
X993000Y445000D01*
X958400Y396470D02*
Y410400D01*
X1085400Y472670D02*
Y557760D01*
X983800Y410800D02*
X1008750Y435750D01*
X983800Y396470D02*
Y410800D01*
X1136200Y472670D02*
Y557760D01*
X1161600Y472670D02*
Y557760D01*
X1110800Y472670D02*
Y557760D01*
X1187000Y472670D02*
Y557760D01*
X1212400Y472670D02*
Y557760D01*
X1060000Y472670D02*
Y557760D01*
X1034600Y623800D02*
Y633960D01*
X1010470Y609830D02*
X1034600Y633960D01*
Y472670D02*
Y557760D01*
X1342400Y914600D02*
X1403800D01*
X1329500Y927500D02*
X1342400Y914600D01*
X1329500Y927500D02*
Y953750D01*
X1339950Y964200D01*
X1352750D01*
Y938800D02*
X1369800D01*
X1379000Y948000D01*
Y982750D01*
X1387050Y990800D01*
X1403800D01*
X1085400Y633960D02*
Y679000D01*
Y729310D01*
X1060000Y633960D02*
Y679000D01*
Y729310D01*
X1034600Y633960D02*
Y679000D01*
Y729310D01*
X1212400Y633960D02*
Y679000D01*
Y729310D01*
X1187000Y633960D02*
Y679000D01*
Y729310D01*
X1161600Y633960D02*
Y679000D01*
Y729310D01*
X1136200Y633960D02*
Y679000D01*
Y729310D01*
X1110800Y679000D02*
Y729310D01*
X880240Y684254D02*
X880250Y684264D01*
Y727360D01*
X882200Y729310D01*
X842100Y653600D02*
X856950Y638750D01*
X867500Y653600D02*
X880240Y666340D01*
Y684254D01*
X856950Y638750D02*
X895954D01*
X905560Y648356D01*
Y727270D01*
X907600Y729310D01*
X918300Y653600D02*
X932750Y668050D01*
Y729060D01*
X933000Y729310D01*
X856800Y715800D02*
Y729310D01*
X1262600Y989600D02*
X1276550D01*
Y1040400D02*
X1293350D01*
X1300750Y1033000D01*
Y1011750D02*
Y1033000D01*
X1291000Y1002000D02*
X1300750Y1011750D01*
X1263000Y1002000D02*
X1291000D01*
X1190000Y917000D02*
X1262600Y989600D01*
X1186000Y925000D02*
X1263000Y1002000D01*
X1179750Y934000D02*
X1260750Y1015000D01*
X1276550D01*
X1085400Y894310D02*
Y909150D01*
X1110250Y934000D01*
X1179750D01*
X1136200Y894310D02*
Y910450D01*
X1142750Y917000D01*
X1190000D01*
X1110800Y894310D02*
Y909300D01*
X1126500Y925000D01*
X1186000D01*
X1264050Y1065800D02*
X1276550D01*
X1177750Y945750D02*
X1255750Y1023750D01*
Y1057500D01*
X1264050Y1065800D01*
X1060000Y894310D02*
Y909500D01*
X1096250Y945750D01*
X1177750D01*
X1008700Y894810D02*
Y985500D01*
Y894810D02*
X1009200Y894310D01*
X983300Y894810D02*
Y985500D01*
Y894810D02*
X983800Y894310D01*
X780600D02*
Y939250D01*
X1304250Y608500D02*
X1307000Y611250D01*
Y639600D01*
X1319600D01*
X1333250Y653250D01*
Y667250D01*
X1323250Y677250D02*
X1333250Y667250D01*
X1273500Y677250D02*
X1323250D01*
X1237800Y712950D02*
X1273500Y677250D01*
X1237800Y712950D02*
Y729310D01*
X912550Y1047200D02*
X920000Y1039750D01*
X938250Y1021500D01*
X1003500D01*
X1021500Y1003500D01*
Y928500D02*
Y1003500D01*
Y928500D02*
X1034600Y915400D01*
Y894310D02*
Y915400D01*
X1110800Y748800D02*
X1165000Y803000D01*
X1269000D01*
X1283400Y817400D01*
X1200000Y882000D02*
Y906250D01*
X1257950Y964200D01*
X1276550D01*
X816700Y653600D02*
X819500Y656400D01*
X1501000Y757250D02*
Y780750D01*
Y757250D02*
X1501500Y756750D01*
X1383200Y741200D02*
X1461450D01*
X1445250Y756000D02*
X1445750Y756500D01*
X1383200Y766600D02*
X1430850D01*
X1461450Y741200D02*
X1501000Y780750D01*
X1537150Y566000D02*
Y641600D01*
X1488350Y690400D02*
X1537150Y641600D01*
X1383200Y690400D02*
X1488350D01*
X1486350Y566000D02*
Y589600D01*
X1501500Y604750D01*
X1460950Y566000D02*
Y588300D01*
X1445250Y604000D02*
X1460950Y588300D01*
X1511750Y560750D02*
Y566000D01*
Y560750D02*
X1522750Y549750D01*
X1548750D01*
X1555750Y556750D01*
X1383200Y715800D02*
X1482450D01*
X1555750Y642500D01*
Y556750D02*
Y642500D01*
X1388250Y566000D02*
X1435550D01*
X1270750Y883500D02*
X1324250D01*
X1364950Y842800D01*
X1354000Y789250D02*
X1369500Y804750D01*
X1397750D01*
X1412000Y819000D01*
X755500Y602700D02*
X774200D01*
X732250Y590500D02*
X745450Y577300D01*
X755500D01*
X739100Y551900D02*
X755500D01*
X718000Y573000D02*
X739100Y551900D01*
X755500Y577300D02*
X770700D01*
X819500Y656400D02*
Y663896D01*
X829360Y673756D01*
Y688360D01*
X856800Y715800D01*
X755500Y551900D02*
X778100D01*
X699250Y569000D02*
X729000Y539250D01*
X771250D01*
X867500Y679000D02*
X867840Y679340D01*
X819500Y851500D02*
X867840Y803160D01*
X819500Y851500D02*
Y909750D01*
X920000Y1010250D01*
Y1039750D01*
X819000Y462750D02*
X842750D01*
X820627Y439260D02*
X839453D01*
X1136200Y374200D02*
Y396470D01*
X779000Y455487D02*
X822237Y412250D01*
X779000Y455487D02*
Y531500D01*
X771250Y539250D02*
X779000Y531500D01*
X789500Y470387D02*
X820627Y439260D01*
X789500Y470387D02*
Y540500D01*
X778100Y551900D02*
X789500Y540500D01*
X801000Y480750D02*
X819000Y462750D01*
X801000Y480750D02*
Y547000D01*
X770700Y577300D02*
X801000Y547000D01*
X828050Y577300D02*
X831700D01*
X810250Y559500D02*
X828050Y577300D01*
X810250Y496500D02*
Y559500D01*
Y496500D02*
X819500Y487250D01*
X848000D01*
X1124500Y384250D02*
Y407500D01*
X1135250Y418250D01*
X1205250D01*
X1212400Y411100D01*
Y396470D02*
Y411100D01*
X856800Y894310D02*
X997000Y754110D01*
X867840Y679340D02*
Y803160D01*
X997000Y712500D02*
Y754110D01*
Y712500D02*
X1009200Y700300D01*
Y679000D02*
Y700300D01*
X831700Y501100D02*
X842600D01*
X983800Y642300D01*
Y679000D01*
X831700Y526500D02*
X842750D01*
X958400Y642150D01*
Y679000D01*
X974910Y528550D02*
Y573660D01*
X996080Y594830D01*
X1020870D01*
X958400Y472670D02*
Y575900D01*
X992330Y609830D01*
X1010470D01*
X822237Y412250D02*
X844500D01*
X850250Y406500D01*
X842750Y462750D02*
X870250Y435250D01*
X848000Y487250D02*
X882750Y452500D01*
Y404000D02*
Y452500D01*
X870250Y398250D02*
Y435250D01*
X850250Y382500D02*
Y406500D01*
X860500Y390000D02*
Y418213D01*
X839453Y439260D02*
X860500Y418213D01*
Y390000D02*
X904750Y345750D01*
X870250Y398250D02*
X912500Y356000D01*
X1118000D01*
X1136200Y374200D01*
X850250Y382500D02*
X896000Y336750D01*
X904750Y345750D02*
X1133750D01*
X1161600Y373600D01*
Y396470D01*
X896000Y336750D02*
X1152500D01*
X1187000Y371250D01*
Y396470D01*
X1034600Y409100D02*
X1041500Y416000D01*
X831400Y894310D02*
Y904150D01*
X844250Y917000D01*
X884000D01*
X895250Y905750D01*
Y878250D02*
Y905750D01*
Y878250D02*
X926750Y846750D01*
X1101750D01*
X1009200Y663200D02*
Y679000D01*
X993000Y647000D02*
X1009200Y663200D01*
X993000Y632000D02*
Y647000D01*
X1107500Y367250D02*
X1124500Y384250D01*
X882750Y404000D02*
X919500Y367250D01*
X1107500D01*
X906500Y545500D02*
X993000Y632000D01*
X906500Y396500D02*
Y545500D01*
Y396500D02*
X925250Y377750D01*
X1090750D01*
X1098250Y385250D01*
Y409000D01*
X1045640Y568800D02*
X1110800Y633960D01*
Y679000D01*
X1045640Y461597D02*
Y568800D01*
X1039173Y455130D02*
X1045640Y461597D01*
X1037880Y455130D02*
X1039173D01*
X1037750Y455000D02*
X1037880Y455130D01*
X976750Y455000D02*
X1037750D01*
X1073250Y572000D02*
X1080000Y578750D01*
X1073250Y455750D02*
Y572000D01*
X1062500Y445000D02*
X1073250Y455750D01*
X993000Y445000D02*
X1062500D01*
X1080000Y578750D02*
X1080990D01*
X1136200Y633960D01*
X1097500Y569860D02*
X1161600Y633960D01*
X1097500Y460000D02*
Y569860D01*
X1073250Y435750D02*
X1097500Y460000D01*
X1008750Y435750D02*
X1073250D01*
X1122750Y569710D02*
X1187000Y633960D01*
X1149000Y570560D02*
X1212400Y633960D01*
X1041500Y416000D02*
X1092000D01*
X1131379Y455379D01*
X1131627Y455130D02*
X1140773D01*
X1131379Y455379D02*
X1131379D01*
X1131627Y455130D01*
X1140773D02*
X1149000Y463357D01*
Y570560D01*
X1023250Y425250D02*
X1081750D01*
X1111630Y455130D01*
X1115373D01*
X1122750Y462507D01*
Y569710D01*
X1098250Y409000D02*
X1133500Y444250D01*
X1266750D01*
X1281000Y458500D01*
Y640750D01*
X1305250Y665000D01*
X1307000D01*
X1085400Y748650D02*
X1155750Y819000D01*
X1257750D01*
X1281550Y842800D01*
X1060000Y750500D02*
X1143000Y833500D01*
X1241750D01*
X1276450Y868200D01*
X1034600Y750850D02*
X1131250Y847500D01*
X1234750D01*
X1270750Y883500D01*
X1038850Y871650D02*
X1189650D01*
X1200000Y882000D01*
X1034600Y875900D02*
X1038850Y871650D01*
X1034600Y875900D02*
Y894310D01*
X1101750Y846750D02*
X1115000Y860000D01*
X1380750Y895250D02*
X1412000Y864000D01*
Y819000D02*
Y864000D01*
X1374150Y639600D02*
X1383200D01*
X1362500Y651250D02*
X1374150Y639600D01*
X1362500Y651250D02*
Y769000D01*
X1373250Y779750D01*
X1400250D01*
X1426750Y806250D01*
Y865000D01*
X1237800Y894310D02*
Y909800D01*
X1241250Y913250D01*
X1246000D01*
X1264000Y895250D01*
X1380750D01*
X1237500Y927250D02*
X1251000D01*
X1224500Y914250D02*
X1237500Y927250D01*
X1224500Y877000D02*
Y914250D01*
X1207500Y860000D02*
X1224500Y877000D01*
X1115000Y860000D02*
X1207500D01*
X1251000Y927250D02*
X1272750Y905500D01*
X1386250D01*
X1426750Y865000D01*
X1383200Y639600D02*
X1400900D01*
X1425250Y615250D01*
Y601250D02*
Y615250D01*
Y601250D02*
X1448250Y578250D01*
X1110800Y401000D02*
Y408800D01*
X1226760Y380990D02*
Y408283D01*
X1227500Y409023D01*
Y415250D01*
X1211250Y431500D02*
X1227500Y415250D01*
X1133500Y431500D02*
X1211250D01*
X1110800Y408800D02*
X1133500Y431500D01*
X1226760Y380990D02*
X1232500Y375250D01*
X1237800Y396470D02*
Y415300D01*
X1266750Y444250D01*
X1383200Y665000D02*
X1420500D01*
X1473610Y611890D01*
Y560646D02*
Y611890D01*
X1473500Y560536D02*
X1473610Y560646D01*
X732250Y590500D02*
Y652250D01*
X806000Y726000D01*
Y729310D01*
X718000Y573000D02*
Y662750D01*
X780600Y725350D01*
Y729310D01*
X699250Y569000D02*
Y668500D01*
X755200Y724450D01*
Y729310D01*
X774200Y602700D02*
X777500Y606000D01*
Y675410D01*
X831400Y729310D01*
X824000Y696250D02*
X843000Y715250D01*
X812750Y696250D02*
X824000D01*
X794750Y678250D02*
X812750Y696250D01*
X831700Y551900D02*
X846400D01*
X851750Y557250D01*
Y608500D01*
X842500Y617750D02*
X851750Y608500D01*
X794750Y634750D02*
Y678250D01*
Y634750D02*
X811750Y617750D01*
X842500D01*
X843000Y715250D02*
Y742750D01*
X834500Y751250D02*
X843000Y742750D01*
X749000Y751250D02*
X834500D01*
X683000Y685250D02*
X749000Y751250D01*
X862520Y1085520D02*
Y1159480D01*
X819000Y1189250D02*
X832750D01*
X939000Y1134500D02*
X949500D01*
X1489300Y990800D02*
X1504000Y1005500D01*
Y1024250D01*
X1526750Y1047000D01*
X437250Y806750D02*
Y942900D01*
X452000Y957650D01*
X467300Y880950D02*
X522150Y826100D01*
X458000Y880950D02*
X467300D01*
X534200Y855550D02*
Y880950D01*
X458000Y855550D02*
Y880950D01*
X1403800Y965400D02*
X1404028D01*
X1498750Y1171000D02*
X1526750Y1199000D01*
X1498750Y1031500D02*
Y1171000D01*
X1440468Y1001840D02*
X1469090D01*
X1498750Y1031500D01*
X1404028Y965400D02*
X1440468Y1001840D01*
X912550Y1160950D02*
X939000Y1134500D01*
X912550Y1084750D02*
Y1160950D01*
Y1047200D02*
Y1084750D01*
X861750D02*
X862520Y1085520D01*
X1427660Y465340D02*
X1491590D01*
X1427660Y490740D02*
X1493740D01*
X1274240Y385397D02*
Y398740D01*
X1428840Y553340D01*
X1440794D01*
X1448250Y560796D01*
Y578250D01*
X1226500Y323750D02*
X1456090Y553340D01*
X1466194D01*
X1473390Y560536D01*
X1473500D01*
X1232500Y375250D02*
X1264093D01*
X1274240Y385397D01*
X1354000Y600250D02*
Y789250D01*
X1491590Y433840D02*
Y465340D01*
X1493740Y490740D02*
X1510510D01*
X1525750Y475500D01*
X572250Y813750D02*
Y828500D01*
X436500Y714000D02*
X472500D01*
X572250Y813750D01*
X1237800Y633960D02*
Y679000D01*
X767500Y995250D02*
X773160Y989589D01*
X780600Y939250D02*
Y971629D01*
X806000Y894310D02*
Y972429D01*
X813439Y990389D02*
X818300Y995250D01*
X832750Y1189250D02*
X862520Y1159480D01*
X1354000Y600250D02*
X1388250Y566000D01*
X1356000Y1115600D02*
X1426579D01*
X1444539Y1123039D02*
X1450750Y1129250D01*
X1350750Y1090200D02*
X1428479D01*
X1446440Y1082761D02*
X1450750Y1078450D01*
X434750Y620900D02*
X531250D01*
X497500Y761250D02*
Y796000D01*
X711974Y303378D02*
X1477128D01*
X1525750Y352000D01*
Y475500D01*
X549943Y400000D02*
X579692Y429750D01*
X683000Y445000D02*
Y685250D01*
X780250Y323750D02*
X1226500D01*
X733000Y371000D02*
X780250Y323750D01*
X733000Y371000D02*
Y395000D01*
X683000Y445000D02*
X733000Y395000D01*
X579692Y429750D02*
X681500D01*
X719000Y392250D01*
Y343250D02*
Y392250D01*
Y343250D02*
X749250Y313000D01*
X1370750D01*
X1491590Y433840D01*
X1484350Y969750D02*
X1521500D01*
X1480000Y965400D02*
X1484350Y969750D01*
X1515250Y940000D02*
X1521500Y933750D01*
X1480000Y940000D02*
X1515250D01*
X1562750Y672500D02*
Y744750D01*
X1521500Y786000D02*
X1562750Y744750D01*
X1521500Y786000D02*
Y933750D01*
Y969750D02*
X1562750Y928500D01*
Y824500D02*
Y928500D01*
X1014500Y1192500D02*
X1020750Y1186250D01*
X1039900Y1085850D02*
Y1192500D01*
Y1085850D02*
X1048460Y1077290D01*
X401860Y1090860D02*
X433971Y1058750D01*
X458000D01*
D13*
X767500Y995250D02*
D03*
X818300D02*
D03*
X949500Y1134500D02*
D03*
X1101500D02*
D03*
X630250Y498000D02*
D03*
X478250D02*
D03*
X856500Y1039750D02*
D03*
X920000D02*
D03*
X1450750Y1129250D02*
D03*
Y1078450D02*
D03*
X1526750Y1199000D02*
D03*
Y1047000D02*
D03*
X1562750Y672500D02*
D03*
Y824500D02*
D03*
X486500Y750250D02*
D03*
Y598250D02*
D03*
X870750Y939250D02*
D03*
X807250D02*
D03*
X717100D02*
D03*
X780600D02*
D03*
X1395000Y1026000D02*
D03*
Y1089500D02*
D03*
X1304250Y545000D02*
D03*
Y608500D02*
D03*
X1501500Y756750D02*
D03*
Y604750D02*
D03*
X1445250Y756000D02*
D03*
Y604000D02*
D03*
X819000Y1189250D02*
D03*
Y1037250D02*
D03*
X1445750Y845000D02*
D03*
Y781500D02*
D03*
X1501000Y844250D02*
D03*
Y780750D02*
D03*
X1359750Y438500D02*
D03*
Y590500D02*
D03*
X572250Y828500D02*
D03*
Y676500D02*
D03*
X1395500Y1179750D02*
D03*
Y1116250D02*
D03*
X1493740Y465490D02*
D03*
Y490740D02*
D03*
D14*
X1307000Y868200D02*
D03*
Y842800D02*
D03*
Y817400D02*
D03*
Y792000D02*
D03*
Y766600D02*
D03*
Y741200D02*
D03*
Y715800D02*
D03*
Y690400D02*
D03*
Y665000D02*
D03*
Y639600D02*
D03*
X1383200Y868200D02*
D03*
Y842800D02*
D03*
Y817400D02*
D03*
Y792000D02*
D03*
Y766600D02*
D03*
Y741200D02*
D03*
Y715800D02*
D03*
Y690400D02*
D03*
Y665000D02*
D03*
X831700Y374100D02*
D03*
Y399500D02*
D03*
Y424900D02*
D03*
Y450300D02*
D03*
Y475700D02*
D03*
Y501100D02*
D03*
Y526500D02*
D03*
Y551900D02*
D03*
Y577300D02*
D03*
Y602700D02*
D03*
X755500Y374100D02*
D03*
Y399500D02*
D03*
Y424900D02*
D03*
Y450300D02*
D03*
Y475700D02*
D03*
Y501100D02*
D03*
Y526500D02*
D03*
Y551900D02*
D03*
Y577300D02*
D03*
X1480000Y914600D02*
D03*
Y940000D02*
D03*
Y965400D02*
D03*
Y990800D02*
D03*
X1403800Y914600D02*
D03*
Y940000D02*
D03*
Y965400D02*
D03*
X1352750Y964200D02*
D03*
Y989600D02*
D03*
Y1015000D02*
D03*
Y1040400D02*
D03*
Y1065800D02*
D03*
Y1091200D02*
D03*
Y1116600D02*
D03*
Y1142000D02*
D03*
X1276550Y938800D02*
D03*
Y964200D02*
D03*
Y989600D02*
D03*
Y1015000D02*
D03*
Y1040400D02*
D03*
Y1065800D02*
D03*
Y1091200D02*
D03*
Y1116600D02*
D03*
Y1142000D02*
D03*
X531250Y646300D02*
D03*
Y620900D02*
D03*
Y595500D02*
D03*
Y570100D02*
D03*
X607450Y646300D02*
D03*
Y620900D02*
D03*
Y595500D02*
D03*
X534200Y957150D02*
D03*
X458000D02*
D03*
Y880950D02*
D03*
X534200D02*
D03*
Y855550D02*
D03*
X458000D02*
D03*
X534200Y1058750D02*
D03*
Y1007950D02*
D03*
X458000D02*
D03*
D15*
X1383200Y639600D02*
D03*
X755500Y602700D02*
D03*
X1403800Y990800D02*
D03*
X1352750Y938800D02*
D03*
X607450Y570100D02*
D03*
X458000Y1058750D02*
D03*
D16*
X933000Y396470D02*
D03*
X958400D02*
D03*
X983800D02*
D03*
X1009200D02*
D03*
X1034600D02*
D03*
X1060000D02*
D03*
X1085400D02*
D03*
X1110800D02*
D03*
X1136200D02*
D03*
X1161600D02*
D03*
X1187000D02*
D03*
X1212400D02*
D03*
X1237800D02*
D03*
X1263200D02*
D03*
X933000Y472670D02*
D03*
X958400D02*
D03*
X983800D02*
D03*
X1009200D02*
D03*
X1034600D02*
D03*
X1060000D02*
D03*
X1085400D02*
D03*
X1110800D02*
D03*
X1136200D02*
D03*
X1161600D02*
D03*
X1187000D02*
D03*
X1212400D02*
D03*
X1237800D02*
D03*
X496750Y794000D02*
D03*
X471350D02*
D03*
X1212400Y894310D02*
D03*
X1187000D02*
D03*
X1161600D02*
D03*
X1136200D02*
D03*
X1110800D02*
D03*
X1085400D02*
D03*
X1060000D02*
D03*
X1034600D02*
D03*
X1009200D02*
D03*
X983800D02*
D03*
X958400D02*
D03*
X933000D02*
D03*
X907600D02*
D03*
X882200D02*
D03*
X856800D02*
D03*
X831400D02*
D03*
X806000D02*
D03*
X780600D02*
D03*
X755200D02*
D03*
X1237800Y729310D02*
D03*
X1212400D02*
D03*
X1187000D02*
D03*
X1161600D02*
D03*
X1136200D02*
D03*
X1110800D02*
D03*
X1085400D02*
D03*
X1060000D02*
D03*
X1034600D02*
D03*
X1009200D02*
D03*
X983800D02*
D03*
X958400D02*
D03*
X933000D02*
D03*
X907600D02*
D03*
X882200D02*
D03*
X856800D02*
D03*
X831400D02*
D03*
X806000D02*
D03*
X780600D02*
D03*
X755200D02*
D03*
X1009200Y557760D02*
D03*
X1034600D02*
D03*
X1060000D02*
D03*
X1085400D02*
D03*
X1110800D02*
D03*
X1136200D02*
D03*
X1161600D02*
D03*
X1187000D02*
D03*
X1212400D02*
D03*
X1237800D02*
D03*
X1009200Y633960D02*
D03*
X1034600D02*
D03*
X1060000D02*
D03*
X1085400D02*
D03*
X1110800D02*
D03*
X1136200D02*
D03*
X1161600D02*
D03*
X1187000D02*
D03*
X1212400D02*
D03*
X1186500Y1061700D02*
D03*
X1161100D02*
D03*
X1135700D02*
D03*
X1110300D02*
D03*
X1084900D02*
D03*
X1059500D02*
D03*
X1034100D02*
D03*
X1008700D02*
D03*
X983300D02*
D03*
X957900D02*
D03*
X1186500Y985500D02*
D03*
X1161100D02*
D03*
X1135700D02*
D03*
X1110300D02*
D03*
X1084900D02*
D03*
X1059500D02*
D03*
X1034100D02*
D03*
X1008700D02*
D03*
X983300D02*
D03*
D17*
X1263200Y472670D02*
D03*
X522150Y794000D02*
D03*
X1237800Y894310D02*
D03*
Y633960D02*
D03*
X957900Y985500D02*
D03*
D18*
X1212400Y679000D02*
D03*
X1110800D02*
D03*
X1009200D02*
D03*
X1034600D02*
D03*
X1060000D02*
D03*
X1085400D02*
D03*
X1136200D02*
D03*
X1161600D02*
D03*
X1187000D02*
D03*
X983800D02*
D03*
X958400D02*
D03*
X816700D02*
D03*
X867500D02*
D03*
X918300D02*
D03*
Y653600D02*
D03*
X892900Y679000D02*
D03*
Y653600D02*
D03*
X867500D02*
D03*
X842100Y679000D02*
D03*
Y653600D02*
D03*
X436500Y714000D02*
D03*
X434250Y458100D02*
D03*
X434750Y570600D02*
D03*
Y621400D02*
D03*
Y596000D02*
D03*
X437250Y806750D02*
D03*
X1435550Y566000D02*
D03*
X1511750D02*
D03*
X1460950D02*
D03*
X1486350D02*
D03*
X861750Y1084750D02*
D03*
Y1160950D02*
D03*
X912550Y1084750D02*
D03*
X1039900Y1192500D02*
D03*
D19*
X1237800Y679000D02*
D03*
X816700Y653600D02*
D03*
X1537150Y566000D02*
D03*
X1014500Y1192500D02*
D03*
D20*
X436500Y688600D02*
D03*
X434250Y483500D02*
D03*
X434750Y545200D02*
D03*
X437250Y781350D02*
D03*
X912550Y1160950D02*
D03*
D21*
X1427660Y490740D02*
D03*
D22*
Y465340D02*
D03*
Y439940D02*
D03*
D23*
X1521500Y933750D02*
D03*
Y969750D02*
D03*
D24*
X549943Y400000D02*
D03*
X711974Y303378D02*
D03*
X401860Y1090860D02*
D03*
X550110D02*
D03*
M02*
