G04 Layer_Physical_Order=1*
G04 Layer_Color=255*
%FSLAX44Y44*%
%MOMM*%
G71*
G01*
G75*
%ADD10C,0.5000*%
%ADD11C,0.2540*%
%ADD12C,0.3000*%
%ADD13C,1.2000*%
%ADD14O,2.5000X1.2000*%
%ADD15R,2.5000X1.2000*%
%ADD16O,1.2000X2.5000*%
%ADD17R,1.2000X2.5000*%
%ADD18C,1.5240*%
%ADD19R,1.5240X1.5240*%
%ADD20R,1.5240X1.5240*%
%ADD21R,2.5000X2.0000*%
%ADD22O,2.5000X2.0000*%
%ADD23C,1.8000*%
%ADD24C,2.0000*%
G36*
X862590Y1013378D02*
X867473Y1012406D01*
X872074Y1010501D01*
X876214Y1007735D01*
X879734Y1004214D01*
X882501Y1000073D01*
X884406Y995473D01*
X885378Y990590D01*
X885500Y988100D01*
Y972565D01*
X850920D01*
Y947170D01*
X864957D01*
X865388Y945900D01*
X864659Y945341D01*
X863290Y943557D01*
X862430Y941479D01*
X862303Y940520D01*
X879196D01*
X879070Y941479D01*
X878210Y943557D01*
X876841Y945341D01*
X876112Y945900D01*
X876543Y947170D01*
X885500D01*
Y909830D01*
X884891Y909423D01*
X884230Y909156D01*
X882200Y909424D01*
X879971Y909130D01*
X877893Y908270D01*
X876109Y906901D01*
X874740Y905117D01*
X873880Y903039D01*
X873586Y900810D01*
Y887810D01*
X873880Y885581D01*
X874740Y883503D01*
X876109Y881719D01*
X877893Y880350D01*
X878501Y880099D01*
X878799Y878601D01*
X876214Y876015D01*
X872074Y873249D01*
X867473Y871344D01*
X862590Y870372D01*
X860100Y870250D01*
X827000D01*
Y857500D01*
X876602D01*
X881509Y858476D01*
X886131Y860391D01*
X890292Y863170D01*
X893829Y866709D01*
X896609Y870869D01*
X898524Y875491D01*
X899500Y880398D01*
Y882252D01*
X900770Y882683D01*
X901509Y881719D01*
X903293Y880350D01*
X905371Y879490D01*
X907600Y879196D01*
X909829Y879490D01*
X911907Y880350D01*
X913691Y881719D01*
X915060Y883503D01*
X915920Y885581D01*
X916214Y887810D01*
Y900810D01*
X915920Y903039D01*
X915060Y905117D01*
X913691Y906901D01*
X911907Y908270D01*
X909829Y909130D01*
X907600Y909424D01*
X905371Y909130D01*
X903293Y908270D01*
X901509Y906901D01*
X900770Y905938D01*
X899500Y906368D01*
Y934750D01*
X1049323D01*
X1049809Y933577D01*
X1033222Y916989D01*
X953827D01*
X951861Y916598D01*
X950193Y915484D01*
X940866Y906156D01*
X939599Y906239D01*
X939091Y906901D01*
X937307Y908270D01*
X935229Y909130D01*
X933000Y909424D01*
X930771Y909130D01*
X928693Y908270D01*
X926909Y906901D01*
X925540Y905117D01*
X924680Y903039D01*
X924386Y900810D01*
Y887810D01*
X924680Y885581D01*
X925540Y883503D01*
X926909Y881719D01*
X928693Y880350D01*
X930771Y879490D01*
X933000Y879196D01*
X935229Y879490D01*
X937307Y880350D01*
X939091Y881719D01*
X940460Y883503D01*
X941320Y885581D01*
X941614Y887810D01*
Y892369D01*
X948613Y899369D01*
X949786Y898883D01*
Y887810D01*
X950080Y885581D01*
X950940Y883503D01*
X952309Y881719D01*
X954093Y880350D01*
X956171Y879490D01*
X958400Y879196D01*
X960629Y879490D01*
X962707Y880350D01*
X964491Y881719D01*
X965860Y883503D01*
X966720Y885581D01*
X967014Y887810D01*
Y900810D01*
X966720Y903039D01*
X965860Y905117D01*
X965510Y905572D01*
X966072Y906711D01*
X976128D01*
X976690Y905572D01*
X976340Y905117D01*
X975480Y903039D01*
X975186Y900810D01*
Y887810D01*
X975480Y885581D01*
X976340Y883503D01*
X977709Y881719D01*
X979493Y880350D01*
X981571Y879490D01*
X983800Y879196D01*
X986029Y879490D01*
X988107Y880350D01*
X989891Y881719D01*
X991260Y883503D01*
X992120Y885581D01*
X992414Y887810D01*
Y900810D01*
X992120Y903039D01*
X991260Y905117D01*
X990910Y905572D01*
X991472Y906711D01*
X1001528D01*
X1002090Y905572D01*
X1001740Y905117D01*
X1000880Y903039D01*
X1000586Y900810D01*
Y887810D01*
X1000880Y885581D01*
X1001740Y883503D01*
X1003109Y881719D01*
X1004893Y880350D01*
X1006971Y879490D01*
X1009200Y879196D01*
X1011429Y879490D01*
X1013507Y880350D01*
X1015291Y881719D01*
X1016660Y883503D01*
X1017520Y885581D01*
X1017814Y887810D01*
Y900810D01*
X1017520Y903039D01*
X1016660Y905117D01*
X1016310Y905572D01*
X1016872Y906711D01*
X1026928D01*
X1027490Y905572D01*
X1027140Y905117D01*
X1026280Y903039D01*
X1025986Y900810D01*
Y887810D01*
X1026280Y885581D01*
X1027140Y883503D01*
X1028509Y881719D01*
X1030293Y880350D01*
X1032371Y879490D01*
X1034600Y879196D01*
X1036829Y879490D01*
X1038907Y880350D01*
X1040691Y881719D01*
X1042060Y883503D01*
X1042920Y885581D01*
X1043214Y887810D01*
Y900810D01*
X1042920Y903039D01*
X1042060Y905117D01*
X1040691Y906901D01*
X1039997Y907433D01*
X1039886Y909119D01*
X1065517Y934750D01*
X1228000D01*
X1292221Y870529D01*
X1292180Y870429D01*
X1291886Y868200D01*
X1292180Y865971D01*
X1293040Y863893D01*
X1294409Y862109D01*
X1296193Y860740D01*
X1298271Y859880D01*
X1300500Y859586D01*
X1303164D01*
X1310163Y852587D01*
X1309677Y851414D01*
X1300500D01*
X1298271Y851120D01*
X1296193Y850260D01*
X1294409Y848891D01*
X1293040Y847107D01*
X1292180Y845029D01*
X1291886Y842800D01*
X1292180Y840571D01*
X1293040Y838493D01*
X1294409Y836709D01*
X1296193Y835340D01*
X1298271Y834480D01*
X1300500Y834186D01*
X1313500D01*
X1315729Y834480D01*
X1317807Y835340D01*
X1319591Y836709D01*
X1320960Y838493D01*
X1321399Y839555D01*
X1322897Y839853D01*
X1346500Y816250D01*
Y633767D01*
X1322656Y609924D01*
X1321542Y608256D01*
X1321151Y606290D01*
Y530139D01*
X1257889D01*
Y535372D01*
X1307884Y585366D01*
X1308998Y587034D01*
X1309389Y589000D01*
Y601679D01*
X1310341Y602409D01*
X1311710Y604193D01*
X1312570Y606271D01*
X1312864Y608500D01*
X1312570Y610729D01*
X1311710Y612807D01*
X1310341Y614591D01*
X1308557Y615960D01*
X1306479Y616820D01*
X1304250Y617114D01*
X1302021Y616820D01*
X1299943Y615960D01*
X1298159Y614591D01*
X1297085Y613191D01*
X1295815Y613622D01*
Y618330D01*
X1270420D01*
Y614830D01*
X1251920D01*
Y579278D01*
X1277315D01*
Y582778D01*
X1289102D01*
X1289588Y581605D01*
X1249116Y541134D01*
X1248002Y539467D01*
X1247894Y538920D01*
X1246516Y538502D01*
X1242939Y542079D01*
Y544439D01*
X1243891Y545169D01*
X1245260Y546953D01*
X1246120Y549031D01*
X1246414Y551260D01*
Y564260D01*
X1246120Y566489D01*
X1245260Y568567D01*
X1243891Y570351D01*
X1242107Y571720D01*
X1240029Y572580D01*
X1237800Y572874D01*
X1235571Y572580D01*
X1233493Y571720D01*
X1231709Y570351D01*
X1230340Y568567D01*
X1229480Y566489D01*
X1229186Y564260D01*
Y551260D01*
X1229480Y549031D01*
X1230340Y546953D01*
X1231709Y545169D01*
X1232661Y544439D01*
Y539950D01*
X1233052Y537984D01*
X1234166Y536316D01*
X1249116Y521366D01*
X1250783Y520252D01*
X1252750Y519861D01*
X1331876D01*
X1332920Y519315D01*
X1332920Y518591D01*
Y513704D01*
X1332830Y512472D01*
X1331650Y512472D01*
X1311000D01*
Y515250D01*
X993722D01*
Y517315D01*
X982250D01*
Y640000D01*
X691000D01*
X691000Y869916D01*
X692270Y870301D01*
X694670Y866709D01*
X698208Y863170D01*
X702369Y860391D01*
X706991Y858476D01*
X711898Y857500D01*
X768250D01*
Y870250D01*
X719551D01*
X717747Y870978D01*
X714333Y872837D01*
X711243Y875194D01*
X708549Y877996D01*
X706314Y881176D01*
X704590Y884659D01*
X703418Y888365D01*
X702824Y892206D01*
X702750Y894150D01*
Y988100D01*
X702872Y990590D01*
X703844Y995473D01*
X705749Y1000073D01*
X708515Y1004214D01*
X712036Y1007735D01*
X716177Y1010501D01*
X720777Y1012406D01*
X725660Y1013378D01*
X728150Y1013500D01*
X860100D01*
X862590Y1013378D01*
D02*
G37*
G36*
X1105161Y971884D02*
Y963200D01*
X1105552Y961234D01*
X1106666Y959566D01*
X1116059Y950173D01*
X1115573Y949000D01*
X1081427D01*
X1080941Y950173D01*
X1102134Y971366D01*
X1102906Y972522D01*
X1103505Y972700D01*
X1104127Y972749D01*
X1105161Y971884D01*
D02*
G37*
G36*
X1261730Y936571D02*
X1262590Y934493D01*
X1263959Y932709D01*
X1265743Y931340D01*
X1267821Y930480D01*
X1270050Y930186D01*
X1283050D01*
X1285279Y930480D01*
X1287357Y931340D01*
X1289141Y932709D01*
X1289178Y932758D01*
X1290864Y932869D01*
X1317494Y906238D01*
X1317008Y905065D01*
X1285420D01*
Y900989D01*
X1284247Y900503D01*
X1248562Y936188D01*
X1249048Y937361D01*
X1261626D01*
X1261730Y936571D01*
D02*
G37*
G36*
X679000Y426000D02*
X452580D01*
Y429901D01*
X470315D01*
Y492226D01*
X471585Y492658D01*
X472159Y491909D01*
X473943Y490540D01*
X476021Y489680D01*
X478250Y489386D01*
X480479Y489680D01*
X482557Y490540D01*
X484341Y491909D01*
X485710Y493693D01*
X486570Y495771D01*
X486864Y498000D01*
X486570Y500229D01*
X485710Y502307D01*
X484341Y504091D01*
X482557Y505460D01*
X480479Y506320D01*
X478250Y506614D01*
X476021Y506320D01*
X473943Y505460D01*
X472159Y504091D01*
X471585Y503343D01*
X470315Y503774D01*
Y506080D01*
X444920D01*
Y494719D01*
X444410Y493660D01*
X443650Y493660D01*
X439389D01*
Y535040D01*
X444910D01*
Y540211D01*
X486850D01*
X488816Y540602D01*
X490484Y541716D01*
X513728Y564961D01*
X517929D01*
X518659Y564009D01*
X520443Y562640D01*
X522521Y561780D01*
X524750Y561486D01*
X537750D01*
X539979Y561780D01*
X542057Y562640D01*
X543841Y564009D01*
X545210Y565793D01*
X546070Y567871D01*
X546364Y570100D01*
X546070Y572329D01*
X545210Y574407D01*
X543841Y576191D01*
X542057Y577560D01*
X539979Y578420D01*
X537750Y578714D01*
X524750D01*
X522521Y578420D01*
X520443Y577560D01*
X518659Y576191D01*
X517929Y575239D01*
X511600D01*
X509633Y574848D01*
X507966Y573734D01*
X484721Y550489D01*
X474815D01*
Y567361D01*
X477750D01*
X479716Y567752D01*
X481384Y568866D01*
X517344Y604826D01*
X518458Y606493D01*
X518849Y608460D01*
Y613228D01*
X519988Y613790D01*
X520443Y613440D01*
X522521Y612580D01*
X524750Y612286D01*
X537750D01*
X539979Y612580D01*
X542057Y613440D01*
X543841Y614809D01*
X545210Y616593D01*
X546070Y618671D01*
X546364Y620900D01*
X546070Y623129D01*
X545210Y625207D01*
X543841Y626991D01*
X543380Y627344D01*
X543321Y628991D01*
X552424Y638093D01*
X553537Y639761D01*
X553929Y641727D01*
Y683327D01*
X561042Y690441D01*
X566982Y684501D01*
X566925Y683178D01*
X566159Y682591D01*
X564790Y680807D01*
X563930Y678729D01*
X563636Y676500D01*
X563930Y674271D01*
X564790Y672193D01*
X566159Y670409D01*
X567943Y669040D01*
X570021Y668180D01*
X572250Y667886D01*
X574479Y668180D01*
X576557Y669040D01*
X577058Y669425D01*
X594526Y651957D01*
X593490Y650607D01*
X592630Y648529D01*
X592336Y646300D01*
X592630Y644071D01*
X593047Y643064D01*
X572616Y622634D01*
X571502Y620966D01*
X571111Y619000D01*
Y552000D01*
X571502Y550033D01*
X572616Y548366D01*
X621793Y499190D01*
X621636Y498000D01*
X621930Y495771D01*
X622790Y493693D01*
X624159Y491909D01*
X625943Y490540D01*
X628021Y489680D01*
X630250Y489386D01*
X632479Y489680D01*
X634557Y490540D01*
X636341Y491909D01*
X637710Y493693D01*
X638570Y495771D01*
X638864Y498000D01*
X638570Y500229D01*
X637710Y502307D01*
X636341Y504091D01*
X634557Y505460D01*
X632479Y506320D01*
X630250Y506614D01*
X629060Y506457D01*
X581389Y554128D01*
Y616871D01*
X602204Y637686D01*
X613950D01*
X616179Y637980D01*
X618257Y638840D01*
X618822Y639274D01*
X620092Y638647D01*
Y628553D01*
X618822Y627926D01*
X618257Y628360D01*
X616179Y629220D01*
X613950Y629514D01*
X600950D01*
X598721Y629220D01*
X596643Y628360D01*
X594859Y626991D01*
X593490Y625207D01*
X592630Y623129D01*
X592336Y620900D01*
X592630Y618671D01*
X593490Y616593D01*
X594859Y614809D01*
X596643Y613440D01*
X598721Y612580D01*
X600950Y612286D01*
X613950D01*
X616179Y612580D01*
X618257Y613440D01*
X618822Y613874D01*
X620092Y613247D01*
Y603153D01*
X618822Y602526D01*
X618257Y602960D01*
X616179Y603820D01*
X613950Y604114D01*
X600950D01*
X598721Y603820D01*
X596643Y602960D01*
X594859Y601591D01*
X593490Y599807D01*
X592630Y597729D01*
X592336Y595500D01*
X592630Y593271D01*
X593490Y591193D01*
X594859Y589409D01*
X596643Y588040D01*
X598721Y587180D01*
X600950Y586886D01*
X613950D01*
X616179Y587180D01*
X618257Y588040D01*
X618822Y588474D01*
X620092Y587847D01*
Y578640D01*
X592410D01*
Y561560D01*
X620092D01*
Y549666D01*
X650565D01*
Y641080D01*
X622156D01*
X621558Y642350D01*
X622270Y644071D01*
X622564Y646300D01*
X622270Y648529D01*
X621410Y650607D01*
X620041Y652391D01*
X618257Y653760D01*
X616179Y654620D01*
X613950Y654914D01*
X606104D01*
X580884Y680134D01*
X579534Y681035D01*
X578341Y682591D01*
X577389Y683321D01*
Y686500D01*
X576998Y688466D01*
X575884Y690134D01*
X564676Y701341D01*
X564650Y701358D01*
X564634Y701384D01*
X479795Y786222D01*
X479964Y787500D01*
Y800500D01*
X479670Y802729D01*
X478810Y804807D01*
X477441Y806591D01*
X475657Y807960D01*
X473579Y808820D01*
X471350Y809114D01*
X469121Y808820D01*
X467043Y807960D01*
X465259Y806591D01*
X463890Y804807D01*
X463030Y802729D01*
X462909Y801810D01*
X461639Y801893D01*
Y807122D01*
X474879Y820361D01*
X535920D01*
Y790357D01*
X561315D01*
Y820830D01*
X541698D01*
X541367Y822100D01*
X563384Y844116D01*
X564498Y845783D01*
X564889Y847750D01*
Y1081221D01*
X564498Y1083187D01*
X563384Y1084854D01*
X561837Y1086401D01*
X562328Y1087587D01*
X562759Y1090860D01*
X562328Y1094134D01*
X561064Y1097185D01*
X559054Y1099804D01*
X556435Y1101814D01*
X553384Y1103078D01*
X550110Y1103509D01*
X546837Y1103078D01*
X543786Y1101814D01*
X541167Y1099804D01*
X539157Y1097185D01*
X537893Y1094134D01*
X537462Y1090860D01*
X537893Y1087587D01*
X539157Y1084536D01*
X541167Y1081917D01*
X543786Y1079907D01*
X546837Y1078643D01*
X550110Y1078212D01*
X553341Y1078637D01*
X553389Y1078640D01*
X554611Y1077777D01*
Y849878D01*
X535372Y830639D01*
X472750D01*
X470784Y830248D01*
X469116Y829134D01*
X452866Y812884D01*
X451752Y811217D01*
X451361Y809250D01*
Y802729D01*
X440143Y791510D01*
X427090D01*
Y771190D01*
X447410D01*
Y784243D01*
X460134Y796966D01*
X461248Y798633D01*
X461466Y799733D01*
X462736Y799608D01*
Y787500D01*
X463030Y785271D01*
X463890Y783193D01*
X465259Y781409D01*
X467043Y780040D01*
X469121Y779180D01*
X471350Y778886D01*
X472452Y779031D01*
X553775Y697708D01*
X545156Y689089D01*
X544042Y687422D01*
X543651Y685455D01*
Y653972D01*
X542512Y653410D01*
X542057Y653760D01*
X539979Y654620D01*
X537750Y654914D01*
X524750D01*
X522521Y654620D01*
X520443Y653760D01*
X518659Y652391D01*
X517290Y650607D01*
X516430Y648529D01*
X516136Y646300D01*
X516430Y644071D01*
X517290Y641993D01*
X518659Y640209D01*
X520443Y638840D01*
X521630Y638349D01*
X521377Y637079D01*
X520177D01*
X518211Y636688D01*
X516544Y635574D01*
X510076Y629106D01*
X508963Y627439D01*
X508571Y625473D01*
Y610588D01*
X496363Y598381D01*
X495035Y598848D01*
X494820Y600479D01*
X493960Y602557D01*
X492591Y604341D01*
X490807Y605710D01*
X488729Y606570D01*
X486500Y606864D01*
X484271Y606570D01*
X482193Y605710D01*
X480409Y604341D01*
X479040Y602557D01*
X478180Y600479D01*
X477886Y598250D01*
X478180Y596021D01*
X479040Y593943D01*
X480409Y592159D01*
X482193Y590790D01*
X484271Y589930D01*
X485902Y589715D01*
X486369Y588387D01*
X476585Y578602D01*
X475315Y579128D01*
Y641080D01*
X454472D01*
Y662815D01*
X420639D01*
Y665471D01*
X433607Y678440D01*
X446660D01*
Y698760D01*
X433607D01*
X417559Y714809D01*
Y723920D01*
X430744D01*
X431083Y722650D01*
X429254Y721246D01*
X427625Y719124D01*
X426601Y716652D01*
X426252Y714000D01*
X426601Y711348D01*
X427625Y708876D01*
X429254Y706754D01*
X431376Y705125D01*
X433848Y704101D01*
X436500Y703752D01*
X439152Y704101D01*
X441624Y705125D01*
X443746Y706754D01*
X445375Y708876D01*
X446399Y711348D01*
X446748Y714000D01*
X446399Y716652D01*
X445375Y719124D01*
X443746Y721246D01*
X441917Y722650D01*
X442256Y723920D01*
X449670D01*
Y675293D01*
X475065D01*
Y726080D01*
X452472D01*
Y743420D01*
X453722D01*
Y768815D01*
X418170D01*
X417559Y769832D01*
Y815911D01*
X430413D01*
X430844Y814641D01*
X430004Y813996D01*
X428375Y811874D01*
X427351Y809402D01*
X427002Y806750D01*
X427351Y804098D01*
X428375Y801626D01*
X430004Y799504D01*
X432126Y797875D01*
X434598Y796852D01*
X437250Y796502D01*
X439902Y796852D01*
X442374Y797875D01*
X444496Y799504D01*
X446125Y801626D01*
X447149Y804098D01*
X447498Y806750D01*
X447149Y809402D01*
X446125Y811874D01*
X444496Y813996D01*
X442374Y815625D01*
X441315Y816063D01*
Y859080D01*
X417559D01*
Y864791D01*
X441879Y889111D01*
X446021D01*
X446452Y887841D01*
X445409Y887041D01*
X444040Y885257D01*
X443180Y883179D01*
X442886Y880950D01*
X443180Y878721D01*
X444040Y876643D01*
X445409Y874859D01*
X447193Y873490D01*
X449271Y872630D01*
X451500Y872336D01*
X464500D01*
X466729Y872630D01*
X468807Y873490D01*
X470591Y874859D01*
X471960Y876643D01*
X472820Y878721D01*
X473114Y880950D01*
X472820Y883179D01*
X471960Y885257D01*
X470591Y887041D01*
X469548Y887841D01*
X469979Y889111D01*
X487621D01*
X499116Y877616D01*
X500784Y876502D01*
X502750Y876111D01*
X520648D01*
X521609Y874859D01*
X523393Y873490D01*
X525471Y872630D01*
X527700Y872336D01*
X540700D01*
X542929Y872630D01*
X545007Y873490D01*
X546791Y874859D01*
X548160Y876643D01*
X549020Y878721D01*
X549314Y880950D01*
X549020Y883179D01*
X548160Y885257D01*
X546791Y887041D01*
X545007Y888410D01*
X542929Y889270D01*
X540700Y889564D01*
X527700D01*
X525471Y889270D01*
X523393Y888410D01*
X521609Y887041D01*
X521109Y886389D01*
X504879D01*
X493384Y897884D01*
X491716Y898998D01*
X489750Y899389D01*
X439750D01*
X437784Y898998D01*
X436116Y897884D01*
X408786Y870554D01*
X407672Y868886D01*
X407281Y866920D01*
Y712680D01*
X407672Y710714D01*
X408786Y709046D01*
X426340Y691493D01*
Y685707D01*
X411866Y671234D01*
X410752Y669566D01*
X410361Y667600D01*
Y564750D01*
X410752Y562784D01*
X411866Y561116D01*
X424590Y548393D01*
Y535040D01*
X429111D01*
Y493660D01*
X424090D01*
Y473340D01*
X443650D01*
X444410Y473340D01*
X444920Y472281D01*
Y462209D01*
X443650Y461956D01*
X443125Y463224D01*
X441496Y465346D01*
X439374Y466975D01*
X436902Y467999D01*
X434250Y468348D01*
X431598Y467999D01*
X429126Y466975D01*
X427004Y465346D01*
X425375Y463224D01*
X424352Y460752D01*
X424002Y458100D01*
X424352Y455448D01*
X425375Y452976D01*
X427004Y450854D01*
X429126Y449225D01*
X431598Y448201D01*
X434250Y447852D01*
X436902Y448201D01*
X439374Y449225D01*
X441496Y450854D01*
X443125Y452976D01*
X443650Y454244D01*
X444920Y453992D01*
Y444580D01*
X417028D01*
Y426000D01*
X384973D01*
X384076Y426898D01*
X384475Y1176670D01*
X408580D01*
Y1219839D01*
X385396D01*
X384498Y1220738D01*
X384500Y1224000D01*
X385000Y1231000D01*
X679000D01*
Y426000D01*
D02*
G37*
G36*
X449920Y577639D02*
X442155D01*
X441996Y577846D01*
X439874Y579475D01*
X437402Y580499D01*
X434750Y580848D01*
X432098Y580499D01*
X429626Y579475D01*
X427504Y577846D01*
X425875Y575724D01*
X424851Y573252D01*
X424502Y570600D01*
X424851Y567948D01*
X425875Y565476D01*
X427504Y563354D01*
X429626Y561725D01*
X432098Y560701D01*
X434750Y560352D01*
X437402Y560701D01*
X439874Y561725D01*
X441996Y563354D01*
X443625Y565476D01*
X444406Y567361D01*
X449420D01*
Y550489D01*
X444910D01*
Y555360D01*
X432157D01*
X420639Y566879D01*
Y637420D01*
X449920D01*
Y577639D01*
D02*
G37*
G36*
X1593250Y1077273D02*
X1591980Y1076177D01*
X1567435D01*
Y994920D01*
X1591980D01*
X1592830Y994920D01*
X1593250Y993824D01*
Y913273D01*
X1591980Y912177D01*
X1567435D01*
Y833178D01*
X1566165Y832329D01*
X1564979Y832820D01*
X1562750Y833114D01*
X1560521Y832820D01*
X1558443Y831960D01*
X1556659Y830591D01*
X1555290Y828807D01*
X1554430Y826729D01*
X1554136Y824500D01*
X1554430Y822271D01*
X1555290Y820193D01*
X1556659Y818409D01*
X1558443Y817040D01*
X1560521Y816180D01*
X1562750Y815886D01*
X1564979Y816180D01*
X1567057Y817040D01*
X1568841Y818409D01*
X1570210Y820193D01*
X1571070Y822271D01*
X1571364Y824500D01*
X1571070Y826729D01*
X1570210Y828807D01*
X1569563Y829650D01*
X1570189Y830920D01*
X1591980D01*
X1592830Y830920D01*
X1593250Y829824D01*
X1593250Y285000D01*
X384898Y285000D01*
X384001Y285898D01*
X384054Y386920D01*
X414722D01*
Y412315D01*
X384966D01*
X384068Y413213D01*
X384070Y415500D01*
X533250D01*
Y382000D01*
X570000D01*
Y415500D01*
X691000D01*
Y631750D01*
X973250D01*
Y517315D01*
X958170D01*
Y491920D01*
X993722D01*
Y504750D01*
X1307435D01*
Y476920D01*
X1332830D01*
Y487609D01*
X1332920Y488842D01*
X1334100Y488842D01*
X1409099D01*
Y518591D01*
X1409099Y519315D01*
X1410142Y519861D01*
X1435621D01*
X1458361Y497122D01*
Y454379D01*
X1449061Y445079D01*
X1441605D01*
X1441114Y446264D01*
X1439104Y448884D01*
X1436484Y450894D01*
X1433927Y451953D01*
Y453327D01*
X1436484Y454386D01*
X1439104Y456396D01*
X1441114Y459016D01*
X1442377Y462066D01*
X1442641Y464070D01*
X1412679D01*
X1412943Y462066D01*
X1414206Y459016D01*
X1416216Y456396D01*
X1418836Y454386D01*
X1421393Y453327D01*
Y451953D01*
X1418836Y450894D01*
X1416216Y448884D01*
X1414206Y446264D01*
X1413715Y445079D01*
X1365205D01*
X1364057Y445960D01*
X1361979Y446820D01*
X1359750Y447114D01*
X1357521Y446820D01*
X1355443Y445960D01*
X1353659Y444591D01*
X1352290Y442807D01*
X1351430Y440729D01*
X1351136Y438500D01*
X1351430Y436271D01*
X1351671Y435688D01*
X1348622Y432639D01*
X1282500D01*
X1280533Y432248D01*
X1278866Y431134D01*
X1259566Y411834D01*
X1258452Y410167D01*
X1258435Y410078D01*
X1257109Y409061D01*
X1255740Y407277D01*
X1254880Y405199D01*
X1254586Y402970D01*
Y389970D01*
X1254880Y387741D01*
X1255740Y385663D01*
X1257109Y383879D01*
X1258061Y383149D01*
Y374579D01*
X1243121Y359639D01*
X916628D01*
X888139Y388129D01*
Y575750D01*
X887748Y577716D01*
X886634Y579384D01*
X859684Y606334D01*
X858017Y607448D01*
X856050Y607839D01*
X845021D01*
X844291Y608791D01*
X842507Y610160D01*
X840429Y611020D01*
X838200Y611314D01*
X825200D01*
X822971Y611020D01*
X820893Y610160D01*
X819109Y608791D01*
X817740Y607007D01*
X816880Y604929D01*
X816586Y602700D01*
X816880Y600471D01*
X817740Y598393D01*
X819109Y596609D01*
X820893Y595240D01*
X822971Y594380D01*
X825200Y594086D01*
X838200D01*
X840429Y594380D01*
X842507Y595240D01*
X844291Y596609D01*
X845021Y597561D01*
X853922D01*
X877861Y573621D01*
Y386000D01*
X878252Y384034D01*
X879366Y382366D01*
X910866Y350866D01*
X912533Y349752D01*
X914500Y349361D01*
X1245250D01*
X1247216Y349752D01*
X1248884Y350866D01*
X1266834Y368816D01*
X1267948Y370484D01*
X1268339Y372450D01*
Y383149D01*
X1269291Y383879D01*
X1270660Y385663D01*
X1271520Y387741D01*
X1271814Y389970D01*
Y402970D01*
X1271520Y405199D01*
X1270660Y407277D01*
X1270175Y407908D01*
X1284628Y422361D01*
X1350750D01*
X1352717Y422752D01*
X1354384Y423866D01*
X1360503Y429985D01*
X1361979Y430180D01*
X1364057Y431040D01*
X1365841Y432409D01*
X1367210Y434193D01*
X1367462Y434801D01*
X1413715D01*
X1414206Y433616D01*
X1416216Y430996D01*
X1418836Y428986D01*
X1421886Y427723D01*
X1425160Y427292D01*
X1430160D01*
X1433434Y427723D01*
X1436484Y428986D01*
X1439104Y430996D01*
X1441114Y433616D01*
X1441605Y434801D01*
X1451190D01*
X1453156Y435192D01*
X1454824Y436306D01*
X1467134Y448616D01*
X1468248Y450284D01*
X1468639Y452250D01*
Y499250D01*
X1468248Y501217D01*
X1467134Y502884D01*
X1441384Y528634D01*
X1441359Y528650D01*
X1441744Y529920D01*
X1447580Y529920D01*
X1447685Y528694D01*
Y527670D01*
X1472935D01*
Y524920D01*
X1477920D01*
Y501170D01*
X1508393D01*
Y526565D01*
X1498330D01*
Y530920D01*
X1523580D01*
Y551237D01*
X1498330D01*
Y557933D01*
X1494521D01*
X1493941Y559203D01*
X1495225Y560876D01*
X1496248Y563348D01*
X1496598Y566000D01*
X1496248Y568652D01*
X1495225Y571124D01*
X1494246Y572400D01*
X1494872Y573670D01*
X1500207D01*
Y595344D01*
X1501162Y596181D01*
X1501500Y596136D01*
X1503729Y596430D01*
X1504900Y596915D01*
X1506170Y596066D01*
Y576670D01*
X1507641D01*
X1507894Y575400D01*
X1506626Y574875D01*
X1504504Y573246D01*
X1502875Y571124D01*
X1501852Y568652D01*
X1501502Y566000D01*
X1501852Y563348D01*
X1502875Y560876D01*
X1504504Y558754D01*
X1506626Y557125D01*
X1509098Y556101D01*
X1511750Y555752D01*
X1514402Y556101D01*
X1516874Y557125D01*
X1518996Y558754D01*
X1520625Y560876D01*
X1521649Y563348D01*
X1521998Y566000D01*
X1521649Y568652D01*
X1520625Y571124D01*
X1518996Y573246D01*
X1516874Y574875D01*
X1515606Y575400D01*
X1515858Y576670D01*
X1525931D01*
X1526990Y576160D01*
X1526990Y575400D01*
Y555840D01*
X1547310D01*
Y576160D01*
X1540241D01*
X1539183Y576670D01*
X1539183Y577430D01*
Y602065D01*
X1510912D01*
X1509927Y603335D01*
X1510114Y604750D01*
X1509820Y606979D01*
X1508960Y609057D01*
X1507591Y610841D01*
X1505807Y612210D01*
X1503729Y613070D01*
X1501500Y613364D01*
X1499271Y613070D01*
X1497193Y612210D01*
X1495409Y610841D01*
X1494040Y609057D01*
X1493180Y606979D01*
X1492886Y604750D01*
X1493180Y602521D01*
X1494040Y600443D01*
X1494224Y600204D01*
X1493662Y599065D01*
X1453741D01*
X1452975Y600335D01*
X1453570Y601771D01*
X1453864Y604000D01*
X1453570Y606229D01*
X1452710Y608307D01*
X1451341Y610091D01*
X1449557Y611460D01*
X1447479Y612320D01*
X1445250Y612614D01*
X1443021Y612320D01*
X1440943Y611460D01*
X1439159Y610091D01*
X1437790Y608307D01*
X1436930Y606229D01*
X1436636Y604000D01*
X1436930Y601771D01*
X1437790Y599693D01*
X1439159Y597909D01*
X1440943Y596540D01*
X1443021Y595680D01*
X1445250Y595386D01*
X1447479Y595680D01*
X1448364Y596046D01*
X1449420Y595341D01*
Y573670D01*
X1452428D01*
X1453054Y572400D01*
X1452075Y571124D01*
X1451051Y568652D01*
X1450702Y566000D01*
X1451051Y563348D01*
X1452075Y560876D01*
X1453198Y559413D01*
X1452571Y558143D01*
X1447685D01*
Y551463D01*
X1447580Y550237D01*
X1446415Y550237D01*
X1422185D01*
Y530139D01*
X1331429D01*
Y604161D01*
X1345327Y618059D01*
X1346500Y617573D01*
Y547750D01*
X1357250D01*
Y580981D01*
X1358520Y582048D01*
X1359750Y581886D01*
X1361979Y582180D01*
X1364057Y583040D01*
X1365841Y584409D01*
X1367210Y586193D01*
X1368070Y588271D01*
X1368364Y590500D01*
X1368070Y592729D01*
X1367210Y594807D01*
X1365841Y596591D01*
X1364057Y597960D01*
X1361979Y598820D01*
X1359750Y599114D01*
X1358520Y598952D01*
X1357250Y600019D01*
Y629983D01*
X1359884Y632616D01*
X1360998Y634283D01*
X1361389Y636250D01*
Y761871D01*
X1366910Y767392D01*
X1368112Y766799D01*
X1368086Y766600D01*
X1368380Y764371D01*
X1369240Y762293D01*
X1370609Y760509D01*
X1372393Y759140D01*
X1374471Y758280D01*
X1376700Y757986D01*
X1389700D01*
X1391929Y758280D01*
X1394007Y759140D01*
X1395791Y760509D01*
X1397160Y762293D01*
X1398020Y764371D01*
X1398314Y766600D01*
X1398020Y768829D01*
X1397160Y770907D01*
X1395791Y772691D01*
X1395269Y773091D01*
X1395700Y774361D01*
X1406000D01*
X1407966Y774752D01*
X1409634Y775866D01*
X1445379Y811611D01*
X1493670D01*
X1495636Y812002D01*
X1497304Y813116D01*
X1514997Y830809D01*
X1516170Y830323D01*
Y823670D01*
X1551722D01*
Y849065D01*
X1517889D01*
Y853458D01*
X1517498Y855424D01*
X1516384Y857091D01*
X1429841Y943634D01*
X1428174Y944748D01*
X1426208Y945139D01*
X1417121D01*
X1416391Y946091D01*
X1414607Y947460D01*
X1412529Y948320D01*
X1410300Y948614D01*
X1397300D01*
X1395071Y948320D01*
X1392993Y947460D01*
X1391209Y946091D01*
X1389840Y944307D01*
X1388980Y942229D01*
X1388686Y940000D01*
X1388980Y937771D01*
X1389840Y935693D01*
X1391209Y933909D01*
X1392993Y932540D01*
X1395071Y931680D01*
X1397300Y931386D01*
X1410300D01*
X1412529Y931680D01*
X1414607Y932540D01*
X1416391Y933909D01*
X1417121Y934861D01*
X1424079D01*
X1454952Y903988D01*
X1454466Y902815D01*
X1421420D01*
Y877420D01*
X1456972D01*
Y900309D01*
X1458145Y900795D01*
X1506696Y852245D01*
X1505856Y851288D01*
X1505307Y851710D01*
X1503229Y852570D01*
X1502270Y852697D01*
Y844250D01*
Y835804D01*
X1503229Y835930D01*
X1504180Y836324D01*
X1504900Y835247D01*
X1491541Y821889D01*
X1443250D01*
X1441284Y821498D01*
X1439616Y820384D01*
X1403871Y784639D01*
X1396111D01*
X1395702Y785841D01*
X1395791Y785909D01*
X1397160Y787693D01*
X1398020Y789771D01*
X1398147Y790730D01*
X1383200D01*
X1368253D01*
X1368380Y789771D01*
X1369240Y787693D01*
X1370609Y785909D01*
X1370819Y785748D01*
X1370502Y784390D01*
X1369783Y784248D01*
X1368116Y783134D01*
X1358423Y773440D01*
X1357250Y773926D01*
X1357250Y820323D01*
X1358423Y820809D01*
X1365466Y813766D01*
X1367133Y812653D01*
X1369100Y812261D01*
X1369879D01*
X1370609Y811309D01*
X1372393Y809940D01*
X1374471Y809080D01*
X1376700Y808786D01*
X1389700D01*
X1391929Y809080D01*
X1394007Y809940D01*
X1395791Y811309D01*
X1397160Y813093D01*
X1398020Y815171D01*
X1398314Y817400D01*
X1398020Y819629D01*
X1397160Y821707D01*
X1395791Y823491D01*
X1394007Y824860D01*
X1391929Y825720D01*
X1389700Y826014D01*
X1376700D01*
X1374471Y825720D01*
X1372393Y824860D01*
X1370609Y823491D01*
X1370297Y823470D01*
X1333889Y859878D01*
Y902250D01*
X1333498Y904217D01*
X1332384Y905884D01*
X1295834Y942434D01*
X1294167Y943548D01*
X1292200Y943939D01*
X1289871D01*
X1289141Y944891D01*
X1287357Y946260D01*
X1285279Y947120D01*
X1283050Y947414D01*
X1273981D01*
X1272850Y947639D01*
X1237111D01*
X1235750Y949000D01*
X1131767D01*
X1115439Y965329D01*
Y972179D01*
X1116391Y972909D01*
X1117760Y974693D01*
X1118620Y976771D01*
X1118914Y979000D01*
Y992000D01*
X1118620Y994229D01*
X1117760Y996307D01*
X1116391Y998091D01*
X1114607Y999460D01*
X1112529Y1000320D01*
X1111028Y1000518D01*
X1110573Y1001859D01*
X1120826Y1012111D01*
X1177250D01*
X1179217Y1012502D01*
X1180884Y1013616D01*
X1260411Y1093144D01*
X1261614Y1092551D01*
X1261436Y1091200D01*
X1261730Y1088971D01*
X1262590Y1086893D01*
X1263959Y1085109D01*
X1265743Y1083740D01*
X1267821Y1082880D01*
X1270050Y1082586D01*
X1283050D01*
X1285279Y1082880D01*
X1287357Y1083740D01*
X1289141Y1085109D01*
X1290510Y1086893D01*
X1291370Y1088971D01*
X1291664Y1091200D01*
X1291370Y1093429D01*
X1290510Y1095507D01*
X1289141Y1097291D01*
X1287357Y1098660D01*
X1285279Y1099520D01*
X1283050Y1099814D01*
X1270050D01*
X1268699Y1099636D01*
X1268106Y1100839D01*
X1275254Y1107986D01*
X1283050D01*
X1285279Y1108280D01*
X1287357Y1109140D01*
X1289141Y1110509D01*
X1290510Y1112293D01*
X1291370Y1114371D01*
X1291664Y1116600D01*
X1291370Y1118829D01*
X1290510Y1120907D01*
X1289141Y1122691D01*
X1287357Y1124060D01*
X1285279Y1124920D01*
X1283050Y1125214D01*
X1270050D01*
X1267821Y1124920D01*
X1265743Y1124060D01*
X1263959Y1122691D01*
X1262590Y1120907D01*
X1261730Y1118829D01*
X1261436Y1116600D01*
X1261730Y1114371D01*
X1262590Y1112293D01*
X1263648Y1110915D01*
X1175122Y1022389D01*
X1118697D01*
X1116731Y1021998D01*
X1115063Y1020884D01*
X1094866Y1000686D01*
X1093752Y999019D01*
X1093367Y997081D01*
X1093289Y997030D01*
X1092091Y996657D01*
X1090991Y998091D01*
X1089207Y999460D01*
X1087129Y1000320D01*
X1086170Y1000446D01*
Y985500D01*
X1084900D01*
Y984230D01*
X1076286D01*
Y979000D01*
X1076580Y976771D01*
X1077440Y974693D01*
X1078809Y972909D01*
X1080593Y971540D01*
X1082671Y970680D01*
X1084832Y970395D01*
X1085098Y970030D01*
X1085483Y969250D01*
X1065233Y949000D01*
X899500D01*
Y1001100D01*
Y1003602D01*
X898524Y1008509D01*
X896609Y1013131D01*
X893829Y1017291D01*
X890292Y1020829D01*
X886131Y1023609D01*
X881509Y1025524D01*
X876602Y1026500D01*
X711898D01*
X706991Y1025524D01*
X702369Y1023609D01*
X698208Y1020829D01*
X694670Y1017291D01*
X692270Y1013699D01*
X691000Y1014084D01*
Y1231000D01*
X1498092D01*
Y1208532D01*
X1524273D01*
X1524521Y1207320D01*
X1522443Y1206460D01*
X1520659Y1205091D01*
X1519290Y1203307D01*
X1518430Y1201229D01*
X1518304Y1200270D01*
X1526750D01*
X1535197D01*
X1535070Y1201229D01*
X1534210Y1203307D01*
X1532841Y1205091D01*
X1531057Y1206460D01*
X1528979Y1207320D01*
X1529227Y1208532D01*
X1533644D01*
Y1231000D01*
X1593250D01*
Y1077273D01*
D02*
G37*
%LPC*%
G36*
X1212400Y649074D02*
X1210171Y648780D01*
X1208093Y647920D01*
X1206309Y646551D01*
X1204940Y644767D01*
X1204080Y642689D01*
X1203786Y640460D01*
Y627460D01*
X1204080Y625231D01*
X1204940Y623153D01*
X1206309Y621369D01*
X1208093Y620000D01*
X1210171Y619140D01*
X1212400Y618846D01*
X1214629Y619140D01*
X1216707Y620000D01*
X1218491Y621369D01*
X1219860Y623153D01*
X1220720Y625231D01*
X1221014Y627460D01*
Y640460D01*
X1220720Y642689D01*
X1219860Y644767D01*
X1218491Y646551D01*
X1216707Y647920D01*
X1214629Y648780D01*
X1212400Y649074D01*
D02*
G37*
G36*
X1313500Y648214D02*
X1300500D01*
X1298271Y647920D01*
X1296193Y647060D01*
X1294409Y645691D01*
X1293040Y643907D01*
X1292180Y641829D01*
X1291886Y639600D01*
X1292180Y637371D01*
X1293040Y635293D01*
X1294409Y633509D01*
X1296193Y632140D01*
X1298271Y631280D01*
X1300500Y630986D01*
X1313500D01*
X1315729Y631280D01*
X1317807Y632140D01*
X1319591Y633509D01*
X1320960Y635293D01*
X1321820Y637371D01*
X1322114Y639600D01*
X1321820Y641829D01*
X1320960Y643907D01*
X1319591Y645691D01*
X1317807Y647060D01*
X1315729Y647920D01*
X1313500Y648214D01*
D02*
G37*
G36*
X1017814Y632690D02*
X1010470D01*
Y619013D01*
X1011429Y619140D01*
X1013507Y620000D01*
X1015291Y621369D01*
X1016660Y623153D01*
X1017520Y625231D01*
X1017814Y627460D01*
Y632690D01*
D02*
G37*
G36*
X1246340D02*
X1239070D01*
Y618920D01*
X1246340D01*
Y632690D01*
D02*
G37*
G36*
X1236530D02*
X1229260D01*
Y618920D01*
X1236530D01*
Y632690D01*
D02*
G37*
G36*
Y649000D02*
X1229260D01*
Y635230D01*
X1236530D01*
Y649000D01*
D02*
G37*
G36*
X826860Y663760D02*
X806540D01*
Y643440D01*
X826860D01*
Y663760D01*
D02*
G37*
G36*
X918300Y663848D02*
X915648Y663499D01*
X913176Y662475D01*
X911054Y660846D01*
X909425Y658724D01*
X908401Y656252D01*
X908052Y653600D01*
X908401Y650948D01*
X909425Y648476D01*
X911054Y646354D01*
X913176Y644725D01*
X915648Y643701D01*
X918300Y643352D01*
X920952Y643701D01*
X923424Y644725D01*
X925546Y646354D01*
X927175Y648476D01*
X928198Y650948D01*
X928548Y653600D01*
X928198Y656252D01*
X927175Y658724D01*
X925546Y660846D01*
X923424Y662475D01*
X920952Y663499D01*
X918300Y663848D01*
D02*
G37*
G36*
X798330Y684393D02*
X772935D01*
Y653920D01*
X798330D01*
Y684393D01*
D02*
G37*
G36*
X892900Y663848D02*
X890248Y663499D01*
X887776Y662475D01*
X885654Y660846D01*
X884025Y658724D01*
X883001Y656252D01*
X882652Y653600D01*
X883001Y650948D01*
X884025Y648476D01*
X885654Y646354D01*
X887776Y644725D01*
X890248Y643701D01*
X892900Y643352D01*
X895552Y643701D01*
X898024Y644725D01*
X900146Y646354D01*
X901775Y648476D01*
X902798Y650948D01*
X903148Y653600D01*
X902798Y656252D01*
X901775Y658724D01*
X900146Y660846D01*
X898024Y662475D01*
X895552Y663499D01*
X892900Y663848D01*
D02*
G37*
G36*
X1246340Y649000D02*
X1239070D01*
Y635230D01*
X1246340D01*
Y649000D01*
D02*
G37*
G36*
X1010470Y648906D02*
Y635230D01*
X1017814D01*
Y640460D01*
X1017520Y642689D01*
X1016660Y644767D01*
X1015291Y646551D01*
X1013507Y647920D01*
X1011429Y648780D01*
X1010470Y648906D01*
D02*
G37*
G36*
X867500Y663848D02*
X864848Y663499D01*
X862376Y662475D01*
X860254Y660846D01*
X858625Y658724D01*
X857601Y656252D01*
X857252Y653600D01*
X857601Y650948D01*
X858625Y648476D01*
X860254Y646354D01*
X862376Y644725D01*
X864848Y643701D01*
X867500Y643352D01*
X870152Y643701D01*
X872624Y644725D01*
X874746Y646354D01*
X876375Y648476D01*
X877399Y650948D01*
X877748Y653600D01*
X877399Y656252D01*
X876375Y658724D01*
X874746Y660846D01*
X872624Y662475D01*
X870152Y663499D01*
X867500Y663848D01*
D02*
G37*
G36*
X842100D02*
X839448Y663499D01*
X836976Y662475D01*
X834854Y660846D01*
X833225Y658724D01*
X832202Y656252D01*
X831852Y653600D01*
X832202Y650948D01*
X833225Y648476D01*
X834854Y646354D01*
X836976Y644725D01*
X839448Y643701D01*
X842100Y643352D01*
X844752Y643701D01*
X847224Y644725D01*
X849346Y646354D01*
X850975Y648476D01*
X851999Y650948D01*
X852348Y653600D01*
X851999Y656252D01*
X850975Y658724D01*
X849346Y660846D01*
X847224Y662475D01*
X844752Y663499D01*
X842100Y663848D01*
D02*
G37*
G36*
X1187000Y649074D02*
X1184771Y648780D01*
X1182693Y647920D01*
X1180909Y646551D01*
X1179540Y644767D01*
X1178680Y642689D01*
X1178386Y640460D01*
Y627460D01*
X1178680Y625231D01*
X1179540Y623153D01*
X1180909Y621369D01*
X1182693Y620000D01*
X1184771Y619140D01*
X1187000Y618846D01*
X1189229Y619140D01*
X1191307Y620000D01*
X1193091Y621369D01*
X1194460Y623153D01*
X1195320Y625231D01*
X1195614Y627460D01*
Y640460D01*
X1195320Y642689D01*
X1194460Y644767D01*
X1193091Y646551D01*
X1191307Y647920D01*
X1189229Y648780D01*
X1187000Y649074D01*
D02*
G37*
G36*
X1305520Y553447D02*
Y546270D01*
X1312697D01*
X1312570Y547229D01*
X1311710Y549307D01*
X1310341Y551091D01*
X1308557Y552460D01*
X1306479Y553320D01*
X1305520Y553447D01*
D02*
G37*
G36*
X1302980D02*
X1302021Y553320D01*
X1299943Y552460D01*
X1298159Y551091D01*
X1296790Y549307D01*
X1295930Y547229D01*
X1295804Y546270D01*
X1302980D01*
Y553447D01*
D02*
G37*
G36*
X1110800Y649074D02*
X1108571Y648780D01*
X1106493Y647920D01*
X1104709Y646551D01*
X1103340Y644767D01*
X1102480Y642689D01*
X1102186Y640460D01*
Y627460D01*
X1102480Y625231D01*
X1103340Y623153D01*
X1104709Y621369D01*
X1106493Y620000D01*
X1108571Y619140D01*
X1110800Y618846D01*
X1113029Y619140D01*
X1115107Y620000D01*
X1116891Y621369D01*
X1118260Y623153D01*
X1119120Y625231D01*
X1119414Y627460D01*
Y640460D01*
X1119120Y642689D01*
X1118260Y644767D01*
X1116891Y646551D01*
X1115107Y647920D01*
X1113029Y648780D01*
X1110800Y649074D01*
D02*
G37*
G36*
X1085400D02*
X1083171Y648780D01*
X1081093Y647920D01*
X1079309Y646551D01*
X1077940Y644767D01*
X1077080Y642689D01*
X1076786Y640460D01*
Y627460D01*
X1077080Y625231D01*
X1077940Y623153D01*
X1079309Y621369D01*
X1081093Y620000D01*
X1083171Y619140D01*
X1085400Y618846D01*
X1087629Y619140D01*
X1089707Y620000D01*
X1091491Y621369D01*
X1092860Y623153D01*
X1093720Y625231D01*
X1094014Y627460D01*
Y640460D01*
X1093720Y642689D01*
X1092860Y644767D01*
X1091491Y646551D01*
X1089707Y647920D01*
X1087629Y648780D01*
X1085400Y649074D01*
D02*
G37*
G36*
X1161600D02*
X1159371Y648780D01*
X1157293Y647920D01*
X1155509Y646551D01*
X1154140Y644767D01*
X1153280Y642689D01*
X1152986Y640460D01*
Y627460D01*
X1153280Y625231D01*
X1154140Y623153D01*
X1155509Y621369D01*
X1157293Y620000D01*
X1159371Y619140D01*
X1161600Y618846D01*
X1163829Y619140D01*
X1165907Y620000D01*
X1167691Y621369D01*
X1169060Y623153D01*
X1169920Y625231D01*
X1170214Y627460D01*
Y640460D01*
X1169920Y642689D01*
X1169060Y644767D01*
X1167691Y646551D01*
X1165907Y647920D01*
X1163829Y648780D01*
X1161600Y649074D01*
D02*
G37*
G36*
X1136200D02*
X1133971Y648780D01*
X1131893Y647920D01*
X1130109Y646551D01*
X1128740Y644767D01*
X1127880Y642689D01*
X1127586Y640460D01*
Y627460D01*
X1127880Y625231D01*
X1128740Y623153D01*
X1130109Y621369D01*
X1131893Y620000D01*
X1133971Y619140D01*
X1136200Y618846D01*
X1138429Y619140D01*
X1140507Y620000D01*
X1142291Y621369D01*
X1143660Y623153D01*
X1144520Y625231D01*
X1144814Y627460D01*
Y640460D01*
X1144520Y642689D01*
X1143660Y644767D01*
X1142291Y646551D01*
X1140507Y647920D01*
X1138429Y648780D01*
X1136200Y649074D01*
D02*
G37*
G36*
X1060000D02*
X1057771Y648780D01*
X1055693Y647920D01*
X1053909Y646551D01*
X1052540Y644767D01*
X1051680Y642689D01*
X1051386Y640460D01*
Y627460D01*
X1051680Y625231D01*
X1052540Y623153D01*
X1053909Y621369D01*
X1055693Y620000D01*
X1057771Y619140D01*
X1060000Y618846D01*
X1062229Y619140D01*
X1064307Y620000D01*
X1066091Y621369D01*
X1067460Y623153D01*
X1068320Y625231D01*
X1068614Y627460D01*
Y640460D01*
X1068320Y642689D01*
X1067460Y644767D01*
X1066091Y646551D01*
X1064307Y647920D01*
X1062229Y648780D01*
X1060000Y649074D01*
D02*
G37*
G36*
X1034600D02*
X1032371Y648780D01*
X1030293Y647920D01*
X1028509Y646551D01*
X1027140Y644767D01*
X1026280Y642689D01*
X1025986Y640460D01*
Y627460D01*
X1026280Y625231D01*
X1027140Y623153D01*
X1028509Y621369D01*
X1030293Y620000D01*
X1032371Y619140D01*
X1034600Y618846D01*
X1036829Y619140D01*
X1038907Y620000D01*
X1040691Y621369D01*
X1042060Y623153D01*
X1042920Y625231D01*
X1043214Y627460D01*
Y640460D01*
X1042920Y642689D01*
X1042060Y644767D01*
X1040691Y646551D01*
X1038907Y647920D01*
X1036829Y648780D01*
X1034600Y649074D01*
D02*
G37*
G36*
X1313500Y673614D02*
X1300500D01*
X1298271Y673320D01*
X1296193Y672460D01*
X1294409Y671091D01*
X1293040Y669307D01*
X1292180Y667229D01*
X1291886Y665000D01*
X1292180Y662771D01*
X1293040Y660693D01*
X1294409Y658909D01*
X1296193Y657540D01*
X1298271Y656680D01*
X1300500Y656386D01*
X1313500D01*
X1315729Y656680D01*
X1317807Y657540D01*
X1319591Y658909D01*
X1320960Y660693D01*
X1321820Y662771D01*
X1322114Y665000D01*
X1321820Y667229D01*
X1320960Y669307D01*
X1319591Y671091D01*
X1317807Y672460D01*
X1315729Y673320D01*
X1313500Y673614D01*
D02*
G37*
G36*
Y724414D02*
X1300500D01*
X1298271Y724120D01*
X1296193Y723260D01*
X1294409Y721891D01*
X1293040Y720107D01*
X1292180Y718029D01*
X1291886Y715800D01*
X1292180Y713571D01*
X1293040Y711493D01*
X1294409Y709709D01*
X1296193Y708340D01*
X1298271Y707480D01*
X1300500Y707186D01*
X1313500D01*
X1315729Y707480D01*
X1317807Y708340D01*
X1319591Y709709D01*
X1320960Y711493D01*
X1321820Y713571D01*
X1322114Y715800D01*
X1321820Y718029D01*
X1320960Y720107D01*
X1319591Y721891D01*
X1317807Y723260D01*
X1315729Y724120D01*
X1313500Y724414D01*
D02*
G37*
G36*
X780600Y744424D02*
X778371Y744130D01*
X776293Y743270D01*
X774509Y741901D01*
X773140Y740117D01*
X772280Y738039D01*
X771986Y735810D01*
Y722810D01*
X772280Y720581D01*
X773140Y718503D01*
X774509Y716719D01*
X776293Y715350D01*
X778371Y714490D01*
X780600Y714196D01*
X782829Y714490D01*
X784907Y715350D01*
X786691Y716719D01*
X788060Y718503D01*
X788920Y720581D01*
X789214Y722810D01*
Y735810D01*
X788920Y738039D01*
X788060Y740117D01*
X786691Y741901D01*
X784907Y743270D01*
X782829Y744130D01*
X780600Y744424D01*
D02*
G37*
G36*
X755200D02*
X752971Y744130D01*
X750893Y743270D01*
X749109Y741901D01*
X747740Y740117D01*
X746880Y738039D01*
X746586Y735810D01*
Y722810D01*
X746880Y720581D01*
X747740Y718503D01*
X749109Y716719D01*
X750893Y715350D01*
X752971Y714490D01*
X755200Y714196D01*
X757429Y714490D01*
X759507Y715350D01*
X761291Y716719D01*
X762660Y718503D01*
X763520Y720581D01*
X763814Y722810D01*
Y735810D01*
X763520Y738039D01*
X762660Y740117D01*
X761291Y741901D01*
X759507Y743270D01*
X757429Y744130D01*
X755200Y744424D01*
D02*
G37*
G36*
X1247960Y689160D02*
X1239070D01*
Y680270D01*
X1247960D01*
Y689160D01*
D02*
G37*
G36*
X815430Y689081D02*
X814048Y688898D01*
X811576Y687875D01*
X809454Y686246D01*
X807825Y684124D01*
X806802Y681652D01*
X806619Y680270D01*
X815430D01*
Y689081D01*
D02*
G37*
G36*
X1313500Y699014D02*
X1300500D01*
X1298271Y698720D01*
X1296193Y697860D01*
X1294409Y696491D01*
X1293040Y694707D01*
X1292180Y692629D01*
X1291886Y690400D01*
X1292180Y688171D01*
X1293040Y686093D01*
X1294409Y684309D01*
X1296193Y682940D01*
X1298271Y682080D01*
X1300500Y681786D01*
X1313500D01*
X1315729Y682080D01*
X1317807Y682940D01*
X1319591Y684309D01*
X1320960Y686093D01*
X1321820Y688171D01*
X1322114Y690400D01*
X1321820Y692629D01*
X1320960Y694707D01*
X1319591Y696491D01*
X1317807Y697860D01*
X1315729Y698720D01*
X1313500Y699014D01*
D02*
G37*
G36*
X817970Y689081D02*
Y680270D01*
X826780D01*
X826599Y681652D01*
X825575Y684124D01*
X823946Y686246D01*
X821824Y687875D01*
X819352Y688898D01*
X817970Y689081D01*
D02*
G37*
G36*
X806000Y744424D02*
X803771Y744130D01*
X801693Y743270D01*
X799909Y741901D01*
X798540Y740117D01*
X797680Y738039D01*
X797386Y735810D01*
Y722810D01*
X797680Y720581D01*
X798540Y718503D01*
X799909Y716719D01*
X801693Y715350D01*
X803771Y714490D01*
X806000Y714196D01*
X808229Y714490D01*
X810307Y715350D01*
X812091Y716719D01*
X813460Y718503D01*
X814320Y720581D01*
X814614Y722810D01*
Y735810D01*
X814320Y738039D01*
X813460Y740117D01*
X812091Y741901D01*
X810307Y743270D01*
X808229Y744130D01*
X806000Y744424D01*
D02*
G37*
G36*
X1136200D02*
X1133971Y744130D01*
X1131893Y743270D01*
X1130109Y741901D01*
X1128740Y740117D01*
X1127880Y738039D01*
X1127586Y735810D01*
Y722810D01*
X1127880Y720581D01*
X1128740Y718503D01*
X1130109Y716719D01*
X1130284Y716585D01*
X1129853Y715315D01*
X1117147D01*
X1116716Y716585D01*
X1116891Y716719D01*
X1118260Y718503D01*
X1119120Y720581D01*
X1119414Y722810D01*
Y735810D01*
X1119120Y738039D01*
X1118260Y740117D01*
X1116891Y741901D01*
X1115107Y743270D01*
X1113029Y744130D01*
X1110800Y744424D01*
X1108571Y744130D01*
X1106493Y743270D01*
X1104709Y741901D01*
X1103340Y740117D01*
X1102480Y738039D01*
X1102186Y735810D01*
Y722810D01*
X1102480Y720581D01*
X1103340Y718503D01*
X1104709Y716719D01*
X1104884Y716585D01*
X1104453Y715315D01*
X1091747D01*
X1091316Y716585D01*
X1091491Y716719D01*
X1092860Y718503D01*
X1093720Y720581D01*
X1094014Y722810D01*
Y735810D01*
X1093720Y738039D01*
X1092860Y740117D01*
X1091491Y741901D01*
X1089707Y743270D01*
X1087629Y744130D01*
X1085400Y744424D01*
X1083171Y744130D01*
X1081093Y743270D01*
X1079309Y741901D01*
X1077940Y740117D01*
X1077080Y738039D01*
X1076786Y735810D01*
Y722810D01*
X1077080Y720581D01*
X1077940Y718503D01*
X1079309Y716719D01*
X1079484Y716585D01*
X1079053Y715315D01*
X1066347D01*
X1065916Y716585D01*
X1066091Y716719D01*
X1067460Y718503D01*
X1068320Y720581D01*
X1068614Y722810D01*
Y735810D01*
X1068320Y738039D01*
X1067460Y740117D01*
X1066091Y741901D01*
X1064307Y743270D01*
X1062229Y744130D01*
X1060000Y744424D01*
X1057771Y744130D01*
X1055693Y743270D01*
X1053909Y741901D01*
X1052540Y740117D01*
X1051680Y738039D01*
X1051386Y735810D01*
Y722810D01*
X1051680Y720581D01*
X1052540Y718503D01*
X1053909Y716719D01*
X1054084Y716585D01*
X1053653Y715315D01*
X1040947D01*
X1040516Y716585D01*
X1040691Y716719D01*
X1042060Y718503D01*
X1042920Y720581D01*
X1043214Y722810D01*
Y735810D01*
X1042920Y738039D01*
X1042060Y740117D01*
X1040691Y741901D01*
X1038907Y743270D01*
X1036829Y744130D01*
X1034600Y744424D01*
X1032371Y744130D01*
X1030293Y743270D01*
X1028509Y741901D01*
X1027140Y740117D01*
X1026280Y738039D01*
X1025986Y735810D01*
Y722810D01*
X1026280Y720581D01*
X1027140Y718503D01*
X1028509Y716719D01*
X1030293Y715350D01*
X1032371Y714490D01*
X1032920Y714417D01*
Y690307D01*
X1032920Y689920D01*
X1032230Y688936D01*
X1031948Y688898D01*
X1029476Y687875D01*
X1027354Y686246D01*
X1025725Y684124D01*
X1024702Y681652D01*
X1024352Y679000D01*
X1024702Y676348D01*
X1025725Y673876D01*
X1027354Y671754D01*
X1029476Y670125D01*
X1031948Y669101D01*
X1034600Y668752D01*
X1037252Y669101D01*
X1039724Y670125D01*
X1041846Y671754D01*
X1043475Y673876D01*
X1044499Y676348D01*
X1044848Y679000D01*
X1044499Y681652D01*
X1043475Y684124D01*
X1041846Y686246D01*
X1039724Y687875D01*
X1037852Y688650D01*
X1038105Y689920D01*
X1056495D01*
X1056748Y688650D01*
X1054876Y687875D01*
X1052754Y686246D01*
X1051125Y684124D01*
X1050101Y681652D01*
X1049752Y679000D01*
X1050101Y676348D01*
X1051125Y673876D01*
X1052754Y671754D01*
X1054876Y670125D01*
X1057348Y669101D01*
X1060000Y668752D01*
X1062652Y669101D01*
X1065124Y670125D01*
X1067246Y671754D01*
X1068875Y673876D01*
X1069899Y676348D01*
X1070248Y679000D01*
X1069899Y681652D01*
X1068875Y684124D01*
X1067246Y686246D01*
X1065124Y687875D01*
X1063252Y688650D01*
X1063505Y689920D01*
X1081895D01*
X1082148Y688650D01*
X1080276Y687875D01*
X1078154Y686246D01*
X1076525Y684124D01*
X1075501Y681652D01*
X1075152Y679000D01*
X1075501Y676348D01*
X1076525Y673876D01*
X1078154Y671754D01*
X1080276Y670125D01*
X1082748Y669101D01*
X1085400Y668752D01*
X1088052Y669101D01*
X1090524Y670125D01*
X1092646Y671754D01*
X1094275Y673876D01*
X1095298Y676348D01*
X1095648Y679000D01*
X1095298Y681652D01*
X1094275Y684124D01*
X1092646Y686246D01*
X1090524Y687875D01*
X1088652Y688650D01*
X1088905Y689920D01*
X1107295D01*
X1107548Y688650D01*
X1105676Y687875D01*
X1103554Y686246D01*
X1101925Y684124D01*
X1100901Y681652D01*
X1100552Y679000D01*
X1100901Y676348D01*
X1101925Y673876D01*
X1103554Y671754D01*
X1105676Y670125D01*
X1108148Y669101D01*
X1110800Y668752D01*
X1113452Y669101D01*
X1115924Y670125D01*
X1118046Y671754D01*
X1119675Y673876D01*
X1120698Y676348D01*
X1121048Y679000D01*
X1120698Y681652D01*
X1119675Y684124D01*
X1118046Y686246D01*
X1115924Y687875D01*
X1114052Y688650D01*
X1114305Y689920D01*
X1132695D01*
X1132948Y688650D01*
X1131076Y687875D01*
X1128954Y686246D01*
X1127325Y684124D01*
X1126301Y681652D01*
X1125952Y679000D01*
X1126301Y676348D01*
X1127325Y673876D01*
X1128954Y671754D01*
X1131076Y670125D01*
X1133548Y669101D01*
X1136200Y668752D01*
X1138852Y669101D01*
X1141324Y670125D01*
X1143446Y671754D01*
X1145075Y673876D01*
X1146098Y676348D01*
X1146448Y679000D01*
X1146098Y681652D01*
X1145075Y684124D01*
X1143446Y686246D01*
X1141324Y687875D01*
X1139452Y688650D01*
X1139705Y689920D01*
X1154804D01*
Y715315D01*
X1142547D01*
X1142116Y716585D01*
X1142291Y716719D01*
X1143660Y718503D01*
X1144520Y720581D01*
X1144814Y722810D01*
Y735810D01*
X1144520Y738039D01*
X1143660Y740117D01*
X1142291Y741901D01*
X1140507Y743270D01*
X1138429Y744130D01*
X1136200Y744424D01*
D02*
G37*
G36*
X1220000Y774139D02*
X864000D01*
X862033Y773748D01*
X860366Y772634D01*
X838806Y751074D01*
X837692Y749407D01*
X837301Y747440D01*
Y743482D01*
X836162Y742920D01*
X835707Y743270D01*
X833629Y744130D01*
X831400Y744424D01*
X829171Y744130D01*
X827093Y743270D01*
X825309Y741901D01*
X823940Y740117D01*
X823080Y738039D01*
X822786Y735810D01*
Y722810D01*
X823080Y720581D01*
X823940Y718503D01*
X825309Y716719D01*
X827093Y715350D01*
X829171Y714490D01*
X831400Y714196D01*
X833629Y714490D01*
X835707Y715350D01*
X836162Y715700D01*
X837301Y715138D01*
Y688009D01*
X836976Y687875D01*
X834854Y686246D01*
X833225Y684124D01*
X832202Y681652D01*
X831852Y679000D01*
X832202Y676348D01*
X833225Y673876D01*
X834854Y671754D01*
X836976Y670125D01*
X839448Y669101D01*
X842100Y668752D01*
X844752Y669101D01*
X847224Y670125D01*
X849346Y671754D01*
X850975Y673876D01*
X851999Y676348D01*
X852348Y679000D01*
X851999Y681652D01*
X850975Y684124D01*
X849346Y686246D01*
X847579Y687602D01*
Y719437D01*
X848849Y719690D01*
X849340Y718503D01*
X850709Y716719D01*
X852493Y715350D01*
X854571Y714490D01*
X856800Y714196D01*
X859029Y714490D01*
X861107Y715350D01*
X862891Y716719D01*
X864260Y718503D01*
X865120Y720581D01*
X865414Y722810D01*
Y735810D01*
X865120Y738039D01*
X864260Y740117D01*
X862891Y741901D01*
X861107Y743270D01*
X859029Y744130D01*
X856800Y744424D01*
X854571Y744130D01*
X852493Y743270D01*
X850709Y741901D01*
X849340Y740117D01*
X848849Y738930D01*
X847579Y739183D01*
Y745312D01*
X866128Y763861D01*
X1217871D01*
X1232661Y749072D01*
Y742631D01*
X1231709Y741901D01*
X1230340Y740117D01*
X1229480Y738039D01*
X1229186Y735810D01*
Y722810D01*
X1229480Y720581D01*
X1230340Y718503D01*
X1231709Y716719D01*
X1233493Y715350D01*
X1235571Y714490D01*
X1237800Y714196D01*
X1240029Y714490D01*
X1242107Y715350D01*
X1243891Y716719D01*
X1245260Y718503D01*
X1246120Y720581D01*
X1246414Y722810D01*
Y735810D01*
X1246120Y738039D01*
X1245260Y740117D01*
X1243891Y741901D01*
X1242939Y742631D01*
Y751200D01*
X1242548Y753167D01*
X1241434Y754834D01*
X1223634Y772634D01*
X1221966Y773748D01*
X1220000Y774139D01*
D02*
G37*
G36*
X1009200Y744424D02*
X1006971Y744130D01*
X1004893Y743270D01*
X1003109Y741901D01*
X1001740Y740117D01*
X1000880Y738039D01*
X1000586Y735810D01*
Y722810D01*
X1000772Y721402D01*
X999569Y720808D01*
X992414Y727964D01*
Y735810D01*
X992120Y738039D01*
X991260Y740117D01*
X989891Y741901D01*
X988107Y743270D01*
X986029Y744130D01*
X983800Y744424D01*
X981571Y744130D01*
X979493Y743270D01*
X977709Y741901D01*
X976340Y740117D01*
X975480Y738039D01*
X975186Y735810D01*
Y722810D01*
X975480Y720581D01*
X976340Y718503D01*
X977709Y716719D01*
X979493Y715350D01*
X981571Y714490D01*
X983800Y714196D01*
X986029Y714490D01*
X988107Y715350D01*
X989457Y716386D01*
X991321Y714521D01*
Y687636D01*
X990051Y687010D01*
X988924Y687875D01*
X986452Y688898D01*
X983800Y689248D01*
X981148Y688898D01*
X978676Y687875D01*
X976554Y686246D01*
X974925Y684124D01*
X973902Y681652D01*
X973552Y679000D01*
X973902Y676348D01*
X974925Y673876D01*
X976554Y671754D01*
X978676Y670125D01*
X981148Y669101D01*
X983800Y668752D01*
X986452Y669101D01*
X988924Y670125D01*
X990051Y670990D01*
X991321Y670364D01*
Y590540D01*
X991712Y588573D01*
X992826Y586906D01*
X1004061Y575672D01*
Y571081D01*
X1003109Y570351D01*
X1001740Y568567D01*
X1000880Y566489D01*
X1000586Y564260D01*
Y551260D01*
X1000880Y549031D01*
X1001740Y546953D01*
X1003109Y545169D01*
X1004893Y543800D01*
X1006971Y542940D01*
X1009200Y542646D01*
X1011429Y542940D01*
X1013507Y543800D01*
X1015291Y545169D01*
X1016660Y546953D01*
X1017520Y549031D01*
X1017814Y551260D01*
Y564260D01*
X1017520Y566489D01*
X1016660Y568567D01*
X1015291Y570351D01*
X1014339Y571081D01*
Y577800D01*
X1013948Y579767D01*
X1012834Y581434D01*
X1001599Y592668D01*
Y621251D01*
X1002869Y621683D01*
X1003109Y621369D01*
X1004893Y620000D01*
X1006971Y619140D01*
X1007930Y619013D01*
Y633960D01*
Y648906D01*
X1006971Y648780D01*
X1004893Y647920D01*
X1003109Y646551D01*
X1002869Y646237D01*
X1001599Y646668D01*
Y670425D01*
X1002869Y671052D01*
X1004076Y670125D01*
X1006548Y669101D01*
X1009200Y668752D01*
X1011852Y669101D01*
X1014324Y670125D01*
X1016446Y671754D01*
X1018075Y673876D01*
X1019099Y676348D01*
X1019448Y679000D01*
X1019099Y681652D01*
X1018075Y684124D01*
X1016446Y686246D01*
X1014324Y687875D01*
X1011852Y688898D01*
X1009200Y689248D01*
X1006548Y688898D01*
X1004076Y687875D01*
X1002869Y686948D01*
X1001599Y687575D01*
Y716601D01*
X1001686Y716684D01*
X1002800Y717123D01*
X1003109Y716719D01*
X1004893Y715350D01*
X1006971Y714490D01*
X1009200Y714196D01*
X1011429Y714490D01*
X1013507Y715350D01*
X1015291Y716719D01*
X1016660Y718503D01*
X1017520Y720581D01*
X1017814Y722810D01*
Y735810D01*
X1017520Y738039D01*
X1016660Y740117D01*
X1015291Y741901D01*
X1013507Y743270D01*
X1011429Y744130D01*
X1009200Y744424D01*
D02*
G37*
G36*
X958400D02*
X956171Y744130D01*
X954093Y743270D01*
X952309Y741901D01*
X950940Y740117D01*
X950080Y738039D01*
X949786Y735810D01*
Y722810D01*
X950080Y720581D01*
X950940Y718503D01*
X951170Y718204D01*
X950608Y717065D01*
X940957D01*
X940331Y718335D01*
X940460Y718503D01*
X941320Y720581D01*
X941614Y722810D01*
Y735810D01*
X941320Y738039D01*
X940460Y740117D01*
X939091Y741901D01*
X937307Y743270D01*
X935229Y744130D01*
X933000Y744424D01*
X930771Y744130D01*
X928693Y743270D01*
X926909Y741901D01*
X925540Y740117D01*
X924680Y738039D01*
X924386Y735810D01*
Y722810D01*
X924680Y720581D01*
X925540Y718503D01*
X926909Y716719D01*
X928693Y715350D01*
X930771Y714490D01*
X933000Y714196D01*
X935229Y714490D01*
X937307Y715350D01*
X938150Y715997D01*
X939420Y715371D01*
Y691670D01*
X969893D01*
Y717065D01*
X966192D01*
X965630Y718204D01*
X965860Y718503D01*
X966720Y720581D01*
X967014Y722810D01*
Y735810D01*
X966720Y738039D01*
X965860Y740117D01*
X964491Y741901D01*
X962707Y743270D01*
X960629Y744130D01*
X958400Y744424D01*
D02*
G37*
G36*
X1212400D02*
X1210171Y744130D01*
X1208093Y743270D01*
X1206309Y741901D01*
X1204940Y740117D01*
X1204080Y738039D01*
X1203786Y735810D01*
Y722810D01*
X1204080Y720581D01*
X1204940Y718503D01*
X1206309Y716719D01*
X1208093Y715350D01*
X1210171Y714490D01*
X1212400Y714196D01*
X1214629Y714490D01*
X1216707Y715350D01*
X1218491Y716719D01*
X1219860Y718503D01*
X1220720Y720581D01*
X1221014Y722810D01*
Y735810D01*
X1220720Y738039D01*
X1219860Y740117D01*
X1218491Y741901D01*
X1216707Y743270D01*
X1214629Y744130D01*
X1212400Y744424D01*
D02*
G37*
G36*
X907600D02*
X905371Y744130D01*
X903293Y743270D01*
X901509Y741901D01*
X900140Y740117D01*
X899280Y738039D01*
X898986Y735810D01*
Y722810D01*
X899280Y720581D01*
X900140Y718503D01*
X901509Y716719D01*
X903293Y715350D01*
X905371Y714490D01*
X907600Y714196D01*
X909829Y714490D01*
X911907Y715350D01*
X913691Y716719D01*
X915060Y718503D01*
X915920Y720581D01*
X916214Y722810D01*
Y735810D01*
X915920Y738039D01*
X915060Y740117D01*
X913691Y741901D01*
X911907Y743270D01*
X909829Y744130D01*
X907600Y744424D01*
D02*
G37*
G36*
X882200D02*
X879971Y744130D01*
X877893Y743270D01*
X876109Y741901D01*
X874740Y740117D01*
X873880Y738039D01*
X873586Y735810D01*
Y722810D01*
X873880Y720581D01*
X874740Y718503D01*
X876109Y716719D01*
X877893Y715350D01*
X879971Y714490D01*
X882200Y714196D01*
X884429Y714490D01*
X886507Y715350D01*
X888291Y716719D01*
X889660Y718503D01*
X890520Y720581D01*
X890814Y722810D01*
Y735810D01*
X890520Y738039D01*
X889660Y740117D01*
X888291Y741901D01*
X886507Y743270D01*
X884429Y744130D01*
X882200Y744424D01*
D02*
G37*
G36*
X1187000D02*
X1184771Y744130D01*
X1182693Y743270D01*
X1180909Y741901D01*
X1179540Y740117D01*
X1178680Y738039D01*
X1178386Y735810D01*
Y722810D01*
X1178680Y720581D01*
X1179540Y718503D01*
X1180909Y716719D01*
X1182693Y715350D01*
X1184771Y714490D01*
X1187000Y714196D01*
X1189229Y714490D01*
X1191307Y715350D01*
X1193091Y716719D01*
X1194460Y718503D01*
X1195320Y720581D01*
X1195614Y722810D01*
Y735810D01*
X1195320Y738039D01*
X1194460Y740117D01*
X1193091Y741901D01*
X1191307Y743270D01*
X1189229Y744130D01*
X1187000Y744424D01*
D02*
G37*
G36*
X1161600D02*
X1159371Y744130D01*
X1157293Y743270D01*
X1155509Y741901D01*
X1154140Y740117D01*
X1153280Y738039D01*
X1152986Y735810D01*
Y722810D01*
X1153280Y720581D01*
X1154140Y718503D01*
X1155509Y716719D01*
X1157293Y715350D01*
X1159371Y714490D01*
X1161600Y714196D01*
X1163829Y714490D01*
X1165907Y715350D01*
X1167691Y716719D01*
X1169060Y718503D01*
X1169920Y720581D01*
X1170214Y722810D01*
Y735810D01*
X1169920Y738039D01*
X1169060Y740117D01*
X1167691Y741901D01*
X1165907Y743270D01*
X1163829Y744130D01*
X1161600Y744424D01*
D02*
G37*
G36*
X958400Y689248D02*
X955748Y688898D01*
X953276Y687875D01*
X951154Y686246D01*
X949525Y684124D01*
X948502Y681652D01*
X948152Y679000D01*
X948502Y676348D01*
X949525Y673876D01*
X951154Y671754D01*
X953276Y670125D01*
X955748Y669101D01*
X958400Y668752D01*
X961052Y669101D01*
X963524Y670125D01*
X965646Y671754D01*
X967275Y673876D01*
X968298Y676348D01*
X968648Y679000D01*
X968298Y681652D01*
X967275Y684124D01*
X965646Y686246D01*
X963524Y687875D01*
X961052Y688898D01*
X958400Y689248D01*
D02*
G37*
G36*
X892900D02*
X890248Y688898D01*
X887776Y687875D01*
X885654Y686246D01*
X884025Y684124D01*
X883001Y681652D01*
X882652Y679000D01*
X883001Y676348D01*
X884025Y673876D01*
X885654Y671754D01*
X887776Y670125D01*
X890248Y669101D01*
X892900Y668752D01*
X895552Y669101D01*
X898024Y670125D01*
X900146Y671754D01*
X901775Y673876D01*
X902798Y676348D01*
X903148Y679000D01*
X902798Y681652D01*
X901775Y684124D01*
X900146Y686246D01*
X898024Y687875D01*
X895552Y688898D01*
X892900Y689248D01*
D02*
G37*
G36*
X1187000D02*
X1184348Y688898D01*
X1181876Y687875D01*
X1179754Y686246D01*
X1178125Y684124D01*
X1177102Y681652D01*
X1176752Y679000D01*
X1177102Y676348D01*
X1178125Y673876D01*
X1179754Y671754D01*
X1181876Y670125D01*
X1184348Y669101D01*
X1187000Y668752D01*
X1189652Y669101D01*
X1192124Y670125D01*
X1194246Y671754D01*
X1195875Y673876D01*
X1196898Y676348D01*
X1197248Y679000D01*
X1196898Y681652D01*
X1195875Y684124D01*
X1194246Y686246D01*
X1192124Y687875D01*
X1189652Y688898D01*
X1187000Y689248D01*
D02*
G37*
G36*
X1161600D02*
X1158948Y688898D01*
X1156476Y687875D01*
X1154354Y686246D01*
X1152725Y684124D01*
X1151702Y681652D01*
X1151352Y679000D01*
X1151702Y676348D01*
X1152725Y673876D01*
X1154354Y671754D01*
X1156476Y670125D01*
X1158948Y669101D01*
X1161600Y668752D01*
X1164252Y669101D01*
X1166724Y670125D01*
X1168846Y671754D01*
X1170475Y673876D01*
X1171498Y676348D01*
X1171848Y679000D01*
X1171498Y681652D01*
X1170475Y684124D01*
X1168846Y686246D01*
X1166724Y687875D01*
X1164252Y688898D01*
X1161600Y689248D01*
D02*
G37*
G36*
X867500D02*
X864848Y688898D01*
X862376Y687875D01*
X860254Y686246D01*
X858625Y684124D01*
X857601Y681652D01*
X857252Y679000D01*
X857601Y676348D01*
X858625Y673876D01*
X860254Y671754D01*
X862376Y670125D01*
X864848Y669101D01*
X867500Y668752D01*
X870152Y669101D01*
X872624Y670125D01*
X874746Y671754D01*
X876375Y673876D01*
X877399Y676348D01*
X877748Y679000D01*
X877399Y681652D01*
X876375Y684124D01*
X874746Y686246D01*
X872624Y687875D01*
X870152Y688898D01*
X867500Y689248D01*
D02*
G37*
G36*
X1212400D02*
X1209748Y688898D01*
X1207276Y687875D01*
X1205154Y686246D01*
X1203525Y684124D01*
X1202502Y681652D01*
X1202152Y679000D01*
X1202502Y676348D01*
X1203525Y673876D01*
X1205154Y671754D01*
X1207276Y670125D01*
X1209748Y669101D01*
X1212400Y668752D01*
X1215052Y669101D01*
X1217524Y670125D01*
X1219646Y671754D01*
X1221275Y673876D01*
X1222299Y676348D01*
X1222648Y679000D01*
X1222299Y681652D01*
X1221275Y684124D01*
X1219646Y686246D01*
X1217524Y687875D01*
X1215052Y688898D01*
X1212400Y689248D01*
D02*
G37*
G36*
X917030Y689081D02*
X915648Y688898D01*
X913176Y687875D01*
X911054Y686246D01*
X909425Y684124D01*
X908401Y681652D01*
X908220Y680270D01*
X917030D01*
Y689081D01*
D02*
G37*
G36*
X826780Y677730D02*
X817970D01*
Y668920D01*
X819352Y669101D01*
X821824Y670125D01*
X823946Y671754D01*
X825575Y673876D01*
X826599Y676348D01*
X826780Y677730D01*
D02*
G37*
G36*
X1236530Y689160D02*
X1227640D01*
Y680270D01*
X1236530D01*
Y689160D01*
D02*
G37*
G36*
X919570Y689081D02*
Y680270D01*
X928381D01*
X928198Y681652D01*
X927175Y684124D01*
X925546Y686246D01*
X923424Y687875D01*
X920952Y688898D01*
X919570Y689081D01*
D02*
G37*
G36*
X928381Y677730D02*
X919570D01*
Y668920D01*
X920952Y669101D01*
X923424Y670125D01*
X925546Y671754D01*
X927175Y673876D01*
X928198Y676348D01*
X928381Y677730D01*
D02*
G37*
G36*
X1247960Y677730D02*
X1239070D01*
Y668840D01*
X1247960D01*
Y677730D01*
D02*
G37*
G36*
X1236530D02*
X1227640D01*
Y668840D01*
X1236530D01*
Y677730D01*
D02*
G37*
G36*
X917030Y677730D02*
X908220D01*
X908401Y676348D01*
X909425Y673876D01*
X911054Y671754D01*
X913176Y670125D01*
X915648Y669101D01*
X917030Y668920D01*
Y677730D01*
D02*
G37*
G36*
X815430Y677730D02*
X806619D01*
X806802Y676348D01*
X807825Y673876D01*
X809454Y671754D01*
X811576Y670125D01*
X814048Y669101D01*
X815430Y668920D01*
Y677730D01*
D02*
G37*
G36*
X1212400Y572874D02*
X1210171Y572580D01*
X1208093Y571720D01*
X1206309Y570351D01*
X1204940Y568567D01*
X1204080Y566489D01*
X1203786Y564260D01*
Y551260D01*
X1204080Y549031D01*
X1204940Y546953D01*
X1206309Y545169D01*
X1208093Y543800D01*
X1210171Y542940D01*
X1212400Y542646D01*
X1214629Y542940D01*
X1216707Y543800D01*
X1218491Y545169D01*
X1219860Y546953D01*
X1220720Y549031D01*
X1221014Y551260D01*
Y564260D01*
X1220720Y566489D01*
X1219860Y568567D01*
X1218491Y570351D01*
X1216707Y571720D01*
X1214629Y572580D01*
X1212400Y572874D01*
D02*
G37*
G36*
X1136200D02*
X1133971Y572580D01*
X1131893Y571720D01*
X1130109Y570351D01*
X1128740Y568567D01*
X1127880Y566489D01*
X1127586Y564260D01*
Y551260D01*
X1127880Y549031D01*
X1128740Y546953D01*
X1130109Y545169D01*
X1131893Y543800D01*
X1133971Y542940D01*
X1136200Y542646D01*
X1138429Y542940D01*
X1140507Y543800D01*
X1142291Y545169D01*
X1143660Y546953D01*
X1144520Y549031D01*
X1144814Y551260D01*
Y564260D01*
X1144520Y566489D01*
X1143660Y568567D01*
X1142291Y570351D01*
X1140507Y571720D01*
X1138429Y572580D01*
X1136200Y572874D01*
D02*
G37*
G36*
X1110800D02*
X1108571Y572580D01*
X1106493Y571720D01*
X1104709Y570351D01*
X1103340Y568567D01*
X1102480Y566489D01*
X1102186Y564260D01*
Y551260D01*
X1102480Y549031D01*
X1103340Y546953D01*
X1104709Y545169D01*
X1106493Y543800D01*
X1108571Y542940D01*
X1110800Y542646D01*
X1113029Y542940D01*
X1115107Y543800D01*
X1116891Y545169D01*
X1118260Y546953D01*
X1119120Y549031D01*
X1119414Y551260D01*
Y564260D01*
X1119120Y566489D01*
X1118260Y568567D01*
X1116891Y570351D01*
X1115107Y571720D01*
X1113029Y572580D01*
X1110800Y572874D01*
D02*
G37*
G36*
X1187000D02*
X1184771Y572580D01*
X1182693Y571720D01*
X1180909Y570351D01*
X1179540Y568567D01*
X1178680Y566489D01*
X1178386Y564260D01*
Y551260D01*
X1178680Y549031D01*
X1179540Y546953D01*
X1180909Y545169D01*
X1182693Y543800D01*
X1184771Y542940D01*
X1187000Y542646D01*
X1189229Y542940D01*
X1191307Y543800D01*
X1193091Y545169D01*
X1194460Y546953D01*
X1195320Y549031D01*
X1195614Y551260D01*
Y564260D01*
X1195320Y566489D01*
X1194460Y568567D01*
X1193091Y570351D01*
X1191307Y571720D01*
X1189229Y572580D01*
X1187000Y572874D01*
D02*
G37*
G36*
X1161600D02*
X1159371Y572580D01*
X1157293Y571720D01*
X1155509Y570351D01*
X1154140Y568567D01*
X1153280Y566489D01*
X1152986Y564260D01*
Y551260D01*
X1153280Y549031D01*
X1154140Y546953D01*
X1155509Y545169D01*
X1157293Y543800D01*
X1159371Y542940D01*
X1161600Y542646D01*
X1163829Y542940D01*
X1165907Y543800D01*
X1167691Y545169D01*
X1169060Y546953D01*
X1169920Y549031D01*
X1170214Y551260D01*
Y564260D01*
X1169920Y566489D01*
X1169060Y568567D01*
X1167691Y570351D01*
X1165907Y571720D01*
X1163829Y572580D01*
X1161600Y572874D01*
D02*
G37*
G36*
X1085400D02*
X1083171Y572580D01*
X1081093Y571720D01*
X1079309Y570351D01*
X1077940Y568567D01*
X1077080Y566489D01*
X1076786Y564260D01*
Y551260D01*
X1077080Y549031D01*
X1077940Y546953D01*
X1079309Y545169D01*
X1081093Y543800D01*
X1083171Y542940D01*
X1085400Y542646D01*
X1087629Y542940D01*
X1089707Y543800D01*
X1091491Y545169D01*
X1092860Y546953D01*
X1093720Y549031D01*
X1094014Y551260D01*
Y564260D01*
X1093720Y566489D01*
X1092860Y568567D01*
X1091491Y570351D01*
X1089707Y571720D01*
X1087629Y572580D01*
X1085400Y572874D01*
D02*
G37*
G36*
X1312697Y543730D02*
X1305520D01*
Y536553D01*
X1306479Y536680D01*
X1308557Y537540D01*
X1310341Y538909D01*
X1311710Y540693D01*
X1312570Y542771D01*
X1312697Y543730D01*
D02*
G37*
G36*
X1302980D02*
X1295804D01*
X1295930Y542771D01*
X1296790Y540693D01*
X1298159Y538909D01*
X1299943Y537540D01*
X1302021Y536680D01*
X1302980Y536553D01*
Y543730D01*
D02*
G37*
G36*
X1060000Y572874D02*
X1057771Y572580D01*
X1055693Y571720D01*
X1053909Y570351D01*
X1052540Y568567D01*
X1051680Y566489D01*
X1051386Y564260D01*
Y551260D01*
X1051680Y549031D01*
X1052540Y546953D01*
X1053909Y545169D01*
X1055693Y543800D01*
X1057771Y542940D01*
X1060000Y542646D01*
X1062229Y542940D01*
X1064307Y543800D01*
X1066091Y545169D01*
X1067460Y546953D01*
X1068320Y549031D01*
X1068614Y551260D01*
Y564260D01*
X1068320Y566489D01*
X1067460Y568567D01*
X1066091Y570351D01*
X1064307Y571720D01*
X1062229Y572580D01*
X1060000Y572874D01*
D02*
G37*
G36*
X1034600D02*
X1032371Y572580D01*
X1030293Y571720D01*
X1028509Y570351D01*
X1027140Y568567D01*
X1026280Y566489D01*
X1025986Y564260D01*
Y551260D01*
X1026280Y549031D01*
X1027140Y546953D01*
X1028509Y545169D01*
X1030293Y543800D01*
X1032371Y542940D01*
X1034600Y542646D01*
X1036829Y542940D01*
X1038907Y543800D01*
X1040691Y545169D01*
X1042060Y546953D01*
X1042920Y549031D01*
X1043214Y551260D01*
Y564260D01*
X1042920Y566489D01*
X1042060Y568567D01*
X1040691Y570351D01*
X1038907Y571720D01*
X1036829Y572580D01*
X1034600Y572874D01*
D02*
G37*
G36*
X818300Y1003864D02*
X816071Y1003570D01*
X813993Y1002710D01*
X812209Y1001341D01*
X810840Y999557D01*
X809980Y997479D01*
X809686Y995250D01*
X809980Y993021D01*
X810840Y990943D01*
X812209Y989159D01*
X813993Y987790D01*
X816071Y986930D01*
X818300Y986636D01*
X820529Y986930D01*
X822607Y987790D01*
X824391Y989159D01*
X825760Y990943D01*
X826620Y993021D01*
X826914Y995250D01*
X826620Y997479D01*
X825760Y999557D01*
X824391Y1001341D01*
X822607Y1002710D01*
X820529Y1003570D01*
X818300Y1003864D01*
D02*
G37*
G36*
X767500D02*
X765271Y1003570D01*
X763193Y1002710D01*
X761409Y1001341D01*
X760040Y999557D01*
X759180Y997479D01*
X758886Y995250D01*
X759180Y993021D01*
X760040Y990943D01*
X761409Y989159D01*
X763193Y987790D01*
X765271Y986930D01*
X767500Y986636D01*
X769729Y986930D01*
X771807Y987790D01*
X773591Y989159D01*
X774960Y990943D01*
X775820Y993021D01*
X776114Y995250D01*
X775820Y997479D01*
X774960Y999557D01*
X773591Y1001341D01*
X771807Y1002710D01*
X769729Y1003570D01*
X767500Y1003864D01*
D02*
G37*
G36*
X746330Y1011143D02*
X720935D01*
Y980670D01*
X746330D01*
Y1011143D01*
D02*
G37*
G36*
X1110800Y909424D02*
X1108571Y909130D01*
X1106493Y908270D01*
X1104709Y906901D01*
X1103340Y905117D01*
X1102480Y903039D01*
X1102186Y900810D01*
Y887810D01*
X1102480Y885581D01*
X1103340Y883503D01*
X1104709Y881719D01*
X1106493Y880350D01*
X1108571Y879490D01*
X1110800Y879196D01*
X1113029Y879490D01*
X1115107Y880350D01*
X1116891Y881719D01*
X1118260Y883503D01*
X1119120Y885581D01*
X1119414Y887810D01*
Y900810D01*
X1119120Y903039D01*
X1118260Y905117D01*
X1116891Y906901D01*
X1115107Y908270D01*
X1113029Y909130D01*
X1110800Y909424D01*
D02*
G37*
G36*
X1085400D02*
X1083171Y909130D01*
X1081093Y908270D01*
X1079309Y906901D01*
X1077940Y905117D01*
X1077080Y903039D01*
X1076786Y900810D01*
Y887810D01*
X1077080Y885581D01*
X1077940Y883503D01*
X1079309Y881719D01*
X1081093Y880350D01*
X1083171Y879490D01*
X1085400Y879196D01*
X1087629Y879490D01*
X1089707Y880350D01*
X1091491Y881719D01*
X1092860Y883503D01*
X1093720Y885581D01*
X1094014Y887810D01*
Y900810D01*
X1093720Y903039D01*
X1092860Y905117D01*
X1091491Y906901D01*
X1089707Y908270D01*
X1087629Y909130D01*
X1085400Y909424D01*
D02*
G37*
G36*
X1161600D02*
X1159371Y909130D01*
X1157293Y908270D01*
X1155509Y906901D01*
X1154140Y905117D01*
X1153280Y903039D01*
X1152986Y900810D01*
Y887810D01*
X1153280Y885581D01*
X1154140Y883503D01*
X1155509Y881719D01*
X1157293Y880350D01*
X1159371Y879490D01*
X1161600Y879196D01*
X1163829Y879490D01*
X1165907Y880350D01*
X1167691Y881719D01*
X1169060Y883503D01*
X1169920Y885581D01*
X1170214Y887810D01*
Y900810D01*
X1169920Y903039D01*
X1169060Y905117D01*
X1167691Y906901D01*
X1165907Y908270D01*
X1163829Y909130D01*
X1161600Y909424D01*
D02*
G37*
G36*
X1136200D02*
X1133971Y909130D01*
X1131893Y908270D01*
X1130109Y906901D01*
X1128740Y905117D01*
X1127880Y903039D01*
X1127586Y900810D01*
Y887810D01*
X1127880Y885581D01*
X1128740Y883503D01*
X1130109Y881719D01*
X1131893Y880350D01*
X1133971Y879490D01*
X1136200Y879196D01*
X1138429Y879490D01*
X1140507Y880350D01*
X1142291Y881719D01*
X1143660Y883503D01*
X1144520Y885581D01*
X1144814Y887810D01*
Y900810D01*
X1144520Y903039D01*
X1143660Y905117D01*
X1142291Y906901D01*
X1140507Y908270D01*
X1138429Y909130D01*
X1136200Y909424D01*
D02*
G37*
G36*
X1060000D02*
X1057771Y909130D01*
X1055693Y908270D01*
X1053909Y906901D01*
X1052540Y905117D01*
X1051680Y903039D01*
X1051386Y900810D01*
Y887810D01*
X1051680Y885581D01*
X1052540Y883503D01*
X1053909Y881719D01*
X1055693Y880350D01*
X1057771Y879490D01*
X1060000Y879196D01*
X1062229Y879490D01*
X1064307Y880350D01*
X1066091Y881719D01*
X1067460Y883503D01*
X1068320Y885581D01*
X1068614Y887810D01*
Y900810D01*
X1068320Y903039D01*
X1067460Y905117D01*
X1066091Y906901D01*
X1064307Y908270D01*
X1062229Y909130D01*
X1060000Y909424D01*
D02*
G37*
G36*
X806000D02*
X803771Y909130D01*
X801693Y908270D01*
X799909Y906901D01*
X798540Y905117D01*
X797680Y903039D01*
X797386Y900810D01*
Y887810D01*
X797680Y885581D01*
X798540Y883503D01*
X799909Y881719D01*
X801693Y880350D01*
X803771Y879490D01*
X806000Y879196D01*
X808229Y879490D01*
X810307Y880350D01*
X812091Y881719D01*
X813460Y883503D01*
X814320Y885581D01*
X814614Y887810D01*
Y900810D01*
X814320Y903039D01*
X813460Y905117D01*
X812091Y906901D01*
X810307Y908270D01*
X808229Y909130D01*
X806000Y909424D01*
D02*
G37*
G36*
X780600D02*
X778371Y909130D01*
X776293Y908270D01*
X774509Y906901D01*
X773140Y905117D01*
X772280Y903039D01*
X771986Y900810D01*
Y887810D01*
X772280Y885581D01*
X773140Y883503D01*
X774509Y881719D01*
X776293Y880350D01*
X778371Y879490D01*
X780600Y879196D01*
X782829Y879490D01*
X784907Y880350D01*
X786691Y881719D01*
X788060Y883503D01*
X788920Y885581D01*
X789214Y887810D01*
Y900810D01*
X788920Y903039D01*
X788060Y905117D01*
X786691Y906901D01*
X784907Y908270D01*
X782829Y909130D01*
X780600Y909424D01*
D02*
G37*
G36*
X856800D02*
X854571Y909130D01*
X852493Y908270D01*
X850709Y906901D01*
X849340Y905117D01*
X848480Y903039D01*
X848186Y900810D01*
Y887810D01*
X848480Y885581D01*
X849340Y883503D01*
X850709Y881719D01*
X852493Y880350D01*
X854571Y879490D01*
X856800Y879196D01*
X859029Y879490D01*
X861107Y880350D01*
X862891Y881719D01*
X864260Y883503D01*
X865120Y885581D01*
X865414Y887810D01*
Y900810D01*
X865120Y903039D01*
X864260Y905117D01*
X862891Y906901D01*
X861107Y908270D01*
X859029Y909130D01*
X856800Y909424D01*
D02*
G37*
G36*
X831400D02*
X829171Y909130D01*
X827093Y908270D01*
X825309Y906901D01*
X823940Y905117D01*
X823080Y903039D01*
X822786Y900810D01*
Y887810D01*
X823080Y885581D01*
X823940Y883503D01*
X825309Y881719D01*
X827093Y880350D01*
X829171Y879490D01*
X831400Y879196D01*
X833629Y879490D01*
X835707Y880350D01*
X837491Y881719D01*
X838860Y883503D01*
X839720Y885581D01*
X840014Y887810D01*
Y900810D01*
X839720Y903039D01*
X838860Y905117D01*
X837491Y906901D01*
X835707Y908270D01*
X833629Y909130D01*
X831400Y909424D01*
D02*
G37*
G36*
X1313500Y775214D02*
X1300500D01*
X1298271Y774920D01*
X1296193Y774060D01*
X1294409Y772691D01*
X1293040Y770907D01*
X1292180Y768829D01*
X1291886Y766600D01*
X1292180Y764371D01*
X1293040Y762293D01*
X1294409Y760509D01*
X1296193Y759140D01*
X1298271Y758280D01*
X1300500Y757986D01*
X1313500D01*
X1315729Y758280D01*
X1317807Y759140D01*
X1319591Y760509D01*
X1320960Y762293D01*
X1321820Y764371D01*
X1322114Y766600D01*
X1321820Y768829D01*
X1320960Y770907D01*
X1319591Y772691D01*
X1317807Y774060D01*
X1315729Y774920D01*
X1313500Y775214D01*
D02*
G37*
G36*
Y749814D02*
X1300500D01*
X1298271Y749520D01*
X1296193Y748660D01*
X1294409Y747291D01*
X1293040Y745507D01*
X1292180Y743429D01*
X1291886Y741200D01*
X1292180Y738971D01*
X1293040Y736893D01*
X1294409Y735109D01*
X1296193Y733740D01*
X1298271Y732880D01*
X1300500Y732586D01*
X1313500D01*
X1315729Y732880D01*
X1317807Y733740D01*
X1319591Y735109D01*
X1320960Y736893D01*
X1321820Y738971D01*
X1322114Y741200D01*
X1321820Y743429D01*
X1320960Y745507D01*
X1319591Y747291D01*
X1317807Y748660D01*
X1315729Y749520D01*
X1313500Y749814D01*
D02*
G37*
G36*
Y826014D02*
X1300500D01*
X1298271Y825720D01*
X1296193Y824860D01*
X1294409Y823491D01*
X1293040Y821707D01*
X1292180Y819629D01*
X1291886Y817400D01*
X1292180Y815171D01*
X1293040Y813093D01*
X1294409Y811309D01*
X1296193Y809940D01*
X1298271Y809080D01*
X1300500Y808786D01*
X1313500D01*
X1315729Y809080D01*
X1317807Y809940D01*
X1319591Y811309D01*
X1320960Y813093D01*
X1321820Y815171D01*
X1322114Y817400D01*
X1321820Y819629D01*
X1320960Y821707D01*
X1319591Y823491D01*
X1317807Y824860D01*
X1315729Y825720D01*
X1313500Y826014D01*
D02*
G37*
G36*
X737080Y824143D02*
X711685D01*
Y793670D01*
X737080D01*
Y824143D01*
D02*
G37*
G36*
X1313500Y800614D02*
X1300500D01*
X1298271Y800320D01*
X1296193Y799460D01*
X1294409Y798091D01*
X1293040Y796307D01*
X1292180Y794229D01*
X1291886Y792000D01*
X1292180Y789771D01*
X1293040Y787693D01*
X1294409Y785909D01*
X1296193Y784540D01*
X1298271Y783680D01*
X1300500Y783386D01*
X1313500D01*
X1315729Y783680D01*
X1317807Y784540D01*
X1319591Y785909D01*
X1320960Y787693D01*
X1321820Y789771D01*
X1322114Y792000D01*
X1321820Y794229D01*
X1320960Y796307D01*
X1319591Y798091D01*
X1317807Y799460D01*
X1315729Y800320D01*
X1313500Y800614D01*
D02*
G37*
G36*
X1187000Y909424D02*
X1184771Y909130D01*
X1182693Y908270D01*
X1180909Y906901D01*
X1179540Y905117D01*
X1178680Y903039D01*
X1178386Y900810D01*
Y887810D01*
X1178680Y885581D01*
X1179540Y883503D01*
X1180909Y881719D01*
X1182693Y880350D01*
X1184771Y879490D01*
X1187000Y879196D01*
X1189229Y879490D01*
X1191307Y880350D01*
X1193091Y881719D01*
X1194460Y883503D01*
X1195320Y885581D01*
X1195614Y887810D01*
Y900810D01*
X1195320Y903039D01*
X1194460Y905117D01*
X1193091Y906901D01*
X1191307Y908270D01*
X1189229Y909130D01*
X1187000Y909424D01*
D02*
G37*
G36*
X756470Y909257D02*
Y895580D01*
X763814D01*
Y900810D01*
X763520Y903039D01*
X762660Y905117D01*
X761291Y906901D01*
X759507Y908270D01*
X757429Y909130D01*
X756470Y909257D01*
D02*
G37*
G36*
X753930D02*
X752971Y909130D01*
X750893Y908270D01*
X749109Y906901D01*
X747740Y905117D01*
X746880Y903039D01*
X746586Y900810D01*
Y895580D01*
X753930D01*
Y909257D01*
D02*
G37*
G36*
X1246340Y909350D02*
X1229260D01*
Y879270D01*
X1246340D01*
Y909350D01*
D02*
G37*
G36*
X1212400Y909424D02*
X1210171Y909130D01*
X1208093Y908270D01*
X1206309Y906901D01*
X1204940Y905117D01*
X1204080Y903039D01*
X1203786Y900810D01*
Y887810D01*
X1204080Y885581D01*
X1204940Y883503D01*
X1206309Y881719D01*
X1208093Y880350D01*
X1210171Y879490D01*
X1212400Y879196D01*
X1214629Y879490D01*
X1216707Y880350D01*
X1218491Y881719D01*
X1219860Y883503D01*
X1220720Y885581D01*
X1221014Y887810D01*
Y900810D01*
X1220720Y903039D01*
X1219860Y905117D01*
X1218491Y906901D01*
X1216707Y908270D01*
X1214629Y909130D01*
X1212400Y909424D01*
D02*
G37*
G36*
X763814Y893040D02*
X756470D01*
Y879363D01*
X757429Y879490D01*
X759507Y880350D01*
X761291Y881719D01*
X762660Y883503D01*
X763520Y885581D01*
X763814Y887810D01*
Y893040D01*
D02*
G37*
G36*
X753930D02*
X746586D01*
Y887810D01*
X746880Y885581D01*
X747740Y883503D01*
X749109Y881719D01*
X750893Y880350D01*
X752971Y879490D01*
X753930Y879363D01*
Y893040D01*
D02*
G37*
G36*
X725546Y937980D02*
X718370D01*
Y930804D01*
X719329Y930930D01*
X721407Y931790D01*
X723191Y933159D01*
X724560Y934943D01*
X725420Y937021D01*
X725546Y937980D01*
D02*
G37*
G36*
X739572Y972815D02*
X704020D01*
Y947420D01*
X711633D01*
X712064Y946150D01*
X711009Y945341D01*
X709640Y943557D01*
X708780Y941479D01*
X708653Y940520D01*
X717100D01*
X725546D01*
X725420Y941479D01*
X724560Y943557D01*
X723191Y945341D01*
X722136Y946150D01*
X722567Y947420D01*
X739572D01*
Y972815D01*
D02*
G37*
G36*
X879196Y937980D02*
X872020D01*
Y930804D01*
X872979Y930930D01*
X875057Y931790D01*
X876841Y933159D01*
X878210Y934943D01*
X879070Y937021D01*
X879196Y937980D01*
D02*
G37*
G36*
X807250Y947864D02*
X805021Y947570D01*
X802943Y946710D01*
X801159Y945341D01*
X799790Y943557D01*
X798930Y941479D01*
X798636Y939250D01*
X798930Y937021D01*
X799790Y934943D01*
X801159Y933159D01*
X802943Y931790D01*
X805021Y930930D01*
X807250Y930636D01*
X809479Y930930D01*
X811557Y931790D01*
X813341Y933159D01*
X814710Y934943D01*
X815570Y937021D01*
X815864Y939250D01*
X815570Y941479D01*
X814710Y943557D01*
X813341Y945341D01*
X811557Y946710D01*
X809479Y947570D01*
X807250Y947864D01*
D02*
G37*
G36*
X780600D02*
X778371Y947570D01*
X776293Y946710D01*
X774509Y945341D01*
X773140Y943557D01*
X772280Y941479D01*
X771986Y939250D01*
X772280Y937021D01*
X773140Y934943D01*
X774509Y933159D01*
X776293Y931790D01*
X778371Y930930D01*
X780600Y930636D01*
X782829Y930930D01*
X784907Y931790D01*
X786691Y933159D01*
X788060Y934943D01*
X788920Y937021D01*
X789214Y939250D01*
X788920Y941479D01*
X788060Y943557D01*
X786691Y945341D01*
X784907Y946710D01*
X782829Y947570D01*
X780600Y947864D01*
D02*
G37*
G36*
X869480Y937980D02*
X862303D01*
X862430Y937021D01*
X863290Y934943D01*
X864659Y933159D01*
X866443Y931790D01*
X868521Y930930D01*
X869480Y930804D01*
Y937980D01*
D02*
G37*
G36*
X715830Y937980D02*
X708653D01*
X708780Y937021D01*
X709640Y934943D01*
X711009Y933159D01*
X712793Y931790D01*
X714871Y930930D01*
X715830Y930804D01*
Y937980D01*
D02*
G37*
G36*
X505065Y687330D02*
X479670D01*
Y651778D01*
X505065D01*
Y687330D01*
D02*
G37*
G36*
X537750Y604114D02*
X524750D01*
X522521Y603820D01*
X520443Y602960D01*
X518659Y601591D01*
X517290Y599807D01*
X516430Y597729D01*
X516136Y595500D01*
X516430Y593271D01*
X517290Y591193D01*
X518659Y589409D01*
X520443Y588040D01*
X522521Y587180D01*
X524750Y586886D01*
X537750D01*
X539979Y587180D01*
X542057Y588040D01*
X543841Y589409D01*
X545210Y591193D01*
X546070Y593271D01*
X546364Y595500D01*
X546070Y597729D01*
X545210Y599807D01*
X543841Y601591D01*
X542057Y602960D01*
X539979Y603820D01*
X537750Y604114D01*
D02*
G37*
G36*
X569222Y511565D02*
X533670D01*
Y486170D01*
X569222D01*
Y511565D01*
D02*
G37*
G36*
X586315Y773580D02*
X560920D01*
Y725332D01*
X586315D01*
Y773580D01*
D02*
G37*
G36*
X464500Y1016564D02*
X451500D01*
X449271Y1016270D01*
X447193Y1015410D01*
X445409Y1014041D01*
X444040Y1012257D01*
X443180Y1010179D01*
X442886Y1007950D01*
X443180Y1005721D01*
X444040Y1003643D01*
X445409Y1001859D01*
X447193Y1000490D01*
X449271Y999630D01*
X451500Y999336D01*
X464500D01*
X466729Y999630D01*
X468807Y1000490D01*
X470591Y1001859D01*
X471960Y1003643D01*
X472820Y1005721D01*
X473114Y1007950D01*
X472820Y1010179D01*
X471960Y1012257D01*
X470591Y1014041D01*
X468807Y1015410D01*
X466729Y1016270D01*
X464500Y1016564D01*
D02*
G37*
G36*
X540700D02*
X527700D01*
X525471Y1016270D01*
X523393Y1015410D01*
X521609Y1014041D01*
X520240Y1012257D01*
X519380Y1010179D01*
X519086Y1007950D01*
X519380Y1005721D01*
X520240Y1003643D01*
X521609Y1001859D01*
X523393Y1000490D01*
X525471Y999630D01*
X527700Y999336D01*
X540700D01*
X542929Y999630D01*
X545007Y1000490D01*
X546791Y1001859D01*
X548160Y1003643D01*
X549020Y1005721D01*
X549314Y1007950D01*
X549020Y1010179D01*
X548160Y1012257D01*
X546791Y1014041D01*
X545007Y1015410D01*
X542929Y1016270D01*
X540700Y1016564D01*
D02*
G37*
G36*
Y1067364D02*
X527700D01*
X525471Y1067070D01*
X523393Y1066210D01*
X521609Y1064841D01*
X520240Y1063057D01*
X519380Y1060979D01*
X519086Y1058750D01*
X519380Y1056521D01*
X520240Y1054443D01*
X521609Y1052659D01*
X523393Y1051290D01*
X525471Y1050430D01*
X527700Y1050136D01*
X540700D01*
X542929Y1050430D01*
X545007Y1051290D01*
X546791Y1052659D01*
X548160Y1054443D01*
X549020Y1056521D01*
X549314Y1058750D01*
X549020Y1060979D01*
X548160Y1063057D01*
X546791Y1064841D01*
X545007Y1066210D01*
X542929Y1067070D01*
X540700Y1067364D01*
D02*
G37*
G36*
X559580Y1224668D02*
X534185D01*
Y1176420D01*
X559580D01*
Y1224668D01*
D02*
G37*
G36*
X401860Y1103509D02*
X398587Y1103078D01*
X395536Y1101814D01*
X392917Y1099804D01*
X390907Y1097185D01*
X389643Y1094134D01*
X389212Y1090860D01*
X389643Y1087587D01*
X390907Y1084536D01*
X392917Y1081917D01*
X395536Y1079907D01*
X398587Y1078643D01*
X401860Y1078212D01*
X405134Y1078643D01*
X408185Y1079907D01*
X410804Y1081917D01*
X412814Y1084536D01*
X414078Y1087587D01*
X414509Y1090860D01*
X414078Y1094134D01*
X412814Y1097185D01*
X410804Y1099804D01*
X408185Y1101814D01*
X405134Y1103078D01*
X401860Y1103509D01*
D02*
G37*
G36*
X473040Y1067290D02*
X442960D01*
Y1050210D01*
X473040D01*
Y1067290D01*
D02*
G37*
G36*
X613750Y1197131D02*
X608186Y1196767D01*
X602716Y1195679D01*
X597436Y1193886D01*
X592434Y1191420D01*
X587798Y1188322D01*
X583605Y1184645D01*
X579928Y1180452D01*
X576830Y1175816D01*
X574364Y1170814D01*
X572571Y1165534D01*
X571483Y1160064D01*
X571119Y1154500D01*
X571483Y1148935D01*
X572571Y1143466D01*
X574364Y1138186D01*
X576830Y1133184D01*
X579928Y1128548D01*
X583605Y1124355D01*
X587798Y1120678D01*
X592434Y1117580D01*
X597436Y1115114D01*
X602716Y1113321D01*
X608186Y1112233D01*
X613750Y1111869D01*
X619314Y1112233D01*
X624784Y1113321D01*
X630064Y1115114D01*
X635066Y1117580D01*
X639702Y1120678D01*
X643895Y1124355D01*
X647572Y1128548D01*
X650670Y1133184D01*
X653136Y1138186D01*
X654929Y1143466D01*
X656017Y1148935D01*
X656381Y1154500D01*
X656017Y1160064D01*
X654929Y1165534D01*
X653136Y1170814D01*
X650670Y1175816D01*
X647572Y1180452D01*
X643895Y1184645D01*
X639702Y1188322D01*
X635066Y1191420D01*
X630064Y1193886D01*
X624784Y1195679D01*
X619314Y1196767D01*
X613750Y1197131D01*
D02*
G37*
G36*
X465500D02*
X459935Y1196767D01*
X454466Y1195679D01*
X449186Y1193886D01*
X444184Y1191420D01*
X439548Y1188322D01*
X435355Y1184645D01*
X431678Y1180452D01*
X428580Y1175816D01*
X426114Y1170814D01*
X424321Y1165534D01*
X423233Y1160064D01*
X422869Y1154500D01*
X423233Y1148935D01*
X424321Y1143466D01*
X426114Y1138186D01*
X428580Y1133184D01*
X431678Y1128548D01*
X435355Y1124355D01*
X439548Y1120678D01*
X444184Y1117580D01*
X449186Y1115114D01*
X454466Y1113321D01*
X459935Y1112233D01*
X465500Y1111869D01*
X471064Y1112233D01*
X476534Y1113321D01*
X481814Y1115114D01*
X486816Y1117580D01*
X491452Y1120678D01*
X495645Y1124355D01*
X499322Y1128548D01*
X502420Y1133184D01*
X504886Y1138186D01*
X506679Y1143466D01*
X507767Y1148935D01*
X508131Y1154500D01*
X507767Y1160064D01*
X506679Y1165534D01*
X504886Y1170814D01*
X502420Y1175816D01*
X499322Y1180452D01*
X495645Y1184645D01*
X491452Y1188322D01*
X486816Y1191420D01*
X481814Y1193886D01*
X476534Y1195679D01*
X471064Y1196767D01*
X465500Y1197131D01*
D02*
G37*
G36*
X540700Y864164D02*
X527700D01*
X525471Y863870D01*
X523393Y863010D01*
X521609Y861641D01*
X520240Y859857D01*
X519380Y857779D01*
X519086Y855550D01*
X519380Y853321D01*
X520240Y851243D01*
X521609Y849459D01*
X523393Y848090D01*
X525471Y847230D01*
X527700Y846936D01*
X540700D01*
X542929Y847230D01*
X545007Y848090D01*
X546791Y849459D01*
X548160Y851243D01*
X549020Y853321D01*
X549314Y855550D01*
X549020Y857779D01*
X548160Y859857D01*
X546791Y861641D01*
X545007Y863010D01*
X542929Y863870D01*
X540700Y864164D01*
D02*
G37*
G36*
X464500D02*
X451500D01*
X449271Y863870D01*
X447193Y863010D01*
X445409Y861641D01*
X444040Y859857D01*
X443180Y857779D01*
X442886Y855550D01*
X443180Y853321D01*
X444040Y851243D01*
X445409Y849459D01*
X447193Y848090D01*
X449271Y847230D01*
X451500Y846936D01*
X464500D01*
X466729Y847230D01*
X468807Y848090D01*
X470591Y849459D01*
X471960Y851243D01*
X472820Y853321D01*
X473114Y855550D01*
X472820Y857779D01*
X471960Y859857D01*
X470591Y861641D01*
X468807Y863010D01*
X466729Y863870D01*
X464500Y864164D01*
D02*
G37*
G36*
X486500Y758864D02*
X484271Y758570D01*
X482193Y757710D01*
X480409Y756341D01*
X479040Y754557D01*
X478180Y752479D01*
X477886Y750250D01*
X478180Y748021D01*
X479040Y745943D01*
X480409Y744159D01*
X482193Y742790D01*
X484271Y741930D01*
X486500Y741636D01*
X488729Y741930D01*
X490807Y742790D01*
X492591Y744159D01*
X493960Y745943D01*
X494820Y748021D01*
X495114Y750250D01*
X494820Y752479D01*
X493960Y754557D01*
X492591Y756341D01*
X490807Y757710D01*
X488729Y758570D01*
X486500Y758864D01*
D02*
G37*
G36*
X496750Y809114D02*
X494521Y808820D01*
X492443Y807960D01*
X490659Y806591D01*
X489290Y804807D01*
X488430Y802729D01*
X488136Y800500D01*
Y787500D01*
X488430Y785271D01*
X489290Y783193D01*
X490659Y781409D01*
X492443Y780040D01*
X494521Y779180D01*
X496750Y778886D01*
X498979Y779180D01*
X501057Y780040D01*
X502841Y781409D01*
X504210Y783193D01*
X505070Y785271D01*
X505364Y787500D01*
Y800500D01*
X505070Y802729D01*
X504210Y804807D01*
X502841Y806591D01*
X501057Y807960D01*
X498979Y808820D01*
X496750Y809114D01*
D02*
G37*
G36*
X572250Y837114D02*
X570021Y836820D01*
X567943Y835960D01*
X566159Y834591D01*
X564790Y832807D01*
X563930Y830729D01*
X563636Y828500D01*
X563930Y826271D01*
X564790Y824193D01*
X566159Y822409D01*
X567943Y821040D01*
X570021Y820180D01*
X572250Y819886D01*
X574479Y820180D01*
X576557Y821040D01*
X578341Y822409D01*
X579710Y824193D01*
X580570Y826271D01*
X580864Y828500D01*
X580570Y830729D01*
X579710Y832807D01*
X578341Y834591D01*
X576557Y835960D01*
X574479Y836820D01*
X572250Y837114D01*
D02*
G37*
G36*
X530690Y809040D02*
X513610D01*
Y778960D01*
X530690D01*
Y809040D01*
D02*
G37*
G36*
X540700Y965764D02*
X527700D01*
X525471Y965470D01*
X523393Y964610D01*
X521609Y963241D01*
X520240Y961457D01*
X519380Y959379D01*
X519086Y957150D01*
X519380Y954921D01*
X520240Y952843D01*
X521609Y951059D01*
X523393Y949690D01*
X525471Y948830D01*
X527700Y948536D01*
X540700D01*
X542929Y948830D01*
X545007Y949690D01*
X546791Y951059D01*
X548160Y952843D01*
X549020Y954921D01*
X549314Y957150D01*
X549020Y959379D01*
X548160Y961457D01*
X546791Y963241D01*
X545007Y964610D01*
X542929Y965470D01*
X540700Y965764D01*
D02*
G37*
G36*
X464500D02*
X451500D01*
X449271Y965470D01*
X447193Y964610D01*
X445409Y963241D01*
X444040Y961457D01*
X443180Y959379D01*
X442886Y957150D01*
X443180Y954921D01*
X444040Y952843D01*
X445409Y951059D01*
X447193Y949690D01*
X449271Y948830D01*
X451500Y948536D01*
X464500D01*
X466729Y948830D01*
X468807Y949690D01*
X470591Y951059D01*
X471960Y952843D01*
X472820Y954921D01*
X473114Y957150D01*
X472820Y959379D01*
X471960Y961457D01*
X470591Y963241D01*
X468807Y964610D01*
X466729Y965470D01*
X464500Y965764D01*
D02*
G37*
G36*
X439065Y996830D02*
X413670D01*
Y938426D01*
X439065D01*
Y996830D01*
D02*
G37*
G36*
X434750Y606248D02*
X432098Y605899D01*
X429626Y604875D01*
X427504Y603246D01*
X425875Y601124D01*
X424851Y598652D01*
X424502Y596000D01*
X424851Y593348D01*
X425875Y590876D01*
X427504Y588754D01*
X429626Y587125D01*
X432098Y586101D01*
X434750Y585752D01*
X437402Y586101D01*
X439874Y587125D01*
X441996Y588754D01*
X443625Y590876D01*
X444649Y593348D01*
X444998Y596000D01*
X444649Y598652D01*
X443625Y601124D01*
X441996Y603246D01*
X439874Y604875D01*
X437402Y605899D01*
X434750Y606248D01*
D02*
G37*
G36*
Y631648D02*
X432098Y631298D01*
X429626Y630275D01*
X427504Y628646D01*
X425875Y626524D01*
X424851Y624052D01*
X424502Y621400D01*
X424851Y618748D01*
X425875Y616276D01*
X427504Y614154D01*
X429626Y612525D01*
X432098Y611502D01*
X434750Y611152D01*
X437402Y611502D01*
X439874Y612525D01*
X441996Y614154D01*
X443625Y616276D01*
X444649Y618748D01*
X444998Y621400D01*
X444649Y624052D01*
X443625Y626524D01*
X441996Y628646D01*
X439874Y630275D01*
X437402Y631298D01*
X434750Y631648D01*
D02*
G37*
G36*
X1398240Y648140D02*
X1368160D01*
Y631060D01*
X1398240D01*
Y648140D01*
D02*
G37*
G36*
X762000Y585914D02*
X749000D01*
X746771Y585620D01*
X744693Y584760D01*
X742909Y583391D01*
X741540Y581607D01*
X740680Y579529D01*
X740386Y577300D01*
X740680Y575071D01*
X741540Y572993D01*
X742909Y571209D01*
X744693Y569840D01*
X746771Y568980D01*
X749000Y568686D01*
X762000D01*
X764229Y568980D01*
X766307Y569840D01*
X768091Y571209D01*
X769460Y572993D01*
X770320Y575071D01*
X770614Y577300D01*
X770320Y579529D01*
X769460Y581607D01*
X768091Y583391D01*
X766307Y584760D01*
X764229Y585620D01*
X762000Y585914D01*
D02*
G37*
G36*
X1435550Y576248D02*
X1432898Y575899D01*
X1430426Y574875D01*
X1428304Y573246D01*
X1426675Y571124D01*
X1425652Y568652D01*
X1425302Y566000D01*
X1425652Y563348D01*
X1426675Y560876D01*
X1428304Y558754D01*
X1430426Y557125D01*
X1432898Y556101D01*
X1435550Y555752D01*
X1438202Y556101D01*
X1440674Y557125D01*
X1442796Y558754D01*
X1444425Y560876D01*
X1445448Y563348D01*
X1445798Y566000D01*
X1445448Y568652D01*
X1444425Y571124D01*
X1442796Y573246D01*
X1440674Y574875D01*
X1438202Y575899D01*
X1435550Y576248D01*
D02*
G37*
G36*
X838200Y585914D02*
X825200D01*
X822971Y585620D01*
X820893Y584760D01*
X819109Y583391D01*
X817740Y581607D01*
X816880Y579529D01*
X816586Y577300D01*
X816880Y575071D01*
X817740Y572993D01*
X819109Y571209D01*
X820893Y569840D01*
X822971Y568980D01*
X825200Y568686D01*
X838200D01*
X840429Y568980D01*
X842507Y569840D01*
X844291Y571209D01*
X845660Y572993D01*
X846520Y575071D01*
X846814Y577300D01*
X846520Y579529D01*
X845660Y581607D01*
X844291Y583391D01*
X842507Y584760D01*
X840429Y585620D01*
X838200Y585914D01*
D02*
G37*
G36*
X1420080Y583472D02*
X1394685D01*
Y547920D01*
X1420080D01*
Y583472D01*
D02*
G37*
G36*
X838200Y560514D02*
X825200D01*
X822971Y560220D01*
X820893Y559360D01*
X819109Y557991D01*
X817740Y556207D01*
X816880Y554129D01*
X816586Y551900D01*
X816880Y549671D01*
X817740Y547593D01*
X819109Y545809D01*
X820893Y544440D01*
X822971Y543580D01*
X825200Y543286D01*
X838200D01*
X840429Y543580D01*
X842507Y544440D01*
X844291Y545809D01*
X845660Y547593D01*
X846520Y549671D01*
X846814Y551900D01*
X846520Y554129D01*
X845660Y556207D01*
X844291Y557991D01*
X842507Y559360D01*
X840429Y560220D01*
X838200Y560514D01*
D02*
G37*
G36*
X762000D02*
X749000D01*
X746771Y560220D01*
X744693Y559360D01*
X742909Y557991D01*
X741540Y556207D01*
X740680Y554129D01*
X740386Y551900D01*
X740680Y549671D01*
X741540Y547593D01*
X742909Y545809D01*
X744693Y544440D01*
X746771Y543580D01*
X749000Y543286D01*
X762000D01*
X764229Y543580D01*
X766307Y544440D01*
X768091Y545809D01*
X769460Y547593D01*
X770320Y549671D01*
X770614Y551900D01*
X770320Y554129D01*
X769460Y556207D01*
X768091Y557991D01*
X766307Y559360D01*
X764229Y560220D01*
X762000Y560514D01*
D02*
G37*
G36*
X770540Y611240D02*
X740460D01*
Y594160D01*
X770540D01*
Y611240D01*
D02*
G37*
G36*
X1389700Y724414D02*
X1376700D01*
X1374471Y724120D01*
X1372393Y723260D01*
X1370609Y721891D01*
X1369240Y720107D01*
X1368380Y718029D01*
X1368086Y715800D01*
X1368380Y713571D01*
X1369240Y711493D01*
X1370609Y709709D01*
X1372393Y708340D01*
X1374471Y707480D01*
X1376700Y707186D01*
X1389700D01*
X1391929Y707480D01*
X1394007Y708340D01*
X1395791Y709709D01*
X1397160Y711493D01*
X1398020Y713571D01*
X1398314Y715800D01*
X1398020Y718029D01*
X1397160Y720107D01*
X1395791Y721891D01*
X1394007Y723260D01*
X1391929Y724120D01*
X1389700Y724414D01*
D02*
G37*
G36*
Y699014D02*
X1376700D01*
X1374471Y698720D01*
X1372393Y697860D01*
X1370609Y696491D01*
X1369240Y694707D01*
X1368380Y692629D01*
X1368086Y690400D01*
X1368380Y688171D01*
X1369240Y686093D01*
X1370609Y684309D01*
X1372393Y682940D01*
X1374471Y682080D01*
X1376700Y681786D01*
X1389700D01*
X1391929Y682080D01*
X1394007Y682940D01*
X1395791Y684309D01*
X1397160Y686093D01*
X1398020Y688171D01*
X1398314Y690400D01*
X1398020Y692629D01*
X1397160Y694707D01*
X1395791Y696491D01*
X1394007Y697860D01*
X1391929Y698720D01*
X1389700Y699014D01*
D02*
G37*
G36*
X1469315Y696580D02*
X1443920D01*
Y661028D01*
X1469315D01*
Y696580D01*
D02*
G37*
G36*
X1389700Y673614D02*
X1376700D01*
X1374471Y673320D01*
X1372393Y672460D01*
X1370609Y671091D01*
X1369240Y669307D01*
X1368380Y667229D01*
X1368086Y665000D01*
X1368380Y662771D01*
X1369240Y660693D01*
X1370609Y658909D01*
X1372393Y657540D01*
X1374471Y656680D01*
X1376700Y656386D01*
X1389700D01*
X1391929Y656680D01*
X1394007Y657540D01*
X1395791Y658909D01*
X1397160Y660693D01*
X1398020Y662771D01*
X1398314Y665000D01*
X1398020Y667229D01*
X1397160Y669307D01*
X1395791Y671091D01*
X1394007Y672460D01*
X1391929Y673320D01*
X1389700Y673614D01*
D02*
G37*
G36*
X1562750Y681114D02*
X1560521Y680820D01*
X1558443Y679960D01*
X1556659Y678591D01*
X1555290Y676807D01*
X1554430Y674729D01*
X1554136Y672500D01*
X1554430Y670271D01*
X1555290Y668193D01*
X1556659Y666409D01*
X1558443Y665040D01*
X1560521Y664180D01*
X1562750Y663886D01*
X1564979Y664180D01*
X1567057Y665040D01*
X1568841Y666409D01*
X1570210Y668193D01*
X1571070Y670271D01*
X1571364Y672500D01*
X1571070Y674729D01*
X1570210Y676807D01*
X1568841Y678591D01*
X1567057Y679960D01*
X1564979Y680820D01*
X1562750Y681114D01*
D02*
G37*
G36*
X1526315Y698080D02*
X1500920D01*
Y662528D01*
X1526315D01*
Y698080D01*
D02*
G37*
G36*
X838200Y408114D02*
X825200D01*
X822971Y407820D01*
X820893Y406960D01*
X819109Y405591D01*
X817740Y403807D01*
X816880Y401729D01*
X816586Y399500D01*
X816880Y397271D01*
X817740Y395193D01*
X819109Y393409D01*
X820893Y392040D01*
X822971Y391180D01*
X825200Y390886D01*
X838200D01*
X840429Y391180D01*
X842507Y392040D01*
X844291Y393409D01*
X845660Y395193D01*
X846520Y397271D01*
X846814Y399500D01*
X846520Y401729D01*
X845660Y403807D01*
X844291Y405591D01*
X842507Y406960D01*
X840429Y407820D01*
X838200Y408114D01*
D02*
G37*
G36*
X762000D02*
X749000D01*
X746771Y407820D01*
X744693Y406960D01*
X742909Y405591D01*
X741540Y403807D01*
X740680Y401729D01*
X740386Y399500D01*
X740680Y397271D01*
X741540Y395193D01*
X742909Y393409D01*
X744693Y392040D01*
X746771Y391180D01*
X749000Y390886D01*
X762000D01*
X764229Y391180D01*
X766307Y392040D01*
X768091Y393409D01*
X769460Y395193D01*
X770320Y397271D01*
X770614Y399500D01*
X770320Y401729D01*
X769460Y403807D01*
X768091Y405591D01*
X766307Y406960D01*
X764229Y407820D01*
X762000Y408114D01*
D02*
G37*
G36*
X1084130Y411417D02*
X1083171Y411290D01*
X1081093Y410430D01*
X1079309Y409061D01*
X1077940Y407277D01*
X1077080Y405199D01*
X1076786Y402970D01*
Y397740D01*
X1084130D01*
Y411417D01*
D02*
G37*
G36*
X1058730D02*
X1057771Y411290D01*
X1055693Y410430D01*
X1053909Y409061D01*
X1052540Y407277D01*
X1051680Y405199D01*
X1051386Y402970D01*
Y397740D01*
X1058730D01*
Y411417D01*
D02*
G37*
G36*
X734722Y413065D02*
X699170D01*
Y387670D01*
X734722D01*
Y413065D01*
D02*
G37*
G36*
X1084130Y395200D02*
X1076786D01*
Y389970D01*
X1077080Y387741D01*
X1077940Y385663D01*
X1079309Y383879D01*
X1081093Y382510D01*
X1083171Y381650D01*
X1084130Y381524D01*
Y395200D01*
D02*
G37*
G36*
X1058730D02*
X1051386D01*
Y389970D01*
X1051680Y387741D01*
X1052540Y385663D01*
X1053909Y383879D01*
X1055693Y382510D01*
X1057771Y381650D01*
X1058730Y381524D01*
Y395200D01*
D02*
G37*
G36*
X1068614D02*
X1061270D01*
Y381524D01*
X1062229Y381650D01*
X1064307Y382510D01*
X1066091Y383879D01*
X1067460Y385663D01*
X1068320Y387741D01*
X1068614Y389970D01*
Y395200D01*
D02*
G37*
G36*
X1094014D02*
X1086670D01*
Y381524D01*
X1087629Y381650D01*
X1089707Y382510D01*
X1091491Y383879D01*
X1092860Y385663D01*
X1093720Y387741D01*
X1094014Y389970D01*
Y395200D01*
D02*
G37*
G36*
X1061270Y411417D02*
Y397740D01*
X1068614D01*
Y402970D01*
X1068320Y405199D01*
X1067460Y407277D01*
X1066091Y409061D01*
X1064307Y410430D01*
X1062229Y411290D01*
X1061270Y411417D01*
D02*
G37*
G36*
X1502186Y464220D02*
X1495010D01*
Y457043D01*
X1495969Y457170D01*
X1498047Y458030D01*
X1499831Y459399D01*
X1501200Y461183D01*
X1502060Y463261D01*
X1502186Y464220D01*
D02*
G37*
G36*
X1492470D02*
X1485293D01*
X1485420Y463261D01*
X1486280Y461183D01*
X1487649Y459399D01*
X1489433Y458030D01*
X1491511Y457170D01*
X1492470Y457043D01*
Y464220D01*
D02*
G37*
G36*
X983800Y487784D02*
X981571Y487490D01*
X979493Y486630D01*
X977709Y485261D01*
X976340Y483477D01*
X975480Y481399D01*
X975186Y479170D01*
Y466170D01*
X975480Y463941D01*
X976340Y461863D01*
X977709Y460079D01*
X979493Y458710D01*
X981571Y457850D01*
X983800Y457556D01*
X986029Y457850D01*
X988107Y458710D01*
X989891Y460079D01*
X991260Y461863D01*
X992120Y463941D01*
X992414Y466170D01*
Y479170D01*
X992120Y481399D01*
X991260Y483477D01*
X989891Y485261D01*
X988107Y486630D01*
X986029Y487490D01*
X983800Y487784D01*
D02*
G37*
G36*
X958400D02*
X956171Y487490D01*
X954093Y486630D01*
X952309Y485261D01*
X950940Y483477D01*
X950080Y481399D01*
X949786Y479170D01*
Y466170D01*
X950080Y463941D01*
X950940Y461863D01*
X952309Y460079D01*
X954093Y458710D01*
X956171Y457850D01*
X958400Y457556D01*
X960629Y457850D01*
X962707Y458710D01*
X964491Y460079D01*
X965860Y461863D01*
X966720Y463941D01*
X967014Y466170D01*
Y479170D01*
X966720Y481399D01*
X965860Y483477D01*
X964491Y485261D01*
X962707Y486630D01*
X960629Y487490D01*
X958400Y487784D01*
D02*
G37*
G36*
X838200Y458914D02*
X825200D01*
X822971Y458620D01*
X820893Y457760D01*
X819109Y456391D01*
X817740Y454607D01*
X816880Y452529D01*
X816586Y450300D01*
X816880Y448071D01*
X817740Y445993D01*
X819109Y444209D01*
X820893Y442840D01*
X822971Y441980D01*
X825200Y441686D01*
X838200D01*
X840429Y441980D01*
X842507Y442840D01*
X844291Y444209D01*
X845660Y445993D01*
X846520Y448071D01*
X846814Y450300D01*
X846520Y452529D01*
X845660Y454607D01*
X844291Y456391D01*
X842507Y457760D01*
X840429Y458620D01*
X838200Y458914D01*
D02*
G37*
G36*
X762000Y433514D02*
X749000D01*
X746771Y433220D01*
X744693Y432360D01*
X742909Y430991D01*
X741540Y429207D01*
X740680Y427129D01*
X740386Y424900D01*
X740680Y422671D01*
X741540Y420593D01*
X742909Y418809D01*
X744693Y417440D01*
X746771Y416580D01*
X749000Y416286D01*
X762000D01*
X764229Y416580D01*
X766307Y417440D01*
X768091Y418809D01*
X769460Y420593D01*
X770320Y422671D01*
X770614Y424900D01*
X770320Y427129D01*
X769460Y429207D01*
X768091Y430991D01*
X766307Y432360D01*
X764229Y433220D01*
X762000Y433514D01*
D02*
G37*
G36*
X1086670Y411417D02*
Y397740D01*
X1094014D01*
Y402970D01*
X1093720Y405199D01*
X1092860Y407277D01*
X1091491Y409061D01*
X1089707Y410430D01*
X1087629Y411290D01*
X1086670Y411417D01*
D02*
G37*
G36*
X762000Y458914D02*
X749000D01*
X746771Y458620D01*
X744693Y457760D01*
X742909Y456391D01*
X741540Y454607D01*
X740680Y452529D01*
X740386Y450300D01*
X740680Y448071D01*
X741540Y445993D01*
X742909Y444209D01*
X744693Y442840D01*
X746771Y441980D01*
X749000Y441686D01*
X762000D01*
X764229Y441980D01*
X766307Y442840D01*
X768091Y444209D01*
X769460Y445993D01*
X770320Y448071D01*
X770614Y450300D01*
X770320Y452529D01*
X769460Y454607D01*
X768091Y456391D01*
X766307Y457760D01*
X764229Y458620D01*
X762000Y458914D01*
D02*
G37*
G36*
X838200Y433514D02*
X825200D01*
X822971Y433220D01*
X820893Y432360D01*
X819109Y430991D01*
X817740Y429207D01*
X816880Y427129D01*
X816586Y424900D01*
X816880Y422671D01*
X817740Y420593D01*
X819109Y418809D01*
X820893Y417440D01*
X822971Y416580D01*
X825200Y416286D01*
X838200D01*
X840429Y416580D01*
X842507Y417440D01*
X844291Y418809D01*
X845660Y420593D01*
X846520Y422671D01*
X846814Y424900D01*
X846520Y427129D01*
X845660Y429207D01*
X844291Y430991D01*
X842507Y432360D01*
X840429Y433220D01*
X838200Y433514D01*
D02*
G37*
G36*
X1237800Y411584D02*
X1235571Y411290D01*
X1233493Y410430D01*
X1231709Y409061D01*
X1230340Y407277D01*
X1229480Y405199D01*
X1229186Y402970D01*
Y389970D01*
X1229480Y387741D01*
X1230340Y385663D01*
X1231709Y383879D01*
X1233493Y382510D01*
X1235571Y381650D01*
X1237800Y381356D01*
X1240029Y381650D01*
X1242107Y382510D01*
X1243891Y383879D01*
X1245260Y385663D01*
X1246120Y387741D01*
X1246414Y389970D01*
Y402970D01*
X1246120Y405199D01*
X1245260Y407277D01*
X1243891Y409061D01*
X1242107Y410430D01*
X1240029Y411290D01*
X1237800Y411584D01*
D02*
G37*
G36*
X838200Y382714D02*
X825200D01*
X822971Y382420D01*
X820893Y381560D01*
X819109Y380191D01*
X817740Y378407D01*
X816880Y376329D01*
X816586Y374100D01*
X816880Y371871D01*
X817740Y369793D01*
X819109Y368009D01*
X820893Y366640D01*
X822971Y365780D01*
X825200Y365486D01*
X838200D01*
X840429Y365780D01*
X842507Y366640D01*
X844291Y368009D01*
X845660Y369793D01*
X846520Y371871D01*
X846814Y374100D01*
X846520Y376329D01*
X845660Y378407D01*
X844291Y380191D01*
X842507Y381560D01*
X840429Y382420D01*
X838200Y382714D01*
D02*
G37*
G36*
X770446Y372830D02*
X756770D01*
Y365486D01*
X762000D01*
X764229Y365780D01*
X766307Y366640D01*
X768091Y368009D01*
X769460Y369793D01*
X770320Y371871D01*
X770446Y372830D01*
D02*
G37*
G36*
X762000Y382714D02*
X756770D01*
Y375370D01*
X770446D01*
X770320Y376329D01*
X769460Y378407D01*
X768091Y380191D01*
X766307Y381560D01*
X764229Y382420D01*
X762000Y382714D01*
D02*
G37*
G36*
X754230D02*
X749000D01*
X746771Y382420D01*
X744693Y381560D01*
X742909Y380191D01*
X741540Y378407D01*
X740680Y376329D01*
X740554Y375370D01*
X754230D01*
Y382714D01*
D02*
G37*
G36*
Y372830D02*
X740554D01*
X740680Y371871D01*
X741540Y369793D01*
X742909Y368009D01*
X744693Y366640D01*
X746771Y365780D01*
X749000Y365486D01*
X754230D01*
Y372830D01*
D02*
G37*
G36*
X713076Y315978D02*
X709778Y315834D01*
X706629Y314841D01*
X703844Y313067D01*
X701613Y310633D01*
X700089Y307704D01*
X699374Y304480D01*
X699518Y301182D01*
X700511Y298033D01*
X702285Y295248D01*
X704719Y293017D01*
X707648Y291493D01*
X710872Y290778D01*
X714170Y290922D01*
X717319Y291915D01*
X720104Y293689D01*
X722335Y296123D01*
X723859Y299052D01*
X724574Y302276D01*
X724430Y305574D01*
X723437Y308724D01*
X721663Y311508D01*
X719229Y313739D01*
X716300Y315264D01*
X713076Y315978D01*
D02*
G37*
G36*
X577458Y315119D02*
X553049D01*
Y309352D01*
X552540Y308293D01*
X551779Y308293D01*
X528131D01*
Y297213D01*
X551779D01*
X552540Y297213D01*
X553049Y296154D01*
Y290710D01*
X577458D01*
Y315119D01*
D02*
G37*
G36*
X636391Y397591D02*
X630848Y396984D01*
X625431Y395658D01*
X620234Y393637D01*
X615345Y390955D01*
X610848Y387658D01*
X606819Y383801D01*
X603329Y379452D01*
X600436Y374685D01*
X598190Y369581D01*
X596630Y364227D01*
X595781Y358716D01*
X595660Y353140D01*
X596267Y347597D01*
X597592Y342180D01*
X599613Y336983D01*
X602295Y332094D01*
X605593Y327597D01*
X609449Y323569D01*
X613798Y320079D01*
X618565Y317186D01*
X623670Y314940D01*
X629023Y313379D01*
X634535Y312531D01*
X640110Y312409D01*
X645653Y313016D01*
X651070Y314342D01*
X656267Y316363D01*
X661156Y319045D01*
X665653Y322342D01*
X669681Y326199D01*
X673172Y330548D01*
X676065Y335315D01*
X678311Y340419D01*
X679871Y345773D01*
X680719Y351284D01*
X680841Y356860D01*
X680234Y362403D01*
X678908Y367820D01*
X676887Y373017D01*
X674205Y377906D01*
X670908Y382403D01*
X667052Y386431D01*
X662703Y389921D01*
X657935Y392814D01*
X652831Y395060D01*
X647477Y396621D01*
X641966Y397469D01*
X636391Y397591D01*
D02*
G37*
G36*
X472000Y397631D02*
X466436Y397267D01*
X460966Y396179D01*
X455686Y394386D01*
X450685Y391920D01*
X446048Y388822D01*
X441855Y385145D01*
X438178Y380952D01*
X435080Y376316D01*
X432614Y371314D01*
X430821Y366034D01*
X429734Y360564D01*
X429369Y355000D01*
X429734Y349436D01*
X430821Y343966D01*
X432614Y338686D01*
X435080Y333684D01*
X438178Y329048D01*
X441855Y324855D01*
X446048Y321178D01*
X450685Y318080D01*
X455686Y315614D01*
X460966Y313821D01*
X466436Y312733D01*
X472000Y312369D01*
X477565Y312733D01*
X483034Y313821D01*
X488314Y315614D01*
X493316Y318080D01*
X497952Y321178D01*
X502145Y324855D01*
X505822Y329048D01*
X508920Y333684D01*
X511386Y338686D01*
X513179Y343966D01*
X514267Y349436D01*
X514632Y355000D01*
X514267Y360564D01*
X513179Y366034D01*
X511386Y371314D01*
X508920Y376316D01*
X505822Y380952D01*
X502145Y385145D01*
X497952Y388822D01*
X493316Y391920D01*
X488315Y394386D01*
X483034Y396179D01*
X477565Y397267D01*
X472000Y397631D01*
D02*
G37*
G36*
X933000Y411584D02*
X930771Y411290D01*
X928693Y410430D01*
X926909Y409061D01*
X925540Y407277D01*
X924680Y405199D01*
X924386Y402970D01*
Y389970D01*
X924680Y387741D01*
X925540Y385663D01*
X926909Y383879D01*
X928693Y382510D01*
X930771Y381650D01*
X933000Y381356D01*
X935229Y381650D01*
X937307Y382510D01*
X939091Y383879D01*
X940460Y385663D01*
X941320Y387741D01*
X941614Y389970D01*
Y402970D01*
X941320Y405199D01*
X940460Y407277D01*
X939091Y409061D01*
X937307Y410430D01*
X935229Y411290D01*
X933000Y411584D01*
D02*
G37*
G36*
X1161600D02*
X1159371Y411290D01*
X1157293Y410430D01*
X1155509Y409061D01*
X1154140Y407277D01*
X1153280Y405199D01*
X1152986Y402970D01*
Y389970D01*
X1153280Y387741D01*
X1154140Y385663D01*
X1155509Y383879D01*
X1157293Y382510D01*
X1159371Y381650D01*
X1161600Y381356D01*
X1163829Y381650D01*
X1165907Y382510D01*
X1167691Y383879D01*
X1169060Y385663D01*
X1169920Y387741D01*
X1170214Y389970D01*
Y402970D01*
X1169920Y405199D01*
X1169060Y407277D01*
X1167691Y409061D01*
X1165907Y410430D01*
X1163829Y411290D01*
X1161600Y411584D01*
D02*
G37*
G36*
X1136200D02*
X1133971Y411290D01*
X1131893Y410430D01*
X1130109Y409061D01*
X1128740Y407277D01*
X1127880Y405199D01*
X1127586Y402970D01*
Y389970D01*
X1127880Y387741D01*
X1128740Y385663D01*
X1130109Y383879D01*
X1131893Y382510D01*
X1133971Y381650D01*
X1136200Y381356D01*
X1138429Y381650D01*
X1140507Y382510D01*
X1142291Y383879D01*
X1143660Y385663D01*
X1144520Y387741D01*
X1144814Y389970D01*
Y402970D01*
X1144520Y405199D01*
X1143660Y407277D01*
X1142291Y409061D01*
X1140507Y410430D01*
X1138429Y411290D01*
X1136200Y411584D01*
D02*
G37*
G36*
X1212400D02*
X1210171Y411290D01*
X1208093Y410430D01*
X1206309Y409061D01*
X1204940Y407277D01*
X1204080Y405199D01*
X1203786Y402970D01*
Y389970D01*
X1204080Y387741D01*
X1204940Y385663D01*
X1206309Y383879D01*
X1208093Y382510D01*
X1210171Y381650D01*
X1212400Y381356D01*
X1214629Y381650D01*
X1216707Y382510D01*
X1218491Y383879D01*
X1219860Y385663D01*
X1220720Y387741D01*
X1221014Y389970D01*
Y402970D01*
X1220720Y405199D01*
X1219860Y407277D01*
X1218491Y409061D01*
X1216707Y410430D01*
X1214629Y411290D01*
X1212400Y411584D01*
D02*
G37*
G36*
X1187000D02*
X1184771Y411290D01*
X1182693Y410430D01*
X1180909Y409061D01*
X1179540Y407277D01*
X1178680Y405199D01*
X1178386Y402970D01*
Y389970D01*
X1178680Y387741D01*
X1179540Y385663D01*
X1180909Y383879D01*
X1182693Y382510D01*
X1184771Y381650D01*
X1187000Y381356D01*
X1189229Y381650D01*
X1191307Y382510D01*
X1193091Y383879D01*
X1194460Y385663D01*
X1195320Y387741D01*
X1195614Y389970D01*
Y402970D01*
X1195320Y405199D01*
X1194460Y407277D01*
X1193091Y409061D01*
X1191307Y410430D01*
X1189229Y411290D01*
X1187000Y411584D01*
D02*
G37*
G36*
X1110800D02*
X1108571Y411290D01*
X1106493Y410430D01*
X1104709Y409061D01*
X1103340Y407277D01*
X1102480Y405199D01*
X1102186Y402970D01*
Y389970D01*
X1102480Y387741D01*
X1103340Y385663D01*
X1104709Y383879D01*
X1106493Y382510D01*
X1108571Y381650D01*
X1110800Y381356D01*
X1113029Y381650D01*
X1115107Y382510D01*
X1116891Y383879D01*
X1118260Y385663D01*
X1119120Y387741D01*
X1119414Y389970D01*
Y402970D01*
X1119120Y405199D01*
X1118260Y407277D01*
X1116891Y409061D01*
X1115107Y410430D01*
X1113029Y411290D01*
X1110800Y411584D01*
D02*
G37*
G36*
X983800D02*
X981571Y411290D01*
X979493Y410430D01*
X977709Y409061D01*
X976340Y407277D01*
X975480Y405199D01*
X975186Y402970D01*
Y389970D01*
X975480Y387741D01*
X976340Y385663D01*
X977709Y383879D01*
X979493Y382510D01*
X981571Y381650D01*
X983800Y381356D01*
X986029Y381650D01*
X988107Y382510D01*
X989891Y383879D01*
X991260Y385663D01*
X992120Y387741D01*
X992414Y389970D01*
Y402970D01*
X992120Y405199D01*
X991260Y407277D01*
X989891Y409061D01*
X988107Y410430D01*
X986029Y411290D01*
X983800Y411584D01*
D02*
G37*
G36*
X958400D02*
X956171Y411290D01*
X954093Y410430D01*
X952309Y409061D01*
X950940Y407277D01*
X950080Y405199D01*
X949786Y402970D01*
Y389970D01*
X950080Y387741D01*
X950940Y385663D01*
X952309Y383879D01*
X954093Y382510D01*
X956171Y381650D01*
X958400Y381356D01*
X960629Y381650D01*
X962707Y382510D01*
X964491Y383879D01*
X965860Y385663D01*
X966720Y387741D01*
X967014Y389970D01*
Y402970D01*
X966720Y405199D01*
X965860Y407277D01*
X964491Y409061D01*
X962707Y410430D01*
X960629Y411290D01*
X958400Y411584D01*
D02*
G37*
G36*
X1034600D02*
X1032371Y411290D01*
X1030293Y410430D01*
X1028509Y409061D01*
X1027140Y407277D01*
X1026280Y405199D01*
X1025986Y402970D01*
Y389970D01*
X1026280Y387741D01*
X1027140Y385663D01*
X1028509Y383879D01*
X1030293Y382510D01*
X1032371Y381650D01*
X1034600Y381356D01*
X1036829Y381650D01*
X1038907Y382510D01*
X1040691Y383879D01*
X1042060Y385663D01*
X1042920Y387741D01*
X1043214Y389970D01*
Y402970D01*
X1042920Y405199D01*
X1042060Y407277D01*
X1040691Y409061D01*
X1038907Y410430D01*
X1036829Y411290D01*
X1034600Y411584D01*
D02*
G37*
G36*
X1009200D02*
X1006971Y411290D01*
X1004893Y410430D01*
X1003109Y409061D01*
X1001740Y407277D01*
X1000880Y405199D01*
X1000586Y402970D01*
Y389970D01*
X1000880Y387741D01*
X1001740Y385663D01*
X1003109Y383879D01*
X1004893Y382510D01*
X1006971Y381650D01*
X1009200Y381356D01*
X1011429Y381650D01*
X1013507Y382510D01*
X1015291Y383879D01*
X1016660Y385663D01*
X1017520Y387741D01*
X1017814Y389970D01*
Y402970D01*
X1017520Y405199D01*
X1016660Y407277D01*
X1015291Y409061D01*
X1013507Y410430D01*
X1011429Y411290D01*
X1009200Y411584D01*
D02*
G37*
G36*
Y487784D02*
X1006971Y487490D01*
X1004893Y486630D01*
X1003109Y485261D01*
X1001740Y483477D01*
X1000880Y481399D01*
X1000586Y479170D01*
Y466170D01*
X1000880Y463941D01*
X1001740Y461863D01*
X1003109Y460079D01*
X1004893Y458710D01*
X1006971Y457850D01*
X1009200Y457556D01*
X1011429Y457850D01*
X1013507Y458710D01*
X1015291Y460079D01*
X1016660Y461863D01*
X1017520Y463941D01*
X1017814Y466170D01*
Y479170D01*
X1017520Y481399D01*
X1016660Y483477D01*
X1015291Y485261D01*
X1013507Y486630D01*
X1011429Y487490D01*
X1009200Y487784D01*
D02*
G37*
G36*
X838200Y509714D02*
X825200D01*
X822971Y509420D01*
X820893Y508560D01*
X819109Y507191D01*
X817740Y505407D01*
X816880Y503329D01*
X816586Y501100D01*
X816880Y498871D01*
X817740Y496793D01*
X819109Y495009D01*
X820893Y493640D01*
X822971Y492780D01*
X825200Y492486D01*
X838200D01*
X840429Y492780D01*
X842507Y493640D01*
X844291Y495009D01*
X845660Y496793D01*
X846520Y498871D01*
X846814Y501100D01*
X846520Y503329D01*
X845660Y505407D01*
X844291Y507191D01*
X842507Y508560D01*
X840429Y509420D01*
X838200Y509714D01*
D02*
G37*
G36*
X762000D02*
X749000D01*
X746771Y509420D01*
X744693Y508560D01*
X742909Y507191D01*
X741540Y505407D01*
X740680Y503329D01*
X740386Y501100D01*
X740680Y498871D01*
X741540Y496793D01*
X742909Y495009D01*
X744693Y493640D01*
X746771Y492780D01*
X749000Y492486D01*
X762000D01*
X764229Y492780D01*
X766307Y493640D01*
X768091Y495009D01*
X769460Y496793D01*
X770320Y498871D01*
X770614Y501100D01*
X770320Y503329D01*
X769460Y505407D01*
X768091Y507191D01*
X766307Y508560D01*
X764229Y509420D01*
X762000Y509714D01*
D02*
G37*
G36*
X838200Y535114D02*
X825200D01*
X822971Y534820D01*
X820893Y533960D01*
X819109Y532591D01*
X817740Y530807D01*
X816880Y528729D01*
X816586Y526500D01*
X816880Y524271D01*
X817740Y522193D01*
X819109Y520409D01*
X820893Y519040D01*
X822971Y518180D01*
X825200Y517886D01*
X838200D01*
X840429Y518180D01*
X842507Y519040D01*
X844291Y520409D01*
X845660Y522193D01*
X846520Y524271D01*
X846814Y526500D01*
X846520Y528729D01*
X845660Y530807D01*
X844291Y532591D01*
X842507Y533960D01*
X840429Y534820D01*
X838200Y535114D01*
D02*
G37*
G36*
X762000D02*
X749000D01*
X746771Y534820D01*
X744693Y533960D01*
X742909Y532591D01*
X741540Y530807D01*
X740680Y528729D01*
X740386Y526500D01*
X740680Y524271D01*
X741540Y522193D01*
X742909Y520409D01*
X744693Y519040D01*
X746771Y518180D01*
X749000Y517886D01*
X762000D01*
X764229Y518180D01*
X766307Y519040D01*
X768091Y520409D01*
X769460Y522193D01*
X770320Y524271D01*
X770614Y526500D01*
X770320Y528729D01*
X769460Y530807D01*
X768091Y532591D01*
X766307Y533960D01*
X764229Y534820D01*
X762000Y535114D01*
D02*
G37*
G36*
X733080Y524972D02*
X707685D01*
Y489420D01*
X733080D01*
Y524972D01*
D02*
G37*
G36*
X1239070Y487617D02*
Y473940D01*
X1246414D01*
Y479170D01*
X1246120Y481399D01*
X1245260Y483477D01*
X1243891Y485261D01*
X1242107Y486630D01*
X1240029Y487490D01*
X1239070Y487617D01*
D02*
G37*
G36*
X934270D02*
Y473940D01*
X941614D01*
Y479170D01*
X941320Y481399D01*
X940460Y483477D01*
X939091Y485261D01*
X937307Y486630D01*
X935229Y487490D01*
X934270Y487617D01*
D02*
G37*
G36*
X1493740Y499354D02*
X1491511Y499060D01*
X1489433Y498200D01*
X1487649Y496831D01*
X1486280Y495047D01*
X1485420Y492969D01*
X1485126Y490740D01*
X1485420Y488511D01*
X1486280Y486433D01*
X1487649Y484649D01*
X1489433Y483280D01*
X1491511Y482420D01*
X1493740Y482126D01*
X1495969Y482420D01*
X1498047Y483280D01*
X1499831Y484649D01*
X1501200Y486433D01*
X1502060Y488511D01*
X1502354Y490740D01*
X1502060Y492969D01*
X1501200Y495047D01*
X1499831Y496831D01*
X1498047Y498200D01*
X1495969Y499060D01*
X1493740Y499354D01*
D02*
G37*
G36*
X1550330Y552487D02*
X1524935D01*
Y532170D01*
X1550330D01*
Y552487D01*
D02*
G37*
G36*
X1236530Y487617D02*
X1235571Y487490D01*
X1233493Y486630D01*
X1231709Y485261D01*
X1230340Y483477D01*
X1229480Y481399D01*
X1229186Y479170D01*
Y473940D01*
X1236530D01*
Y487617D01*
D02*
G37*
G36*
X1187000Y487784D02*
X1184771Y487490D01*
X1182693Y486630D01*
X1180909Y485261D01*
X1179540Y483477D01*
X1178680Y481399D01*
X1178386Y479170D01*
Y466170D01*
X1178680Y463941D01*
X1179540Y461863D01*
X1180909Y460079D01*
X1182693Y458710D01*
X1184771Y457850D01*
X1187000Y457556D01*
X1189229Y457850D01*
X1191307Y458710D01*
X1193091Y460079D01*
X1194460Y461863D01*
X1195320Y463941D01*
X1195614Y466170D01*
Y479170D01*
X1195320Y481399D01*
X1194460Y483477D01*
X1193091Y485261D01*
X1191307Y486630D01*
X1189229Y487490D01*
X1187000Y487784D01*
D02*
G37*
G36*
X1161600D02*
X1159371Y487490D01*
X1157293Y486630D01*
X1155509Y485261D01*
X1154140Y483477D01*
X1153280Y481399D01*
X1152986Y479170D01*
Y466170D01*
X1153280Y463941D01*
X1154140Y461863D01*
X1155509Y460079D01*
X1157293Y458710D01*
X1159371Y457850D01*
X1161600Y457556D01*
X1163829Y457850D01*
X1165907Y458710D01*
X1167691Y460079D01*
X1169060Y461863D01*
X1169920Y463941D01*
X1170214Y466170D01*
Y479170D01*
X1169920Y481399D01*
X1169060Y483477D01*
X1167691Y485261D01*
X1165907Y486630D01*
X1163829Y487490D01*
X1161600Y487784D01*
D02*
G37*
G36*
X1271740Y487710D02*
X1254660D01*
Y457630D01*
X1271740D01*
Y487710D01*
D02*
G37*
G36*
X1212400Y487784D02*
X1210171Y487490D01*
X1208093Y486630D01*
X1206309Y485261D01*
X1204940Y483477D01*
X1204080Y481399D01*
X1203786Y479170D01*
Y466170D01*
X1204080Y463941D01*
X1204940Y461863D01*
X1206309Y460079D01*
X1208093Y458710D01*
X1210171Y457850D01*
X1212400Y457556D01*
X1214629Y457850D01*
X1216707Y458710D01*
X1218491Y460079D01*
X1219860Y461863D01*
X1220720Y463941D01*
X1221014Y466170D01*
Y479170D01*
X1220720Y481399D01*
X1219860Y483477D01*
X1218491Y485261D01*
X1216707Y486630D01*
X1214629Y487490D01*
X1212400Y487784D01*
D02*
G37*
G36*
X1136200D02*
X1133971Y487490D01*
X1131893Y486630D01*
X1130109Y485261D01*
X1128740Y483477D01*
X1127880Y481399D01*
X1127586Y479170D01*
Y466170D01*
X1127880Y463941D01*
X1128740Y461863D01*
X1130109Y460079D01*
X1131893Y458710D01*
X1133971Y457850D01*
X1136200Y457556D01*
X1138429Y457850D01*
X1140507Y458710D01*
X1142291Y460079D01*
X1143660Y461863D01*
X1144520Y463941D01*
X1144814Y466170D01*
Y479170D01*
X1144520Y481399D01*
X1143660Y483477D01*
X1142291Y485261D01*
X1140507Y486630D01*
X1138429Y487490D01*
X1136200Y487784D01*
D02*
G37*
G36*
X1060000D02*
X1057771Y487490D01*
X1055693Y486630D01*
X1053909Y485261D01*
X1052540Y483477D01*
X1051680Y481399D01*
X1051386Y479170D01*
Y466170D01*
X1051680Y463941D01*
X1052540Y461863D01*
X1053909Y460079D01*
X1055693Y458710D01*
X1057771Y457850D01*
X1060000Y457556D01*
X1062229Y457850D01*
X1064307Y458710D01*
X1066091Y460079D01*
X1067460Y461863D01*
X1068320Y463941D01*
X1068614Y466170D01*
Y479170D01*
X1068320Y481399D01*
X1067460Y483477D01*
X1066091Y485261D01*
X1064307Y486630D01*
X1062229Y487490D01*
X1060000Y487784D01*
D02*
G37*
G36*
X1034600D02*
X1032371Y487490D01*
X1030293Y486630D01*
X1028509Y485261D01*
X1027140Y483477D01*
X1026280Y481399D01*
X1025986Y479170D01*
Y466170D01*
X1026280Y463941D01*
X1027140Y461863D01*
X1028509Y460079D01*
X1030293Y458710D01*
X1032371Y457850D01*
X1034600Y457556D01*
X1036829Y457850D01*
X1038907Y458710D01*
X1040691Y460079D01*
X1042060Y461863D01*
X1042920Y463941D01*
X1043214Y466170D01*
Y479170D01*
X1042920Y481399D01*
X1042060Y483477D01*
X1040691Y485261D01*
X1038907Y486630D01*
X1036829Y487490D01*
X1034600Y487784D01*
D02*
G37*
G36*
X1110800D02*
X1108571Y487490D01*
X1106493Y486630D01*
X1104709Y485261D01*
X1103340Y483477D01*
X1102480Y481399D01*
X1102186Y479170D01*
Y466170D01*
X1102480Y463941D01*
X1103340Y461863D01*
X1104709Y460079D01*
X1106493Y458710D01*
X1108571Y457850D01*
X1110800Y457556D01*
X1113029Y457850D01*
X1115107Y458710D01*
X1116891Y460079D01*
X1118260Y461863D01*
X1119120Y463941D01*
X1119414Y466170D01*
Y479170D01*
X1119120Y481399D01*
X1118260Y483477D01*
X1116891Y485261D01*
X1115107Y486630D01*
X1113029Y487490D01*
X1110800Y487784D01*
D02*
G37*
G36*
X1085400D02*
X1083171Y487490D01*
X1081093Y486630D01*
X1079309Y485261D01*
X1077940Y483477D01*
X1077080Y481399D01*
X1076786Y479170D01*
Y466170D01*
X1077080Y463941D01*
X1077940Y461863D01*
X1079309Y460079D01*
X1081093Y458710D01*
X1083171Y457850D01*
X1085400Y457556D01*
X1087629Y457850D01*
X1089707Y458710D01*
X1091491Y460079D01*
X1092860Y461863D01*
X1093720Y463941D01*
X1094014Y466170D01*
Y479170D01*
X1093720Y481399D01*
X1092860Y483477D01*
X1091491Y485261D01*
X1089707Y486630D01*
X1087629Y487490D01*
X1085400Y487784D01*
D02*
G37*
G36*
X931730Y471400D02*
X924386D01*
Y466170D01*
X924680Y463941D01*
X925540Y461863D01*
X926909Y460079D01*
X928693Y458710D01*
X930771Y457850D01*
X931730Y457724D01*
Y471400D01*
D02*
G37*
G36*
X762000Y484314D02*
X749000D01*
X746771Y484020D01*
X744693Y483160D01*
X742909Y481791D01*
X741540Y480007D01*
X740680Y477929D01*
X740386Y475700D01*
X740680Y473471D01*
X741540Y471393D01*
X742909Y469609D01*
X744693Y468240D01*
X746771Y467380D01*
X749000Y467086D01*
X762000D01*
X764229Y467380D01*
X766307Y468240D01*
X768091Y469609D01*
X769460Y471393D01*
X770320Y473471D01*
X770614Y475700D01*
X770320Y477929D01*
X769460Y480007D01*
X768091Y481791D01*
X766307Y483160D01*
X764229Y484020D01*
X762000Y484314D01*
D02*
G37*
G36*
X1495010Y473937D02*
Y466760D01*
X1502186D01*
X1502060Y467719D01*
X1501200Y469797D01*
X1499831Y471581D01*
X1498047Y472950D01*
X1495969Y473810D01*
X1495010Y473937D01*
D02*
G37*
G36*
X931730Y487617D02*
X930771Y487490D01*
X928693Y486630D01*
X926909Y485261D01*
X925540Y483477D01*
X924680Y481399D01*
X924386Y479170D01*
Y473940D01*
X931730D01*
Y487617D01*
D02*
G37*
G36*
X838200Y484314D02*
X825200D01*
X822971Y484020D01*
X820893Y483160D01*
X819109Y481791D01*
X817740Y480007D01*
X816880Y477929D01*
X816586Y475700D01*
X816880Y473471D01*
X817740Y471393D01*
X819109Y469609D01*
X820893Y468240D01*
X822971Y467380D01*
X825200Y467086D01*
X838200D01*
X840429Y467380D01*
X842507Y468240D01*
X844291Y469609D01*
X845660Y471393D01*
X846520Y473471D01*
X846814Y475700D01*
X846520Y477929D01*
X845660Y480007D01*
X844291Y481791D01*
X842507Y483160D01*
X840429Y484020D01*
X838200Y484314D01*
D02*
G37*
G36*
X1492470Y473937D02*
X1491511Y473810D01*
X1489433Y472950D01*
X1487649Y471581D01*
X1486280Y469797D01*
X1485420Y467719D01*
X1485293Y466760D01*
X1492470D01*
Y473937D01*
D02*
G37*
G36*
X941614Y471400D02*
X934270D01*
Y457724D01*
X935229Y457850D01*
X937307Y458710D01*
X939091Y460079D01*
X940460Y461863D01*
X941320Y463941D01*
X941614Y466170D01*
Y471400D01*
D02*
G37*
G36*
X1236530D02*
X1229186D01*
Y466170D01*
X1229480Y463941D01*
X1230340Y461863D01*
X1231709Y460079D01*
X1233493Y458710D01*
X1235571Y457850D01*
X1236530Y457724D01*
Y471400D01*
D02*
G37*
G36*
X1442700Y503280D02*
X1412620D01*
Y478200D01*
X1420119D01*
X1420372Y476930D01*
X1418836Y476294D01*
X1416216Y474284D01*
X1414206Y471664D01*
X1412943Y468614D01*
X1412679Y466610D01*
X1442641D01*
X1442377Y468614D01*
X1441114Y471664D01*
X1439104Y474284D01*
X1436484Y476294D01*
X1434948Y476930D01*
X1435201Y478200D01*
X1442700D01*
Y503280D01*
D02*
G37*
G36*
X1246414Y471400D02*
X1239070D01*
Y457724D01*
X1240029Y457850D01*
X1242107Y458710D01*
X1243891Y460079D01*
X1245260Y461863D01*
X1246120Y463941D01*
X1246414Y466170D01*
Y471400D01*
D02*
G37*
G36*
X820270Y1045696D02*
Y1038520D01*
X827447D01*
X827320Y1039479D01*
X826460Y1041557D01*
X825091Y1043341D01*
X823307Y1044710D01*
X821229Y1045570D01*
X820270Y1045696D01*
D02*
G37*
G36*
X817730Y1045696D02*
X816771Y1045570D01*
X814693Y1044710D01*
X812909Y1043341D01*
X811540Y1041557D01*
X810680Y1039479D01*
X810554Y1038520D01*
X817730D01*
Y1045696D01*
D02*
G37*
G36*
X857770Y1048196D02*
Y1041020D01*
X864947D01*
X864820Y1041979D01*
X863960Y1044057D01*
X862591Y1045841D01*
X860807Y1047210D01*
X858729Y1048070D01*
X857770Y1048196D01*
D02*
G37*
G36*
X855230Y1048196D02*
X854271Y1048070D01*
X852193Y1047210D01*
X850409Y1045841D01*
X849040Y1044057D01*
X848180Y1041979D01*
X848054Y1041020D01*
X855230D01*
Y1048196D01*
D02*
G37*
G36*
X1526750Y1055614D02*
X1524521Y1055320D01*
X1522443Y1054460D01*
X1520659Y1053091D01*
X1519290Y1051307D01*
X1518430Y1049229D01*
X1518136Y1047000D01*
X1518430Y1044771D01*
X1519290Y1042693D01*
X1520659Y1040909D01*
X1522443Y1039540D01*
X1524521Y1038680D01*
X1526750Y1038386D01*
X1528979Y1038680D01*
X1531057Y1039540D01*
X1532841Y1040909D01*
X1534210Y1042693D01*
X1535070Y1044771D01*
X1535364Y1047000D01*
X1535070Y1049229D01*
X1534210Y1051307D01*
X1532841Y1053091D01*
X1531057Y1054460D01*
X1528979Y1055320D01*
X1526750Y1055614D01*
D02*
G37*
G36*
X864947Y1038480D02*
X857770D01*
Y1031303D01*
X858729Y1031430D01*
X860807Y1032290D01*
X862591Y1033659D01*
X863960Y1035443D01*
X864820Y1037521D01*
X864947Y1038480D01*
D02*
G37*
G36*
X920000Y1048364D02*
X917771Y1048070D01*
X915693Y1047210D01*
X913909Y1045841D01*
X912540Y1044057D01*
X911680Y1041979D01*
X911386Y1039750D01*
X911680Y1037521D01*
X912540Y1035443D01*
X913909Y1033659D01*
X915693Y1032290D01*
X917771Y1031430D01*
X920000Y1031136D01*
X922229Y1031430D01*
X924307Y1032290D01*
X926091Y1033659D01*
X927460Y1035443D01*
X928320Y1037521D01*
X928614Y1039750D01*
X928320Y1041979D01*
X927460Y1044057D01*
X926091Y1045841D01*
X924307Y1047210D01*
X922229Y1048070D01*
X920000Y1048364D01*
D02*
G37*
G36*
X1283050Y1049014D02*
X1270050D01*
X1267821Y1048720D01*
X1265743Y1047860D01*
X1263959Y1046491D01*
X1262590Y1044707D01*
X1261730Y1042629D01*
X1261436Y1040400D01*
X1261730Y1038171D01*
X1262590Y1036093D01*
X1263959Y1034309D01*
X1265743Y1032940D01*
X1267821Y1032080D01*
X1270050Y1031786D01*
X1283050D01*
X1285279Y1032080D01*
X1287357Y1032940D01*
X1289141Y1034309D01*
X1290510Y1036093D01*
X1291370Y1038171D01*
X1291664Y1040400D01*
X1291370Y1042629D01*
X1290510Y1044707D01*
X1289141Y1046491D01*
X1287357Y1047860D01*
X1285279Y1048720D01*
X1283050Y1049014D01*
D02*
G37*
G36*
X855230Y1038480D02*
X848054D01*
X848180Y1037521D01*
X849040Y1035443D01*
X850409Y1033659D01*
X852193Y1032290D01*
X854271Y1031430D01*
X855230Y1031303D01*
Y1038480D01*
D02*
G37*
G36*
X957900Y1076814D02*
X955671Y1076520D01*
X953593Y1075660D01*
X951809Y1074291D01*
X950440Y1072507D01*
X949580Y1070429D01*
X949286Y1068200D01*
Y1055200D01*
X949580Y1052971D01*
X950440Y1050893D01*
X951809Y1049109D01*
X953593Y1047740D01*
X955671Y1046880D01*
X957900Y1046586D01*
X960129Y1046880D01*
X962207Y1047740D01*
X963991Y1049109D01*
X965360Y1050893D01*
X966220Y1052971D01*
X966514Y1055200D01*
Y1068200D01*
X966220Y1070429D01*
X965360Y1072507D01*
X963991Y1074291D01*
X962207Y1075660D01*
X960129Y1076520D01*
X957900Y1076814D01*
D02*
G37*
G36*
X1135700D02*
X1133471Y1076520D01*
X1131393Y1075660D01*
X1129609Y1074291D01*
X1128240Y1072507D01*
X1127380Y1070429D01*
X1127086Y1068200D01*
Y1055200D01*
X1127380Y1052971D01*
X1128240Y1050893D01*
X1129609Y1049109D01*
X1131393Y1047740D01*
X1133471Y1046880D01*
X1135700Y1046586D01*
X1137929Y1046880D01*
X1140007Y1047740D01*
X1141791Y1049109D01*
X1143160Y1050893D01*
X1144020Y1052971D01*
X1144314Y1055200D01*
Y1068200D01*
X1144020Y1070429D01*
X1143160Y1072507D01*
X1141791Y1074291D01*
X1140007Y1075660D01*
X1137929Y1076520D01*
X1135700Y1076814D01*
D02*
G37*
G36*
X1110300D02*
X1108071Y1076520D01*
X1105993Y1075660D01*
X1104209Y1074291D01*
X1102840Y1072507D01*
X1101980Y1070429D01*
X1101686Y1068200D01*
Y1055200D01*
X1101980Y1052971D01*
X1102840Y1050893D01*
X1104209Y1049109D01*
X1105993Y1047740D01*
X1108071Y1046880D01*
X1110300Y1046586D01*
X1112529Y1046880D01*
X1114607Y1047740D01*
X1116391Y1049109D01*
X1117760Y1050893D01*
X1118620Y1052971D01*
X1118914Y1055200D01*
Y1068200D01*
X1118620Y1070429D01*
X1117760Y1072507D01*
X1116391Y1074291D01*
X1114607Y1075660D01*
X1112529Y1076520D01*
X1110300Y1076814D01*
D02*
G37*
G36*
X1186500D02*
X1184271Y1076520D01*
X1182193Y1075660D01*
X1180409Y1074291D01*
X1179040Y1072507D01*
X1178180Y1070429D01*
X1177886Y1068200D01*
Y1055200D01*
X1178180Y1052971D01*
X1179040Y1050893D01*
X1180409Y1049109D01*
X1182193Y1047740D01*
X1184271Y1046880D01*
X1186500Y1046586D01*
X1188729Y1046880D01*
X1190807Y1047740D01*
X1192591Y1049109D01*
X1193960Y1050893D01*
X1194820Y1052971D01*
X1195114Y1055200D01*
Y1068200D01*
X1194820Y1070429D01*
X1193960Y1072507D01*
X1192591Y1074291D01*
X1190807Y1075660D01*
X1188729Y1076520D01*
X1186500Y1076814D01*
D02*
G37*
G36*
X1161100D02*
X1158871Y1076520D01*
X1156793Y1075660D01*
X1155009Y1074291D01*
X1153640Y1072507D01*
X1152780Y1070429D01*
X1152486Y1068200D01*
Y1055200D01*
X1152780Y1052971D01*
X1153640Y1050893D01*
X1155009Y1049109D01*
X1156793Y1047740D01*
X1158871Y1046880D01*
X1161100Y1046586D01*
X1163329Y1046880D01*
X1165407Y1047740D01*
X1167191Y1049109D01*
X1168560Y1050893D01*
X1169420Y1052971D01*
X1169714Y1055200D01*
Y1068200D01*
X1169420Y1070429D01*
X1168560Y1072507D01*
X1167191Y1074291D01*
X1165407Y1075660D01*
X1163329Y1076520D01*
X1161100Y1076814D01*
D02*
G37*
G36*
X1084900D02*
X1082671Y1076520D01*
X1080593Y1075660D01*
X1078809Y1074291D01*
X1077440Y1072507D01*
X1076580Y1070429D01*
X1076286Y1068200D01*
Y1055200D01*
X1076580Y1052971D01*
X1077440Y1050893D01*
X1078809Y1049109D01*
X1080593Y1047740D01*
X1082671Y1046880D01*
X1084900Y1046586D01*
X1087129Y1046880D01*
X1089207Y1047740D01*
X1090991Y1049109D01*
X1092360Y1050893D01*
X1093220Y1052971D01*
X1093514Y1055200D01*
Y1068200D01*
X1093220Y1070429D01*
X1092360Y1072507D01*
X1090991Y1074291D01*
X1089207Y1075660D01*
X1087129Y1076520D01*
X1084900Y1076814D01*
D02*
G37*
G36*
X1008700D02*
X1006471Y1076520D01*
X1004393Y1075660D01*
X1002609Y1074291D01*
X1001240Y1072507D01*
X1000380Y1070429D01*
X1000086Y1068200D01*
Y1055200D01*
X1000380Y1052971D01*
X1001240Y1050893D01*
X1002609Y1049109D01*
X1004393Y1047740D01*
X1006471Y1046880D01*
X1008700Y1046586D01*
X1010929Y1046880D01*
X1013007Y1047740D01*
X1014791Y1049109D01*
X1016160Y1050893D01*
X1017020Y1052971D01*
X1017314Y1055200D01*
Y1068200D01*
X1017020Y1070429D01*
X1016160Y1072507D01*
X1014791Y1074291D01*
X1013007Y1075660D01*
X1010929Y1076520D01*
X1008700Y1076814D01*
D02*
G37*
G36*
X983300D02*
X981071Y1076520D01*
X978993Y1075660D01*
X977209Y1074291D01*
X975840Y1072507D01*
X974980Y1070429D01*
X974686Y1068200D01*
Y1055200D01*
X974980Y1052971D01*
X975840Y1050893D01*
X977209Y1049109D01*
X978993Y1047740D01*
X981071Y1046880D01*
X983300Y1046586D01*
X985529Y1046880D01*
X987607Y1047740D01*
X989391Y1049109D01*
X990760Y1050893D01*
X991620Y1052971D01*
X991914Y1055200D01*
Y1068200D01*
X991620Y1070429D01*
X990760Y1072507D01*
X989391Y1074291D01*
X987607Y1075660D01*
X985529Y1076520D01*
X983300Y1076814D01*
D02*
G37*
G36*
X1059500D02*
X1057271Y1076520D01*
X1055193Y1075660D01*
X1053409Y1074291D01*
X1052040Y1072507D01*
X1051180Y1070429D01*
X1050886Y1068200D01*
Y1055200D01*
X1051180Y1052971D01*
X1052040Y1050893D01*
X1053409Y1049109D01*
X1055193Y1047740D01*
X1057271Y1046880D01*
X1059500Y1046586D01*
X1061729Y1046880D01*
X1063807Y1047740D01*
X1065591Y1049109D01*
X1066960Y1050893D01*
X1067820Y1052971D01*
X1068114Y1055200D01*
Y1068200D01*
X1067820Y1070429D01*
X1066960Y1072507D01*
X1065591Y1074291D01*
X1063807Y1075660D01*
X1061729Y1076520D01*
X1059500Y1076814D01*
D02*
G37*
G36*
X1034100D02*
X1031871Y1076520D01*
X1029793Y1075660D01*
X1028009Y1074291D01*
X1026640Y1072507D01*
X1025780Y1070429D01*
X1025486Y1068200D01*
Y1055200D01*
X1025780Y1052971D01*
X1026640Y1050893D01*
X1028009Y1049109D01*
X1029793Y1047740D01*
X1031871Y1046880D01*
X1034100Y1046586D01*
X1036329Y1046880D01*
X1038407Y1047740D01*
X1040191Y1049109D01*
X1041560Y1050893D01*
X1042420Y1052971D01*
X1042714Y1055200D01*
Y1068200D01*
X1042420Y1070429D01*
X1041560Y1072507D01*
X1040191Y1074291D01*
X1038407Y1075660D01*
X1036329Y1076520D01*
X1034100Y1076814D01*
D02*
G37*
G36*
X1083630Y1000446D02*
X1082671Y1000320D01*
X1080593Y999460D01*
X1078809Y998091D01*
X1077440Y996307D01*
X1076580Y994229D01*
X1076286Y992000D01*
Y986770D01*
X1083630D01*
Y1000446D01*
D02*
G37*
G36*
X1162370Y1000446D02*
Y986770D01*
X1169714D01*
Y992000D01*
X1169420Y994229D01*
X1168560Y996307D01*
X1167191Y998091D01*
X1165407Y999460D01*
X1163329Y1000320D01*
X1162370Y1000446D01*
D02*
G37*
G36*
X1159830Y1000446D02*
X1158871Y1000320D01*
X1156793Y999460D01*
X1155009Y998091D01*
X1153640Y996307D01*
X1152780Y994229D01*
X1152486Y992000D01*
Y986770D01*
X1159830D01*
Y1000446D01*
D02*
G37*
G36*
X1283050Y998214D02*
X1270050D01*
X1267821Y997920D01*
X1265743Y997060D01*
X1263959Y995691D01*
X1262590Y993907D01*
X1261730Y991829D01*
X1261436Y989600D01*
X1261730Y987371D01*
X1262590Y985293D01*
X1263959Y983509D01*
X1265743Y982140D01*
X1267821Y981280D01*
X1270050Y980986D01*
X1283050D01*
X1285279Y981280D01*
X1287357Y982140D01*
X1289141Y983509D01*
X1290510Y985293D01*
X1291370Y987371D01*
X1291664Y989600D01*
X1291370Y991829D01*
X1290510Y993907D01*
X1289141Y995691D01*
X1287357Y997060D01*
X1285279Y997920D01*
X1283050Y998214D01*
D02*
G37*
G36*
X1535580Y1034668D02*
X1510185D01*
Y986420D01*
X1535580D01*
Y1034668D01*
D02*
G37*
G36*
X1359250Y998214D02*
X1346250D01*
X1344021Y997920D01*
X1341943Y997060D01*
X1340159Y995691D01*
X1338790Y993907D01*
X1337930Y991829D01*
X1337636Y989600D01*
X1337930Y987371D01*
X1338790Y985293D01*
X1340159Y983509D01*
X1341943Y982140D01*
X1344021Y981280D01*
X1346250Y980986D01*
X1359250D01*
X1361479Y981280D01*
X1363557Y982140D01*
X1365341Y983509D01*
X1366710Y985293D01*
X1367570Y987371D01*
X1367864Y989600D01*
X1367570Y991829D01*
X1366710Y993907D01*
X1365341Y995691D01*
X1363557Y997060D01*
X1361479Y997920D01*
X1359250Y998214D01*
D02*
G37*
G36*
X1396270Y1034446D02*
Y1027270D01*
X1403447D01*
X1403320Y1028229D01*
X1402460Y1030307D01*
X1401091Y1032091D01*
X1399307Y1033460D01*
X1397229Y1034320D01*
X1396270Y1034446D01*
D02*
G37*
G36*
X1393730Y1034446D02*
X1392771Y1034320D01*
X1390693Y1033460D01*
X1388909Y1032091D01*
X1387540Y1030307D01*
X1386680Y1028229D01*
X1386553Y1027270D01*
X1393730D01*
Y1034446D01*
D02*
G37*
G36*
X827447Y1035980D02*
X820270D01*
Y1028803D01*
X821229Y1028930D01*
X823307Y1029790D01*
X825091Y1031159D01*
X826460Y1032943D01*
X827320Y1035021D01*
X827447Y1035980D01*
D02*
G37*
G36*
X817730D02*
X810554D01*
X810680Y1035021D01*
X811540Y1032943D01*
X812909Y1031159D01*
X814693Y1029790D01*
X816771Y1028930D01*
X817730Y1028803D01*
Y1035980D01*
D02*
G37*
G36*
X1441222Y1046315D02*
X1405670D01*
Y1020920D01*
X1441222D01*
Y1046315D01*
D02*
G37*
G36*
X1283050Y1023614D02*
X1270050D01*
X1267821Y1023320D01*
X1265743Y1022460D01*
X1263959Y1021091D01*
X1262590Y1019307D01*
X1261730Y1017229D01*
X1261436Y1015000D01*
X1261730Y1012771D01*
X1262590Y1010693D01*
X1263959Y1008909D01*
X1265743Y1007540D01*
X1267821Y1006680D01*
X1270050Y1006386D01*
X1283050D01*
X1285279Y1006680D01*
X1287357Y1007540D01*
X1289141Y1008909D01*
X1290510Y1010693D01*
X1291370Y1012771D01*
X1291664Y1015000D01*
X1291370Y1017229D01*
X1290510Y1019307D01*
X1289141Y1021091D01*
X1287357Y1022460D01*
X1285279Y1023320D01*
X1283050Y1023614D01*
D02*
G37*
G36*
X1403447Y1024730D02*
X1396270D01*
Y1017553D01*
X1397229Y1017680D01*
X1399307Y1018540D01*
X1401091Y1019909D01*
X1402460Y1021693D01*
X1403320Y1023771D01*
X1403447Y1024730D01*
D02*
G37*
G36*
X1393730D02*
X1386553D01*
X1386680Y1023771D01*
X1387540Y1021693D01*
X1388909Y1019909D01*
X1390693Y1018540D01*
X1392771Y1017680D01*
X1393730Y1017553D01*
Y1024730D01*
D02*
G37*
G36*
X1403947Y1178480D02*
X1396770D01*
Y1171303D01*
X1397729Y1171430D01*
X1399807Y1172290D01*
X1401591Y1173659D01*
X1402960Y1175443D01*
X1403820Y1177521D01*
X1403947Y1178480D01*
D02*
G37*
G36*
X1381722Y1187315D02*
X1346170D01*
Y1161920D01*
X1381722D01*
Y1187315D01*
D02*
G37*
G36*
X911108Y1201715D02*
X865400D01*
Y1176320D01*
X911108D01*
Y1201715D01*
D02*
G37*
G36*
X1394230Y1178480D02*
X1387054D01*
X1387180Y1177521D01*
X1388040Y1175443D01*
X1389409Y1173659D01*
X1391193Y1172290D01*
X1393271Y1171430D01*
X1394230Y1171303D01*
Y1178480D01*
D02*
G37*
G36*
X922710Y1171110D02*
X902390D01*
Y1150790D01*
X922710D01*
Y1171110D01*
D02*
G37*
G36*
X1359250Y1150614D02*
X1354020D01*
Y1143270D01*
X1367697D01*
X1367570Y1144229D01*
X1366710Y1146307D01*
X1365341Y1148091D01*
X1363557Y1149460D01*
X1361479Y1150320D01*
X1359250Y1150614D01*
D02*
G37*
G36*
X1367697Y1140730D02*
X1354020D01*
Y1133386D01*
X1359250D01*
X1361479Y1133680D01*
X1363557Y1134540D01*
X1365341Y1135909D01*
X1366710Y1137693D01*
X1367570Y1139771D01*
X1367697Y1140730D01*
D02*
G37*
G36*
X861750Y1171198D02*
X859098Y1170848D01*
X856626Y1169825D01*
X854504Y1168196D01*
X852875Y1166074D01*
X851852Y1163602D01*
X851502Y1160950D01*
X851852Y1158298D01*
X852875Y1155826D01*
X854504Y1153704D01*
X856626Y1152075D01*
X859098Y1151051D01*
X861750Y1150702D01*
X864402Y1151051D01*
X866874Y1152075D01*
X868996Y1153704D01*
X870625Y1155826D01*
X871648Y1158298D01*
X871998Y1160950D01*
X871648Y1163602D01*
X870625Y1166074D01*
X868996Y1168196D01*
X866874Y1169825D01*
X864402Y1170848D01*
X861750Y1171198D01*
D02*
G37*
G36*
X1457698Y1170681D02*
X1422146D01*
Y1145286D01*
X1457698D01*
Y1170681D01*
D02*
G37*
G36*
X1024660Y1202660D02*
X1004340D01*
Y1182340D01*
X1024660D01*
Y1202660D01*
D02*
G37*
G36*
X1039900Y1202748D02*
X1037248Y1202399D01*
X1034776Y1201375D01*
X1032654Y1199746D01*
X1031025Y1197624D01*
X1030002Y1195152D01*
X1029652Y1192500D01*
X1030002Y1189848D01*
X1031025Y1187376D01*
X1032654Y1185254D01*
X1034776Y1183625D01*
X1037248Y1182601D01*
X1039900Y1182252D01*
X1042552Y1182601D01*
X1045024Y1183625D01*
X1047146Y1185254D01*
X1048775Y1187376D01*
X1049799Y1189848D01*
X1050148Y1192500D01*
X1049799Y1195152D01*
X1048775Y1197624D01*
X1047146Y1199746D01*
X1045024Y1201375D01*
X1042552Y1202399D01*
X1039900Y1202748D01*
D02*
G37*
G36*
X1535197Y1197730D02*
X1528020D01*
Y1190554D01*
X1528979Y1190680D01*
X1531057Y1191540D01*
X1532841Y1192909D01*
X1534210Y1194693D01*
X1535070Y1196771D01*
X1535197Y1197730D01*
D02*
G37*
G36*
X1525480D02*
X1518304D01*
X1518430Y1196771D01*
X1519290Y1194693D01*
X1520659Y1192909D01*
X1522443Y1191540D01*
X1524521Y1190680D01*
X1525480Y1190554D01*
Y1197730D01*
D02*
G37*
G36*
X1396770Y1188196D02*
Y1181020D01*
X1403947D01*
X1403820Y1181979D01*
X1402960Y1184057D01*
X1401591Y1185841D01*
X1399807Y1187210D01*
X1397729Y1188070D01*
X1396770Y1188196D01*
D02*
G37*
G36*
X998472Y1204565D02*
X962920D01*
Y1179170D01*
X998472D01*
Y1204565D01*
D02*
G37*
G36*
X1177590Y1210033D02*
X1063210D01*
Y1178960D01*
X1177590D01*
Y1210033D01*
D02*
G37*
G36*
X1394230Y1188196D02*
X1393271Y1188070D01*
X1391193Y1187210D01*
X1389409Y1185841D01*
X1388040Y1184057D01*
X1387180Y1181979D01*
X1387054Y1181020D01*
X1394230D01*
Y1188196D01*
D02*
G37*
G36*
X819000Y1197864D02*
X816771Y1197570D01*
X814693Y1196710D01*
X812909Y1195341D01*
X811540Y1193557D01*
X810680Y1191479D01*
X810386Y1189250D01*
X810680Y1187021D01*
X811540Y1184943D01*
X812909Y1183159D01*
X814693Y1181790D01*
X816771Y1180930D01*
X819000Y1180636D01*
X821229Y1180930D01*
X823307Y1181790D01*
X825091Y1183159D01*
X826460Y1184943D01*
X827320Y1187021D01*
X827614Y1189250D01*
X827320Y1191479D01*
X826460Y1193557D01*
X825091Y1195341D01*
X823307Y1196710D01*
X821229Y1197570D01*
X819000Y1197864D01*
D02*
G37*
G36*
X912550Y1094998D02*
X909898Y1094649D01*
X907426Y1093625D01*
X905304Y1091996D01*
X903675Y1089874D01*
X902652Y1087402D01*
X902302Y1084750D01*
X902652Y1082098D01*
X903675Y1079626D01*
X905304Y1077504D01*
X907426Y1075875D01*
X909898Y1074852D01*
X912550Y1074502D01*
X915202Y1074852D01*
X917674Y1075875D01*
X919796Y1077504D01*
X921425Y1079626D01*
X922449Y1082098D01*
X922798Y1084750D01*
X922449Y1087402D01*
X921425Y1089874D01*
X919796Y1091996D01*
X917674Y1093625D01*
X915202Y1094649D01*
X912550Y1094998D01*
D02*
G37*
G36*
X1359250Y1099814D02*
X1346250D01*
X1344021Y1099520D01*
X1341943Y1098660D01*
X1340159Y1097291D01*
X1338790Y1095507D01*
X1337930Y1093429D01*
X1337636Y1091200D01*
X1337930Y1088971D01*
X1338790Y1086893D01*
X1340159Y1085109D01*
X1341943Y1083740D01*
X1344021Y1082880D01*
X1346250Y1082586D01*
X1359250D01*
X1361479Y1082880D01*
X1363557Y1083740D01*
X1365341Y1085109D01*
X1366710Y1086893D01*
X1367570Y1088971D01*
X1367864Y1091200D01*
X1367570Y1093429D01*
X1366710Y1095507D01*
X1365341Y1097291D01*
X1363557Y1098660D01*
X1361479Y1099520D01*
X1359250Y1099814D01*
D02*
G37*
G36*
X1395000Y1098114D02*
X1392771Y1097820D01*
X1390693Y1096960D01*
X1388909Y1095591D01*
X1387540Y1093807D01*
X1386680Y1091729D01*
X1386386Y1089500D01*
X1386680Y1087271D01*
X1387540Y1085193D01*
X1388909Y1083409D01*
X1390693Y1082040D01*
X1392771Y1081180D01*
X1395000Y1080886D01*
X1397229Y1081180D01*
X1399307Y1082040D01*
X1401091Y1083409D01*
X1402460Y1085193D01*
X1403320Y1087271D01*
X1403614Y1089500D01*
X1403320Y1091729D01*
X1402460Y1093807D01*
X1401091Y1095591D01*
X1399307Y1096960D01*
X1397229Y1097820D01*
X1395000Y1098114D01*
D02*
G37*
G36*
X1450750Y1087064D02*
X1448521Y1086770D01*
X1446443Y1085910D01*
X1444659Y1084541D01*
X1443290Y1082757D01*
X1442430Y1080679D01*
X1442136Y1078450D01*
X1442430Y1076221D01*
X1443290Y1074143D01*
X1444659Y1072359D01*
X1446443Y1070990D01*
X1448521Y1070130D01*
X1450750Y1069836D01*
X1452979Y1070130D01*
X1455057Y1070990D01*
X1456841Y1072359D01*
X1458210Y1074143D01*
X1459070Y1076221D01*
X1459364Y1078450D01*
X1459070Y1080679D01*
X1458210Y1082757D01*
X1456841Y1084541D01*
X1455057Y1085910D01*
X1452979Y1086770D01*
X1450750Y1087064D01*
D02*
G37*
G36*
X861750Y1094998D02*
X859098Y1094649D01*
X856626Y1093625D01*
X854504Y1091996D01*
X852875Y1089874D01*
X851852Y1087402D01*
X851502Y1084750D01*
X851852Y1082098D01*
X852875Y1079626D01*
X854249Y1077835D01*
X853783Y1076565D01*
X842170D01*
Y1051170D01*
X877722D01*
Y1076565D01*
X869717D01*
X869250Y1077835D01*
X870625Y1079626D01*
X871648Y1082098D01*
X871998Y1084750D01*
X871648Y1087402D01*
X870625Y1089874D01*
X868996Y1091996D01*
X866874Y1093625D01*
X864402Y1094649D01*
X861750Y1094998D01*
D02*
G37*
G36*
X1472602Y1210000D02*
X1349398D01*
X1344491Y1209024D01*
X1339869Y1207109D01*
X1335708Y1204330D01*
X1332171Y1200792D01*
X1329391Y1196631D01*
X1327476Y1192009D01*
X1326500Y1187102D01*
Y1181315D01*
X1293670D01*
Y1155920D01*
X1326500D01*
Y1130750D01*
X1339250D01*
Y1135137D01*
X1340520Y1135632D01*
X1341943Y1134540D01*
X1344021Y1133680D01*
X1346250Y1133386D01*
X1351480D01*
Y1142000D01*
Y1150614D01*
X1346250D01*
X1344021Y1150320D01*
X1341943Y1149460D01*
X1340520Y1148368D01*
X1339250Y1148863D01*
Y1179449D01*
X1339978Y1181253D01*
X1341837Y1184667D01*
X1344194Y1187757D01*
X1346996Y1190451D01*
X1350176Y1192686D01*
X1353659Y1194410D01*
X1357365Y1195583D01*
X1361207Y1196176D01*
X1363150Y1196250D01*
X1363150Y1196250D01*
X1457100D01*
X1459590Y1196128D01*
X1464473Y1195156D01*
X1469073Y1193251D01*
X1473214Y1190484D01*
X1476734Y1186964D01*
X1479501Y1182823D01*
X1481406Y1178223D01*
X1482378Y1173340D01*
X1482500Y1170850D01*
Y1038900D01*
X1482378Y1036410D01*
X1481406Y1031527D01*
X1479501Y1026926D01*
X1476734Y1022786D01*
X1473214Y1019266D01*
X1469073Y1016499D01*
X1464473Y1014594D01*
X1459590Y1013622D01*
X1457100Y1013500D01*
X1368629D01*
X1367792Y1014455D01*
X1367864Y1015000D01*
X1367570Y1017229D01*
X1366710Y1019307D01*
X1365341Y1021091D01*
X1363557Y1022460D01*
X1361479Y1023320D01*
X1359250Y1023614D01*
X1346250D01*
X1344607Y1023397D01*
X1342249Y1026926D01*
X1340344Y1031527D01*
X1340100Y1032754D01*
X1341252Y1033471D01*
X1341943Y1032940D01*
X1344021Y1032080D01*
X1346250Y1031786D01*
X1359250D01*
X1361479Y1032080D01*
X1363557Y1032940D01*
X1365341Y1034309D01*
X1366710Y1036093D01*
X1367570Y1038171D01*
X1367864Y1040400D01*
X1367570Y1042629D01*
X1366710Y1044707D01*
X1365341Y1046491D01*
X1363557Y1047860D01*
X1361479Y1048720D01*
X1359250Y1049014D01*
X1346250D01*
X1344021Y1048720D01*
X1341943Y1047860D01*
X1340520Y1046768D01*
X1339250Y1047263D01*
Y1058937D01*
X1340520Y1059432D01*
X1341943Y1058340D01*
X1344021Y1057480D01*
X1346250Y1057186D01*
X1359250D01*
X1361479Y1057480D01*
X1363557Y1058340D01*
X1365341Y1059709D01*
X1366710Y1061493D01*
X1367570Y1063571D01*
X1367864Y1065800D01*
X1367570Y1068029D01*
X1366710Y1070107D01*
X1365341Y1071891D01*
X1363557Y1073260D01*
X1361479Y1074120D01*
X1359250Y1074414D01*
X1346250D01*
X1344021Y1074120D01*
X1341943Y1073260D01*
X1340467Y1072127D01*
X1339250Y1072000D01*
X1339250Y1072000D01*
X1339250Y1072000D01*
X1326500D01*
Y1024900D01*
Y1022398D01*
X1327476Y1017491D01*
X1329391Y1012869D01*
X1332171Y1008708D01*
X1335708Y1005171D01*
X1339869Y1002391D01*
X1344491Y1000476D01*
X1349398Y999500D01*
X1387556D01*
X1388760Y999340D01*
X1388760Y998230D01*
Y982260D01*
X1418840D01*
X1418840Y999340D01*
X1420044Y999500D01*
X1468869D01*
X1469168Y998356D01*
X1469155Y998230D01*
X1467409Y996891D01*
X1466040Y995107D01*
X1465180Y993029D01*
X1464886Y990800D01*
X1465180Y988571D01*
X1466040Y986493D01*
X1467409Y984709D01*
X1469193Y983340D01*
X1471271Y982480D01*
X1473500Y982186D01*
X1486500D01*
X1488729Y982480D01*
X1490807Y983340D01*
X1492591Y984709D01*
X1493960Y986493D01*
X1494820Y988571D01*
X1495114Y990800D01*
X1494820Y993029D01*
X1493960Y995107D01*
X1492591Y996891D01*
X1490807Y998260D01*
X1488729Y999120D01*
X1486500Y999414D01*
X1478263D01*
X1478010Y1000684D01*
X1482131Y1002391D01*
X1486292Y1005171D01*
X1489830Y1008708D01*
X1492609Y1012869D01*
X1494524Y1017491D01*
X1495500Y1022398D01*
Y1024900D01*
Y1184600D01*
Y1187102D01*
X1494524Y1192009D01*
X1492609Y1196631D01*
X1489830Y1200792D01*
X1486292Y1204330D01*
X1482131Y1207109D01*
X1477509Y1209024D01*
X1472602Y1210000D01*
D02*
G37*
G36*
X1283050Y1074414D02*
X1270050D01*
X1267821Y1074120D01*
X1265743Y1073260D01*
X1263959Y1071891D01*
X1262590Y1070107D01*
X1261730Y1068029D01*
X1261436Y1065800D01*
X1261730Y1063571D01*
X1262590Y1061493D01*
X1263959Y1059709D01*
X1265743Y1058340D01*
X1267821Y1057480D01*
X1270050Y1057186D01*
X1283050D01*
X1285279Y1057480D01*
X1287357Y1058340D01*
X1289141Y1059709D01*
X1290510Y1061493D01*
X1291370Y1063571D01*
X1291664Y1065800D01*
X1291370Y1068029D01*
X1290510Y1070107D01*
X1289141Y1071891D01*
X1287357Y1073260D01*
X1285279Y1074120D01*
X1283050Y1074414D01*
D02*
G37*
G36*
X786080Y1128972D02*
X760685D01*
Y1093420D01*
X786080D01*
Y1128972D01*
D02*
G37*
G36*
X1101500Y1143114D02*
X1099271Y1142820D01*
X1097193Y1141960D01*
X1095409Y1140591D01*
X1094040Y1138807D01*
X1093180Y1136729D01*
X1092886Y1134500D01*
X1093180Y1132271D01*
X1094040Y1130193D01*
X1095409Y1128409D01*
X1097193Y1127040D01*
X1099271Y1126180D01*
X1101500Y1125886D01*
X1103729Y1126180D01*
X1105807Y1127040D01*
X1107591Y1128409D01*
X1108960Y1130193D01*
X1109820Y1132271D01*
X1110114Y1134500D01*
X1109820Y1136729D01*
X1108960Y1138807D01*
X1107591Y1140591D01*
X1105807Y1141960D01*
X1103729Y1142820D01*
X1101500Y1143114D01*
D02*
G37*
G36*
X949500D02*
X947271Y1142820D01*
X945193Y1141960D01*
X943409Y1140591D01*
X942040Y1138807D01*
X941180Y1136729D01*
X940886Y1134500D01*
X941180Y1132271D01*
X942040Y1130193D01*
X943409Y1128409D01*
X945193Y1127040D01*
X947271Y1126180D01*
X949500Y1125886D01*
X951729Y1126180D01*
X953807Y1127040D01*
X955591Y1128409D01*
X956960Y1130193D01*
X957820Y1132271D01*
X958114Y1134500D01*
X957820Y1136729D01*
X956960Y1138807D01*
X955591Y1140591D01*
X953807Y1141960D01*
X951729Y1142820D01*
X949500Y1143114D01*
D02*
G37*
G36*
X1283050Y1150614D02*
X1270050D01*
X1267821Y1150320D01*
X1265743Y1149460D01*
X1263959Y1148091D01*
X1262590Y1146307D01*
X1261730Y1144229D01*
X1261436Y1142000D01*
X1261730Y1139771D01*
X1262590Y1137693D01*
X1263959Y1135909D01*
X1265743Y1134540D01*
X1267821Y1133680D01*
X1270050Y1133386D01*
X1283050D01*
X1285279Y1133680D01*
X1287357Y1134540D01*
X1289141Y1135909D01*
X1290510Y1137693D01*
X1291370Y1139771D01*
X1291664Y1142000D01*
X1291370Y1144229D01*
X1290510Y1146307D01*
X1289141Y1148091D01*
X1287357Y1149460D01*
X1285279Y1150320D01*
X1283050Y1150614D01*
D02*
G37*
G36*
X1038143Y1153565D02*
X1007670D01*
Y1128170D01*
X1038143D01*
Y1153565D01*
D02*
G37*
G36*
X1450750Y1137864D02*
X1448521Y1137570D01*
X1446443Y1136710D01*
X1444659Y1135341D01*
X1443290Y1133557D01*
X1442430Y1131479D01*
X1442136Y1129250D01*
X1442430Y1127021D01*
X1443290Y1124943D01*
X1444659Y1123159D01*
X1446443Y1121790D01*
X1448521Y1120930D01*
X1450750Y1120636D01*
X1452979Y1120930D01*
X1455057Y1121790D01*
X1456841Y1123159D01*
X1458210Y1124943D01*
X1459070Y1127021D01*
X1459364Y1129250D01*
X1459070Y1131479D01*
X1458210Y1133557D01*
X1456841Y1135341D01*
X1455057Y1136710D01*
X1452979Y1137570D01*
X1450750Y1137864D01*
D02*
G37*
G36*
X1359250Y1125214D02*
X1346250D01*
X1344021Y1124920D01*
X1341943Y1124060D01*
X1340159Y1122691D01*
X1338790Y1120907D01*
X1337930Y1118829D01*
X1337636Y1116600D01*
X1337930Y1114371D01*
X1338790Y1112293D01*
X1340159Y1110509D01*
X1341943Y1109140D01*
X1344021Y1108280D01*
X1346250Y1107986D01*
X1359250D01*
X1361479Y1108280D01*
X1363557Y1109140D01*
X1365341Y1110509D01*
X1366710Y1112293D01*
X1367570Y1114371D01*
X1367864Y1116600D01*
X1367570Y1118829D01*
X1366710Y1120907D01*
X1365341Y1122691D01*
X1363557Y1124060D01*
X1361479Y1124920D01*
X1359250Y1125214D01*
D02*
G37*
G36*
X1395500Y1124864D02*
X1393271Y1124570D01*
X1391193Y1123710D01*
X1389409Y1122341D01*
X1388040Y1120557D01*
X1387180Y1118479D01*
X1386886Y1116250D01*
X1387180Y1114021D01*
X1388040Y1111943D01*
X1389409Y1110159D01*
X1391193Y1108790D01*
X1393271Y1107930D01*
X1395500Y1107636D01*
X1397729Y1107930D01*
X1399807Y1108790D01*
X1401591Y1110159D01*
X1402960Y1111943D01*
X1403820Y1114021D01*
X1404114Y1116250D01*
X1403820Y1118479D01*
X1402960Y1120557D01*
X1401591Y1122341D01*
X1399807Y1123710D01*
X1397729Y1124570D01*
X1395500Y1124864D01*
D02*
G37*
G36*
X1169714Y984230D02*
X1162370D01*
Y970554D01*
X1163329Y970680D01*
X1165407Y971540D01*
X1167191Y972909D01*
X1168560Y974693D01*
X1169420Y976771D01*
X1169714Y979000D01*
Y984230D01*
D02*
G37*
G36*
X1381930Y866930D02*
X1368253D01*
X1368380Y865971D01*
X1369240Y863893D01*
X1370609Y862109D01*
X1372393Y860740D01*
X1374471Y859880D01*
X1376700Y859586D01*
X1381930D01*
Y866930D01*
D02*
G37*
G36*
Y876814D02*
X1376700D01*
X1374471Y876520D01*
X1372393Y875660D01*
X1370609Y874291D01*
X1369240Y872507D01*
X1368380Y870429D01*
X1368253Y869470D01*
X1381930D01*
Y876814D01*
D02*
G37*
G36*
X1398147Y866930D02*
X1384470D01*
Y859586D01*
X1389700D01*
X1391929Y859880D01*
X1394007Y860740D01*
X1395791Y862109D01*
X1397160Y863893D01*
X1398020Y865971D01*
X1398147Y866930D01*
D02*
G37*
G36*
X1444480Y843730D02*
X1437303D01*
X1437430Y842771D01*
X1438290Y840693D01*
X1439659Y838909D01*
X1441443Y837540D01*
X1443521Y836680D01*
X1444480Y836553D01*
Y843730D01*
D02*
G37*
G36*
X1499730Y842980D02*
X1492554D01*
X1492680Y842021D01*
X1493540Y839943D01*
X1494909Y838159D01*
X1496693Y836790D01*
X1498771Y835930D01*
X1499730Y835804D01*
Y842980D01*
D02*
G37*
G36*
X1444480Y853447D02*
X1443521Y853320D01*
X1441443Y852460D01*
X1439659Y851091D01*
X1438290Y849307D01*
X1437430Y847229D01*
X1437303Y846270D01*
X1444480D01*
Y853447D01*
D02*
G37*
G36*
X1499730Y852697D02*
X1498771Y852570D01*
X1496693Y851710D01*
X1494909Y850341D01*
X1493540Y848557D01*
X1492680Y846479D01*
X1492554Y845520D01*
X1499730D01*
Y852697D01*
D02*
G37*
G36*
X1389700Y876814D02*
X1384470D01*
Y869470D01*
X1398147D01*
X1398020Y870429D01*
X1397160Y872507D01*
X1395791Y874291D01*
X1394007Y875660D01*
X1391929Y876520D01*
X1389700Y876814D01*
D02*
G37*
G36*
X1501500Y765364D02*
X1499271Y765070D01*
X1497193Y764210D01*
X1495409Y762841D01*
X1494040Y761057D01*
X1493180Y758979D01*
X1492886Y756750D01*
X1493180Y754521D01*
X1494040Y752443D01*
X1495409Y750659D01*
X1497193Y749290D01*
X1499271Y748430D01*
X1501500Y748136D01*
X1503729Y748430D01*
X1505807Y749290D01*
X1507591Y750659D01*
X1508960Y752443D01*
X1509820Y754521D01*
X1510114Y756750D01*
X1509820Y758979D01*
X1508960Y761057D01*
X1507591Y762841D01*
X1505807Y764210D01*
X1503729Y765070D01*
X1501500Y765364D01*
D02*
G37*
G36*
X1445750Y790114D02*
X1443521Y789820D01*
X1441443Y788960D01*
X1439659Y787591D01*
X1438290Y785807D01*
X1437430Y783729D01*
X1437136Y781500D01*
X1437430Y779271D01*
X1438290Y777193D01*
X1439659Y775409D01*
X1441443Y774040D01*
X1443521Y773180D01*
X1445750Y772886D01*
X1447979Y773180D01*
X1450057Y774040D01*
X1451841Y775409D01*
X1453210Y777193D01*
X1454070Y779271D01*
X1454364Y781500D01*
X1454070Y783729D01*
X1453210Y785807D01*
X1451841Y787591D01*
X1450057Y788960D01*
X1447979Y789820D01*
X1445750Y790114D01*
D02*
G37*
G36*
X1501000Y789364D02*
X1498771Y789070D01*
X1496693Y788210D01*
X1494909Y786841D01*
X1493540Y785057D01*
X1492680Y782979D01*
X1492386Y780750D01*
X1492680Y778521D01*
X1493540Y776443D01*
X1494909Y774659D01*
X1496693Y773290D01*
X1498771Y772430D01*
X1501000Y772136D01*
X1503229Y772430D01*
X1505307Y773290D01*
X1507091Y774659D01*
X1508460Y776443D01*
X1509320Y778521D01*
X1509614Y780750D01*
X1509320Y782979D01*
X1508460Y785057D01*
X1507091Y786841D01*
X1505307Y788210D01*
X1503229Y789070D01*
X1501000Y789364D01*
D02*
G37*
G36*
X1445250Y764614D02*
X1443021Y764320D01*
X1440943Y763460D01*
X1439159Y762091D01*
X1437790Y760307D01*
X1436930Y758229D01*
X1436636Y756000D01*
X1436930Y753771D01*
X1437790Y751693D01*
X1439159Y749909D01*
X1440943Y748540D01*
X1443021Y747680D01*
X1445250Y747386D01*
X1447479Y747680D01*
X1449557Y748540D01*
X1451341Y749909D01*
X1452710Y751693D01*
X1453570Y753771D01*
X1453864Y756000D01*
X1453570Y758229D01*
X1452710Y760307D01*
X1451341Y762091D01*
X1449557Y763460D01*
X1447479Y764320D01*
X1445250Y764614D01*
D02*
G37*
G36*
X1588815Y762330D02*
X1563420D01*
Y726778D01*
X1588815D01*
Y762330D01*
D02*
G37*
G36*
X1389700Y749814D02*
X1376700D01*
X1374471Y749520D01*
X1372393Y748660D01*
X1370609Y747291D01*
X1369240Y745507D01*
X1368380Y743429D01*
X1368086Y741200D01*
X1368380Y738971D01*
X1369240Y736893D01*
X1370609Y735109D01*
X1372393Y733740D01*
X1374471Y732880D01*
X1376700Y732586D01*
X1389700D01*
X1391929Y732880D01*
X1394007Y733740D01*
X1395791Y735109D01*
X1397160Y736893D01*
X1398020Y738971D01*
X1398314Y741200D01*
X1398020Y743429D01*
X1397160Y745507D01*
X1395791Y747291D01*
X1394007Y748660D01*
X1391929Y749520D01*
X1389700Y749814D01*
D02*
G37*
G36*
Y851414D02*
X1376700D01*
X1374471Y851120D01*
X1372393Y850260D01*
X1370609Y848891D01*
X1369240Y847107D01*
X1368380Y845029D01*
X1368086Y842800D01*
X1368380Y840571D01*
X1369240Y838493D01*
X1370609Y836709D01*
X1372393Y835340D01*
X1374471Y834480D01*
X1376700Y834186D01*
X1389700D01*
X1391929Y834480D01*
X1394007Y835340D01*
X1395791Y836709D01*
X1397160Y838493D01*
X1398020Y840571D01*
X1398314Y842800D01*
X1398020Y845029D01*
X1397160Y847107D01*
X1395791Y848891D01*
X1394007Y850260D01*
X1391929Y851120D01*
X1389700Y851414D01*
D02*
G37*
G36*
X1447020Y853447D02*
Y845000D01*
Y836553D01*
X1447979Y836680D01*
X1450057Y837540D01*
X1451841Y838909D01*
X1452650Y839964D01*
X1453920Y839533D01*
Y824920D01*
X1489472D01*
Y850315D01*
X1453920D01*
Y850315D01*
X1452650Y850036D01*
X1451841Y851091D01*
X1450057Y852460D01*
X1447979Y853320D01*
X1447020Y853447D01*
D02*
G37*
G36*
X1389700Y800614D02*
X1384470D01*
Y793270D01*
X1398147D01*
X1398020Y794229D01*
X1397160Y796307D01*
X1395791Y798091D01*
X1394007Y799460D01*
X1391929Y800320D01*
X1389700Y800614D01*
D02*
G37*
G36*
X1381930D02*
X1376700D01*
X1374471Y800320D01*
X1372393Y799460D01*
X1370609Y798091D01*
X1369240Y796307D01*
X1368380Y794229D01*
X1368253Y793270D01*
X1381930D01*
Y800614D01*
D02*
G37*
G36*
X1486500Y974014D02*
X1473500D01*
X1471271Y973720D01*
X1469193Y972860D01*
X1467409Y971491D01*
X1466040Y969707D01*
X1465180Y967629D01*
X1464886Y965400D01*
X1465180Y963171D01*
X1466040Y961093D01*
X1467409Y959309D01*
X1469193Y957940D01*
X1471271Y957080D01*
X1473500Y956786D01*
X1486500D01*
X1488729Y957080D01*
X1490807Y957940D01*
X1492591Y959309D01*
X1493960Y961093D01*
X1494820Y963171D01*
X1495114Y965400D01*
X1494820Y967629D01*
X1493960Y969707D01*
X1492591Y971491D01*
X1490807Y972860D01*
X1488729Y973720D01*
X1486500Y974014D01*
D02*
G37*
G36*
X1418746Y964130D02*
X1405070D01*
Y956786D01*
X1410300D01*
X1412529Y957080D01*
X1414607Y957940D01*
X1416391Y959309D01*
X1417760Y961093D01*
X1418620Y963171D01*
X1418746Y964130D01*
D02*
G37*
G36*
X943830Y998722D02*
X918435D01*
Y963170D01*
X943830D01*
Y998722D01*
D02*
G37*
G36*
X1521500Y981390D02*
X1518488Y980993D01*
X1515680Y979830D01*
X1513270Y977980D01*
X1511420Y975570D01*
X1510257Y972763D01*
X1509861Y969750D01*
X1510257Y966738D01*
X1511420Y963930D01*
X1513270Y961520D01*
X1515680Y959670D01*
X1518488Y958507D01*
X1521500Y958111D01*
X1524512Y958507D01*
X1527320Y959670D01*
X1529730Y961520D01*
X1531580Y963930D01*
X1532743Y966738D01*
X1533140Y969750D01*
X1532743Y972763D01*
X1531580Y975570D01*
X1529730Y977980D01*
X1527320Y979830D01*
X1524512Y980993D01*
X1521500Y981390D01*
D02*
G37*
G36*
X1402530Y964130D02*
X1388853D01*
X1388980Y963171D01*
X1389840Y961093D01*
X1391209Y959309D01*
X1392993Y957940D01*
X1395071Y957080D01*
X1397300Y956786D01*
X1402530D01*
Y964130D01*
D02*
G37*
G36*
X1359250Y972814D02*
X1346250D01*
X1344021Y972520D01*
X1341943Y971660D01*
X1340159Y970291D01*
X1338790Y968507D01*
X1337930Y966429D01*
X1337636Y964200D01*
X1337930Y961971D01*
X1338790Y959893D01*
X1340159Y958109D01*
X1341943Y956740D01*
X1344021Y955880D01*
X1346250Y955586D01*
X1359250D01*
X1361479Y955880D01*
X1363557Y956740D01*
X1365341Y958109D01*
X1366710Y959893D01*
X1367570Y961971D01*
X1367864Y964200D01*
X1367570Y966429D01*
X1366710Y968507D01*
X1365341Y970291D01*
X1363557Y971660D01*
X1361479Y972520D01*
X1359250Y972814D01*
D02*
G37*
G36*
X1283050D02*
X1270050D01*
X1267821Y972520D01*
X1265743Y971660D01*
X1263959Y970291D01*
X1262590Y968507D01*
X1261730Y966429D01*
X1261436Y964200D01*
X1261730Y961971D01*
X1262590Y959893D01*
X1263959Y958109D01*
X1265743Y956740D01*
X1267821Y955880D01*
X1270050Y955586D01*
X1283050D01*
X1285279Y955880D01*
X1287357Y956740D01*
X1289141Y958109D01*
X1290510Y959893D01*
X1291370Y961971D01*
X1291664Y964200D01*
X1291370Y966429D01*
X1290510Y968507D01*
X1289141Y970291D01*
X1287357Y971660D01*
X1285279Y972520D01*
X1283050Y972814D01*
D02*
G37*
G36*
X1402530Y974014D02*
X1397300D01*
X1395071Y973720D01*
X1392993Y972860D01*
X1391209Y971491D01*
X1389840Y969707D01*
X1388980Y967629D01*
X1388853Y966670D01*
X1402530D01*
Y974014D01*
D02*
G37*
G36*
X1186500Y1000614D02*
X1184271Y1000320D01*
X1182193Y999460D01*
X1180409Y998091D01*
X1179040Y996307D01*
X1178180Y994229D01*
X1177886Y992000D01*
Y979000D01*
X1178180Y976771D01*
X1179040Y974693D01*
X1180409Y972909D01*
X1182193Y971540D01*
X1184271Y970680D01*
X1186500Y970386D01*
X1188729Y970680D01*
X1190807Y971540D01*
X1192591Y972909D01*
X1193960Y974693D01*
X1194820Y976771D01*
X1195114Y979000D01*
Y992000D01*
X1194820Y994229D01*
X1193960Y996307D01*
X1192591Y998091D01*
X1190807Y999460D01*
X1188729Y1000320D01*
X1186500Y1000614D01*
D02*
G37*
G36*
X1135700D02*
X1133471Y1000320D01*
X1131393Y999460D01*
X1129609Y998091D01*
X1128240Y996307D01*
X1127380Y994229D01*
X1127086Y992000D01*
Y979000D01*
X1127380Y976771D01*
X1128240Y974693D01*
X1129609Y972909D01*
X1131393Y971540D01*
X1133471Y970680D01*
X1135700Y970386D01*
X1137929Y970680D01*
X1140007Y971540D01*
X1141791Y972909D01*
X1143160Y974693D01*
X1144020Y976771D01*
X1144314Y979000D01*
Y992000D01*
X1144020Y994229D01*
X1143160Y996307D01*
X1141791Y998091D01*
X1140007Y999460D01*
X1137929Y1000320D01*
X1135700Y1000614D01*
D02*
G37*
G36*
X1159830Y984230D02*
X1152486D01*
Y979000D01*
X1152780Y976771D01*
X1153640Y974693D01*
X1155009Y972909D01*
X1156793Y971540D01*
X1158871Y970680D01*
X1159830Y970554D01*
Y984230D01*
D02*
G37*
G36*
X966440Y1000540D02*
X949360D01*
Y970460D01*
X966440D01*
Y1000540D01*
D02*
G37*
G36*
X1059500Y1000614D02*
X1057271Y1000320D01*
X1055193Y999460D01*
X1053409Y998091D01*
X1052040Y996307D01*
X1051180Y994229D01*
X1050886Y992000D01*
Y979000D01*
X1051180Y976771D01*
X1052040Y974693D01*
X1053409Y972909D01*
X1055193Y971540D01*
X1057271Y970680D01*
X1059500Y970386D01*
X1061729Y970680D01*
X1063807Y971540D01*
X1065591Y972909D01*
X1066960Y974693D01*
X1067820Y976771D01*
X1068114Y979000D01*
Y992000D01*
X1067820Y994229D01*
X1066960Y996307D01*
X1065591Y998091D01*
X1063807Y999460D01*
X1061729Y1000320D01*
X1059500Y1000614D01*
D02*
G37*
G36*
X983300D02*
X981071Y1000320D01*
X978993Y999460D01*
X977209Y998091D01*
X975840Y996307D01*
X974980Y994229D01*
X974686Y992000D01*
Y979000D01*
X974980Y976771D01*
X975840Y974693D01*
X977209Y972909D01*
X978993Y971540D01*
X981071Y970680D01*
X983300Y970386D01*
X985529Y970680D01*
X987607Y971540D01*
X989391Y972909D01*
X990760Y974693D01*
X991620Y976771D01*
X991914Y979000D01*
Y992000D01*
X991620Y994229D01*
X990760Y996307D01*
X989391Y998091D01*
X987607Y999460D01*
X985529Y1000320D01*
X983300Y1000614D01*
D02*
G37*
G36*
X1410300Y974014D02*
X1405070D01*
Y966670D01*
X1418746D01*
X1418620Y967629D01*
X1417760Y969707D01*
X1416391Y971491D01*
X1414607Y972860D01*
X1412529Y973720D01*
X1410300Y974014D01*
D02*
G37*
G36*
X1034100Y1000614D02*
X1031871Y1000320D01*
X1029793Y999460D01*
X1028009Y998091D01*
X1026640Y996307D01*
X1025780Y994229D01*
X1025486Y992000D01*
Y979000D01*
X1025780Y976771D01*
X1026640Y974693D01*
X1028009Y972909D01*
X1029793Y971540D01*
X1031871Y970680D01*
X1034100Y970386D01*
X1036329Y970680D01*
X1038407Y971540D01*
X1040191Y972909D01*
X1041560Y974693D01*
X1042420Y976771D01*
X1042714Y979000D01*
Y992000D01*
X1042420Y994229D01*
X1041560Y996307D01*
X1040191Y998091D01*
X1038407Y999460D01*
X1036329Y1000320D01*
X1034100Y1000614D01*
D02*
G37*
G36*
X1008700D02*
X1006471Y1000320D01*
X1004393Y999460D01*
X1002609Y998091D01*
X1001240Y996307D01*
X1000380Y994229D01*
X1000086Y992000D01*
Y979000D01*
X1000380Y976771D01*
X1001240Y974693D01*
X1002609Y972909D01*
X1004393Y971540D01*
X1006471Y970680D01*
X1008700Y970386D01*
X1010929Y970680D01*
X1013007Y971540D01*
X1014791Y972909D01*
X1016160Y974693D01*
X1017020Y976771D01*
X1017314Y979000D01*
Y992000D01*
X1017020Y994229D01*
X1016160Y996307D01*
X1014791Y998091D01*
X1013007Y999460D01*
X1010929Y1000320D01*
X1008700Y1000614D01*
D02*
G37*
G36*
X1410300Y923214D02*
X1397300D01*
X1395071Y922920D01*
X1392993Y922060D01*
X1391209Y920691D01*
X1389840Y918907D01*
X1388980Y916829D01*
X1388686Y914600D01*
X1388980Y912371D01*
X1389840Y910293D01*
X1391209Y908509D01*
X1392993Y907140D01*
X1395071Y906280D01*
X1397300Y905986D01*
X1410300D01*
X1412529Y906280D01*
X1414607Y907140D01*
X1416391Y908509D01*
X1417760Y910293D01*
X1418620Y912371D01*
X1418914Y914600D01*
X1418620Y916829D01*
X1417760Y918907D01*
X1416391Y920691D01*
X1414607Y922060D01*
X1412529Y922920D01*
X1410300Y923214D01*
D02*
G37*
G36*
X1521500Y945389D02*
X1518488Y944993D01*
X1515680Y943830D01*
X1513270Y941980D01*
X1511420Y939570D01*
X1510257Y936762D01*
X1509861Y933750D01*
X1510257Y930738D01*
X1511420Y927930D01*
X1513270Y925520D01*
X1515680Y923670D01*
X1518488Y922507D01*
X1521500Y922110D01*
X1524512Y922507D01*
X1527320Y923670D01*
X1529730Y925520D01*
X1531580Y927930D01*
X1532743Y930738D01*
X1533140Y933750D01*
X1532743Y936762D01*
X1531580Y939570D01*
X1529730Y941980D01*
X1527320Y943830D01*
X1524512Y944993D01*
X1521500Y945389D01*
D02*
G37*
G36*
X1486500Y923214D02*
X1473500D01*
X1471271Y922920D01*
X1469193Y922060D01*
X1467409Y920691D01*
X1466040Y918907D01*
X1465180Y916829D01*
X1464886Y914600D01*
X1465180Y912371D01*
X1466040Y910293D01*
X1467409Y908509D01*
X1469193Y907140D01*
X1471271Y906280D01*
X1473500Y905986D01*
X1486500D01*
X1488729Y906280D01*
X1490807Y907140D01*
X1492591Y908509D01*
X1493960Y910293D01*
X1494820Y912371D01*
X1495114Y914600D01*
X1494820Y916829D01*
X1493960Y918907D01*
X1492591Y920691D01*
X1490807Y922060D01*
X1488729Y922920D01*
X1486500Y923214D01*
D02*
G37*
G36*
X1367790Y947340D02*
X1337710D01*
Y930260D01*
X1367790D01*
Y947340D01*
D02*
G37*
G36*
X1486500Y948614D02*
X1473500D01*
X1471271Y948320D01*
X1469193Y947460D01*
X1467409Y946091D01*
X1466040Y944307D01*
X1465180Y942229D01*
X1464886Y940000D01*
X1465180Y937771D01*
X1466040Y935693D01*
X1467409Y933909D01*
X1469193Y932540D01*
X1471271Y931680D01*
X1473500Y931386D01*
X1486500D01*
X1488729Y931680D01*
X1490807Y932540D01*
X1492591Y933909D01*
X1493960Y935693D01*
X1494820Y937771D01*
X1495114Y940000D01*
X1494820Y942229D01*
X1493960Y944307D01*
X1492591Y946091D01*
X1490807Y947460D01*
X1488729Y948320D01*
X1486500Y948614D01*
D02*
G37*
%LPD*%
D10*
X1327500Y952000D02*
Y1085500D01*
Y928250D02*
Y952000D01*
X1161100Y968400D02*
Y985500D01*
Y968400D02*
X1177500Y952000D01*
X1327500D01*
Y928250D02*
X1342750Y913000D01*
Y877250D02*
Y913000D01*
Y877250D02*
X1351800Y868200D01*
X1383200D01*
X1110300Y963200D02*
Y985500D01*
X1276550Y938800D02*
X1292200D01*
X1328750Y902250D01*
Y857750D02*
Y902250D01*
Y857750D02*
X1369100Y817400D01*
X1383200D01*
X1065650Y1004750D02*
X1084900Y985500D01*
X919500Y1004750D02*
X1065650D01*
X884500Y1039750D02*
X919500Y1004750D01*
X856500Y1039750D02*
X884500D01*
X1099260Y1132260D02*
X1101500Y1134500D01*
X1334750Y1129000D02*
X1362500D01*
X1335000Y1078000D02*
X1362663D01*
X1327500Y1121750D02*
X1334750Y1129000D01*
X1327500Y1085500D02*
Y1121750D01*
Y1085500D02*
X1335000Y1078000D01*
X1362500Y1129000D02*
X1375500Y1142000D01*
X1352750D02*
X1375500D01*
X1395500Y1162000D01*
Y1179750D01*
X1362663Y1078000D02*
X1370290Y1070373D01*
Y1050710D02*
Y1070373D01*
Y1050710D02*
X1395000Y1026000D01*
X1396650Y965400D02*
X1403800D01*
X1385750Y954500D02*
X1396650Y965400D01*
X1385750Y870750D02*
Y954500D01*
X1383200Y868200D02*
X1385750Y870750D01*
X1396250Y868200D02*
X1434550D01*
X1383200Y792000D02*
X1398000D01*
X1396250Y868200D02*
X1404500Y859950D01*
Y798500D02*
Y859950D01*
X1398000Y792000D02*
X1404500Y798500D01*
X1252750Y525000D02*
X1325750D01*
X1403800Y940000D02*
X1426208D01*
X1512750Y853458D01*
Y835830D02*
Y853458D01*
X1493670Y816750D02*
X1512750Y835830D01*
X1443250Y816750D02*
X1493670D01*
X1406000Y779500D02*
X1443250Y816750D01*
X1371750Y779500D02*
X1406000D01*
X1356250Y764000D02*
X1371750Y779500D01*
X1356250Y636250D02*
Y764000D01*
X1326290Y606290D02*
X1356250Y636250D01*
X1367000Y792000D02*
X1383200D01*
X1342500Y767500D02*
X1367000Y792000D01*
X1326290Y525540D02*
Y606290D01*
X1325750Y525000D02*
X1326290Y525540D01*
X1237800Y729310D02*
Y751200D01*
X1220000Y769000D02*
X1237800Y751200D01*
X864000Y769000D02*
X1220000D01*
X842440Y747440D02*
X864000Y769000D01*
X842440Y679340D02*
Y747440D01*
X842100Y679000D02*
X842440Y679340D01*
X816700Y679000D02*
X829360Y666340D01*
X905640D01*
X918300Y679000D01*
X816700D02*
X818500Y680800D01*
Y794750D01*
X839000Y815250D01*
X1097000Y365500D02*
X1241500D01*
X1073250D02*
X1097000D01*
X1085400Y377100D02*
X1097000Y365500D01*
X1085400Y377100D02*
Y396470D01*
X929000Y365500D02*
X1073250D01*
X1060000Y378750D02*
X1073250Y365500D01*
X1060000Y378750D02*
Y396470D01*
X1273250Y445750D02*
X1280250D01*
X1246500D02*
X1273250D01*
X933000Y443500D02*
Y472670D01*
X918000Y428500D02*
X933000Y443500D01*
X918000Y376500D02*
Y428500D01*
Y376500D02*
X929000Y365500D01*
X1241500D02*
X1250000Y374000D01*
Y422500D01*
X1273250Y445750D01*
X933000Y472670D02*
Y557250D01*
X1263200Y372450D02*
Y396470D01*
X1245250Y354500D02*
X1263200Y372450D01*
X914500Y354500D02*
X1245250D01*
X755500Y374100D02*
X782850D01*
X799000Y390250D01*
Y609750D01*
X809750Y620500D01*
X869750D01*
X933000Y557250D01*
X831700Y602700D02*
X856050D01*
X883000Y575750D01*
Y386000D02*
Y575750D01*
Y386000D02*
X914500Y354500D01*
X839000Y815250D02*
X1200500D01*
X818750Y835500D02*
X839000Y815250D01*
X818750Y835500D02*
Y903773D01*
X826827Y911850D01*
X843350D01*
X870750Y939250D01*
X717100Y932410D02*
Y939250D01*
Y932410D02*
X755200Y894310D01*
X1282000Y621000D02*
X1310500D01*
X1241050D02*
X1282000D01*
X1200500Y815250D02*
X1282000Y733750D01*
Y621000D02*
Y733750D01*
X1434550Y868200D02*
X1478050D01*
X1501000Y845250D01*
Y844250D02*
Y845250D01*
X1445750Y845000D02*
Y857000D01*
X1434550Y868200D02*
X1445750Y857000D01*
X1342500Y636500D02*
Y767500D01*
X1318750Y612750D02*
X1342500Y636500D01*
X1237800Y614300D02*
Y617750D01*
X1241050Y621000D01*
X1310500D02*
X1318750Y612750D01*
Y587000D02*
Y612750D01*
X1304250Y572500D02*
X1318750Y587000D01*
X1304250Y545000D02*
Y572500D01*
Y589000D02*
Y608500D01*
X1252750Y537500D02*
X1304250Y589000D01*
X1252750Y525000D02*
Y537500D01*
X1009200Y557760D02*
Y577800D01*
X996460Y590540D02*
X1009200Y577800D01*
X996460Y590540D02*
Y716650D01*
X983800Y729310D02*
X996460Y716650D01*
X1009200Y614050D02*
Y633960D01*
Y614050D02*
X1022750Y600500D01*
X1224000D01*
X1237800Y614300D01*
X1224000Y537250D02*
Y600500D01*
Y537250D02*
X1256000Y505250D01*
X1266000D01*
X1295840Y475410D01*
X1237800Y539950D02*
Y557760D01*
Y539950D02*
X1252750Y525000D01*
X1463500Y452250D02*
Y499250D01*
X1451190Y439940D02*
X1463500Y452250D01*
X1427660Y439940D02*
X1451190D01*
X1237800Y454450D02*
Y472670D01*
Y454450D02*
X1246500Y445750D01*
X1280250D02*
X1295840Y461340D01*
X1263200Y396470D02*
Y408200D01*
X1282500Y427500D01*
X561042Y697708D02*
X572250Y686500D01*
X471350Y787400D02*
X561000Y697750D01*
X415500Y667600D02*
X436500Y688600D01*
X415500Y564750D02*
Y667600D01*
X603550Y646300D02*
X607450D01*
X576250Y619000D02*
X603550Y646300D01*
X576250Y552000D02*
Y619000D01*
Y552000D02*
X630250Y498000D01*
X572250Y676500D02*
X577250D01*
X471350Y787400D02*
Y794000D01*
X572250Y676500D02*
Y686500D01*
X412420Y712680D02*
Y866920D01*
Y712680D02*
X436500Y688600D01*
X434750Y545200D02*
X434900Y545350D01*
X511600Y570100D02*
X531250D01*
X486850Y545350D02*
X511600Y570100D01*
X434250Y544700D02*
X434750Y545200D01*
X434250Y483500D02*
Y544700D01*
X935227Y893250D02*
X953827Y911850D01*
X1035350D01*
X1118697Y1017250D02*
X1177250D01*
X1276550Y1116550D01*
Y1116600D01*
X1035350Y911850D02*
X1098500Y975000D01*
Y997053D01*
X1118697Y1017250D01*
X577250Y676500D02*
X607450Y646300D01*
X412420Y866920D02*
X439750Y894250D01*
X489750D01*
X502750Y881250D01*
X513710Y625473D02*
X520177Y631940D01*
X513710Y608460D02*
Y625473D01*
X520177Y631940D02*
X539003D01*
X548790Y641727D01*
Y685455D01*
X561042Y697708D01*
X434900Y545350D02*
X486850D01*
X434750Y570600D02*
X436650Y572500D01*
X477750D01*
X513710Y608460D01*
X1282500Y427500D02*
X1350750D01*
X1359190Y435940D01*
X1325750Y525000D02*
X1437750D01*
X1463500Y499250D01*
X1295840Y461340D02*
Y465340D01*
Y475410D01*
Y465340D02*
X1427660D01*
X537500Y825500D02*
X559750Y847750D01*
X472750Y825500D02*
X537500D01*
X456500Y809250D02*
X472750Y825500D01*
X456500Y800600D02*
Y809250D01*
X437250Y781350D02*
X456500Y800600D01*
X931000Y893250D02*
X935227D01*
X415500Y564750D02*
X434900Y545350D01*
X502750Y881250D02*
X538750D01*
X559750Y847750D02*
Y1081221D01*
X550110Y1090860D02*
X559750Y1081221D01*
X755200Y888300D02*
Y894310D01*
Y888300D02*
X828250Y815250D01*
X839000D01*
X1110300Y963200D02*
X1131000Y942500D01*
X1272850D01*
X1276550Y938800D01*
X1359750Y439940D02*
X1427660D01*
D11*
X963250Y512235D02*
Y499539D01*
X965789Y497000D01*
X970867D01*
X973407Y499539D01*
Y512235D01*
X978485Y509696D02*
X981024Y512235D01*
X986103D01*
X988642Y509696D01*
Y507157D01*
X986103Y504618D01*
X983563D01*
X986103D01*
X988642Y502078D01*
Y499539D01*
X986103Y497000D01*
X981024D01*
X978485Y499539D01*
X1361407Y1179696D02*
X1358867Y1182235D01*
X1353789D01*
X1351250Y1179696D01*
Y1169539D01*
X1353789Y1167000D01*
X1358867D01*
X1361407Y1169539D01*
X1366485D02*
X1369024Y1167000D01*
X1374103D01*
X1376642Y1169539D01*
Y1179696D01*
X1374103Y1182235D01*
X1369024D01*
X1366485Y1179696D01*
Y1177157D01*
X1369024Y1174617D01*
X1376642D01*
X1420907Y1038696D02*
X1418367Y1041235D01*
X1413289D01*
X1410750Y1038696D01*
Y1028539D01*
X1413289Y1026000D01*
X1418367D01*
X1420907Y1028539D01*
X1425985Y1038696D02*
X1428524Y1041235D01*
X1433603D01*
X1436142Y1038696D01*
Y1036157D01*
X1433603Y1033617D01*
X1436142Y1031078D01*
Y1028539D01*
X1433603Y1026000D01*
X1428524D01*
X1425985Y1028539D01*
Y1031078D01*
X1428524Y1033617D01*
X1425985Y1036157D01*
Y1038696D01*
X1428524Y1033617D02*
X1433603D01*
X1531407Y841446D02*
X1528867Y843985D01*
X1523789D01*
X1521250Y841446D01*
Y831289D01*
X1523789Y828750D01*
X1528867D01*
X1531407Y831289D01*
X1536485Y843985D02*
X1546642D01*
Y841446D01*
X1536485Y831289D01*
Y828750D01*
X1469157Y842696D02*
X1466617Y845235D01*
X1461539D01*
X1459000Y842696D01*
Y832539D01*
X1461539Y830000D01*
X1466617D01*
X1469157Y832539D01*
X1484392Y845235D02*
X1479313Y842696D01*
X1474235Y837617D01*
Y832539D01*
X1476774Y830000D01*
X1481853D01*
X1484392Y832539D01*
Y835078D01*
X1481853Y837617D01*
X1474235D01*
X719257Y965196D02*
X716718Y967735D01*
X711639D01*
X709100Y965196D01*
Y955039D01*
X711639Y952500D01*
X716718D01*
X719257Y955039D01*
X734492Y967735D02*
X724335D01*
Y960117D01*
X729413Y962657D01*
X731953D01*
X734492Y960117D01*
Y955039D01*
X731953Y952500D01*
X726874D01*
X724335Y955039D01*
X866157Y964946D02*
X863617Y967485D01*
X858539D01*
X856000Y964946D01*
Y954789D01*
X858539Y952250D01*
X863617D01*
X866157Y954789D01*
X878853Y952250D02*
Y967485D01*
X871235Y959867D01*
X881392D01*
X1288196Y603093D02*
X1290735Y605633D01*
Y610711D01*
X1288196Y613250D01*
X1278039D01*
X1275500Y610711D01*
Y605633D01*
X1278039Y603093D01*
X1288196Y598015D02*
X1290735Y595476D01*
Y590397D01*
X1288196Y587858D01*
X1285657D01*
X1283118Y590397D01*
Y592937D01*
Y590397D01*
X1280578Y587858D01*
X1278039D01*
X1275500Y590397D01*
Y595476D01*
X1278039Y598015D01*
X857407Y1068946D02*
X854867Y1071485D01*
X849789D01*
X847250Y1068946D01*
Y1058789D01*
X849789Y1056250D01*
X854867D01*
X857407Y1058789D01*
X872642Y1056250D02*
X862485D01*
X872642Y1066407D01*
Y1068946D01*
X870103Y1071485D01*
X865024D01*
X862485Y1068946D01*
X1493157Y518946D02*
X1490618Y521485D01*
X1485539D01*
X1483000Y518946D01*
Y508789D01*
X1485539Y506250D01*
X1490618D01*
X1493157Y508789D01*
X1498235Y506250D02*
X1503313D01*
X1500774D01*
Y521485D01*
X1498235Y518946D01*
X954657Y711985D02*
X949578D01*
X952117D01*
Y699289D01*
X949578Y696750D01*
X947039D01*
X944500Y699289D01*
X959735Y696750D02*
X964813D01*
X962274D01*
Y711985D01*
X959735Y709446D01*
X978157Y1199485D02*
X973078D01*
X975618D01*
Y1186789D01*
X973078Y1184250D01*
X970539D01*
X968000Y1186789D01*
X993392Y1184250D02*
X983235D01*
X993392Y1194407D01*
Y1196946D01*
X990853Y1199485D01*
X985774D01*
X983235Y1196946D01*
X433407Y763735D02*
X428328D01*
X430868D01*
Y751039D01*
X428328Y748500D01*
X425789D01*
X423250Y751039D01*
X438485Y761196D02*
X441024Y763735D01*
X446103D01*
X448642Y761196D01*
Y758657D01*
X446103Y756117D01*
X443563D01*
X446103D01*
X448642Y753578D01*
Y751039D01*
X446103Y748500D01*
X441024D01*
X438485Y751039D01*
X434157Y657735D02*
X429078D01*
X431618D01*
Y645039D01*
X429078Y642500D01*
X426539D01*
X424000Y645039D01*
X446853Y642500D02*
Y657735D01*
X439235Y650117D01*
X449392D01*
X1399765Y563157D02*
Y558078D01*
Y560617D01*
X1412461D01*
X1415000Y558078D01*
Y555539D01*
X1412461Y553000D01*
X1399765Y578392D02*
Y568235D01*
X1407383D01*
X1404843Y573313D01*
Y575853D01*
X1407383Y578392D01*
X1412461D01*
X1415000Y575853D01*
Y570774D01*
X1412461Y568235D01*
X437343Y424265D02*
X442422D01*
X439883D01*
Y436961D01*
X442422Y439500D01*
X444961D01*
X447500Y436961D01*
X422108Y424265D02*
X427187Y426804D01*
X432265Y431883D01*
Y436961D01*
X429726Y439500D01*
X424647D01*
X422108Y436961D01*
Y434422D01*
X424647Y431883D01*
X432265D01*
X432157Y744235D02*
X427078D01*
X429618D01*
Y731539D01*
X427078Y729000D01*
X424539D01*
X422000Y731539D01*
X437235Y744235D02*
X447392D01*
Y741696D01*
X437235Y731539D01*
Y729000D01*
X645485Y628382D02*
Y633461D01*
X642946Y636000D01*
X632789D01*
X630250Y633461D01*
Y628382D01*
X632789Y625843D01*
X642946D01*
X645485Y628382D01*
X625172Y620765D02*
X640407D01*
Y613147D01*
X637868Y610608D01*
X632789D01*
X630250Y613147D01*
Y620765D01*
Y605530D02*
X640407D01*
X645485Y600452D01*
X640407Y595373D01*
X630250D01*
X637868D01*
Y605530D01*
X630250Y590295D02*
X640407D01*
Y587756D01*
X637868Y585216D01*
X630250D01*
X637868D01*
X640407Y582677D01*
X637868Y580138D01*
X630250D01*
X625172Y575060D02*
X640407D01*
Y567442D01*
X637868Y564903D01*
X632789D01*
X630250Y567442D01*
Y575060D01*
Y559825D02*
Y554746D01*
Y557285D01*
X645485D01*
X642946Y559825D01*
X793250Y659000D02*
X778015D01*
Y666618D01*
X780554Y669157D01*
X785632D01*
X788172Y666618D01*
Y659000D01*
X793250Y674235D02*
Y679313D01*
Y676774D01*
X778015D01*
X780554Y674235D01*
X543539Y805593D02*
X553696D01*
X556235Y808132D01*
Y813211D01*
X553696Y815750D01*
X543539D01*
X541000Y813211D01*
Y808132D01*
X546078Y810672D02*
X541000Y805593D01*
Y808132D02*
X543539Y805593D01*
X541000Y800515D02*
Y795437D01*
Y797976D01*
X556235D01*
X553696Y800515D01*
X1012750Y1133250D02*
Y1148485D01*
X1020368D01*
X1022907Y1145946D01*
Y1140867D01*
X1020368Y1138328D01*
X1012750D01*
X1017828D02*
X1022907Y1133250D01*
X1027985D02*
X1033063D01*
X1030524D01*
Y1148485D01*
X1027985Y1145946D01*
X781000Y1098500D02*
X765765D01*
Y1106117D01*
X768304Y1108657D01*
X773382D01*
X775922Y1106117D01*
Y1098500D01*
Y1103578D02*
X781000Y1108657D01*
Y1123892D02*
Y1113735D01*
X770843Y1123892D01*
X768304D01*
X765765Y1121353D01*
Y1116274D01*
X768304Y1113735D01*
X484750Y682250D02*
X499985D01*
Y674632D01*
X497446Y672093D01*
X492368D01*
X489828Y674632D01*
Y682250D01*
Y677172D02*
X484750Y672093D01*
X497446Y667015D02*
X499985Y664476D01*
Y659397D01*
X497446Y656858D01*
X494907D01*
X492368Y659397D01*
Y661937D01*
Y659397D01*
X489828Y656858D01*
X487289D01*
X484750Y659397D01*
Y664476D01*
X487289Y667015D01*
X1506000Y693000D02*
X1521235D01*
Y685383D01*
X1518696Y682843D01*
X1513618D01*
X1511078Y685383D01*
Y693000D01*
Y687922D02*
X1506000Y682843D01*
Y670147D02*
X1521235D01*
X1513618Y677765D01*
Y667608D01*
X1449000Y691500D02*
X1464235D01*
Y683883D01*
X1461696Y681343D01*
X1456617D01*
X1454078Y683883D01*
Y691500D01*
Y686422D02*
X1449000Y681343D01*
X1464235Y666108D02*
Y676265D01*
X1456617D01*
X1459157Y671187D01*
Y668647D01*
X1456617Y666108D01*
X1451539D01*
X1449000Y668647D01*
Y673726D01*
X1451539Y676265D01*
X1568500Y757250D02*
X1583735D01*
Y749632D01*
X1581196Y747093D01*
X1576118D01*
X1573578Y749632D01*
Y757250D01*
Y752172D02*
X1568500Y747093D01*
X1583735Y731858D02*
X1581196Y736937D01*
X1576118Y742015D01*
X1571039D01*
X1568500Y739476D01*
Y734397D01*
X1571039Y731858D01*
X1573578D01*
X1576118Y734397D01*
Y742015D01*
X1327750Y482000D02*
X1312515D01*
Y489618D01*
X1315054Y492157D01*
X1320132D01*
X1322672Y489618D01*
Y482000D01*
Y487078D02*
X1327750Y492157D01*
X1312515Y497235D02*
Y507392D01*
X1315054D01*
X1325211Y497235D01*
X1327750D01*
X1503172Y1213612D02*
Y1228847D01*
X1510789D01*
X1513329Y1226308D01*
Y1221229D01*
X1510789Y1218690D01*
X1503172D01*
X1508250D02*
X1513329Y1213612D01*
X1518407Y1226308D02*
X1520946Y1228847D01*
X1526025D01*
X1528564Y1226308D01*
Y1223769D01*
X1526025Y1221229D01*
X1528564Y1218690D01*
Y1216151D01*
X1526025Y1213612D01*
X1520946D01*
X1518407Y1216151D01*
Y1218690D01*
X1520946Y1221229D01*
X1518407Y1223769D01*
Y1226308D01*
X1520946Y1221229D02*
X1526025D01*
X538750Y491250D02*
Y506485D01*
X546367D01*
X548907Y503946D01*
Y498867D01*
X546367Y496328D01*
X538750D01*
X543828D02*
X548907Y491250D01*
X553985Y493789D02*
X556524Y491250D01*
X561603D01*
X564142Y493789D01*
Y503946D01*
X561603Y506485D01*
X556524D01*
X553985Y503946D01*
Y501407D01*
X556524Y498867D01*
X564142D01*
X566000Y768500D02*
X581235D01*
Y760882D01*
X578696Y758343D01*
X573618D01*
X571078Y760882D01*
Y768500D01*
Y763422D02*
X566000Y758343D01*
Y753265D02*
Y748187D01*
Y750726D01*
X581235D01*
X578696Y753265D01*
Y740569D02*
X581235Y738030D01*
Y732952D01*
X578696Y730412D01*
X568539D01*
X566000Y732952D01*
Y738030D01*
X568539Y740569D01*
X578696D01*
X418750Y991750D02*
X433985D01*
Y984133D01*
X431446Y981593D01*
X426367D01*
X423828Y984133D01*
Y991750D01*
Y986672D02*
X418750Y981593D01*
Y968897D02*
Y973976D01*
X421289Y976515D01*
X426367D01*
X428907Y973976D01*
Y968897D01*
X426367Y966358D01*
X423828D01*
Y976515D01*
X418750Y961280D02*
Y956201D01*
Y958741D01*
X433985D01*
Y961280D01*
X418750Y948584D02*
Y943506D01*
Y946045D01*
X433985D01*
X431446Y948584D01*
X880637Y1194096D02*
X878098Y1196635D01*
X873019D01*
X870480Y1194096D01*
Y1191557D01*
X873019Y1189017D01*
X878098D01*
X880637Y1186478D01*
Y1183939D01*
X878098Y1181400D01*
X873019D01*
X870480Y1183939D01*
X885715Y1191557D02*
Y1183939D01*
X888254Y1181400D01*
X890793Y1183939D01*
X893333Y1181400D01*
X895872Y1183939D01*
Y1191557D01*
X900950Y1181400D02*
X906029D01*
X903489D01*
Y1196635D01*
X900950Y1194096D01*
X716765Y798750D02*
X729461D01*
X732000Y801289D01*
Y806367D01*
X729461Y808907D01*
X716765D01*
X732000Y813985D02*
Y819063D01*
Y816524D01*
X716765D01*
X719304Y813985D01*
X712765Y494500D02*
X725461D01*
X728000Y497039D01*
Y502118D01*
X725461Y504657D01*
X712765D01*
X728000Y519892D02*
Y509735D01*
X717843Y519892D01*
X715304D01*
X712765Y517353D01*
Y512274D01*
X715304Y509735D01*
X1272235Y609750D02*
X1259539D01*
X1257000Y607211D01*
Y602132D01*
X1259539Y599593D01*
X1272235D01*
X1257000Y586897D02*
X1272235D01*
X1264617Y594515D01*
Y584358D01*
X1298750Y1176235D02*
Y1163539D01*
X1301289Y1161000D01*
X1306367D01*
X1308907Y1163539D01*
Y1176235D01*
X1324142D02*
X1313985D01*
Y1168617D01*
X1319063Y1171157D01*
X1321603D01*
X1324142Y1168617D01*
Y1163539D01*
X1321603Y1161000D01*
X1316524D01*
X1313985Y1163539D01*
X1426500Y897735D02*
Y885039D01*
X1429039Y882500D01*
X1434117D01*
X1436657Y885039D01*
Y897735D01*
X1451892D02*
X1446813Y895196D01*
X1441735Y890117D01*
Y885039D01*
X1444274Y882500D01*
X1449353D01*
X1451892Y885039D01*
Y887578D01*
X1449353Y890117D01*
X1441735D01*
X923515Y968250D02*
X936211D01*
X938750Y970789D01*
Y975867D01*
X936211Y978407D01*
X923515D01*
Y983485D02*
Y993642D01*
X926054D01*
X936211Y983485D01*
X938750D01*
X1290500Y899985D02*
Y887289D01*
X1293039Y884750D01*
X1298118D01*
X1300657Y887289D01*
Y899985D01*
X1305735Y897446D02*
X1308274Y899985D01*
X1313353D01*
X1315892Y897446D01*
Y894907D01*
X1313353Y892367D01*
X1315892Y889828D01*
Y887289D01*
X1313353Y884750D01*
X1308274D01*
X1305735Y887289D01*
Y889828D01*
X1308274Y892367D01*
X1305735Y894907D01*
Y897446D01*
X1308274Y892367D02*
X1313353D01*
X1338000Y514235D02*
Y504078D01*
X1343078Y499000D01*
X1348157Y504078D01*
Y514235D01*
X1353235Y509157D02*
Y499000D01*
Y504078D01*
X1355774Y506618D01*
X1358313Y509157D01*
X1360853D01*
X1376088Y499000D02*
X1371009D01*
X1368470Y501539D01*
Y506618D01*
X1371009Y509157D01*
X1376088D01*
X1378627Y506618D01*
Y504078D01*
X1368470D01*
X1388784Y493922D02*
X1391323D01*
X1393862Y496461D01*
Y509157D01*
X1386244D01*
X1383705Y506618D01*
Y501539D01*
X1386244Y499000D01*
X1393862D01*
X1398940D02*
X1404019D01*
X1401479D01*
Y514235D01*
X1398940Y511696D01*
X726015Y985750D02*
X741250Y995907D01*
X726015D02*
X741250Y985750D01*
Y1000985D02*
Y1006063D01*
Y1003524D01*
X726015D01*
X728554Y1000985D01*
X1427226Y1165601D02*
X1437383Y1150366D01*
Y1165601D02*
X1427226Y1150366D01*
X1452618D02*
X1442461D01*
X1452618Y1160523D01*
Y1163062D01*
X1450079Y1165601D01*
X1445000D01*
X1442461Y1163062D01*
X714407Y407985D02*
X709328D01*
X711868D01*
Y395289D01*
X709328Y392750D01*
X706789D01*
X704250Y395289D01*
X719485Y405446D02*
X722024Y407985D01*
X727103D01*
X729642Y405446D01*
Y402907D01*
X727103Y400368D01*
X729642Y397828D01*
Y395289D01*
X727103Y392750D01*
X722024D01*
X719485Y395289D01*
Y397828D01*
X722024Y400368D01*
X719485Y402907D01*
Y405446D01*
X722024Y400368D02*
X727103D01*
X394407Y407235D02*
X389328D01*
X391867D01*
Y394539D01*
X389328Y392000D01*
X386789D01*
X384250Y394539D01*
X399485D02*
X402024Y392000D01*
X407103D01*
X409642Y394539D01*
Y404696D01*
X407103Y407235D01*
X402024D01*
X399485Y404696D01*
Y402157D01*
X402024Y399618D01*
X409642D01*
X388265Y1191907D02*
Y1186828D01*
Y1189368D01*
X400961D01*
X403500Y1186828D01*
Y1184289D01*
X400961Y1181750D01*
X403500Y1196985D02*
Y1202063D01*
Y1199524D01*
X388265D01*
X390804Y1196985D01*
X403500Y1209681D02*
Y1214759D01*
Y1212220D01*
X388265D01*
X390804Y1209681D01*
X539265Y1191657D02*
Y1186578D01*
Y1189118D01*
X551961D01*
X554500Y1186578D01*
Y1184039D01*
X551961Y1181500D01*
X554500Y1196735D02*
Y1201813D01*
Y1199274D01*
X539265D01*
X541804Y1196735D01*
Y1209431D02*
X539265Y1211970D01*
Y1217048D01*
X541804Y1219588D01*
X551961D01*
X554500Y1217048D01*
Y1211970D01*
X551961Y1209431D01*
X541804D01*
X1515265Y1001657D02*
Y996578D01*
Y999118D01*
X1527961D01*
X1530500Y996578D01*
Y994039D01*
X1527961Y991500D01*
X1530500Y1006735D02*
Y1011813D01*
Y1009274D01*
X1515265D01*
X1517804Y1006735D01*
X1530500Y1029588D02*
Y1019431D01*
X1520343Y1029588D01*
X1517804D01*
X1515265Y1027048D01*
Y1021970D01*
X1517804Y1019431D01*
X465235Y501000D02*
Y495922D01*
Y498461D01*
X450000D01*
Y501000D01*
Y495922D01*
Y488304D02*
X465235D01*
Y480687D01*
X462696Y478147D01*
X457617D01*
X455078Y480687D01*
Y488304D01*
Y483226D02*
X450000Y478147D01*
Y457834D02*
Y452756D01*
Y455295D01*
X460157D01*
Y457834D01*
X450000Y445138D02*
X460157D01*
Y437520D01*
X457617Y434981D01*
X450000D01*
X469985Y721000D02*
X454750D01*
Y710843D01*
X469985Y695608D02*
Y705765D01*
X454750D01*
Y695608D01*
X462368Y705765D02*
Y700687D01*
X469985Y690530D02*
X454750D01*
Y682912D01*
X457289Y680373D01*
X467446D01*
X469985Y682912D01*
Y690530D01*
X455000Y636000D02*
X470235D01*
X455000Y625843D01*
X470235D01*
X455000Y618226D02*
Y613147D01*
X457539Y610608D01*
X462617D01*
X465157Y613147D01*
Y618226D01*
X462617Y620765D01*
X457539D01*
X455000Y618226D01*
X470235Y595373D02*
X455000D01*
Y602991D01*
X457539Y605530D01*
X462617D01*
X465157Y602991D01*
Y595373D01*
X455000Y582677D02*
Y587756D01*
X457539Y590295D01*
X462617D01*
X465157Y587756D01*
Y582677D01*
X462617Y580138D01*
X460078D01*
Y590295D01*
X433696Y843843D02*
X436235Y846383D01*
Y851461D01*
X433696Y854000D01*
X431157D01*
X428618Y851461D01*
Y846383D01*
X426078Y843843D01*
X423539D01*
X421000Y846383D01*
Y851461D01*
X423539Y854000D01*
X421000Y836226D02*
Y831147D01*
X423539Y828608D01*
X428618D01*
X431157Y831147D01*
Y836226D01*
X428618Y838765D01*
X423539D01*
X421000Y836226D01*
Y823530D02*
X423539D01*
Y820991D01*
X421000D01*
Y823530D01*
X454500Y554593D02*
Y564750D01*
X464657Y554593D01*
X467196D01*
X469735Y557132D01*
Y562211D01*
X467196Y564750D01*
X1454500Y578750D02*
Y588907D01*
X1459578Y593985D01*
X1464657Y588907D01*
Y578750D01*
Y586367D01*
X1454500D01*
X1469735Y593985D02*
Y578750D01*
X1477353D01*
X1479892Y581289D01*
Y591446D01*
X1477353Y593985D01*
X1469735D01*
X1495127Y591446D02*
X1492588Y593985D01*
X1487509D01*
X1484970Y591446D01*
Y581289D01*
X1487509Y578750D01*
X1492588D01*
X1495127Y581289D01*
X1511250Y581750D02*
X1516328D01*
X1513789D01*
Y591907D01*
X1511250D01*
X1523946Y581750D02*
Y591907D01*
X1531563D01*
X1534103Y589367D01*
Y581750D01*
X1427265Y535000D02*
X1442500D01*
Y542617D01*
X1439961Y545157D01*
X1437422D01*
X1434883Y542617D01*
Y535000D01*
Y542617D01*
X1432343Y545157D01*
X1429804D01*
X1427265Y542617D01*
Y535000D01*
X1455304Y542907D02*
X1452765Y540368D01*
Y535289D01*
X1455304Y532750D01*
X1457843D01*
X1460383Y535289D01*
Y540368D01*
X1462922Y542907D01*
X1465461D01*
X1468000Y540368D01*
Y535289D01*
X1465461Y532750D01*
X1468000Y547985D02*
Y553063D01*
Y550524D01*
X1452765D01*
Y547985D01*
X1480554Y540157D02*
X1478015Y537617D01*
Y532539D01*
X1480554Y530000D01*
X1483093D01*
X1485632Y532539D01*
Y537617D01*
X1488172Y540157D01*
X1490711D01*
X1493250Y537617D01*
Y532539D01*
X1490711Y530000D01*
X1483093Y545235D02*
X1493250D01*
X1488172D01*
X1485632Y547774D01*
X1483093Y550313D01*
Y552853D01*
X1503265Y536000D02*
X1518500Y546157D01*
X1503265D02*
X1518500Y536000D01*
X1530015Y537250D02*
X1532554D01*
X1537632Y542328D01*
X1532554Y547407D01*
X1530015D01*
X1537632Y542328D02*
X1545250D01*
X1045618Y710235D02*
X1040539D01*
X1038000Y707696D01*
Y697539D01*
X1040539Y695000D01*
X1045618D01*
X1048157Y697539D01*
Y707696D01*
X1045618Y710235D01*
X1053235D02*
Y695000D01*
X1063392D01*
X1078627Y710235D02*
X1068470D01*
Y695000D01*
X1078627D01*
X1068470Y702617D02*
X1073549D01*
X1083705Y710235D02*
Y695000D01*
X1091323D01*
X1093862Y697539D01*
Y707696D01*
X1091323Y710235D01*
X1083705D01*
X1116715Y695000D02*
X1121793D01*
X1124332Y697539D01*
Y702617D01*
X1121793Y705157D01*
X1116715D01*
X1114175Y702617D01*
Y697539D01*
X1116715Y695000D01*
X1129410Y705157D02*
Y697539D01*
X1131950Y695000D01*
X1139567D01*
Y705157D01*
X1147185Y707696D02*
Y705157D01*
X1144645D01*
X1149724D01*
X1147185D01*
Y697539D01*
X1149724Y695000D01*
X1575054Y1010157D02*
X1572515Y1007617D01*
Y1002539D01*
X1575054Y1000000D01*
X1585211D01*
X1587750Y1002539D01*
Y1007617D01*
X1585211Y1010157D01*
X1587750Y1015235D02*
X1577593D01*
X1572515Y1020313D01*
X1577593Y1025392D01*
X1587750D01*
X1580132D01*
Y1015235D01*
X1587750Y1030470D02*
X1572515D01*
X1587750Y1040627D01*
X1572515D01*
Y1060940D02*
X1587750D01*
X1580132D01*
Y1071097D01*
X1572515D01*
X1587750D01*
X1575054Y846157D02*
X1572515Y843617D01*
Y838539D01*
X1575054Y836000D01*
X1585211D01*
X1587750Y838539D01*
Y843617D01*
X1585211Y846157D01*
X1587750Y851235D02*
X1577593D01*
X1572515Y856313D01*
X1577593Y861392D01*
X1587750D01*
X1580132D01*
Y851235D01*
X1587750Y866470D02*
X1572515D01*
X1587750Y876627D01*
X1572515D01*
Y896940D02*
X1587750D01*
Y907097D01*
D12*
X565253Y296250D02*
Y309579D01*
X558589Y302915D02*
X571918D01*
X547000Y302753D02*
X533671D01*
X1082079Y1201161D02*
X1078747Y1204494D01*
X1072082D01*
X1068750Y1201161D01*
Y1197829D01*
X1072082Y1194497D01*
X1078747D01*
X1082079Y1191164D01*
Y1187832D01*
X1078747Y1184500D01*
X1072082D01*
X1068750Y1187832D01*
X1098740Y1184500D02*
X1092076D01*
X1088744Y1187832D01*
Y1194497D01*
X1092076Y1197829D01*
X1098740D01*
X1102073Y1194497D01*
Y1191164D01*
X1088744D01*
X1108737Y1197829D02*
Y1184500D01*
Y1191164D01*
X1112069Y1194497D01*
X1115402Y1197829D01*
X1118734D01*
X1128731Y1184500D02*
X1135395D01*
X1132063D01*
Y1197829D01*
X1128731D01*
X1148724D02*
X1155389D01*
X1158721Y1194497D01*
Y1184500D01*
X1148724D01*
X1145392Y1187832D01*
X1148724Y1191164D01*
X1158721D01*
X1165386Y1184500D02*
X1172050D01*
X1168718D01*
Y1204494D01*
X1165386D01*
D13*
X767500Y995250D02*
D03*
X818300D02*
D03*
X949500Y1134500D02*
D03*
X1101500D02*
D03*
X630250Y498000D02*
D03*
X478250D02*
D03*
X856500Y1039750D02*
D03*
X920000D02*
D03*
X1450750Y1129250D02*
D03*
Y1078450D02*
D03*
X1526750Y1199000D02*
D03*
Y1047000D02*
D03*
X1562750Y672500D02*
D03*
Y824500D02*
D03*
X486500Y750250D02*
D03*
Y598250D02*
D03*
X870750Y939250D02*
D03*
X807250D02*
D03*
X717100D02*
D03*
X780600D02*
D03*
X1395000Y1026000D02*
D03*
Y1089500D02*
D03*
X1304250Y545000D02*
D03*
Y608500D02*
D03*
X1501500Y756750D02*
D03*
Y604750D02*
D03*
X1445250Y756000D02*
D03*
Y604000D02*
D03*
X819000Y1189250D02*
D03*
Y1037250D02*
D03*
X1445750Y845000D02*
D03*
Y781500D02*
D03*
X1501000Y844250D02*
D03*
Y780750D02*
D03*
X1359750Y438500D02*
D03*
Y590500D02*
D03*
X572250Y828500D02*
D03*
Y676500D02*
D03*
X1395500Y1179750D02*
D03*
Y1116250D02*
D03*
X1493740Y465490D02*
D03*
Y490740D02*
D03*
D14*
X1307000Y868200D02*
D03*
Y842800D02*
D03*
Y817400D02*
D03*
Y792000D02*
D03*
Y766600D02*
D03*
Y741200D02*
D03*
Y715800D02*
D03*
Y690400D02*
D03*
Y665000D02*
D03*
Y639600D02*
D03*
X1383200Y868200D02*
D03*
Y842800D02*
D03*
Y817400D02*
D03*
Y792000D02*
D03*
Y766600D02*
D03*
Y741200D02*
D03*
Y715800D02*
D03*
Y690400D02*
D03*
Y665000D02*
D03*
X831700Y374100D02*
D03*
Y399500D02*
D03*
Y424900D02*
D03*
Y450300D02*
D03*
Y475700D02*
D03*
Y501100D02*
D03*
Y526500D02*
D03*
Y551900D02*
D03*
Y577300D02*
D03*
Y602700D02*
D03*
X755500Y374100D02*
D03*
Y399500D02*
D03*
Y424900D02*
D03*
Y450300D02*
D03*
Y475700D02*
D03*
Y501100D02*
D03*
Y526500D02*
D03*
Y551900D02*
D03*
Y577300D02*
D03*
X1480000Y914600D02*
D03*
Y940000D02*
D03*
Y965400D02*
D03*
Y990800D02*
D03*
X1403800Y914600D02*
D03*
Y940000D02*
D03*
Y965400D02*
D03*
X1352750Y964200D02*
D03*
Y989600D02*
D03*
Y1015000D02*
D03*
Y1040400D02*
D03*
Y1065800D02*
D03*
Y1091200D02*
D03*
Y1116600D02*
D03*
Y1142000D02*
D03*
X1276550Y938800D02*
D03*
Y964200D02*
D03*
Y989600D02*
D03*
Y1015000D02*
D03*
Y1040400D02*
D03*
Y1065800D02*
D03*
Y1091200D02*
D03*
Y1116600D02*
D03*
Y1142000D02*
D03*
X531250Y646300D02*
D03*
Y620900D02*
D03*
Y595500D02*
D03*
Y570100D02*
D03*
X607450Y646300D02*
D03*
Y620900D02*
D03*
Y595500D02*
D03*
X534200Y957150D02*
D03*
X458000D02*
D03*
Y880950D02*
D03*
X534200D02*
D03*
Y855550D02*
D03*
X458000D02*
D03*
X534200Y1058750D02*
D03*
Y1007950D02*
D03*
X458000D02*
D03*
D15*
X1383200Y639600D02*
D03*
X755500Y602700D02*
D03*
X1403800Y990800D02*
D03*
X1352750Y938800D02*
D03*
X607450Y570100D02*
D03*
X458000Y1058750D02*
D03*
D16*
X933000Y396470D02*
D03*
X958400D02*
D03*
X983800D02*
D03*
X1009200D02*
D03*
X1034600D02*
D03*
X1060000D02*
D03*
X1085400D02*
D03*
X1110800D02*
D03*
X1136200D02*
D03*
X1161600D02*
D03*
X1187000D02*
D03*
X1212400D02*
D03*
X1237800D02*
D03*
X1263200D02*
D03*
X933000Y472670D02*
D03*
X958400D02*
D03*
X983800D02*
D03*
X1009200D02*
D03*
X1034600D02*
D03*
X1060000D02*
D03*
X1085400D02*
D03*
X1110800D02*
D03*
X1136200D02*
D03*
X1161600D02*
D03*
X1187000D02*
D03*
X1212400D02*
D03*
X1237800D02*
D03*
X496750Y794000D02*
D03*
X471350D02*
D03*
X1212400Y894310D02*
D03*
X1187000D02*
D03*
X1161600D02*
D03*
X1136200D02*
D03*
X1110800D02*
D03*
X1085400D02*
D03*
X1060000D02*
D03*
X1034600D02*
D03*
X1009200D02*
D03*
X983800D02*
D03*
X958400D02*
D03*
X933000D02*
D03*
X907600D02*
D03*
X882200D02*
D03*
X856800D02*
D03*
X831400D02*
D03*
X806000D02*
D03*
X780600D02*
D03*
X755200D02*
D03*
X1237800Y729310D02*
D03*
X1212400D02*
D03*
X1187000D02*
D03*
X1161600D02*
D03*
X1136200D02*
D03*
X1110800D02*
D03*
X1085400D02*
D03*
X1060000D02*
D03*
X1034600D02*
D03*
X1009200D02*
D03*
X983800D02*
D03*
X958400D02*
D03*
X933000D02*
D03*
X907600D02*
D03*
X882200D02*
D03*
X856800D02*
D03*
X831400D02*
D03*
X806000D02*
D03*
X780600D02*
D03*
X755200D02*
D03*
X1009200Y557760D02*
D03*
X1034600D02*
D03*
X1060000D02*
D03*
X1085400D02*
D03*
X1110800D02*
D03*
X1136200D02*
D03*
X1161600D02*
D03*
X1187000D02*
D03*
X1212400D02*
D03*
X1237800D02*
D03*
X1009200Y633960D02*
D03*
X1034600D02*
D03*
X1060000D02*
D03*
X1085400D02*
D03*
X1110800D02*
D03*
X1136200D02*
D03*
X1161600D02*
D03*
X1187000D02*
D03*
X1212400D02*
D03*
X1186500Y1061700D02*
D03*
X1161100D02*
D03*
X1135700D02*
D03*
X1110300D02*
D03*
X1084900D02*
D03*
X1059500D02*
D03*
X1034100D02*
D03*
X1008700D02*
D03*
X983300D02*
D03*
X957900D02*
D03*
X1186500Y985500D02*
D03*
X1161100D02*
D03*
X1135700D02*
D03*
X1110300D02*
D03*
X1084900D02*
D03*
X1059500D02*
D03*
X1034100D02*
D03*
X1008700D02*
D03*
X983300D02*
D03*
D17*
X1263200Y472670D02*
D03*
X522150Y794000D02*
D03*
X1237800Y894310D02*
D03*
Y633960D02*
D03*
X957900Y985500D02*
D03*
D18*
X1212400Y679000D02*
D03*
X1110800D02*
D03*
X1009200D02*
D03*
X1034600D02*
D03*
X1060000D02*
D03*
X1085400D02*
D03*
X1136200D02*
D03*
X1161600D02*
D03*
X1187000D02*
D03*
X983800D02*
D03*
X958400D02*
D03*
X816700D02*
D03*
X867500D02*
D03*
X918300D02*
D03*
Y653600D02*
D03*
X892900Y679000D02*
D03*
Y653600D02*
D03*
X867500D02*
D03*
X842100Y679000D02*
D03*
Y653600D02*
D03*
X436500Y714000D02*
D03*
X434250Y458100D02*
D03*
X434750Y570600D02*
D03*
Y621400D02*
D03*
Y596000D02*
D03*
X437250Y806750D02*
D03*
X1435550Y566000D02*
D03*
X1511750D02*
D03*
X1460950D02*
D03*
X1486350D02*
D03*
X861750Y1084750D02*
D03*
Y1160950D02*
D03*
X912550Y1084750D02*
D03*
X1039900Y1192500D02*
D03*
D19*
X1237800Y679000D02*
D03*
X816700Y653600D02*
D03*
X1537150Y566000D02*
D03*
X1014500Y1192500D02*
D03*
D20*
X436500Y688600D02*
D03*
X434250Y483500D02*
D03*
X434750Y545200D02*
D03*
X437250Y781350D02*
D03*
X912550Y1160950D02*
D03*
D21*
X1427660Y490740D02*
D03*
D22*
Y465340D02*
D03*
Y439940D02*
D03*
D23*
X1521500Y933750D02*
D03*
Y969750D02*
D03*
D24*
X549943Y400000D02*
D03*
X711974Y303378D02*
D03*
X401860Y1090860D02*
D03*
X550110D02*
D03*
M02*
