M48
;Layer_Color=9474304
;FILE_FORMAT=2:5
INCH,LZ
;TYPE=PLATED
T1F00S00C0.02756
T2F00S00C0.03000
T3F00S00C0.03937
T4F00S00C0.04331
T5F00S00C0.31496
%
T01
X0297441Y0147283
X0327441
X0367323Y0156091
X0377323
X0387323
X0397323
X0407323
X0417323
X0427323
X0437323
X0447323
X0457323
X0467323
X0477323
X0487323
X0497323
Y0186091
X0487323
X0477323
Y0219591
X0487323
Y0249591
X0477323
Y028713
X0487323
X0514567Y0291811
Y0301811
Y0311811
Y0281811
Y0271811
Y0261811
Y0251811
X0513484Y0239567
Y0214567
X0535335Y023248
X0544567Y0251811
Y0261811
Y0271811
Y0281811
Y0291811
Y0301811
Y0311811
X0569193Y0307677
X0568996Y0297638
X0591142Y0297933
X0590945Y0307382
X0615256Y0264764
X0591142Y0238091
X0568996Y0237795
X0588087Y0193205
Y0183264
X0535335Y0172638
X0467323Y0186091
X0457323
X0447323
X0437323
X0427323
X0417323
X0407323
X0397323
X0387323
X0377323
X0367323
X0327441Y0187284
Y0177284
Y0167283
Y0157283
Y0197283
Y0207283
Y0217284
Y0227284
Y0237283
X0327323Y028713
X0337323
X0347323
X0357323
X0367323
X0377323
X0387323
X0397323
X0407323
X0417323
X0427323
X0437323
X0447323
X0457323
X0467323
Y0249591
X0457323
X0447323
X0437323
X0427323
X0417323
X0407323
X0397323
Y0219591
X0407323
X0417323
X0427323
X0437323
X0447323
X0457323
X0467323
X0317323Y028713
X0307323
X0297323
X0297441Y0237283
Y0227284
Y0217284
Y0207283
Y0197283
Y0187284
Y0177284
Y0167283
Y0157283
X024813Y0196063
X0239154Y0224449
Y0234449
Y0244449
Y0254449
X0225295Y0266339
X0209154Y0254449
Y0244449
Y0234449
Y0224449
X0191535Y0235531
X0188287Y0196063
X0191535Y0295374
X0195571Y0312598
X0205571
X0185571
X0180315Y0346831
Y0376831
Y0396831
Y0416831
X0210315
Y0396831
Y0376831
Y0346831
X0225295Y0326181
X0297323Y0352091
X0307323
Y0369783
X0282323
X0302165Y0391831
X0322165
X0322441Y0408366
X0337205Y040935
X0362205
X0377126Y0417992
X0387126
X0397126
X0407126
X0417126
X0427126
X0437126
X0447126
X0457126
X0467126
Y0387992
X0457126
X0447126
X0437126
X0427126
X0417126
X0407126
X0397126
X0387126
X0377126
X0377323Y0352091
X0387323
X0397323
X0407323
X0417323
X0427323
X0437323
X0447323
X0457323
X0467323
X0367323
X0357323
X0347323
X0337323
X0327323
X0317323
X0317815Y0369783
X0342815
X0373819Y0446654
X0433661
X0322441Y0468209
X0502579Y0449606
Y0439606
Y0429606
Y0419606
Y0409606
Y0399606
Y0389606
Y0379606
Y0369606
X0532579
Y0379606
Y0389606
Y0399606
Y0409606
Y0419606
Y0429606
Y0439606
Y0449606
X0549409Y0439468
X0549213Y0428937
Y0403937
X0552677Y0390079
Y0380079
Y0370079
Y0360079
X0544567Y0341811
Y0331811
Y0321811
X0514567
Y0331811
Y0341811
X0487323Y0352091
X0477323
X0569193Y0332677
X0590945Y0332382
X0615256Y0324606
X0582677Y0360079
Y0370079
Y0380079
Y0390079
X0601083Y0412205
X0571161Y0424587
Y0444587
X0549409Y0464468
X0601083Y0472047
T02
X0170965Y0180354
Y0190354
X0339272Y0427067
X0359272
Y0457067
X0339272
X039941Y0469488
X040941
T03
X0280305Y011944
X0477323Y0267323
X0487323
X0565177Y0222835
X0575177
X0585177
X0595177
X0605177
X0467323Y0267323
X0457323
X0447323
X0437323
X0427323
X0417323
X0407323
X0397323
X0387323
X0377323
X0361535
Y0257323
X0351535
Y0267323
X0341535
Y0257323
X0331535
Y0267323
X0321535
Y0257323
X0171161Y0244646
Y0234646
Y0224646
Y0214646
X017185Y0271102
Y0281102
X0172146Y0307618
X0216513Y015748
X0210315Y0336831
X0180315
X0172146Y0317618
X0158213Y0429473
X0216579
X0599016Y0381791
Y0367618
T04
X0562071Y0173205
Y0183205
Y0193205
T05
X0185827Y0139764
X025128Y0139764
X0241634Y0454528
X0183268
M30
