M48
;Layer_Color=9474304
;FILE_FORMAT=4:4
METRIC,LZ
;TYPE=PLATED
T1F00S00C0.7000
T2F00S00C0.7620
T3F00S00C1.0000
T4F00S00C1.1000
T5F00S00C8.0000
%
T01
X007555Y003741
X008317
X00933Y0039647
X009584
X009838
X010092
X010346
X0106
X010854
X011108
X011362
X011616
X01187
X012124
X012378
X012632
Y0047267
X012378
X012124
Y0055776
X012378
Y0063396
X012124
Y0072931
X012378
X01307Y007412
Y007666
Y00792
Y007158
Y006904
Y00665
Y006396
X0130425Y006085
Y00545
X0135975Y005905
X013832Y006396
Y00665
Y006904
Y007158
Y007412
Y007666
Y00792
X0144575Y007815
X0144525Y00756
X015015Y0075675
X01501Y0078075
X0156275Y006725
X015015Y0060475
X0144525Y00604
X0149374Y0049074
Y0046549
X0135975Y004385
X01187Y0047267
X011616
X011362
X011108
X010854
X0106
X010346
X010092
X009838
X009584
X00933
X008317Y004757
Y004503
Y004249
Y003995
Y005011
Y005265
Y005519
Y005773
Y006027
X008314Y0072931
X008568
X008822
X009076
X00933
X009584
X009838
X010092
X010346
X0106
X010854
X011108
X011362
X011616
X01187
Y0063396
X011616
X011362
X011108
X010854
X0106
X010346
X010092
Y0055776
X010346
X0106
X010854
X011108
X011362
X011616
X01187
X00806Y0072931
X007806
X007552
X007555Y006027
Y005773
Y005519
Y005265
Y005011
Y004757
Y004503
Y004249
Y003995
X0063025Y00498
X0060745Y005701
Y005955
Y006209
Y006463
X0057225Y006765
X0053125Y006463
Y006209
Y005955
Y005701
X004865Y0059825
X0047825Y00498
X004865Y0075025
X0049675Y00794
X0052215
X0047135
X00458Y0088095
Y0095715
Y0100795
Y0105875
X005342
Y0100795
Y0095715
Y0088095
X0057225Y008285
X007552Y0089431
X007806
Y0093925
X007171
X007675Y0099525
X008183
X00819Y0103725
X008565Y0103975
X0092
X009579Y010617
X009833
X010087
X010341
X010595
X010849
X011103
X011357
X011611
X011865
Y009855
X011611
X011357
X011103
X010849
X010595
X010341
X010087
X009833
X009579
X009584Y0089431
X009838
X010092
X010346
X0106
X010854
X011108
X011362
X011616
X01187
X00933
X009076
X008822
X008568
X008314
X00806
X0080725Y0093925
X0087075
X009495Y011345
X011015
X00819Y0118925
X0127655Y01142
Y011166
Y010912
Y010658
Y010404
Y01015
Y009896
Y009642
Y009388
X0135275
Y009642
Y009896
Y01015
Y010404
Y010658
Y010912
Y011166
Y01142
X013955Y0111625
X01395Y010895
Y01026
X014038Y009908
Y009654
Y0094
Y009146
X013832Y008682
Y008428
Y008174
X01307
Y008428
Y008682
X012378Y0089431
X012124
X0144575Y00845
X01501Y0084425
X0156275Y008245
X0148Y009146
Y0094
Y009654
Y009908
X0152675Y01047
X0145075Y0107845
Y0112925
X013955Y0117975
X0152675Y01199
T02
X0043425Y004581
Y004835
X0086175Y0108475
X0091255
Y0116095
X0086175
X010145Y011925
X010399
T03
X00711974Y00303378
X012124Y00679
X012378
X0143555Y00566
X0146095
X0148635
X0151175
X0153715
X01187Y00679
X011616
X011362
X011108
X010854
X0106
X010346
X010092
X009838
X009584
X009183
Y006536
X008929
Y00679
X008675
Y006536
X008421
Y00679
X008167
Y006536
X0043475Y006214
Y00596
Y005706
Y005452
X004365Y006886
Y00714
X0043725Y0078135
X00549943Y004
X005342Y0085555
X00458
X0043725Y0080675
X0040186Y0109086
X0055011
X015215Y0096975
Y0093375
T04
X0142766Y0043994
Y0046534
Y0049074
T05
X00472Y00355
X0063825Y00355
X0061375Y011545
X004655
M30
